<svg xmlns="http://www.w3.org/2000/svg" shape-rendering="crispEdges" width="24" height="24" viewBox="0 0 24 24"><path d="M0 0v1h24v-1" fill="#e2e3e5ff"/><path d="M0 1v1h24v-1" fill="#e2e3e5ff"/><path d="M0 2v1h3v-1" fill="#e2e3e5ff"/><path d="M3 2v1h3v-1" fill="#010102ff"/><path d="M6 2v1h3v-1" fill="#e2e3e5ff"/><path d="M9 2v1h6v-1" fill="#010102ff"/><path d="M15 2v1h9v-1" fill="#e2e3e5ff"/><path d="M0 3v1h2v-1" fill="#e2e3e5ff"/><path d="M2 3v1h1v-1" fill="#010102ff"/><path d="M3 3v1h3v-1" fill="#efe697ff"/><path d="M6 3v1h1v-1" fill="#010102ff"/><path d="M7 3v1h1v-1" fill="#e2e3e5ff"/><path d="M8 3v1h1v-1" fill="#010102ff"/><path d="M9 3v1h6v-1" fill="#dbb049ff"/><path d="M15 3v1h1v-1" fill="#010102ff"/><path d="M16 3v1h8v-1" fill="#e2e3e5ff"/><path d="M0 4v1h1v-1" fill="#1e30a0ff"/><path d="M1 4v1h1v-1" fill="#010102ff"/><path d="M2 4v1h2v-1" fill="#dbb049ff"/><path d="M4 4v1h2v-1" fill="#efe697ff"/><path d="M6 4v1h1v-1" fill="#dbb049ff"/><path d="M7 4v1h1v-1" fill="#010102ff"/><path d="M8 4v1h1v-1" fill="#dbb049ff"/><path d="M9 4v1h6v-1" fill="#6b3e34ff"/><path d="M15 4v1h1v-1" fill="#dbb049ff"/><path d="M16 4v1h1v-1" fill="#010102ff"/><path d="M17 4v1h1v-1" fill="#1b2e9dff"/><path d="M18 4v1h1v-1" fill="#1e30a0ff"/><path d="M19 4v1h1v-1" fill="#172a98ff"/><path d="M20 4v1h1v-1" fill="#1e31a1ff"/><path d="M21 4v1h1v-1" fill="#1f32a2ff"/><path d="M22 4v1h1v-1" fill="#192b9aff"/><path d="M23 4v1h1v-1" fill="#1a2d9cff"/><path d="M0 5v1h1v-1" fill="#253baeff"/><path d="M1 5v1h1v-1" fill="#010102ff"/><path d="M2 5v1h3v-1" fill="#dbb049ff"/><path d="M5 5v1h1v-1" fill="#efe697ff"/><path d="M6 5v1h1v-1" fill="#010102ff"/><path d="M7 5v1h1v-1" fill="#dbb049ff"/><path d="M8 5v1h3v-1" fill="#6b3e34ff"/><path d="M11 5v1h3v-1" fill="#d5c59dff"/><path d="M14 5v1h2v-1" fill="#6b3e34ff"/><path d="M16 5v1h1v-1" fill="#dbb049ff"/><path d="M17 5v1h1v-1" fill="#010102ff"/><path d="M18 5v1h1v-1" fill="#1d33a6ff"/><path d="M19 5v1h1v-1" fill="#253baeff"/><path d="M20 5v1h3v-1" fill="#263cafff"/><path d="M23 5v1h1v-1" fill="#1a2d9cff"/><path d="M0 6v1h1v-1" fill="#273db0ff"/><path d="M1 6v1h1v-1" fill="#010102ff"/><path d="M2 6v1h1v-1" fill="#273db0ff"/><path d="M3 6v1h1v-1" fill="#010102ff"/><path d="M4 6v1h2v-1" fill="#dbb049ff"/><path d="M6 6v1h1v-1" fill="#010102ff"/><path d="M7 6v1h1v-1" fill="#dbb049ff"/><path d="M8 6v1h2v-1" fill="#6b3e34ff"/><path d="M10 6v1h1v-1" fill="#d5c59dff"/><path d="M11 6v1h1v-1" fill="#4c2224ff"/><path d="M12 6v1h1v-1" fill="#d5c59dff"/><path d="M13 6v1h1v-1" fill="#58292bff"/><path d="M14 6v1h1v-1" fill="#d5c59dff"/><path d="M15 6v1h2v-1" fill="#6b3e34ff"/><path d="M17 6v1h1v-1" fill="#dbb049ff"/><path d="M18 6v1h1v-1" fill="#010102ff"/><path d="M19 6v1h1v-1" fill="#2036a9ff"/><path d="M20 6v1h1v-1" fill="#263cafff"/><path d="M21 6v1h2v-1" fill="#2036a9ff"/><path d="M23 6v1h1v-1" fill="#1e30a0ff"/><path d="M0 7v1h1v-1" fill="#1c2f9eff"/><path d="M1 7v1h3v-1" fill="#1a2c9bff"/><path d="M4 7v1h3v-1" fill="#010102ff"/><path d="M7 7v1h1v-1" fill="#dbb049ff"/><path d="M8 7v1h1v-1" fill="#4c2224ff"/><path d="M9 7v1h1v-1" fill="#6b3e34ff"/><path d="M10 7v1h5v-1" fill="#d5c59dff"/><path d="M15 7v1h3v-1" fill="#6b3e34ff"/><path d="M18 7v1h1v-1" fill="#dbb049ff"/><path d="M19 7v1h1v-1" fill="#010102ff"/><path d="M20 7v1h1v-1" fill="#1e31a1ff"/><path d="M21 7v1h1v-1" fill="#1a2d9cff"/><path d="M22 7v1h1v-1" fill="#192b9aff"/><path d="M23 7v1h1v-1" fill="#172a98ff"/><path d="M0 8v1h1v-1" fill="#1f32a2ff"/><path d="M1 8v1h2v-1" fill="#1a2d9cff"/><path d="M3 8v1h1v-1" fill="#010102ff"/><path d="M4 8v1h1v-1" fill="#6b3e34ff"/><path d="M5 8v1h1v-1" fill="#010102ff"/><path d="M6 8v1h1v-1" fill="#dbb049ff"/><path d="M7 8v1h3v-1" fill="#4c2224ff"/><path d="M10 8v1h1v-1" fill="#6b3e34ff"/><path d="M11 8v1h1v-1" fill="#d5c59dff"/><path d="M12 8v1h1v-1" fill="#6b3e34ff"/><path d="M13 8v1h1v-1" fill="#d5c59dff"/><path d="M14 8v1h5v-1" fill="#6b3e34ff"/><path d="M19 8v1h1v-1" fill="#dbb049ff"/><path d="M20 8v1h1v-1" fill="#010102ff"/><path d="M21 8v1h1v-1" fill="#1d309fff"/><path d="M22 8v1h1v-1" fill="#1a2c9bff"/><path d="M23 8v1h1v-1" fill="#1c2f9eff"/><path d="M0 9v1h1v-1" fill="#1e34a7ff"/><path d="M1 9v1h1v-1" fill="#263cafff"/><path d="M2 9v1h1v-1" fill="#010102ff"/><path d="M3 9v1h1v-1" fill="#6b3e34ff"/><path d="M4 9v1h1v-1" fill="#2e0c1dff"/><path d="M5 9v1h1v-1" fill="#dbb049ff"/><path d="M6 9v1h14v-1" fill="#4c2224ff"/><path d="M20 9v1h1v-1" fill="#010102ff"/><path d="M21 9v1h1v-1" fill="#1a2c9bff"/><path d="M22 9v1h1v-1" fill="#2033a2ff"/><path d="M23 9v1h1v-1" fill="#1a2c9bff"/><path d="M0 10v1h1v-1" fill="#2036a9ff"/><path d="M1 10v1h1v-1" fill="#1e34a7ff"/><path d="M2 10v1h1v-1" fill="#010102ff"/><path d="M3 10v1h2v-1" fill="#dbb049ff"/><path d="M5 10v1h3v-1" fill="#4c2224ff"/><path d="M8 10v1h8v-1" fill="#010102ff"/><path d="M16 10v1h3v-1" fill="#4c2224ff"/><path d="M19 10v1h1v-1" fill="#010102ff"/><path d="M20 10v1h1v-1" fill="#2036a9ff"/><path d="M21 10v1h2v-1" fill="#2238abff"/><path d="M23 10v1h1v-1" fill="#2137aaff"/><path d="M0 11v1h1v-1" fill="#253baeff"/><path d="M1 11v1h1v-1" fill="#2137aaff"/><path d="M2 11v1h1v-1" fill="#010102ff"/><path d="M3 11v1h4v-1" fill="#4c2224ff"/><path d="M7 11v1h1v-1" fill="#010102ff"/><path d="M8 11v1h1v-1" fill="#66391aff"/><path d="M9 11v1h7v-1" fill="#713f1dff"/><path d="M16 11v1h3v-1" fill="#010102ff"/><path d="M19 11v1h1v-1" fill="#2036a9ff"/><path d="M20 11v1h1v-1" fill="#273db0ff"/><path d="M21 11v1h1v-1" fill="#2238abff"/><path d="M22 11v1h1v-1" fill="#283eb1ff"/><path d="M23 11v1h1v-1" fill="#2137aaff"/><path d="M0 12v1h1v-1" fill="#2036a9ff"/><path d="M1 12v1h2v-1" fill="#2339acff"/><path d="M3 12v1h1v-1" fill="#010102ff"/><path d="M4 12v1h2v-1" fill="#4c2224ff"/><path d="M6 12v1h1v-1" fill="#010102ff"/><path d="M7 12v1h1v-1" fill="#713f1dff"/><path d="M8 12v1h1v-1" fill="#66391aff"/><path d="M9 12v1h2v-1" fill="#562600ff"/><path d="M11 12v1h3v-1" fill="#713f1dff"/><path d="M14 12v1h2v-1" fill="#562600ff"/><path d="M16 12v1h1v-1" fill="#000000ff"/><path d="M17 12v1h1v-1" fill="#192b9aff"/><path d="M18 12v1h1v-1" fill="#1c2f9eff"/><path d="M19 12v1h1v-1" fill="#1b2e9dff"/><path d="M20 12v1h1v-1" fill="#1f32a2ff"/><path d="M21 12v1h1v-1" fill="#182b99ff"/><path d="M22 12v1h1v-1" fill="#1a2d9cff"/><path d="M23 12v1h1v-1" fill="#172a98ff"/><path d="M0 13v1h1v-1" fill="#1a2d9cff"/><path d="M1 13v1h2v-1" fill="#192b9aff"/><path d="M3 13v1h1v-1" fill="#2339acff"/><path d="M4 13v1h2v-1" fill="#010102ff"/><path d="M6 13v1h1v-1" fill="#000000ff"/><path d="M7 13v1h1v-1" fill="#713f1dff"/><path d="M8 13v1h1v-1" fill="#66391aff"/><path d="M9 13v1h1v-1" fill="#000000ff"/><path d="M10 13v1h1v-1" fill="#723709ff"/><path d="M11 13v1h3v-1" fill="#713f1dff"/><path d="M14 13v1h1v-1" fill="#000000ff"/><path d="M15 13v1h1v-1" fill="#723709ff"/><path d="M16 13v1h1v-1" fill="#000000ff"/><path d="M17 13v1h2v-1" fill="#2137aaff"/><path d="M19 13v1h1v-1" fill="#2238abff"/><path d="M20 13v1h1v-1" fill="#253baeff"/><path d="M21 13v1h1v-1" fill="#1d33a6ff"/><path d="M22 13v1h1v-1" fill="#2137aaff"/><path d="M23 13v1h1v-1" fill="#263cafff"/><path d="M0 14v1h1v-1" fill="#253baeff"/><path d="M1 14v1h1v-1" fill="#243aadff"/><path d="M2 14v1h1v-1" fill="#263cafff"/><path d="M3 14v1h2v-1" fill="#1e34a7ff"/><path d="M5 14v1h1v-1" fill="#1f35a8ff"/><path d="M6 14v1h1v-1" fill="#ffeb50ff"/><path d="M7 14v1h1v-1" fill="#fff8a5ff"/><path d="M8 14v1h1v-1" fill="#66391aff"/><path d="M9 14v1h7v-1" fill="#713f1dff"/><path d="M16 14v1h1v-1" fill="#000000ff"/><path d="M17 14v1h1v-1" fill="#263cafff"/><path d="M18 14v1h1v-1" fill="#1b2e9dff"/><path d="M19 14v1h1v-1" fill="#1e30a0ff"/><path d="M20 14v1h1v-1" fill="#1b2e9dff"/><path d="M21 14v1h1v-1" fill="#192b9aff"/><path d="M22 14v1h1v-1" fill="#182b99ff"/><path d="M23 14v1h1v-1" fill="#192b9aff"/><path d="M0 15v1h1v-1" fill="#2035a8ff"/><path d="M1 15v1h1v-1" fill="#263cafff"/><path d="M2 15v1h1v-1" fill="#1f35a8ff"/><path d="M3 15v1h1v-1" fill="#2238abff"/><path d="M4 15v1h1v-1" fill="#1e34a7ff"/><path d="M5 15v1h1v-1" fill="#253baeff"/><path d="M6 15v1h1v-1" fill="#ffd620ff"/><path d="M7 15v1h1v-1" fill="#ffec5bff"/><path d="M8 15v1h1v-1" fill="#66391aff"/><path d="M9 15v1h7v-1" fill="#713f1dff"/><path d="M16 15v1h1v-1" fill="#000000ff"/><path d="M17 15v1h1v-1" fill="#1e34a7ff"/><path d="M18 15v1h1v-1" fill="#2238abff"/><path d="M19 15v1h1v-1" fill="#263cafff"/><path d="M20 15v1h1v-1" fill="#1d33a6ff"/><path d="M21 15v1h1v-1" fill="#2339acff"/><path d="M22 15v1h2v-1" fill="#1e34a7ff"/><path d="M0 16v1h1v-1" fill="#263cafff"/><path d="M1 16v1h2v-1" fill="#1a2c9bff"/><path d="M3 16v1h1v-1" fill="#192b9aff"/><path d="M4 16v1h1v-1" fill="#1e31a1ff"/><path d="M5 16v1h1v-1" fill="#1a2c9bff"/><path d="M6 16v1h1v-1" fill="#1e31a1ff"/><path d="M7 16v1h1v-1" fill="#000000ff"/><path d="M8 16v1h1v-1" fill="#66391aff"/><path d="M9 16v1h3v-1" fill="#713f1dff"/><path d="M12 16v1h1v-1" fill="#000000ff"/><path d="M13 16v1h3v-1" fill="#713f1dff"/><path d="M16 16v1h1v-1" fill="#000000ff"/><path d="M17 16v1h1v-1" fill="#1a2c9bff"/><path d="M18 16v1h1v-1" fill="#172a98ff"/><path d="M19 16v1h1v-1" fill="#1a2c9bff"/><path d="M20 16v1h1v-1" fill="#172a98ff"/><path d="M21 16v1h1v-1" fill="#1e31a1ff"/><path d="M22 16v1h2v-1" fill="#1a2c9bff"/><path d="M0 17v1h1v-1" fill="#1e31a1ff"/><path d="M1 17v1h1v-1" fill="#192b9aff"/><path d="M2 17v1h1v-1" fill="#263cafff"/><path d="M3 17v1h1v-1" fill="#2339acff"/><path d="M4 17v1h1v-1" fill="#2036a9ff"/><path d="M5 17v1h1v-1" fill="#263cafff"/><path d="M6 17v1h1v-1" fill="#2036a9ff"/><path d="M7 17v1h1v-1" fill="#000000ff"/><path d="M8 17v1h1v-1" fill="#66391aff"/><path d="M9 17v1h7v-1" fill="#713f1dff"/><path d="M16 17v1h1v-1" fill="#000000ff"/><path d="M17 17v1h2v-1" fill="#2036a9ff"/><path d="M19 17v1h1v-1" fill="#263cafff"/><path d="M20 17v1h1v-1" fill="#1e30a0ff"/><path d="M21 17v1h1v-1" fill="#182b99ff"/><path d="M22 17v1h1v-1" fill="#172a98ff"/><path d="M23 17v1h1v-1" fill="#1a2c9bff"/><path d="M0 18v1h3v-1" fill="#1a2c9bff"/><path d="M3 18v1h1v-1" fill="#192b9aff"/><path d="M4 18v1h1v-1" fill="#1c2f9eff"/><path d="M5 18v1h1v-1" fill="#1e31a1ff"/><path d="M6 18v1h1v-1" fill="#1a2c9bff"/><path d="M7 18v1h1v-1" fill="#000000ff"/><path d="M8 18v1h1v-1" fill="#66391aff"/><path d="M9 18v1h2v-1" fill="#713f1dff"/><path d="M11 18v1h3v-1" fill="#000000ff"/><path d="M14 18v1h2v-1" fill="#713f1dff"/><path d="M16 18v1h1v-1" fill="#000000ff"/><path d="M17 18v1h1v-1" fill="#1e30a0ff"/><path d="M18 18v1h1v-1" fill="#182b99ff"/><path d="M19 18v1h2v-1" fill="#1a2c9bff"/><path d="M21 18v1h1v-1" fill="#1e30a0ff"/><path d="M22 18v1h2v-1" fill="#172a98ff"/><path d="M0 19v1h1v-1" fill="#1a2d9cff"/><path d="M1 19v1h1v-1" fill="#1c2f9eff"/><path d="M2 19v1h4v-1" fill="#1a2c9bff"/><path d="M6 19v1h1v-1" fill="#2339acff"/><path d="M7 19v1h1v-1" fill="#172a98ff"/><path d="M8 19v1h1v-1" fill="#000000ff"/><path d="M9 19v1h1v-1" fill="#66391aff"/><path d="M10 19v1h5v-1" fill="#713f1dff"/><path d="M15 19v1h1v-1" fill="#000000ff"/><path d="M16 19v1h1v-1" fill="#1e30a0ff"/><path d="M17 19v1h1v-1" fill="#182b99ff"/><path d="M18 19v1h1v-1" fill="#1a2c9bff"/><path d="M19 19v1h3v-1" fill="#182b99ff"/><path d="M22 19v1h1v-1" fill="#1a2c9bff"/><path d="M23 19v1h1v-1" fill="#2036a9ff"/><path d="M0 20v1h8v-1" fill="#e2e3e5ff"/><path d="M8 20v1h1v-1" fill="#000000ff"/><path d="M9 20v1h1v-1" fill="#66391aff"/><path d="M10 20v1h1v-1" fill="#000000ff"/><path d="M11 20v1h3v-1" fill="#713f1dff"/><path d="M14 20v1h1v-1" fill="#000000ff"/><path d="M15 20v1h9v-1" fill="#e2e3e5ff"/><path d="M0 21v1h8v-1" fill="#e2e3e5ff"/><path d="M8 21v1h1v-1" fill="#000000ff"/><path d="M9 21v1h2v-1" fill="#66391aff"/><path d="M11 21v1h3v-1" fill="#000000ff"/><path d="M14 21v1h10v-1" fill="#e2e3e5ff"/><path d="M0 22v1h8v-1" fill="#e2e3e5ff"/><path d="M8 22v1h1v-1" fill="#000000ff"/><path d="M9 22v1h3v-1" fill="#66391aff"/><path d="M12 22v1h1v-1" fill="#000000ff"/><path d="M13 22v1h11v-1" fill="#e2e3e5ff"/><path d="M0 23v1h8v-1" fill="#e2e3e5ff"/><path d="M8 23v1h1v-1" fill="#000000ff"/><path d="M9 23v1h3v-1" fill="#66391aff"/><path d="M12 23v1h1v-1" fill="#000000ff"/><path d="M13 23v1h11v-1" fill="#e2e3e5ff"/></svg>