<svg xmlns="http://www.w3.org/2000/svg" shape-rendering="crispEdges" width="24" height="24" viewBox="0 0 24 24"><path d="M0 0v1h24v-1" fill="#f6be11ff"/><path d="M0 1v1h3v-1" fill="#f6be11ff"/><path d="M3 1v1h4v-1" fill="#000000ff"/><path d="M7 1v1h1v-1" fill="#f6be11ff"/><path d="M8 1v1h6v-1" fill="#000000ff"/><path d="M14 1v1h1v-1" fill="#f6be11ff"/><path d="M15 1v1h4v-1" fill="#000000ff"/><path d="M19 1v1h5v-1" fill="#f6be11ff"/><path d="M0 2v1h2v-1" fill="#f6be11ff"/><path d="M2 2v1h1v-1" fill="#000000ff"/><path d="M3 2v1h4v-1" fill="#79331aff"/><path d="M7 2v1h1v-1" fill="#000000ff"/><path d="M8 2v1h6v-1" fill="#79331aff"/><path d="M14 2v1h1v-1" fill="#000000ff"/><path d="M15 2v1h4v-1" fill="#79331aff"/><path d="M19 2v1h1v-1" fill="#000000ff"/><path d="M20 2v1h4v-1" fill="#f6be11ff"/><path d="M0 3v1h1v-1" fill="#f6be11ff"/><path d="M1 3v1h1v-1" fill="#000000ff"/><path d="M2 3v1h2v-1" fill="#79331aff"/><path d="M4 3v1h2v-1" fill="#612713ff"/><path d="M6 3v1h1v-1" fill="#a94927ff"/><path d="M7 3v1h1v-1" fill="#79331aff"/><path d="M8 3v1h6v-1" fill="#a94927ff"/><path d="M14 3v1h1v-1" fill="#79331aff"/><path d="M15 3v1h1v-1" fill="#a94927ff"/><path d="M16 3v1h2v-1" fill="#612713ff"/><path d="M18 3v1h2v-1" fill="#79331aff"/><path d="M20 3v1h1v-1" fill="#000000ff"/><path d="M21 3v1h3v-1" fill="#f6be11ff"/><path d="M0 4v1h1v-1" fill="#f6be11ff"/><path d="M1 4v1h1v-1" fill="#000000ff"/><path d="M2 4v1h1v-1" fill="#79331aff"/><path d="M3 4v1h3v-1" fill="#612713ff"/><path d="M6 4v1h11v-1" fill="#a94927ff"/><path d="M17 4v1h2v-1" fill="#612713ff"/><path d="M19 4v1h1v-1" fill="#79331aff"/><path d="M20 4v1h1v-1" fill="#000000ff"/><path d="M21 4v1h3v-1" fill="#f6be11ff"/><path d="M0 5v1h1v-1" fill="#f6be11ff"/><path d="M1 5v1h1v-1" fill="#000000ff"/><path d="M2 5v1h1v-1" fill="#79331aff"/><path d="M3 5v1h2v-1" fill="#612713ff"/><path d="M5 5v1h4v-1" fill="#a94927ff"/><path d="M9 5v1h1v-1" fill="#000000ff"/><path d="M10 5v1h5v-1" fill="#a94927ff"/><path d="M15 5v1h1v-1" fill="#000000ff"/><path d="M16 5v1h2v-1" fill="#a94927ff"/><path d="M18 5v1h1v-1" fill="#612713ff"/><path d="M19 5v1h1v-1" fill="#79331aff"/><path d="M20 5v1h1v-1" fill="#000000ff"/><path d="M21 5v1h3v-1" fill="#f6be11ff"/><path d="M0 6v1h1v-1" fill="#f6be11ff"/><path d="M1 6v1h1v-1" fill="#000000ff"/><path d="M2 6v1h1v-1" fill="#79331aff"/><path d="M3 6v1h1v-1" fill="#933f20ff"/><path d="M4 6v1h4v-1" fill="#a94927ff"/><path d="M8 6v1h3v-1" fill="#79331aff"/><path d="M11 6v1h4v-1" fill="#000000ff"/><path d="M15 6v1h2v-1" fill="#79331aff"/><path d="M17 6v1h2v-1" fill="#a94927ff"/><path d="M19 6v1h1v-1" fill="#79331aff"/><path d="M20 6v1h1v-1" fill="#000000ff"/><path d="M21 6v1h3v-1" fill="#f6be11ff"/><path d="M0 7v1h2v-1" fill="#f6be11ff"/><path d="M2 7v1h1v-1" fill="#000000ff"/><path d="M3 7v1h1v-1" fill="#933f20ff"/><path d="M4 7v1h7v-1" fill="#a94927ff"/><path d="M11 7v1h1v-1" fill="#933f20ff"/><path d="M12 7v1h2v-1" fill="#000000ff"/><path d="M14 7v1h1v-1" fill="#933f20ff"/><path d="M15 7v1h2v-1" fill="#a94927ff"/><path d="M17 7v1h1v-1" fill="#79331aff"/><path d="M18 7v1h1v-1" fill="#a94927ff"/><path d="M19 7v1h1v-1" fill="#000000ff"/><path d="M20 7v1h4v-1" fill="#f6be11ff"/><path d="M0 8v1h1v-1" fill="#f6be11ff"/><path d="M1 8v1h1v-1" fill="#000000ff"/><path d="M2 8v1h1v-1" fill="#79331aff"/><path d="M3 8v1h1v-1" fill="#933f20ff"/><path d="M4 8v1h2v-1" fill="#a94927ff"/><path d="M6 8v1h1v-1" fill="#83371cff"/><path d="M7 8v1h10v-1" fill="#a94927ff"/><path d="M17 8v1h1v-1" fill="#79331aff"/><path d="M18 8v1h1v-1" fill="#a94927ff"/><path d="M19 8v1h1v-1" fill="#933f20ff"/><path d="M20 8v1h1v-1" fill="#000000ff"/><path d="M21 8v1h3v-1" fill="#f6be11ff"/><path d="M0 9v1h1v-1" fill="#f6be11ff"/><path d="M1 9v1h1v-1" fill="#000000ff"/><path d="M2 9v1h1v-1" fill="#79331aff"/><path d="M3 9v1h2v-1" fill="#933f20ff"/><path d="M5 9v1h2v-1" fill="#a94927ff"/><path d="M7 9v1h1v-1" fill="#79331aff"/><path d="M8 9v1h8v-1" fill="#000000ff"/><path d="M16 9v1h1v-1" fill="#79331aff"/><path d="M17 9v1h2v-1" fill="#a94927ff"/><path d="M19 9v1h1v-1" fill="#79331aff"/><path d="M20 9v1h1v-1" fill="#000000ff"/><path d="M21 9v1h3v-1" fill="#f6be11ff"/><path d="M0 10v1h1v-1" fill="#f6be11ff"/><path d="M1 10v1h1v-1" fill="#000000ff"/><path d="M2 10v1h1v-1" fill="#79331aff"/><path d="M3 10v1h3v-1" fill="#933f20ff"/><path d="M6 10v1h1v-1" fill="#a94927ff"/><path d="M7 10v1h5v-1" fill="#a7ccffff"/><path d="M12 10v1h1v-1" fill="#deecffff"/><path d="M13 10v1h2v-1" fill="#a7ccffff"/><path d="M15 10v1h1v-1" fill="#deecffff"/><path d="M16 10v1h1v-1" fill="#a7ccffff"/><path d="M17 10v1h1v-1" fill="#79331aff"/><path d="M18 10v1h1v-1" fill="#933f20ff"/><path d="M19 10v1h1v-1" fill="#79331aff"/><path d="M20 10v1h1v-1" fill="#000000ff"/><path d="M21 10v1h3v-1" fill="#f6be11ff"/><path d="M0 11v1h1v-1" fill="#f6be11ff"/><path d="M1 11v1h1v-1" fill="#000000ff"/><path d="M2 11v1h1v-1" fill="#79331aff"/><path d="M3 11v1h4v-1" fill="#933f20ff"/><path d="M7 11v1h1v-1" fill="#478dedff"/><path d="M8 11v1h1v-1" fill="#4a6aefff"/><path d="M9 11v1h2v-1" fill="#425bd8ff"/><path d="M11 11v1h1v-1" fill="#4c91efff"/><path d="M12 11v1h2v-1" fill="#4a6aefff"/><path d="M14 11v1h1v-1" fill="#4483d8ff"/><path d="M15 11v1h1v-1" fill="#425bd8ff"/><path d="M16 11v1h1v-1" fill="#478dedff"/><path d="M17 11v1h1v-1" fill="#79331aff"/><path d="M18 11v1h1v-1" fill="#933f20ff"/><path d="M19 11v1h1v-1" fill="#79331aff"/><path d="M20 11v1h1v-1" fill="#000000ff"/><path d="M21 11v1h3v-1" fill="#f6be11ff"/><path d="M0 12v1h1v-1" fill="#f6be11ff"/><path d="M1 12v1h1v-1" fill="#000000ff"/><path d="M2 12v1h1v-1" fill="#79331aff"/><path d="M3 12v1h4v-1" fill="#933f20ff"/><path d="M7 12v1h1v-1" fill="#478dedff"/><path d="M8 12v1h1v-1" fill="#4a6aefff"/><path d="M9 12v1h1v-1" fill="#0027b5ff"/><path d="M10 12v1h1v-1" fill="#498ce6ff"/><path d="M11 12v1h2v-1" fill="#4a6aefff"/><path d="M13 12v1h1v-1" fill="#4c91efff"/><path d="M14 12v1h1v-1" fill="#0027b5ff"/><path d="M15 12v1h1v-1" fill="#4765e6ff"/><path d="M16 12v1h1v-1" fill="#478dedff"/><path d="M17 12v1h1v-1" fill="#79331aff"/><path d="M18 12v1h1v-1" fill="#933f20ff"/><path d="M19 12v1h1v-1" fill="#79331aff"/><path d="M20 12v1h1v-1" fill="#000000ff"/><path d="M21 12v1h3v-1" fill="#f6be11ff"/><path d="M0 13v1h1v-1" fill="#f6be11ff"/><path d="M1 13v1h1v-1" fill="#000000ff"/><path d="M2 13v1h1v-1" fill="#79331aff"/><path d="M3 13v1h4v-1" fill="#933f20ff"/><path d="M7 13v1h2v-1" fill="#a7ccffff"/><path d="M9 13v1h1v-1" fill="#deecffff"/><path d="M10 13v1h2v-1" fill="#a7ccffff"/><path d="M12 13v1h1v-1" fill="#deecffff"/><path d="M13 13v1h4v-1" fill="#a7ccffff"/><path d="M17 13v1h1v-1" fill="#79331aff"/><path d="M18 13v1h1v-1" fill="#933f20ff"/><path d="M19 13v1h1v-1" fill="#ce4048ff"/><path d="M20 13v1h1v-1" fill="#000000ff"/><path d="M21 13v1h3v-1" fill="#f6be11ff"/><path d="M0 14v1h2v-1" fill="#f6be11ff"/><path d="M2 14v1h1v-1" fill="#000000ff"/><path d="M3 14v1h2v-1" fill="#79331aff"/><path d="M5 14v1h2v-1" fill="#933f20ff"/><path d="M7 14v1h1v-1" fill="#000000ff"/><path d="M8 14v1h8v-1" fill="#fee7c9ff"/><path d="M16 14v1h1v-1" fill="#000000ff"/><path d="M17 14v1h1v-1" fill="#79331aff"/><path d="M18 14v1h1v-1" fill="#933f20ff"/><path d="M19 14v1h1v-1" fill="#79331aff"/><path d="M20 14v1h1v-1" fill="#000000ff"/><path d="M21 14v1h3v-1" fill="#f6be11ff"/><path d="M0 15v1h3v-1" fill="#f6be11ff"/><path d="M3 15v1h2v-1" fill="#000000ff"/><path d="M5 15v1h2v-1" fill="#79331aff"/><path d="M7 15v1h1v-1" fill="#000000ff"/><path d="M8 15v1h4v-1" fill="#fee7c9ff"/><path d="M12 15v1h2v-1" fill="#000000ff"/><path d="M14 15v1h2v-1" fill="#fee7c9ff"/><path d="M16 15v1h1v-1" fill="#000000ff"/><path d="M17 15v1h1v-1" fill="#79331aff"/><path d="M18 15v1h2v-1" fill="#ce4048ff"/><path d="M20 15v1h4v-1" fill="#f6be11ff"/><path d="M0 16v1h5v-1" fill="#f6be11ff"/><path d="M5 16v1h2v-1" fill="#000000ff"/><path d="M7 16v1h1v-1" fill="#e5d0b5ff"/><path d="M8 16v1h8v-1" fill="#fee7c9ff"/><path d="M16 16v1h3v-1" fill="#ce4048ff"/><path d="M19 16v1h2v-1" fill="#f6be11ff"/><path d="M21 16v1h1v-1" fill="#ce4048ff"/><path d="M22 16v1h2v-1" fill="#f6be11ff"/><path d="M0 17v1h6v-1" fill="#f6be11ff"/><path d="M6 17v1h1v-1" fill="#000000ff"/><path d="M7 17v1h1v-1" fill="#e5d0b5ff"/><path d="M8 17v1h6v-1" fill="#fee7c9ff"/><path d="M14 17v1h5v-1" fill="#ce4048ff"/><path d="M19 17v1h5v-1" fill="#f6be11ff"/><path d="M0 18v1h6v-1" fill="#f6be11ff"/><path d="M6 18v1h1v-1" fill="#000000ff"/><path d="M7 18v1h1v-1" fill="#e5d0b5ff"/><path d="M8 18v1h3v-1" fill="#fee7c9ff"/><path d="M11 18v1h2v-1" fill="#000000ff"/><path d="M13 18v1h1v-1" fill="#ba353dff"/><path d="M14 18v1h2v-1" fill="#ce4048ff"/><path d="M16 18v1h1v-1" fill="#ba353dff"/><path d="M17 18v1h1v-1" fill="#ce4048ff"/><path d="M18 18v1h1v-1" fill="#ba353dff"/><path d="M19 18v1h2v-1" fill="#ce4048ff"/><path d="M21 18v1h3v-1" fill="#f6be11ff"/><path d="M0 19v1h6v-1" fill="#f6be11ff"/><path d="M6 19v1h1v-1" fill="#000000ff"/><path d="M7 19v1h1v-1" fill="#e5d0b5ff"/><path d="M8 19v1h6v-1" fill="#fee7c9ff"/><path d="M14 19v1h2v-1" fill="#ba353dff"/><path d="M16 19v1h1v-1" fill="#ce4048ff"/><path d="M17 19v1h1v-1" fill="#ba353dff"/><path d="M18 19v1h2v-1" fill="#ce4048ff"/><path d="M20 19v1h4v-1" fill="#f6be11ff"/><path d="M0 20v1h6v-1" fill="#f6be11ff"/><path d="M6 20v1h1v-1" fill="#000000ff"/><path d="M7 20v1h2v-1" fill="#e5d0b5ff"/><path d="M9 20v1h6v-1" fill="#fee7c9ff"/><path d="M15 20v1h1v-1" fill="#000000ff"/><path d="M16 20v1h1v-1" fill="#ba353dff"/><path d="M17 20v1h1v-1" fill="#ce4048ff"/><path d="M18 20v1h6v-1" fill="#f6be11ff"/><path d="M0 21v1h6v-1" fill="#f6be11ff"/><path d="M6 21v1h1v-1" fill="#000000ff"/><path d="M7 21v1h3v-1" fill="#e5d0b5ff"/><path d="M10 21v1h5v-1" fill="#000000ff"/><path d="M15 21v1h2v-1" fill="#f6be11ff"/><path d="M17 21v1h2v-1" fill="#ba353dff"/><path d="M19 21v1h2v-1" fill="#f6be11ff"/><path d="M21 21v1h1v-1" fill="#ce4048ff"/><path d="M22 21v1h2v-1" fill="#f6be11ff"/><path d="M0 22v1h6v-1" fill="#f6be11ff"/><path d="M6 22v1h1v-1" fill="#000000ff"/><path d="M7 22v1h3v-1" fill="#e5d0b5ff"/><path d="M10 22v1h1v-1" fill="#000000ff"/><path d="M11 22v1h8v-1" fill="#f6be11ff"/><path d="M19 22v1h1v-1" fill="#ce4048ff"/><path d="M20 22v1h4v-1" fill="#f6be11ff"/><path d="M0 23v1h6v-1" fill="#f6be11ff"/><path d="M6 23v1h1v-1" fill="#000000ff"/><path d="M7 23v1h3v-1" fill="#e5d0b5ff"/><path d="M10 23v1h1v-1" fill="#000000ff"/><path d="M11 23v1h13v-1" fill="#f6be11ff"/></svg>