<svg xmlns="http://www.w3.org/2000/svg" shape-rendering="crispEdges" width="24" height="24" viewBox="0 0 24 24"><path d="M0 0v1h24v-1" fill="#f6be11ff"/><path d="M0 1v1h7v-1" fill="#f6be11ff"/><path d="M7 1v1h1v-1" fill="#000000ff"/><path d="M8 1v1h5v-1" fill="#f6be11ff"/><path d="M13 1v1h1v-1" fill="#000000ff"/><path d="M14 1v1h10v-1" fill="#f6be11ff"/><path d="M0 2v1h6v-1" fill="#f6be11ff"/><path d="M6 2v1h1v-1" fill="#000000ff"/><path d="M7 2v1h1v-1" fill="#9b3d10ff"/><path d="M8 2v1h5v-1" fill="#000000ff"/><path d="M13 2v1h1v-1" fill="#9b3d10ff"/><path d="M14 2v1h1v-1" fill="#000000ff"/><path d="M15 2v1h9v-1" fill="#f6be11ff"/><path d="M0 3v1h5v-1" fill="#f6be11ff"/><path d="M5 3v1h1v-1" fill="#000000ff"/><path d="M6 3v1h1v-1" fill="#ffd440ff"/><path d="M7 3v1h1v-1" fill="#9b3d10ff"/><path d="M8 3v1h1v-1" fill="#ffd440ff"/><path d="M9 3v1h3v-1" fill="#c96c08ff"/><path d="M12 3v1h1v-1" fill="#ffd440ff"/><path d="M13 3v1h1v-1" fill="#9b3d10ff"/><path d="M14 3v1h1v-1" fill="#ffd440ff"/><path d="M15 3v1h1v-1" fill="#000000ff"/><path d="M16 3v1h8v-1" fill="#f6be11ff"/><path d="M0 4v1h5v-1" fill="#f6be11ff"/><path d="M5 4v1h1v-1" fill="#000000ff"/><path d="M6 4v1h1v-1" fill="#c96c08ff"/><path d="M7 4v1h8v-1" fill="#ffd440ff"/><path d="M15 4v1h1v-1" fill="#c96c08ff"/><path d="M16 4v1h4v-1" fill="#000000ff"/><path d="M20 4v1h4v-1" fill="#f6be11ff"/><path d="M0 5v1h2v-1" fill="#f6be11ff"/><path d="M2 5v1h3v-1" fill="#000000ff"/><path d="M5 5v1h2v-1" fill="#c96c08ff"/><path d="M7 5v1h2v-1" fill="#ffd440ff"/><path d="M9 5v1h1v-1" fill="#000000ff"/><path d="M10 5v1h3v-1" fill="#ffd440ff"/><path d="M13 5v1h1v-1" fill="#000000ff"/><path d="M14 5v1h4v-1" fill="#ffd440ff"/><path d="M18 5v1h2v-1" fill="#180f0fff"/><path d="M20 5v1h1v-1" fill="#000000ff"/><path d="M21 5v1h3v-1" fill="#f6be11ff"/><path d="M0 6v1h1v-1" fill="#f6be11ff"/><path d="M1 6v1h1v-1" fill="#000000ff"/><path d="M2 6v1h2v-1" fill="#180f0fff"/><path d="M4 6v1h2v-1" fill="#ffd440ff"/><path d="M6 6v1h1v-1" fill="#bf724aff"/><path d="M7 6v1h4v-1" fill="#ffd440ff"/><path d="M11 6v1h6v-1" fill="#fff8bdff"/><path d="M17 6v1h2v-1" fill="#bf724aff"/><path d="M19 6v1h1v-1" fill="#000000ff"/><path d="M20 6v1h4v-1" fill="#f6be11ff"/><path d="M0 7v1h2v-1" fill="#f6be11ff"/><path d="M2 7v1h1v-1" fill="#000000ff"/><path d="M3 7v1h3v-1" fill="#bf724aff"/><path d="M6 7v1h4v-1" fill="#ffd440ff"/><path d="M10 7v1h2v-1" fill="#fff8bdff"/><path d="M12 7v1h1v-1" fill="#969165ff"/><path d="M13 7v1h2v-1" fill="#fff8bdff"/><path d="M15 7v1h1v-1" fill="#969165ff"/><path d="M16 7v1h2v-1" fill="#fff8bdff"/><path d="M18 7v1h1v-1" fill="#000000ff"/><path d="M19 7v1h5v-1" fill="#f6be11ff"/><path d="M0 8v1h3v-1" fill="#f6be11ff"/><path d="M3 8v1h2v-1" fill="#000000ff"/><path d="M5 8v1h2v-1" fill="#df980eff"/><path d="M7 8v1h1v-1" fill="#ffd440ff"/><path d="M8 8v1h2v-1" fill="#c96c08ff"/><path d="M10 8v1h8v-1" fill="#fff8bdff"/><path d="M18 8v1h1v-1" fill="#000000ff"/><path d="M19 8v1h5v-1" fill="#f6be11ff"/><path d="M0 9v1h4v-1" fill="#f6be11ff"/><path d="M4 9v1h1v-1" fill="#000000ff"/><path d="M5 9v1h1v-1" fill="#df980eff"/><path d="M6 9v1h1v-1" fill="#ffd440ff"/><path d="M7 9v1h1v-1" fill="#df980eff"/><path d="M8 9v1h2v-1" fill="#c96c08ff"/><path d="M10 9v1h8v-1" fill="#fff8bdff"/><path d="M18 9v1h1v-1" fill="#000000ff"/><path d="M19 9v1h5v-1" fill="#f6be11ff"/><path d="M0 10v1h4v-1" fill="#f6be11ff"/><path d="M4 10v1h1v-1" fill="#000000ff"/><path d="M5 10v1h2v-1" fill="#df980eff"/><path d="M7 10v1h1v-1" fill="#ffd440ff"/><path d="M8 10v1h1v-1" fill="#df980eff"/><path d="M9 10v1h2v-1" fill="#fee7c9ff"/><path d="M11 10v1h6v-1" fill="#fff8bdff"/><path d="M17 10v1h1v-1" fill="#000000ff"/><path d="M18 10v1h6v-1" fill="#f6be11ff"/><path d="M0 11v1h4v-1" fill="#f6be11ff"/><path d="M4 11v1h1v-1" fill="#000000ff"/><path d="M5 11v1h1v-1" fill="#774106ff"/><path d="M6 11v1h2v-1" fill="#df980eff"/><path d="M8 11v1h1v-1" fill="#e5d0b5ff"/><path d="M9 11v1h7v-1" fill="#fee7c9ff"/><path d="M16 11v1h1v-1" fill="#000000ff"/><path d="M17 11v1h7v-1" fill="#f6be11ff"/><path d="M0 12v1h4v-1" fill="#f6be11ff"/><path d="M4 12v1h1v-1" fill="#000000ff"/><path d="M5 12v1h2v-1" fill="#774106ff"/><path d="M7 12v1h1v-1" fill="#fee7c9ff"/><path d="M8 12v1h1v-1" fill="#e5d0b5ff"/><path d="M9 12v1h2v-1" fill="#e1b47bff"/><path d="M11 12v1h3v-1" fill="#fee7c9ff"/><path d="M14 12v1h2v-1" fill="#e1b47bff"/><path d="M16 12v1h1v-1" fill="#000000ff"/><path d="M17 12v1h7v-1" fill="#f6be11ff"/><path d="M0 13v1h4v-1" fill="#f6be11ff"/><path d="M4 13v1h1v-1" fill="#000000ff"/><path d="M5 13v1h1v-1" fill="#df980eff"/><path d="M6 13v1h1v-1" fill="#774106ff"/><path d="M7 13v1h1v-1" fill="#fee7c9ff"/><path d="M8 13v1h1v-1" fill="#e5d0b5ff"/><path d="M9 13v1h1v-1" fill="#000000ff"/><path d="M10 13v1h1v-1" fill="#f5d5acff"/><path d="M11 13v1h3v-1" fill="#fee7c9ff"/><path d="M14 13v1h1v-1" fill="#000000ff"/><path d="M15 13v1h1v-1" fill="#f5d5acff"/><path d="M16 13v1h1v-1" fill="#000000ff"/><path d="M17 13v1h7v-1" fill="#f6be11ff"/><path d="M0 14v1h4v-1" fill="#f6be11ff"/><path d="M4 14v1h1v-1" fill="#000000ff"/><path d="M5 14v1h1v-1" fill="#774106ff"/><path d="M6 14v1h1v-1" fill="#df980eff"/><path d="M7 14v1h1v-1" fill="#000000ff"/><path d="M8 14v1h1v-1" fill="#e5d0b5ff"/><path d="M9 14v1h7v-1" fill="#fee7c9ff"/><path d="M16 14v1h1v-1" fill="#000000ff"/><path d="M17 14v1h7v-1" fill="#f6be11ff"/><path d="M0 15v1h4v-1" fill="#f6be11ff"/><path d="M4 15v1h1v-1" fill="#000000ff"/><path d="M5 15v1h2v-1" fill="#df980eff"/><path d="M7 15v1h1v-1" fill="#000000ff"/><path d="M8 15v1h1v-1" fill="#e5d0b5ff"/><path d="M9 15v1h7v-1" fill="#fee7c9ff"/><path d="M16 15v1h1v-1" fill="#000000ff"/><path d="M17 15v1h7v-1" fill="#f6be11ff"/><path d="M0 16v1h4v-1" fill="#f6be11ff"/><path d="M4 16v1h1v-1" fill="#000000ff"/><path d="M5 16v1h1v-1" fill="#774106ff"/><path d="M6 16v1h1v-1" fill="#df980eff"/><path d="M7 16v1h1v-1" fill="#000000ff"/><path d="M8 16v1h1v-1" fill="#e5d0b5ff"/><path d="M9 16v1h3v-1" fill="#fee7c9ff"/><path d="M12 16v1h1v-1" fill="#000000ff"/><path d="M13 16v1h3v-1" fill="#fee7c9ff"/><path d="M16 16v1h1v-1" fill="#000000ff"/><path d="M17 16v1h7v-1" fill="#f6be11ff"/><path d="M0 17v1h4v-1" fill="#f6be11ff"/><path d="M4 17v1h1v-1" fill="#000000ff"/><path d="M5 17v1h2v-1" fill="#774106ff"/><path d="M7 17v1h1v-1" fill="#000000ff"/><path d="M8 17v1h1v-1" fill="#e5d0b5ff"/><path d="M9 17v1h5v-1" fill="#fee7c9ff"/><path d="M14 17v1h2v-1" fill="#ee7ac5ff"/><path d="M16 17v1h1v-1" fill="#000000ff"/><path d="M17 17v1h7v-1" fill="#f6be11ff"/><path d="M0 18v1h5v-1" fill="#f6be11ff"/><path d="M5 18v1h1v-1" fill="#000000ff"/><path d="M6 18v1h1v-1" fill="#774106ff"/><path d="M7 18v1h1v-1" fill="#000000ff"/><path d="M8 18v1h1v-1" fill="#e5d0b5ff"/><path d="M9 18v1h2v-1" fill="#fee7c9ff"/><path d="M11 18v1h2v-1" fill="#e67355ff"/><path d="M13 18v1h1v-1" fill="#d954a2ff"/><path d="M14 18v1h1v-1" fill="#ee7ac5ff"/><path d="M15 18v1h1v-1" fill="#f995d4ff"/><path d="M16 18v1h1v-1" fill="#c555a5ff"/><path d="M17 18v1h7v-1" fill="#f6be11ff"/><path d="M0 19v1h6v-1" fill="#f6be11ff"/><path d="M6 19v1h1v-1" fill="#000000ff"/><path d="M7 19v1h1v-1" fill="#f6be11ff"/><path d="M8 19v1h1v-1" fill="#000000ff"/><path d="M9 19v1h1v-1" fill="#e5d0b5ff"/><path d="M10 19v1h3v-1" fill="#fee7c9ff"/><path d="M13 19v1h2v-1" fill="#ee7ac5ff"/><path d="M15 19v1h1v-1" fill="#c555a5ff"/><path d="M16 19v1h1v-1" fill="#ec74a8ff"/><path d="M17 19v1h7v-1" fill="#f6be11ff"/><path d="M0 20v1h8v-1" fill="#f6be11ff"/><path d="M8 20v1h1v-1" fill="#000000ff"/><path d="M9 20v1h1v-1" fill="#e5d0b5ff"/><path d="M10 20v1h1v-1" fill="#000000ff"/><path d="M11 20v1h3v-1" fill="#fee7c9ff"/><path d="M14 20v1h1v-1" fill="#c555a5ff"/><path d="M15 20v1h1v-1" fill="#ec74a8ff"/><path d="M16 20v1h8v-1" fill="#f6be11ff"/><path d="M0 21v1h8v-1" fill="#f6be11ff"/><path d="M8 21v1h1v-1" fill="#000000ff"/><path d="M9 21v1h2v-1" fill="#e5d0b5ff"/><path d="M11 21v1h3v-1" fill="#000000ff"/><path d="M14 21v1h10v-1" fill="#f6be11ff"/><path d="M0 22v1h8v-1" fill="#f6be11ff"/><path d="M8 22v1h1v-1" fill="#000000ff"/><path d="M9 22v1h3v-1" fill="#e5d0b5ff"/><path d="M12 22v1h1v-1" fill="#000000ff"/><path d="M13 22v1h11v-1" fill="#f6be11ff"/><path d="M0 23v1h8v-1" fill="#f6be11ff"/><path d="M8 23v1h1v-1" fill="#000000ff"/><path d="M9 23v1h3v-1" fill="#e5d0b5ff"/><path d="M12 23v1h1v-1" fill="#000000ff"/><path d="M13 23v1h11v-1" fill="#f6be11ff"/></svg>