<svg xmlns="http://www.w3.org/2000/svg" shape-rendering="crispEdges" width="24" height="24" viewBox="0 0 24 24"><path d="M0 0v1h2v-1" fill="#000000ff"/><path d="M2 0v1h1v-1" fill="#056923ff"/><path d="M3 0v1h3v-1" fill="#000000ff"/><path d="M6 0v1h1v-1" fill="#056923ff"/><path d="M7 0v1h3v-1" fill="#000000ff"/><path d="M10 0v1h1v-1" fill="#056923ff"/><path d="M11 0v1h2v-1" fill="#000000ff"/><path d="M13 0v1h1v-1" fill="#056923ff"/><path d="M14 0v1h2v-1" fill="#000000ff"/><path d="M16 0v1h1v-1" fill="#0b3217ff"/><path d="M17 0v1h1v-1" fill="#000000ff"/><path d="M18 0v1h1v-1" fill="#056923ff"/><path d="M19 0v1h3v-1" fill="#000000ff"/><path d="M22 0v1h1v-1" fill="#056923ff"/><path d="M23 0v1h1v-1" fill="#000000ff"/><path d="M0 1v1h2v-1" fill="#000000ff"/><path d="M2 1v1h1v-1" fill="#056923ff"/><path d="M3 1v1h1v-1" fill="#000000ff"/><path d="M4 1v1h1v-1" fill="#01200bff"/><path d="M5 1v1h1v-1" fill="#000000ff"/><path d="M6 1v1h1v-1" fill="#06a135ff"/><path d="M7 1v1h2v-1" fill="#000000ff"/><path d="M9 1v1h1v-1" fill="#8a8a8aff"/><path d="M10 1v1h1v-1" fill="#056923ff"/><path d="M11 1v1h2v-1" fill="#000000ff"/><path d="M13 1v1h1v-1" fill="#056923ff"/><path d="M14 1v1h3v-1" fill="#000000ff"/><path d="M17 1v1h1v-1" fill="#8a8a8aff"/><path d="M18 1v1h1v-1" fill="#056923ff"/><path d="M19 1v1h5v-1" fill="#000000ff"/><path d="M0 2v1h2v-1" fill="#000000ff"/><path d="M2 2v1h1v-1" fill="#056923ff"/><path d="M3 2v1h3v-1" fill="#000000ff"/><path d="M6 2v1h1v-1" fill="#06a135ff"/><path d="M7 2v1h3v-1" fill="#000000ff"/><path d="M10 2v1h1v-1" fill="#595959ff"/><path d="M11 2v1h2v-1" fill="#000000ff"/><path d="M13 2v1h1v-1" fill="#056923ff"/><path d="M14 2v1h2v-1" fill="#000000ff"/><path d="M16 2v1h1v-1" fill="#595959ff"/><path d="M17 2v1h1v-1" fill="#000000ff"/><path d="M18 2v1h1v-1" fill="#056923ff"/><path d="M19 2v1h3v-1" fill="#000000ff"/><path d="M22 2v1h1v-1" fill="#056923ff"/><path d="M23 2v1h1v-1" fill="#000000ff"/><path d="M0 3v1h2v-1" fill="#000000ff"/><path d="M2 3v1h1v-1" fill="#056923ff"/><path d="M3 3v1h1v-1" fill="#000000ff"/><path d="M4 3v1h1v-1" fill="#01200bff"/><path d="M5 3v1h1v-1" fill="#000000ff"/><path d="M6 3v1h1v-1" fill="#36f971ff"/><path d="M7 3v1h4v-1" fill="#000000ff"/><path d="M11 3v1h1v-1" fill="#595959ff"/><path d="M12 3v1h1v-1" fill="#000000ff"/><path d="M13 3v1h1v-1" fill="#06a135ff"/><path d="M14 3v1h1v-1" fill="#000000ff"/><path d="M15 3v1h1v-1" fill="#595959ff"/><path d="M16 3v1h1v-1" fill="#0b3217ff"/><path d="M17 3v1h1v-1" fill="#000000ff"/><path d="M18 3v1h1v-1" fill="#06a135ff"/><path d="M19 3v1h3v-1" fill="#000000ff"/><path d="M22 3v1h1v-1" fill="#056923ff"/><path d="M23 3v1h1v-1" fill="#000000ff"/><path d="M0 4v1h2v-1" fill="#000000ff"/><path d="M2 4v1h1v-1" fill="#06a135ff"/><path d="M3 4v1h21v-1" fill="#000000ff"/><path d="M0 5v1h4v-1" fill="#000000ff"/><path d="M4 5v1h1v-1" fill="#1a1a1aff"/><path d="M5 5v1h1v-1" fill="#2d2d2dff"/><path d="M6 5v1h1v-1" fill="#000000ff"/><path d="M7 5v1h10v-1" fill="#2d2d2dff"/><path d="M17 5v1h3v-1" fill="#444444ff"/><path d="M20 5v1h1v-1" fill="#2d2d2dff"/><path d="M21 5v1h1v-1" fill="#000000ff"/><path d="M22 5v1h1v-1" fill="#06a135ff"/><path d="M23 5v1h1v-1" fill="#000000ff"/><path d="M0 6v1h2v-1" fill="#000000ff"/><path d="M2 6v1h2v-1" fill="#1a1a1aff"/><path d="M4 6v1h1v-1" fill="#2d2d2dff"/><path d="M5 6v1h1v-1" fill="#000000ff"/><path d="M6 6v1h3v-1" fill="#2d2d2dff"/><path d="M9 6v1h10v-1" fill="#000000ff"/><path d="M19 6v1h1v-1" fill="#2d2d2dff"/><path d="M20 6v1h1v-1" fill="#444444ff"/><path d="M21 6v1h1v-1" fill="#2d2d2dff"/><path d="M22 6v1h2v-1" fill="#000000ff"/><path d="M0 7v1h2v-1" fill="#000000ff"/><path d="M2 7v1h2v-1" fill="#1a1a1aff"/><path d="M4 7v1h1v-1" fill="#2d2d2dff"/><path d="M5 7v1h1v-1" fill="#000000ff"/><path d="M6 7v1h2v-1" fill="#2d2d2dff"/><path d="M8 7v1h1v-1" fill="#000000ff"/><path d="M9 7v1h4v-1" fill="#a8a0adff"/><path d="M13 7v1h1v-1" fill="#aaa9beff"/><path d="M14 7v1h2v-1" fill="#a8a0adff"/><path d="M16 7v1h3v-1" fill="#52566fff"/><path d="M19 7v1h1v-1" fill="#000000ff"/><path d="M20 7v1h2v-1" fill="#2d2d2dff"/><path d="M22 7v1h2v-1" fill="#000000ff"/><path d="M0 8v1h2v-1" fill="#000000ff"/><path d="M2 8v1h2v-1" fill="#1a1a1aff"/><path d="M4 8v1h1v-1" fill="#2d2d2dff"/><path d="M5 8v1h1v-1" fill="#000000ff"/><path d="M6 8v1h1v-1" fill="#2d2d2dff"/><path d="M7 8v1h1v-1" fill="#000000ff"/><path d="M8 8v1h6v-1" fill="#8c7f96ff"/><path d="M14 8v1h1v-1" fill="#8e88a6ff"/><path d="M15 8v1h1v-1" fill="#8c7f96ff"/><path d="M16 8v1h1v-1" fill="#363558ff"/><path d="M17 8v1h1v-1" fill="#16192bff"/><path d="M18 8v1h1v-1" fill="#65ad97ff"/><path d="M19 8v1h1v-1" fill="#52566fff"/><path d="M20 8v1h1v-1" fill="#000000ff"/><path d="M21 8v1h1v-1" fill="#2d2d2dff"/><path d="M22 8v1h2v-1" fill="#000000ff"/><path d="M0 9v1h2v-1" fill="#000000ff"/><path d="M2 9v1h2v-1" fill="#1a1a1aff"/><path d="M4 9v1h1v-1" fill="#2d2d2dff"/><path d="M5 9v1h1v-1" fill="#000000ff"/><path d="M6 9v1h1v-1" fill="#2d2d2dff"/><path d="M7 9v1h1v-1" fill="#000000ff"/><path d="M8 9v1h8v-1" fill="#8c7f96ff"/><path d="M16 9v1h1v-1" fill="#363558ff"/><path d="M17 9v1h1v-1" fill="#16192bff"/><path d="M18 9v1h1v-1" fill="#297053ff"/><path d="M19 9v1h1v-1" fill="#52566fff"/><path d="M20 9v1h1v-1" fill="#000000ff"/><path d="M21 9v1h1v-1" fill="#2d2d2dff"/><path d="M22 9v1h2v-1" fill="#000000ff"/><path d="M0 10v1h2v-1" fill="#000000ff"/><path d="M2 10v1h2v-1" fill="#1a1a1aff"/><path d="M4 10v1h1v-1" fill="#2d2d2dff"/><path d="M5 10v1h1v-1" fill="#000000ff"/><path d="M6 10v1h1v-1" fill="#2d2d2dff"/><path d="M7 10v1h1v-1" fill="#000000ff"/><path d="M8 10v1h8v-1" fill="#8c7f96ff"/><path d="M16 10v1h1v-1" fill="#363558ff"/><path d="M17 10v1h1v-1" fill="#16192bff"/><path d="M18 10v1h1v-1" fill="#297053ff"/><path d="M19 10v1h1v-1" fill="#52566fff"/><path d="M20 10v1h1v-1" fill="#000000ff"/><path d="M21 10v1h1v-1" fill="#2d2d2dff"/><path d="M22 10v1h2v-1" fill="#000000ff"/><path d="M0 11v1h2v-1" fill="#000000ff"/><path d="M2 11v1h2v-1" fill="#1a1a1aff"/><path d="M4 11v1h1v-1" fill="#2d2d2dff"/><path d="M5 11v1h1v-1" fill="#000000ff"/><path d="M6 11v1h1v-1" fill="#2d2d2dff"/><path d="M7 11v1h1v-1" fill="#000000ff"/><path d="M8 11v1h1v-1" fill="#8c7f96ff"/><path d="M9 11v1h2v-1" fill="#78677aff"/><path d="M11 11v1h3v-1" fill="#8c7f96ff"/><path d="M14 11v1h2v-1" fill="#78677aff"/><path d="M16 11v1h1v-1" fill="#363558ff"/><path d="M17 11v1h1v-1" fill="#16192bff"/><path d="M18 11v1h1v-1" fill="#297053ff"/><path d="M19 11v1h1v-1" fill="#52566fff"/><path d="M20 11v1h1v-1" fill="#000000ff"/><path d="M21 11v1h1v-1" fill="#2d2d2dff"/><path d="M22 11v1h2v-1" fill="#000000ff"/><path d="M0 12v1h2v-1" fill="#000000ff"/><path d="M2 12v1h2v-1" fill="#1a1a1aff"/><path d="M4 12v1h1v-1" fill="#2d2d2dff"/><path d="M5 12v1h1v-1" fill="#000000ff"/><path d="M6 12v1h1v-1" fill="#2d2d2dff"/><path d="M7 12v1h1v-1" fill="#000000ff"/><path d="M8 12v1h1v-1" fill="#8c7f96ff"/><path d="M9 12v1h1v-1" fill="#363558ff"/><path d="M10 12v1h1v-1" fill="#84758bff"/><path d="M11 12v1h3v-1" fill="#8c7f96ff"/><path d="M14 12v1h1v-1" fill="#363558ff"/><path d="M15 12v1h1v-1" fill="#84758bff"/><path d="M16 12v1h1v-1" fill="#363558ff"/><path d="M17 12v1h2v-1" fill="#16192bff"/><path d="M19 12v1h1v-1" fill="#52566fff"/><path d="M20 12v1h1v-1" fill="#000000ff"/><path d="M21 12v1h1v-1" fill="#2d2d2dff"/><path d="M22 12v1h2v-1" fill="#000000ff"/><path d="M0 13v1h2v-1" fill="#000000ff"/><path d="M2 13v1h2v-1" fill="#1a1a1aff"/><path d="M4 13v1h1v-1" fill="#1f1f1fff"/><path d="M5 13v1h1v-1" fill="#000000ff"/><path d="M6 13v1h1v-1" fill="#2d2d2dff"/><path d="M7 13v1h1v-1" fill="#000000ff"/><path d="M8 13v1h8v-1" fill="#8c7f96ff"/><path d="M16 13v1h1v-1" fill="#363558ff"/><path d="M17 13v1h2v-1" fill="#16192bff"/><path d="M19 13v1h1v-1" fill="#52566fff"/><path d="M20 13v1h1v-1" fill="#000000ff"/><path d="M21 13v1h1v-1" fill="#2d2d2dff"/><path d="M22 13v1h2v-1" fill="#000000ff"/><path d="M0 14v1h2v-1" fill="#000000ff"/><path d="M2 14v1h2v-1" fill="#1a1a1aff"/><path d="M4 14v1h1v-1" fill="#1f1f1fff"/><path d="M5 14v1h1v-1" fill="#000000ff"/><path d="M6 14v1h1v-1" fill="#2d2d2dff"/><path d="M7 14v1h1v-1" fill="#000000ff"/><path d="M8 14v1h8v-1" fill="#8c7f96ff"/><path d="M16 14v1h1v-1" fill="#363558ff"/><path d="M17 14v1h2v-1" fill="#16192bff"/><path d="M19 14v1h1v-1" fill="#52566fff"/><path d="M20 14v1h1v-1" fill="#000000ff"/><path d="M21 14v1h1v-1" fill="#2d2d2dff"/><path d="M22 14v1h2v-1" fill="#000000ff"/><path d="M0 15v1h2v-1" fill="#000000ff"/><path d="M2 15v1h2v-1" fill="#1a1a1aff"/><path d="M4 15v1h1v-1" fill="#1f1f1fff"/><path d="M5 15v1h1v-1" fill="#000000ff"/><path d="M6 15v1h1v-1" fill="#2d2d2dff"/><path d="M7 15v1h1v-1" fill="#000000ff"/><path d="M8 15v1h4v-1" fill="#8c7f96ff"/><path d="M12 15v1h2v-1" fill="#363558ff"/><path d="M14 15v1h2v-1" fill="#8c7f96ff"/><path d="M16 15v1h1v-1" fill="#363558ff"/><path d="M17 15v1h1v-1" fill="#16192bff"/><path d="M18 15v1h1v-1" fill="#18513eff"/><path d="M19 15v1h1v-1" fill="#52566fff"/><path d="M20 15v1h1v-1" fill="#000000ff"/><path d="M21 15v1h1v-1" fill="#2d2d2dff"/><path d="M22 15v1h2v-1" fill="#000000ff"/><path d="M0 16v1h2v-1" fill="#000000ff"/><path d="M2 16v1h2v-1" fill="#1a1a1aff"/><path d="M4 16v1h1v-1" fill="#1f1f1fff"/><path d="M5 16v1h1v-1" fill="#000000ff"/><path d="M6 16v1h2v-1" fill="#2d2d2dff"/><path d="M8 16v1h1v-1" fill="#000000ff"/><path d="M9 16v1h7v-1" fill="#8c7f96ff"/><path d="M16 16v1h1v-1" fill="#363558ff"/><path d="M17 16v1h1v-1" fill="#16192bff"/><path d="M18 16v1h1v-1" fill="#18513eff"/><path d="M19 16v1h1v-1" fill="#000000ff"/><path d="M20 16v1h2v-1" fill="#2d2d2dff"/><path d="M22 16v1h2v-1" fill="#000000ff"/><path d="M0 17v1h2v-1" fill="#000000ff"/><path d="M2 17v1h2v-1" fill="#1a1a1aff"/><path d="M4 17v1h1v-1" fill="#1f1f1fff"/><path d="M5 17v1h1v-1" fill="#000000ff"/><path d="M6 17v1h3v-1" fill="#2d2d2dff"/><path d="M9 17v1h10v-1" fill="#000000ff"/><path d="M19 17v1h3v-1" fill="#2d2d2dff"/><path d="M22 17v1h1v-1" fill="#000000ff"/><path d="M23 17v1h1v-1" fill="#01200bff"/><path d="M0 18v1h2v-1" fill="#000000ff"/><path d="M2 18v1h2v-1" fill="#1a1a1aff"/><path d="M4 18v1h1v-1" fill="#1f1f1fff"/><path d="M5 18v1h1v-1" fill="#000000ff"/><path d="M6 18v1h16v-1" fill="#2d2d2dff"/><path d="M22 18v1h1v-1" fill="#000000ff"/><path d="M23 18v1h1v-1" fill="#01200bff"/><path d="M0 19v1h2v-1" fill="#000000ff"/><path d="M2 19v1h2v-1" fill="#1a1a1aff"/><path d="M4 19v1h1v-1" fill="#1f1f1fff"/><path d="M5 19v1h1v-1" fill="#000000ff"/><path d="M6 19v1h3v-1" fill="#1a1a1aff"/><path d="M9 19v1h1v-1" fill="#c8c8c8ff"/><path d="M10 19v1h1v-1" fill="#1a1a1aff"/><path d="M11 19v1h5v-1" fill="#000000ff"/><path d="M16 19v1h1v-1" fill="#1a1a1aff"/><path d="M17 19v1h1v-1" fill="#48cf58ff"/><path d="M18 19v1h1v-1" fill="#1a1a1aff"/><path d="M19 19v1h1v-1" fill="#cf4848ff"/><path d="M20 19v1h2v-1" fill="#1a1a1aff"/><path d="M22 19v1h1v-1" fill="#000000ff"/><path d="M23 19v1h1v-1" fill="#01200bff"/><path d="M0 20v1h1v-1" fill="#000000ff"/><path d="M1 20v1h1v-1" fill="#36f971ff"/><path d="M2 20v1h2v-1" fill="#000000ff"/><path d="M4 20v1h1v-1" fill="#1a1a1aff"/><path d="M5 20v1h1v-1" fill="#1f1f1fff"/><path d="M6 20v1h1v-1" fill="#000000ff"/><path d="M7 20v1h2v-1" fill="#1a1a1aff"/><path d="M9 20v1h1v-1" fill="#2d2d2dff"/><path d="M10 20v1h7v-1" fill="#1a1a1aff"/><path d="M17 20v1h1v-1" fill="#2d2d2dff"/><path d="M18 20v1h3v-1" fill="#1a1a1aff"/><path d="M21 20v1h2v-1" fill="#000000ff"/><path d="M23 20v1h1v-1" fill="#01200bff"/><path d="M0 21v1h3v-1" fill="#000000ff"/><path d="M3 21v1h1v-1" fill="#01200bff"/><path d="M4 21v1h17v-1" fill="#000000ff"/><path d="M21 21v1h1v-1" fill="#06a135ff"/><path d="M22 21v1h1v-1" fill="#000000ff"/><path d="M23 21v1h1v-1" fill="#01200bff"/><path d="M0 22v1h1v-1" fill="#000000ff"/><path d="M1 22v1h1v-1" fill="#06a135ff"/><path d="M2 22v1h1v-1" fill="#000000ff"/><path d="M3 22v1h1v-1" fill="#0b3217ff"/><path d="M4 22v1h1v-1" fill="#000000ff"/><path d="M5 22v1h1v-1" fill="#056923ff"/><path d="M6 22v1h1v-1" fill="#000000ff"/><path d="M7 22v1h3v-1" fill="#ddbf9fff"/><path d="M10 22v1h3v-1" fill="#000000ff"/><path d="M13 22v1h1v-1" fill="#0b3217ff"/><path d="M14 22v1h7v-1" fill="#000000ff"/><path d="M21 22v1h1v-1" fill="#36f971ff"/><path d="M22 22v1h1v-1" fill="#000000ff"/><path d="M23 22v1h1v-1" fill="#0b3217ff"/><path d="M0 23v1h1v-1" fill="#000000ff"/><path d="M1 23v1h1v-1" fill="#36f971ff"/><path d="M2 23v1h1v-1" fill="#000000ff"/><path d="M3 23v1h1v-1" fill="#0b3217ff"/><path d="M4 23v1h1v-1" fill="#000000ff"/><path d="M5 23v1h1v-1" fill="#056923ff"/><path d="M6 23v1h1v-1" fill="#000000ff"/><path d="M7 23v1h3v-1" fill="#ddbf9fff"/><path d="M10 23v1h3v-1" fill="#000000ff"/><path d="M13 23v1h1v-1" fill="#0b3217ff"/><path d="M14 23v1h1v-1" fill="#000000ff"/><path d="M15 23v1h1v-1" fill="#06a135ff"/><path d="M16 23v1h5v-1" fill="#000000ff"/><path d="M21 23v1h1v-1" fill="#36f971ff"/><path d="M22 23v1h1v-1" fill="#000000ff"/><path d="M23 23v1h1v-1" fill="#0b3217ff"/></svg>