<svg xmlns="http://www.w3.org/2000/svg" shape-rendering="crispEdges" width="24" height="24" viewBox="0 0 24 24"><path d="M0 0v1h1v-1" fill="#b9ac37ff"/><path d="M1 0v1h1v-1" fill="#999ea5ff"/><path d="M2 0v1h1v-1" fill="#8f959dff"/><path d="M3 0v1h1v-1" fill="#b9ac37ff"/><path d="M4 0v1h1v-1" fill="#988d2aff"/><path d="M5 0v1h1v-1" fill="#8f959dff"/><path d="M6 0v1h1v-1" fill="#b9ac37ff"/><path d="M7 0v1h1v-1" fill="#999ea5ff"/><path d="M8 0v1h3v-1" fill="#8f959dff"/><path d="M11 0v1h1v-1" fill="#bfc0bbff"/><path d="M12 0v1h1v-1" fill="#af401eff"/><path d="M13 0v1h1v-1" fill="#999ea5ff"/><path d="M14 0v1h1v-1" fill="#8f959dff"/><path d="M15 0v1h1v-1" fill="#999ea5ff"/><path d="M16 0v1h1v-1" fill="#8f959dff"/><path d="M17 0v1h1v-1" fill="#999ea5ff"/><path d="M18 0v1h2v-1" fill="#af401eff"/><path d="M20 0v1h1v-1" fill="#8f959dff"/><path d="M21 0v1h1v-1" fill="#999ea5ff"/><path d="M22 0v1h1v-1" fill="#8f959dff"/><path d="M23 0v1h1v-1" fill="#999ea5ff"/><path d="M0 1v1h2v-1" fill="#b9ac37ff"/><path d="M2 1v1h1v-1" fill="#999ea5ff"/><path d="M3 1v1h1v-1" fill="#b9ac37ff"/><path d="M4 1v1h1v-1" fill="#988d2aff"/><path d="M5 1v1h2v-1" fill="#b9ac37ff"/><path d="M7 1v1h1v-1" fill="#8f959dff"/><path d="M8 1v1h1v-1" fill="#999ea5ff"/><path d="M9 1v1h1v-1" fill="#8f959dff"/><path d="M10 1v1h2v-1" fill="#000000ff"/><path d="M12 1v1h1v-1" fill="#af401eff"/><path d="M13 1v1h1v-1" fill="#8f959dff"/><path d="M14 1v1h1v-1" fill="#999ea5ff"/><path d="M15 1v1h1v-1" fill="#8f959dff"/><path d="M16 1v1h1v-1" fill="#999ea5ff"/><path d="M17 1v1h2v-1" fill="#af401eff"/><path d="M19 1v1h1v-1" fill="#8f959dff"/><path d="M20 1v1h1v-1" fill="#999ea5ff"/><path d="M21 1v1h1v-1" fill="#0e1a19ff"/><path d="M22 1v1h1v-1" fill="#999ea5ff"/><path d="M23 1v1h1v-1" fill="#8f959dff"/><path d="M0 2v1h4v-1" fill="#b9ac37ff"/><path d="M4 2v1h1v-1" fill="#988d2aff"/><path d="M5 2v1h1v-1" fill="#999ea5ff"/><path d="M6 2v1h2v-1" fill="#b9ac37ff"/><path d="M8 2v1h2v-1" fill="#000000ff"/><path d="M10 2v1h2v-1" fill="#ffee8fff"/><path d="M12 2v1h2v-1" fill="#000000ff"/><path d="M14 2v1h1v-1" fill="#8f959dff"/><path d="M15 2v1h1v-1" fill="#af401eff"/><path d="M16 2v1h1v-1" fill="#8f959dff"/><path d="M17 2v1h2v-1" fill="#af401eff"/><path d="M19 2v1h1v-1" fill="#999ea5ff"/><path d="M20 2v1h1v-1" fill="#0e1a19ff"/><path d="M21 2v1h1v-1" fill="#999ea5ff"/><path d="M22 2v1h1v-1" fill="#0e1a19ff"/><path d="M23 2v1h1v-1" fill="#999ea5ff"/><path d="M0 3v1h1v-1" fill="#b9ac37ff"/><path d="M1 3v1h1v-1" fill="#8f959dff"/><path d="M2 3v1h2v-1" fill="#b9ac37ff"/><path d="M4 3v1h1v-1" fill="#988d2aff"/><path d="M5 3v1h1v-1" fill="#8f959dff"/><path d="M6 3v1h1v-1" fill="#b9ac37ff"/><path d="M7 3v1h1v-1" fill="#000000ff"/><path d="M8 3v1h2v-1" fill="#fca605ff"/><path d="M10 3v1h1v-1" fill="#e08a00ff"/><path d="M11 3v1h1v-1" fill="#fed806ff"/><path d="M12 3v1h1v-1" fill="#e08a00ff"/><path d="M13 3v1h1v-1" fill="#ffee8fff"/><path d="M14 3v1h1v-1" fill="#000000ff"/><path d="M15 3v1h3v-1" fill="#af401eff"/><path d="M18 3v1h1v-1" fill="#999ea5ff"/><path d="M19 3v1h1v-1" fill="#0e1a19ff"/><path d="M20 3v1h1v-1" fill="#999ea5ff"/><path d="M21 3v1h1v-1" fill="#0e1a19ff"/><path d="M22 3v1h1v-1" fill="#999ea5ff"/><path d="M23 3v1h1v-1" fill="#bfc0bbff"/><path d="M0 4v1h1v-1" fill="#b9ac37ff"/><path d="M1 4v1h1v-1" fill="#999ea5ff"/><path d="M2 4v1h2v-1" fill="#b9ac37ff"/><path d="M4 4v1h1v-1" fill="#988d2aff"/><path d="M5 4v1h1v-1" fill="#999ea5ff"/><path d="M6 4v1h1v-1" fill="#000000ff"/><path d="M7 4v1h2v-1" fill="#fca605ff"/><path d="M9 4v1h1v-1" fill="#fed806ff"/><path d="M10 4v1h1v-1" fill="#fca605ff"/><path d="M11 4v1h1v-1" fill="#e08a00ff"/><path d="M12 4v1h1v-1" fill="#fed806ff"/><path d="M13 4v1h1v-1" fill="#e08a00ff"/><path d="M14 4v1h1v-1" fill="#ffee8fff"/><path d="M15 4v1h1v-1" fill="#000000ff"/><path d="M16 4v1h2v-1" fill="#af401eff"/><path d="M18 4v1h1v-1" fill="#8f959dff"/><path d="M19 4v1h1v-1" fill="#999ea5ff"/><path d="M20 4v1h1v-1" fill="#8f959dff"/><path d="M21 4v1h1v-1" fill="#999ea5ff"/><path d="M22 4v1h1v-1" fill="#bfc0bbff"/><path d="M23 4v1h1v-1" fill="#af401eff"/><path d="M0 5v1h1v-1" fill="#999ea5ff"/><path d="M1 5v1h1v-1" fill="#8f959dff"/><path d="M2 5v1h1v-1" fill="#999ea5ff"/><path d="M3 5v1h1v-1" fill="#8f959dff"/><path d="M4 5v1h1v-1" fill="#999ea5ff"/><path d="M5 5v1h1v-1" fill="#b9ac37ff"/><path d="M6 5v1h1v-1" fill="#000000ff"/><path d="M7 5v1h1v-1" fill="#fca605ff"/><path d="M8 5v1h2v-1" fill="#fed806ff"/><path d="M10 5v1h1v-1" fill="#fca605ff"/><path d="M11 5v1h1v-1" fill="#e08a00ff"/><path d="M12 5v1h1v-1" fill="#fed806ff"/><path d="M13 5v1h1v-1" fill="#e08a00ff"/><path d="M14 5v1h1v-1" fill="#fed806ff"/><path d="M15 5v1h1v-1" fill="#fca605ff"/><path d="M16 5v1h1v-1" fill="#000000ff"/><path d="M17 5v1h1v-1" fill="#0e1a19ff"/><path d="M18 5v1h1v-1" fill="#999ea5ff"/><path d="M19 5v1h1v-1" fill="#8f959dff"/><path d="M20 5v1h1v-1" fill="#999ea5ff"/><path d="M21 5v1h1v-1" fill="#bfc0bbff"/><path d="M22 5v1h2v-1" fill="#af401eff"/><path d="M0 6v1h1v-1" fill="#8f959dff"/><path d="M1 6v1h1v-1" fill="#999ea5ff"/><path d="M2 6v1h1v-1" fill="#8f959dff"/><path d="M3 6v1h1v-1" fill="#999ea5ff"/><path d="M4 6v1h1v-1" fill="#8f959dff"/><path d="M5 6v1h1v-1" fill="#000000ff"/><path d="M6 6v1h5v-1" fill="#fca605ff"/><path d="M11 6v1h1v-1" fill="#dfdfdfff"/><path d="M12 6v1h1v-1" fill="#fffdf9ff"/><path d="M13 6v1h1v-1" fill="#dfdfdfff"/><path d="M14 6v1h2v-1" fill="#fca605ff"/><path d="M16 6v1h1v-1" fill="#000000ff"/><path d="M17 6v1h1v-1" fill="#999ea5ff"/><path d="M18 6v1h1v-1" fill="#8f959dff"/><path d="M19 6v1h1v-1" fill="#999ea5ff"/><path d="M20 6v1h1v-1" fill="#bfc0bbff"/><path d="M21 6v1h1v-1" fill="#af401eff"/><path d="M22 6v1h1v-1" fill="#0e1a19ff"/><path d="M23 6v1h1v-1" fill="#af401eff"/><path d="M0 7v1h1v-1" fill="#999ea5ff"/><path d="M1 7v1h1v-1" fill="#8f959dff"/><path d="M2 7v1h1v-1" fill="#999ea5ff"/><path d="M3 7v1h1v-1" fill="#8f959dff"/><path d="M4 7v1h1v-1" fill="#999ea5ff"/><path d="M5 7v1h1v-1" fill="#000000ff"/><path d="M6 7v1h3v-1" fill="#222222ff"/><path d="M9 7v1h2v-1" fill="#3a3a3aff"/><path d="M11 7v1h1v-1" fill="#fffdf9ff"/><path d="M12 7v1h1v-1" fill="#dfdfdfff"/><path d="M13 7v1h1v-1" fill="#fffdf9ff"/><path d="M14 7v1h2v-1" fill="#3a3a3aff"/><path d="M16 7v1h1v-1" fill="#222222ff"/><path d="M17 7v1h1v-1" fill="#000000ff"/><path d="M18 7v1h1v-1" fill="#999ea5ff"/><path d="M19 7v1h1v-1" fill="#bfc0bbff"/><path d="M20 7v1h1v-1" fill="#af401eff"/><path d="M21 7v1h1v-1" fill="#0e1a19ff"/><path d="M22 7v1h1v-1" fill="#af401eff"/><path d="M23 7v1h1v-1" fill="#bfc0bbff"/><path d="M0 8v1h1v-1" fill="#8f959dff"/><path d="M1 8v1h1v-1" fill="#999ea5ff"/><path d="M2 8v1h1v-1" fill="#8f959dff"/><path d="M3 8v1h2v-1" fill="#bfc0bbff"/><path d="M5 8v1h1v-1" fill="#000000ff"/><path d="M6 8v1h4v-1" fill="#fca605ff"/><path d="M10 8v1h2v-1" fill="#fed806ff"/><path d="M12 8v1h3v-1" fill="#ffee8fff"/><path d="M15 8v1h1v-1" fill="#fed806ff"/><path d="M16 8v1h2v-1" fill="#fca605ff"/><path d="M18 8v1h1v-1" fill="#000000ff"/><path d="M19 8v1h1v-1" fill="#af401eff"/><path d="M20 8v1h1v-1" fill="#0e1a19ff"/><path d="M21 8v1h1v-1" fill="#af401eff"/><path d="M22 8v1h2v-1" fill="#bfc0bbff"/><path d="M0 9v1h1v-1" fill="#999ea5ff"/><path d="M1 9v1h1v-1" fill="#8f959dff"/><path d="M2 9v1h1v-1" fill="#999ea5ff"/><path d="M3 9v1h2v-1" fill="#af401eff"/><path d="M5 9v1h14v-1" fill="#000000ff"/><path d="M19 9v1h1v-1" fill="#af401eff"/><path d="M20 9v1h1v-1" fill="#0e1a19ff"/><path d="M21 9v1h1v-1" fill="#bfc0bbff"/><path d="M22 9v1h1v-1" fill="#8f959dff"/><path d="M23 9v1h1v-1" fill="#999ea5ff"/><path d="M0 10v1h1v-1" fill="#8f959dff"/><path d="M1 10v1h1v-1" fill="#999ea5ff"/><path d="M2 10v1h4v-1" fill="#af401eff"/><path d="M6 10v1h2v-1" fill="#000000ff"/><path d="M8 10v1h1v-1" fill="#fab92cff"/><path d="M9 10v1h7v-1" fill="#000000ff"/><path d="M16 10v1h1v-1" fill="#fab92cff"/><path d="M17 10v1h1v-1" fill="#000000ff"/><path d="M18 10v1h1v-1" fill="#af401eff"/><path d="M19 10v1h1v-1" fill="#0e1a19ff"/><path d="M20 10v1h1v-1" fill="#af401eff"/><path d="M21 10v1h1v-1" fill="#8f959dff"/><path d="M22 10v1h1v-1" fill="#999ea5ff"/><path d="M23 10v1h1v-1" fill="#8f959dff"/><path d="M0 11v1h1v-1" fill="#999ea5ff"/><path d="M1 11v1h1v-1" fill="#8f959dff"/><path d="M2 11v1h1v-1" fill="#999ea5ff"/><path d="M3 11v1h1v-1" fill="#8f959dff"/><path d="M4 11v1h1v-1" fill="#999ea5ff"/><path d="M5 11v1h1v-1" fill="#c0c1bdff"/><path d="M6 11v1h1v-1" fill="#000000ff"/><path d="M7 11v1h1v-1" fill="#351e06ff"/><path d="M8 11v1h1v-1" fill="#000000ff"/><path d="M9 11v1h3v-1" fill="#31b41cff"/><path d="M12 11v1h2v-1" fill="#16958eff"/><path d="M14 11v1h2v-1" fill="#31b41cff"/><path d="M16 11v1h1v-1" fill="#000000ff"/><path d="M17 11v1h2v-1" fill="#af401eff"/><path d="M19 11v1h1v-1" fill="#0e1a19ff"/><path d="M20 11v1h1v-1" fill="#af401eff"/><path d="M21 11v1h1v-1" fill="#999ea5ff"/><path d="M22 11v1h2v-1" fill="#af401eff"/><path d="M0 12v1h1v-1" fill="#8f959dff"/><path d="M1 12v1h1v-1" fill="#999ea5ff"/><path d="M2 12v1h1v-1" fill="#8f959dff"/><path d="M3 12v1h1v-1" fill="#0e1a19ff"/><path d="M4 12v1h1v-1" fill="#8f959dff"/><path d="M5 12v1h1v-1" fill="#000000ff"/><path d="M6 12v1h1v-1" fill="#3b2107ff"/><path d="M7 12v1h1v-1" fill="#351e06ff"/><path d="M8 12v1h1v-1" fill="#000000ff"/><path d="M9 12v1h1v-1" fill="#fff83bff"/><path d="M10 12v1h2v-1" fill="#a3df2fff"/><path d="M12 12v1h2v-1" fill="#000000ff"/><path d="M14 12v1h1v-1" fill="#a3df2fff"/><path d="M15 12v1h1v-1" fill="#fff83bff"/><path d="M16 12v1h1v-1" fill="#000000ff"/><path d="M17 12v1h1v-1" fill="#af401eff"/><path d="M18 12v1h2v-1" fill="#0e1a19ff"/><path d="M20 12v1h3v-1" fill="#af401eff"/><path d="M23 12v1h1v-1" fill="#999ea5ff"/><path d="M0 13v1h1v-1" fill="#999ea5ff"/><path d="M1 13v1h1v-1" fill="#8f959dff"/><path d="M2 13v1h1v-1" fill="#999ea5ff"/><path d="M3 13v1h1v-1" fill="#8f959dff"/><path d="M4 13v1h1v-1" fill="#0e1a19ff"/><path d="M5 13v1h1v-1" fill="#000000ff"/><path d="M6 13v1h1v-1" fill="#3b2107ff"/><path d="M7 13v1h1v-1" fill="#351e06ff"/><path d="M8 13v1h1v-1" fill="#3b2107ff"/><path d="M9 13v1h3v-1" fill="#000000ff"/><path d="M12 13v1h2v-1" fill="#3b2107ff"/><path d="M14 13v1h3v-1" fill="#000000ff"/><path d="M17 13v1h1v-1" fill="#b9ad39ff"/><path d="M18 13v1h1v-1" fill="#af401eff"/><path d="M19 13v1h1v-1" fill="#0e1a19ff"/><path d="M20 13v1h3v-1" fill="#af401eff"/><path d="M23 13v1h1v-1" fill="#8f959dff"/><path d="M0 14v1h1v-1" fill="#8f959dff"/><path d="M1 14v1h1v-1" fill="#999ea5ff"/><path d="M2 14v1h3v-1" fill="#c0c1bdff"/><path d="M5 14v1h2v-1" fill="#000000ff"/><path d="M7 14v1h1v-1" fill="#351e06ff"/><path d="M8 14v1h8v-1" fill="#3b2107ff"/><path d="M16 14v1h1v-1" fill="#000000ff"/><path d="M17 14v1h3v-1" fill="#b9ad39ff"/><path d="M20 14v1h3v-1" fill="#af401eff"/><path d="M23 14v1h1v-1" fill="#bfc0bbff"/><path d="M0 15v1h4v-1" fill="#c0c1bdff"/><path d="M4 15v1h2v-1" fill="#af401eff"/><path d="M6 15v1h1v-1" fill="#000000ff"/><path d="M7 15v1h1v-1" fill="#351e06ff"/><path d="M8 15v1h4v-1" fill="#3b2107ff"/><path d="M12 15v1h2v-1" fill="#000000ff"/><path d="M14 15v1h2v-1" fill="#3b2107ff"/><path d="M16 15v1h1v-1" fill="#000000ff"/><path d="M17 15v1h1v-1" fill="#101c1bff"/><path d="M18 15v1h1v-1" fill="#b9ad39ff"/><path d="M19 15v1h2v-1" fill="#af401eff"/><path d="M21 15v1h3v-1" fill="#bfc0bbff"/><path d="M0 16v1h1v-1" fill="#8f959dff"/><path d="M1 16v1h1v-1" fill="#999ea5ff"/><path d="M2 16v1h3v-1" fill="#c0c1bdff"/><path d="M5 16v1h1v-1" fill="#af401eff"/><path d="M6 16v1h1v-1" fill="#000000ff"/><path d="M7 16v1h1v-1" fill="#351e06ff"/><path d="M8 16v1h2v-1" fill="#3b2107ff"/><path d="M10 16v1h1v-1" fill="#faee7fff"/><path d="M11 16v1h3v-1" fill="#cfa242ff"/><path d="M14 16v1h1v-1" fill="#faee7fff"/><path d="M15 16v1h1v-1" fill="#3b2107ff"/><path d="M16 16v1h1v-1" fill="#000000ff"/><path d="M17 16v1h2v-1" fill="#b9ad39ff"/><path d="M19 16v1h3v-1" fill="#af401eff"/><path d="M22 16v1h2v-1" fill="#0e1a19ff"/><path d="M0 17v1h1v-1" fill="#999ea5ff"/><path d="M1 17v1h1v-1" fill="#8f959dff"/><path d="M2 17v1h1v-1" fill="#999ea5ff"/><path d="M3 17v1h1v-1" fill="#8f959dff"/><path d="M4 17v1h2v-1" fill="#c0c1bdff"/><path d="M6 17v1h1v-1" fill="#000000ff"/><path d="M7 17v1h1v-1" fill="#351e06ff"/><path d="M8 17v1h1v-1" fill="#3b2107ff"/><path d="M9 17v1h1v-1" fill="#faee7fff"/><path d="M10 17v1h1v-1" fill="#cfa242ff"/><path d="M11 17v1h3v-1" fill="#3b2107ff"/><path d="M14 17v1h1v-1" fill="#cfa242ff"/><path d="M15 17v1h1v-1" fill="#faee7fff"/><path d="M16 17v1h1v-1" fill="#000000ff"/><path d="M17 17v1h2v-1" fill="#b9ad39ff"/><path d="M19 17v1h3v-1" fill="#0e1a19ff"/><path d="M22 17v1h2v-1" fill="#af401eff"/><path d="M0 18v1h1v-1" fill="#8f959dff"/><path d="M1 18v1h1v-1" fill="#999ea5ff"/><path d="M2 18v1h2v-1" fill="#0e1a19ff"/><path d="M4 18v1h1v-1" fill="#8f959dff"/><path d="M5 18v1h1v-1" fill="#c0c1bdff"/><path d="M6 18v1h1v-1" fill="#000000ff"/><path d="M7 18v1h1v-1" fill="#351e06ff"/><path d="M8 18v1h1v-1" fill="#3b2107ff"/><path d="M9 18v1h1v-1" fill="#faee7fff"/><path d="M10 18v1h1v-1" fill="#3b2107ff"/><path d="M11 18v1h3v-1" fill="#000000ff"/><path d="M14 18v1h1v-1" fill="#3b2107ff"/><path d="M15 18v1h1v-1" fill="#faee7fff"/><path d="M16 18v1h1v-1" fill="#000000ff"/><path d="M17 18v1h1v-1" fill="#b9ad39ff"/><path d="M18 18v1h1v-1" fill="#0e1a19ff"/><path d="M19 18v1h1v-1" fill="#af401eff"/><path d="M20 18v1h1v-1" fill="#8f959dff"/><path d="M21 18v1h1v-1" fill="#999ea5ff"/><path d="M22 18v1h2v-1" fill="#af401eff"/><path d="M0 19v1h1v-1" fill="#999ea5ff"/><path d="M1 19v1h1v-1" fill="#8f959dff"/><path d="M2 19v1h1v-1" fill="#999ea5ff"/><path d="M3 19v1h1v-1" fill="#8f959dff"/><path d="M4 19v1h1v-1" fill="#999ea5ff"/><path d="M5 19v1h1v-1" fill="#0e1a19ff"/><path d="M6 19v1h1v-1" fill="#000000ff"/><path d="M7 19v1h1v-1" fill="#351e06ff"/><path d="M8 19v1h1v-1" fill="#3b2107ff"/><path d="M9 19v1h1v-1" fill="#cfa242ff"/><path d="M10 19v1h2v-1" fill="#3b2107ff"/><path d="M12 19v1h1v-1" fill="#faee7fff"/><path d="M13 19v1h2v-1" fill="#3b2107ff"/><path d="M15 19v1h1v-1" fill="#cfa242ff"/><path d="M16 19v1h1v-1" fill="#000000ff"/><path d="M17 19v1h1v-1" fill="#b9ad39ff"/><path d="M18 19v1h1v-1" fill="#0e1a19ff"/><path d="M19 19v1h2v-1" fill="#af401eff"/><path d="M21 19v1h1v-1" fill="#8f959dff"/><path d="M22 19v1h1v-1" fill="#999ea5ff"/><path d="M23 19v1h1v-1" fill="#8f959dff"/><path d="M0 20v1h2v-1" fill="#b9bab3ff"/><path d="M2 20v1h3v-1" fill="#0e1a19ff"/><path d="M5 20v1h1v-1" fill="#b9bab3ff"/><path d="M6 20v1h1v-1" fill="#000000ff"/><path d="M7 20v1h2v-1" fill="#351e06ff"/><path d="M9 20v1h1v-1" fill="#cfa242ff"/><path d="M10 20v1h1v-1" fill="#3b2107ff"/><path d="M11 20v1h1v-1" fill="#faee7fff"/><path d="M12 20v1h1v-1" fill="#cfa242ff"/><path d="M13 20v1h1v-1" fill="#faee7fff"/><path d="M14 20v1h1v-1" fill="#3b2107ff"/><path d="M15 20v1h1v-1" fill="#000000ff"/><path d="M16 20v1h1v-1" fill="#bfc0bbff"/><path d="M17 20v1h1v-1" fill="#0e1a19ff"/><path d="M18 20v1h6v-1" fill="#af401eff"/><path d="M0 21v1h1v-1" fill="#999ea5ff"/><path d="M1 21v1h1v-1" fill="#8f959dff"/><path d="M2 21v1h1v-1" fill="#999ea5ff"/><path d="M3 21v1h1v-1" fill="#8f959dff"/><path d="M4 21v1h1v-1" fill="#999ea5ff"/><path d="M5 21v1h1v-1" fill="#af401eff"/><path d="M6 21v1h1v-1" fill="#000000ff"/><path d="M7 21v1h3v-1" fill="#351e06ff"/><path d="M10 21v1h1v-1" fill="#000000ff"/><path d="M11 21v1h3v-1" fill="#cfa242ff"/><path d="M14 21v1h1v-1" fill="#000000ff"/><path d="M15 21v1h1v-1" fill="#101c1bff"/><path d="M16 21v1h1v-1" fill="#0e1a19ff"/><path d="M17 21v1h4v-1" fill="#af401eff"/><path d="M21 21v1h1v-1" fill="#bfc0bbff"/><path d="M22 21v1h1v-1" fill="#999ea5ff"/><path d="M23 21v1h1v-1" fill="#8f959dff"/><path d="M0 22v1h1v-1" fill="#8f959dff"/><path d="M1 22v1h1v-1" fill="#999ea5ff"/><path d="M2 22v1h1v-1" fill="#8f959dff"/><path d="M3 22v1h1v-1" fill="#999ea5ff"/><path d="M4 22v1h1v-1" fill="#0e1a19ff"/><path d="M5 22v1h1v-1" fill="#c0c1bdff"/><path d="M6 22v1h1v-1" fill="#000000ff"/><path d="M7 22v1h3v-1" fill="#351e06ff"/><path d="M10 22v1h4v-1" fill="#000000ff"/><path d="M14 22v1h1v-1" fill="#101c1bff"/><path d="M15 22v1h1v-1" fill="#0e1a19ff"/><path d="M16 22v1h5v-1" fill="#af401eff"/><path d="M21 22v1h1v-1" fill="#bfc0bbff"/><path d="M22 22v1h2v-1" fill="#b9bab3ff"/><path d="M0 23v1h1v-1" fill="#999ea5ff"/><path d="M1 23v1h1v-1" fill="#8f959dff"/><path d="M2 23v1h1v-1" fill="#c0c1bdff"/><path d="M3 23v1h1v-1" fill="#0e1a19ff"/><path d="M4 23v1h1v-1" fill="#c0c1bdff"/><path d="M5 23v1h1v-1" fill="#8f959dff"/><path d="M6 23v1h1v-1" fill="#000000ff"/><path d="M7 23v1h3v-1" fill="#351e06ff"/><path d="M10 23v1h1v-1" fill="#000000ff"/><path d="M11 23v1h2v-1" fill="#af401eff"/><path d="M13 23v1h2v-1" fill="#bfc0bbff"/><path d="M15 23v1h1v-1" fill="#101c1bff"/><path d="M16 23v1h1v-1" fill="#af401eff"/><path d="M17 23v1h1v-1" fill="#8f959dff"/><path d="M18 23v1h1v-1" fill="#999ea5ff"/><path d="M19 23v1h3v-1" fill="#af401eff"/><path d="M22 23v1h1v-1" fill="#bfc0bbff"/><path d="M23 23v1h1v-1" fill="#8f959dff"/></svg>