<svg xmlns="http://www.w3.org/2000/svg" shape-rendering="crispEdges" width="24" height="24" viewBox="0 0 24 24"><path d="M0 0v1h1v-1" fill="#22094dff"/><path d="M1 0v1h1v-1" fill="#3e1467ff"/><path d="M2 0v1h1v-1" fill="#f08af2ff"/><path d="M3 0v1h1v-1" fill="#602584ff"/><path d="M4 0v1h1v-1" fill="#2c0e57ff"/><path d="M5 0v1h1v-1" fill="#20084eff"/><path d="M6 0v1h1v-1" fill="#361163ff"/><path d="M7 0v1h1v-1" fill="#5a1e85ff"/><path d="M8 0v1h1v-1" fill="#571d85ff"/><path d="M9 0v1h1v-1" fill="#4e1880ff"/><path d="M10 0v1h1v-1" fill="#4d1783ff"/><path d="M11 0v1h1v-1" fill="#4f1787ff"/><path d="M12 0v1h1v-1" fill="#50178bff"/><path d="M13 0v1h1v-1" fill="#4e1787ff"/><path d="M14 0v1h1v-1" fill="#4f1783ff"/><path d="M15 0v1h1v-1" fill="#4c187fff"/><path d="M16 0v1h1v-1" fill="#421473ff"/><path d="M17 0v1h1v-1" fill="#2b0a5cff"/><path d="M18 0v1h1v-1" fill="#1f0850ff"/><path d="M19 0v1h1v-1" fill="#2a0c57ff"/><path d="M20 0v1h1v-1" fill="#47186fff"/><path d="M21 0v1h1v-1" fill="#fa91f9ff"/><path d="M22 0v1h1v-1" fill="#32105dff"/><path d="M23 0v1h1v-1" fill="#20094cff"/><path d="M0 1v1h1v-1" fill="#3e1567ff"/><path d="M1 1v1h1v-1" fill="#371260ff"/><path d="M2 1v1h1v-1" fill="#4c1b73ff"/><path d="M3 1v1h1v-1" fill="#fa91f9ff"/><path d="M4 1v1h1v-1" fill="#4b1973ff"/><path d="M5 1v1h1v-1" fill="#300e5eff"/><path d="M6 1v1h1v-1" fill="#441573ff"/><path d="M7 1v1h1v-1" fill="#b50eb2ff"/><path d="M8 1v1h4v-1" fill="#000000ff"/><path d="M12 1v1h4v-1" fill="#be28e8ff"/><path d="M16 1v1h1v-1" fill="#b50eb2ff"/><path d="M17 1v1h1v-1" fill="#431474ff"/><path d="M18 1v1h1v-1" fill="#310d61ff"/><path d="M19 1v1h1v-1" fill="#4b1976ff"/><path d="M20 1v1h1v-1" fill="#fa91f9ff"/><path d="M21 1v1h1v-1" fill="#4a1a72ff"/><path d="M22 1v1h1v-1" fill="#361160ff"/><path d="M23 1v1h1v-1" fill="#3e1568ff"/><path d="M0 2v1h1v-1" fill="#fa91f9ff"/><path d="M1 2v1h1v-1" fill="#4f1c77ff"/><path d="M2 2v1h1v-1" fill="#ffccffff"/><path d="M3 2v1h1v-1" fill="#4c1a75ff"/><path d="M4 2v1h1v-1" fill="#fa91f9ff"/><path d="M5 2v1h1v-1" fill="#4f1a7cff"/><path d="M6 2v1h2v-1" fill="#000000ff"/><path d="M8 2v1h4v-1" fill="#ffa600ff"/><path d="M12 2v1h1v-1" fill="#000000ff"/><path d="M13 2v1h1v-1" fill="#581994ff"/><path d="M14 2v1h1v-1" fill="#601f98ff"/><path d="M15 2v1h1v-1" fill="#7a2aa9ff"/><path d="M16 2v1h1v-1" fill="#b50eb2ff"/><path d="M17 2v1h1v-1" fill="#531a83ff"/><path d="M18 2v1h1v-1" fill="#501a7fff"/><path d="M19 2v1h1v-1" fill="#fa91f9ff"/><path d="M20 2v1h1v-1" fill="#4d1a78ff"/><path d="M21 2v1h1v-1" fill="#ffccffff"/><path d="M22 2v1h1v-1" fill="#4f1c77ff"/><path d="M23 2v1h1v-1" fill="#fa91f9ff"/><path d="M0 3v1h1v-1" fill="#602286ff"/><path d="M1 3v1h1v-1" fill="#fa91f9ff"/><path d="M2 3v1h1v-1" fill="#571f80ff"/><path d="M3 3v1h1v-1" fill="#ffccffff"/><path d="M4 3v1h1v-1" fill="#4e197bff"/><path d="M5 3v1h1v-1" fill="#000000ff"/><path d="M6 3v1h2v-1" fill="#ffa600ff"/><path d="M8 3v1h5v-1" fill="#ffd000ff"/><path d="M13 3v1h1v-1" fill="#000000ff"/><path d="M14 3v1h1v-1" fill="#611d9bff"/><path d="M15 3v1h1v-1" fill="#b50eb2ff"/><path d="M16 3v1h1v-1" fill="#621f95ff"/><path d="M17 3v1h1v-1" fill="#5d1d8eff"/><path d="M18 3v1h1v-1" fill="#fa91f9ff"/><path d="M19 3v1h1v-1" fill="#4f197eff"/><path d="M20 3v1h1v-1" fill="#ffccffff"/><path d="M21 3v1h1v-1" fill="#581f83ff"/><path d="M22 3v1h1v-1" fill="#fa91f9ff"/><path d="M23 3v1h1v-1" fill="#602286ff"/><path d="M0 4v1h1v-1" fill="#4d1b75ff"/><path d="M1 4v1h1v-1" fill="#9714c7ff"/><path d="M2 4v1h1v-1" fill="#fa91f9ff"/><path d="M3 4v1h1v-1" fill="#511b7eff"/><path d="M4 4v1h1v-1" fill="#000000ff"/><path d="M5 4v1h1v-1" fill="#ffa600ff"/><path d="M6 4v1h4v-1" fill="#ffd000ff"/><path d="M10 4v1h3v-1" fill="#ffe675ff"/><path d="M13 4v1h2v-1" fill="#000000ff"/><path d="M15 4v1h1v-1" fill="#631e9cff"/><path d="M16 4v1h1v-1" fill="#611e98ff"/><path d="M17 4v1h1v-1" fill="#fa91f9ff"/><path d="M18 4v1h1v-1" fill="#511885ff"/><path d="M19 4v1h1v-1" fill="#ffccffff"/><path d="M20 4v1h1v-1" fill="#521b81ff"/><path d="M21 4v1h1v-1" fill="#fa91f9ff"/><path d="M22 4v1h1v-1" fill="#9714c7ff"/><path d="M23 4v1h1v-1" fill="#4e1b78ff"/><path d="M0 5v1h1v-1" fill="#4b1974ff"/><path d="M1 5v1h1v-1" fill="#9714c7ff"/><path d="M2 5v1h1v-1" fill="#782a9fff"/><path d="M3 5v1h1v-1" fill="#000000ff"/><path d="M4 5v1h1v-1" fill="#ffa600ff"/><path d="M5 5v1h3v-1" fill="#ffd000ff"/><path d="M8 5v1h2v-1" fill="#ffe675ff"/><path d="M10 5v1h5v-1" fill="#0050e4ff"/><path d="M15 5v1h1v-1" fill="#000000ff"/><path d="M16 5v1h1v-1" fill="#fa91f9ff"/><path d="M17 5v1h1v-1" fill="#53188dff"/><path d="M18 5v1h1v-1" fill="#ffccffff"/><path d="M19 5v1h1v-1" fill="#531987ff"/><path d="M20 5v1h1v-1" fill="#fa91f9ff"/><path d="M21 5v1h1v-1" fill="#782aa1ff"/><path d="M22 5v1h1v-1" fill="#9714c7ff"/><path d="M23 5v1h1v-1" fill="#4b1976ff"/><path d="M0 6v1h1v-1" fill="#491975ff"/><path d="M1 6v1h1v-1" fill="#9714c7ff"/><path d="M2 6v1h1v-1" fill="#5d1f8aff"/><path d="M3 6v1h1v-1" fill="#000000ff"/><path d="M4 6v1h1v-1" fill="#ffa600ff"/><path d="M5 6v1h2v-1" fill="#ffd000ff"/><path d="M7 6v1h1v-1" fill="#ffe675ff"/><path d="M8 6v1h2v-1" fill="#0050e4ff"/><path d="M10 6v1h4v-1" fill="#0086e4ff"/><path d="M14 6v1h1v-1" fill="#ffffffff"/><path d="M15 6v1h1v-1" fill="#0050e4ff"/><path d="M16 6v1h1v-1" fill="#000000ff"/><path d="M17 6v1h1v-1" fill="#451187ff"/><path d="M18 6v1h1v-1" fill="#5e1e97ff"/><path d="M19 6v1h1v-1" fill="#fa91f9ff"/><path d="M20 6v1h1v-1" fill="#5f1f91ff"/><path d="M21 6v1h1v-1" fill="#5e1f8dff"/><path d="M22 6v1h1v-1" fill="#9714c7ff"/><path d="M23 6v1h1v-1" fill="#4a1878ff"/><path d="M0 7v1h1v-1" fill="#4a1878ff"/><path d="M1 7v1h1v-1" fill="#9714c7ff"/><path d="M2 7v1h1v-1" fill="#000000ff"/><path d="M3 7v1h1v-1" fill="#ffa600ff"/><path d="M4 7v1h2v-1" fill="#ffd000ff"/><path d="M6 7v1h1v-1" fill="#ffe675ff"/><path d="M7 7v1h1v-1" fill="#0050e4ff"/><path d="M8 7v1h7v-1" fill="#0086e4ff"/><path d="M15 7v1h1v-1" fill="#ffffffff"/><path d="M16 7v1h1v-1" fill="#0050e4ff"/><path d="M17 7v1h1v-1" fill="#000000ff"/><path d="M18 7v1h1v-1" fill="#fa91f9ff"/><path d="M19 7v1h1v-1" fill="#9714c7ff"/><path d="M20 7v1h1v-1" fill="#571b8eff"/><path d="M21 7v1h1v-1" fill="#541a88ff"/><path d="M22 7v1h1v-1" fill="#9714c7ff"/><path d="M23 7v1h1v-1" fill="#4b187bff"/><path d="M0 8v1h1v-1" fill="#4b187bff"/><path d="M1 8v1h1v-1" fill="#fa91f9ff"/><path d="M2 8v1h1v-1" fill="#000000ff"/><path d="M3 8v1h1v-1" fill="#ffa600ff"/><path d="M4 8v1h1v-1" fill="#ffd000ff"/><path d="M5 8v1h1v-1" fill="#ffe675ff"/><path d="M6 8v1h1v-1" fill="#0050e4ff"/><path d="M7 8v1h4v-1" fill="#0086e4ff"/><path d="M11 8v1h4v-1" fill="#006be4ff"/><path d="M15 8v1h1v-1" fill="#0086e4ff"/><path d="M16 8v1h1v-1" fill="#0050e4ff"/><path d="M17 8v1h1v-1" fill="#000000ff"/><path d="M18 8v1h1v-1" fill="#892fbbff"/><path d="M19 8v1h1v-1" fill="#9714c7ff"/><path d="M20 8v1h1v-1" fill="#561a91ff"/><path d="M21 8v1h1v-1" fill="#55198bff"/><path d="M22 8v1h1v-1" fill="#fa91f9ff"/><path d="M23 8v1h1v-1" fill="#4c187fff"/><path d="M0 9v1h1v-1" fill="#4c187fff"/><path d="M1 9v1h1v-1" fill="#000000ff"/><path d="M2 9v1h1v-1" fill="#ffa600ff"/><path d="M3 9v1h1v-1" fill="#ffd000ff"/><path d="M4 9v1h1v-1" fill="#ffe675ff"/><path d="M5 9v1h1v-1" fill="#0050e4ff"/><path d="M6 9v1h2v-1" fill="#0086e4ff"/><path d="M8 9v1h3v-1" fill="#006be4ff"/><path d="M11 9v1h4v-1" fill="#0050e4ff"/><path d="M15 9v1h1v-1" fill="#006be4ff"/><path d="M16 9v1h1v-1" fill="#0050e4ff"/><path d="M17 9v1h1v-1" fill="#000000ff"/><path d="M18 9v1h1v-1" fill="#822cb9ff"/><path d="M19 9v1h1v-1" fill="#fa91f9ff"/><path d="M20 9v1h1v-1" fill="#571993ff"/><path d="M21 9v1h1v-1" fill="#56198fff"/><path d="M22 9v1h1v-1" fill="#fa91f9ff"/><path d="M23 9v1h1v-1" fill="#4d1783ff"/><path d="M0 10v1h1v-1" fill="#4d1783ff"/><path d="M1 10v1h1v-1" fill="#000000ff"/><path d="M2 10v1h1v-1" fill="#ffa600ff"/><path d="M3 10v1h1v-1" fill="#ffd000ff"/><path d="M4 10v1h1v-1" fill="#ffe675ff"/><path d="M5 10v1h1v-1" fill="#0050e4ff"/><path d="M6 10v1h1v-1" fill="#0086e4ff"/><path d="M7 10v1h2v-1" fill="#006be4ff"/><path d="M9 10v1h2v-1" fill="#0050e4ff"/><path d="M11 10v1h4v-1" fill="#ead9d9ff"/><path d="M15 10v1h2v-1" fill="#0050e4ff"/><path d="M17 10v1h1v-1" fill="#000000ff"/><path d="M18 10v1h1v-1" fill="#812abaff"/><path d="M19 10v1h1v-1" fill="#fa91f9ff"/><path d="M20 10v1h1v-1" fill="#591998ff"/><path d="M21 10v1h1v-1" fill="#571994ff"/><path d="M22 10v1h1v-1" fill="#ffccffff"/><path d="M23 10v1h1v-1" fill="#4e1787ff"/><path d="M0 11v1h1v-1" fill="#000000ff"/><path d="M1 11v1h1v-1" fill="#ffa600ff"/><path d="M2 11v1h2v-1" fill="#ffd000ff"/><path d="M4 11v1h1v-1" fill="#ffe675ff"/><path d="M5 11v1h1v-1" fill="#0050e4ff"/><path d="M6 11v1h2v-1" fill="#006be4ff"/><path d="M8 11v1h1v-1" fill="#852f73ff"/><path d="M9 11v1h3v-1" fill="#f4706eff"/><path d="M12 11v1h4v-1" fill="#ead9d9ff"/><path d="M16 11v1h1v-1" fill="#000000ff"/><path d="M17 11v1h1v-1" fill="#fa91f9ff"/><path d="M18 11v1h1v-1" fill="#812abdff"/><path d="M19 11v1h1v-1" fill="#ffccffff"/><path d="M20 11v1h1v-1" fill="#59199cff"/><path d="M21 11v1h1v-1" fill="#591998ff"/><path d="M22 11v1h1v-1" fill="#ffccffff"/><path d="M23 11v1h1v-1" fill="#50178bff"/><path d="M0 12v1h1v-1" fill="#000000ff"/><path d="M1 12v1h1v-1" fill="#ffa600ff"/><path d="M2 12v1h2v-1" fill="#ffd000ff"/><path d="M4 12v1h1v-1" fill="#ffe675ff"/><path d="M5 12v1h1v-1" fill="#0050e4ff"/><path d="M6 12v1h1v-1" fill="#006be4ff"/><path d="M7 12v1h1v-1" fill="#0050e4ff"/><path d="M8 12v1h1v-1" fill="#ecececff"/><path d="M9 12v1h2v-1" fill="#d34c4aff"/><path d="M11 12v1h1v-1" fill="#f4706eff"/><path d="M12 12v1h2v-1" fill="#ead9d9ff"/><path d="M14 12v1h2v-1" fill="#a58d8dff"/><path d="M16 12v1h1v-1" fill="#000000ff"/><path d="M17 12v1h1v-1" fill="#fa91f9ff"/><path d="M18 12v1h1v-1" fill="#822abfff"/><path d="M19 12v1h1v-1" fill="#ffccffff"/><path d="M20 12v1h1v-1" fill="#5b18a0ff"/><path d="M21 12v1h1v-1" fill="#59199cff"/><path d="M22 12v1h1v-1" fill="#ffccffff"/><path d="M23 12v1h1v-1" fill="#511790ff"/><path d="M0 13v1h1v-1" fill="#000000ff"/><path d="M1 13v1h1v-1" fill="#ffa600ff"/><path d="M2 13v1h2v-1" fill="#ffd000ff"/><path d="M4 13v1h1v-1" fill="#ffe675ff"/><path d="M5 13v1h1v-1" fill="#000000ff"/><path d="M6 13v1h1v-1" fill="#0050e4ff"/><path d="M7 13v1h1v-1" fill="#ffffffff"/><path d="M8 13v1h1v-1" fill="#ecececff"/><path d="M9 13v1h1v-1" fill="#850806ff"/><path d="M10 13v1h1v-1" fill="#e55e5bff"/><path d="M11 13v1h1v-1" fill="#f4706eff"/><path d="M12 13v1h2v-1" fill="#ead9d9ff"/><path d="M14 13v1h1v-1" fill="#000000ff"/><path d="M15 13v1h1v-1" fill="#c9b2b2ff"/><path d="M16 13v1h1v-1" fill="#000000ff"/><path d="M17 13v1h1v-1" fill="#b231e2ff"/><path d="M18 13v1h1v-1" fill="#812abdff"/><path d="M19 13v1h1v-1" fill="#fa91f9ff"/><path d="M20 13v1h1v-1" fill="#59199cff"/><path d="M21 13v1h1v-1" fill="#591998ff"/><path d="M22 13v1h1v-1" fill="#ffccffff"/><path d="M23 13v1h1v-1" fill="#50178bff"/><path d="M0 14v1h1v-1" fill="#000000ff"/><path d="M1 14v1h1v-1" fill="#ffa600ff"/><path d="M2 14v1h2v-1" fill="#ffd000ff"/><path d="M4 14v1h1v-1" fill="#ffe675ff"/><path d="M5 14v1h1v-1" fill="#df2a6aff"/><path d="M6 14v1h1v-1" fill="#ff7dabff"/><path d="M7 14v1h1v-1" fill="#000000ff"/><path d="M8 14v1h1v-1" fill="#ecececff"/><path d="M9 14v1h3v-1" fill="#f4706eff"/><path d="M12 14v1h4v-1" fill="#ead9d9ff"/><path d="M16 14v1h1v-1" fill="#000000ff"/><path d="M17 14v1h1v-1" fill="#b231e2ff"/><path d="M18 14v1h1v-1" fill="#802ab9ff"/><path d="M19 14v1h1v-1" fill="#fa91f9ff"/><path d="M20 14v1h1v-1" fill="#581997ff"/><path d="M21 14v1h1v-1" fill="#571994ff"/><path d="M22 14v1h1v-1" fill="#fa91f9ff"/><path d="M23 14v1h1v-1" fill="#4f1787ff"/><path d="M0 15v1h1v-1" fill="#000000ff"/><path d="M1 15v1h1v-1" fill="#ffa600ff"/><path d="M2 15v1h2v-1" fill="#ffd000ff"/><path d="M4 15v1h1v-1" fill="#ffe675ff"/><path d="M5 15v1h1v-1" fill="#000000ff"/><path d="M6 15v1h1v-1" fill="#c60045ff"/><path d="M7 15v1h1v-1" fill="#000000ff"/><path d="M8 15v1h1v-1" fill="#d3c3c3ff"/><path d="M9 15v1h7v-1" fill="#ead9d9ff"/><path d="M16 15v1h1v-1" fill="#000000ff"/><path d="M17 15v1h1v-1" fill="#b231e2ff"/><path d="M18 15v1h1v-1" fill="#812bb8ff"/><path d="M19 15v1h1v-1" fill="#9714c7ff"/><path d="M20 15v1h1v-1" fill="#571993ff"/><path d="M21 15v1h1v-1" fill="#56198fff"/><path d="M22 15v1h1v-1" fill="#fa91f9ff"/><path d="M23 15v1h1v-1" fill="#4d1783ff"/><path d="M0 16v1h1v-1" fill="#000000ff"/><path d="M1 16v1h1v-1" fill="#ffa600ff"/><path d="M2 16v1h2v-1" fill="#ffd000ff"/><path d="M4 16v1h1v-1" fill="#ffe675ff"/><path d="M5 16v1h1v-1" fill="#000000ff"/><path d="M6 16v1h1v-1" fill="#b231e2ff"/><path d="M7 16v1h1v-1" fill="#000000ff"/><path d="M8 16v1h1v-1" fill="#d3c3c3ff"/><path d="M9 16v1h3v-1" fill="#ead9d9ff"/><path d="M12 16v1h1v-1" fill="#000000ff"/><path d="M13 16v1h3v-1" fill="#ead9d9ff"/><path d="M16 16v1h1v-1" fill="#000000ff"/><path d="M17 16v1h1v-1" fill="#b231e2ff"/><path d="M18 16v1h1v-1" fill="#8a2fbcff"/><path d="M19 16v1h1v-1" fill="#9714c7ff"/><path d="M20 16v1h1v-1" fill="#561a91ff"/><path d="M21 16v1h1v-1" fill="#54198bff"/><path d="M22 16v1h1v-1" fill="#9714c7ff"/><path d="M23 16v1h1v-1" fill="#4c187fff"/><path d="M0 17v1h1v-1" fill="#000000ff"/><path d="M1 17v1h1v-1" fill="#ffa600ff"/><path d="M2 17v1h2v-1" fill="#ffd000ff"/><path d="M4 17v1h1v-1" fill="#ffe675ff"/><path d="M5 17v1h1v-1" fill="#000000ff"/><path d="M6 17v1h1v-1" fill="#651f9fff"/><path d="M7 17v1h1v-1" fill="#000000ff"/><path d="M8 17v1h1v-1" fill="#d3c3c3ff"/><path d="M9 17v1h7v-1" fill="#ead9d9ff"/><path d="M16 17v1h1v-1" fill="#000000ff"/><path d="M17 17v1h1v-1" fill="#661fa3ff"/><path d="M18 17v1h1v-1" fill="#fa91f9ff"/><path d="M19 17v1h1v-1" fill="#9714c7ff"/><path d="M20 17v1h1v-1" fill="#581b8fff"/><path d="M21 17v1h1v-1" fill="#541a88ff"/><path d="M22 17v1h1v-1" fill="#9714c7ff"/><path d="M23 17v1h1v-1" fill="#4b187bff"/><path d="M0 18v1h1v-1" fill="#000000ff"/><path d="M1 18v1h1v-1" fill="#ffa600ff"/><path d="M2 18v1h2v-1" fill="#ffd000ff"/><path d="M4 18v1h1v-1" fill="#ffe675ff"/><path d="M5 18v1h1v-1" fill="#000000ff"/><path d="M6 18v1h1v-1" fill="#451383ff"/><path d="M7 18v1h1v-1" fill="#000000ff"/><path d="M8 18v1h1v-1" fill="#d3c3c3ff"/><path d="M9 18v1h2v-1" fill="#ead9d9ff"/><path d="M11 18v1h3v-1" fill="#970101ff"/><path d="M14 18v1h2v-1" fill="#ead9d9ff"/><path d="M16 18v1h1v-1" fill="#000000ff"/><path d="M17 18v1h1v-1" fill="#481289ff"/><path d="M18 18v1h1v-1" fill="#5f1e97ff"/><path d="M19 18v1h1v-1" fill="#fa91f9ff"/><path d="M20 18v1h1v-1" fill="#5f1f91ff"/><path d="M21 18v1h1v-1" fill="#5e1f8dff"/><path d="M22 18v1h1v-1" fill="#9714c7ff"/><path d="M23 18v1h1v-1" fill="#4a1878ff"/><path d="M0 19v1h1v-1" fill="#000000ff"/><path d="M1 19v1h1v-1" fill="#ffa600ff"/><path d="M2 19v1h2v-1" fill="#ffd000ff"/><path d="M4 19v1h1v-1" fill="#ffe675ff"/><path d="M5 19v1h1v-1" fill="#000000ff"/><path d="M6 19v1h1v-1" fill="#52188aff"/><path d="M7 19v1h1v-1" fill="#fa91f9ff"/><path d="M8 19v1h1v-1" fill="#000000ff"/><path d="M9 19v1h1v-1" fill="#d3c3c3ff"/><path d="M10 19v1h5v-1" fill="#ead9d9ff"/><path d="M15 19v1h1v-1" fill="#000000ff"/><path d="M16 19v1h1v-1" fill="#b50eb2ff"/><path d="M17 19v1h1v-1" fill="#5a1b92ff"/><path d="M18 19v1h1v-1" fill="#44137eff"/><path d="M19 19v1h1v-1" fill="#571b8aff"/><path d="M20 19v1h1v-1" fill="#fa91f9ff"/><path d="M21 19v1h1v-1" fill="#7a2ba3ff"/><path d="M22 19v1h1v-1" fill="#9714c7ff"/><path d="M23 19v1h1v-1" fill="#4b1976ff"/><path d="M0 20v1h1v-1" fill="#000000ff"/><path d="M1 20v1h1v-1" fill="#ffa600ff"/><path d="M2 20v1h3v-1" fill="#ffe675ff"/><path d="M5 20v1h1v-1" fill="#000000ff"/><path d="M6 20v1h1v-1" fill="#b231e2ff"/><path d="M7 20v1h1v-1" fill="#5c1d91ff"/><path d="M8 20v1h1v-1" fill="#000000ff"/><path d="M9 20v1h1v-1" fill="#d3c3c3ff"/><path d="M10 20v1h1v-1" fill="#000000ff"/><path d="M11 20v1h3v-1" fill="#ead9d9ff"/><path d="M14 20v1h1v-1" fill="#000000ff"/><path d="M15 20v1h1v-1" fill="#7526aaff"/><path d="M16 20v1h1v-1" fill="#862eb5ff"/><path d="M17 20v1h1v-1" fill="#b231e2ff"/><path d="M18 20v1h1v-1" fill="#672398ff"/><path d="M19 20v1h1v-1" fill="#5f208fff"/><path d="M20 20v1h1v-1" fill="#74299dff"/><path d="M21 20v1h1v-1" fill="#fa91f9ff"/><path d="M22 20v1h1v-1" fill="#9714c7ff"/><path d="M23 20v1h1v-1" fill="#4e1b78ff"/><path d="M0 21v1h1v-1" fill="#000000ff"/><path d="M1 21v1h1v-1" fill="#ffa600ff"/><path d="M2 21v1h1v-1" fill="#ffe675ff"/><path d="M3 21v1h2v-1" fill="#0086e4ff"/><path d="M5 21v1h1v-1" fill="#000000ff"/><path d="M6 21v1h1v-1" fill="#541b85ff"/><path d="M7 21v1h1v-1" fill="#4a157fff"/><path d="M8 21v1h1v-1" fill="#000000ff"/><path d="M9 21v1h2v-1" fill="#d3c3c3ff"/><path d="M11 21v1h3v-1" fill="#000000ff"/><path d="M14 21v1h1v-1" fill="#430f84ff"/><path d="M15 21v1h5v-1" fill="#b231e2ff"/><path d="M20 21v1h1v-1" fill="#ffccffff"/><path d="M21 21v1h1v-1" fill="#712998ff"/><path d="M22 21v1h1v-1" fill="#fa91f9ff"/><path d="M23 21v1h1v-1" fill="#602286ff"/><path d="M0 22v1h1v-1" fill="#000000ff"/><path d="M1 22v1h2v-1" fill="#0086e4ff"/><path d="M3 22v1h2v-1" fill="#0050e4ff"/><path d="M5 22v1h1v-1" fill="#000000ff"/><path d="M6 22v1h1v-1" fill="#541c83ff"/><path d="M7 22v1h1v-1" fill="#3c116fff"/><path d="M8 22v1h2v-1" fill="#000000ff"/><path d="M10 22v1h1v-1" fill="#1c1c1cff"/><path d="M11 22v1h1v-1" fill="#292929ff"/><path d="M12 22v1h1v-1" fill="#000000ff"/><path d="M13 22v1h1v-1" fill="#27036fff"/><path d="M14 22v1h1v-1" fill="#2f0972ff"/><path d="M15 22v1h1v-1" fill="#44137dff"/><path d="M16 22v1h1v-1" fill="#4d1783ff"/><path d="M17 22v1h1v-1" fill="#521a84ff"/><path d="M18 22v1h1v-1" fill="#642290ff"/><path d="M19 22v1h1v-1" fill="#b231e2ff"/><path d="M20 22v1h1v-1" fill="#6f2896ff"/><path d="M21 22v1h1v-1" fill="#ffccffff"/><path d="M22 22v1h1v-1" fill="#501c77ff"/><path d="M23 22v1h1v-1" fill="#fa91f9ff"/><path d="M0 23v1h1v-1" fill="#000000ff"/><path d="M1 23v1h2v-1" fill="#0050e4ff"/><path d="M3 23v1h3v-1" fill="#000000ff"/><path d="M6 23v1h1v-1" fill="#b231e2ff"/><path d="M7 23v1h1v-1" fill="#451576ff"/><path d="M8 23v1h1v-1" fill="#000000ff"/><path d="M9 23v1h3v-1" fill="#d3c3c3ff"/><path d="M12 23v1h1v-1" fill="#000000ff"/><path d="M13 23v1h1v-1" fill="#240469ff"/><path d="M14 23v1h1v-1" fill="#240564ff"/><path d="M15 23v1h1v-1" fill="#250661ff"/><path d="M16 23v1h1v-1" fill="#25075eff"/><path d="M17 23v1h1v-1" fill="#250859ff"/><path d="M18 23v1h1v-1" fill="#300d62ff"/><path d="M19 23v1h1v-1" fill="#591f82ff"/><path d="M20 23v1h1v-1" fill="#b231e2ff"/><path d="M21 23v1h1v-1" fill="#41166aff"/><path d="M22 23v1h1v-1" fill="#ffccffff"/><path d="M23 23v1h1v-1" fill="#3e1466ff"/></svg>