<svg xmlns="http://www.w3.org/2000/svg" shape-rendering="crispEdges" width="24" height="24" viewBox="0 0 24 24"><path d="M0 0v1h1v-1" fill="#1e337fff"/><path d="M1 0v1h1v-1" fill="#537acaff"/><path d="M2 0v1h1v-1" fill="#4b72c2ff"/><path d="M3 0v1h1v-1" fill="#567dcdff"/><path d="M4 0v1h3v-1" fill="#1e337fff"/><path d="M7 0v1h2v-1" fill="#2f48a1ff"/><path d="M9 0v1h2v-1" fill="#1e337fff"/><path d="M11 0v1h1v-1" fill="#5077c7ff"/><path d="M12 0v1h1v-1" fill="#e3eff4ff"/><path d="M13 0v1h1v-1" fill="#27387bff"/><path d="M14 0v1h1v-1" fill="#1a2655ff"/><path d="M15 0v1h1v-1" fill="#101833ff"/><path d="M16 0v1h1v-1" fill="#080c1cff"/><path d="M17 0v1h1v-1" fill="#03060dff"/><path d="M18 0v1h1v-1" fill="#020205ff"/><path d="M19 0v1h1v-1" fill="#000002ff"/><path d="M20 0v1h4v-1" fill="#000000ff"/><path d="M0 1v1h1v-1" fill="#4f76c6ff"/><path d="M1 1v1h1v-1" fill="#4970c0ff"/><path d="M2 1v1h4v-1" fill="#000000ff"/><path d="M6 1v1h1v-1" fill="#1e337fff"/><path d="M7 1v1h1v-1" fill="#2f48a1ff"/><path d="M8 1v1h7v-1" fill="#000000ff"/><path d="M15 1v1h1v-1" fill="#172148ff"/><path d="M16 1v1h1v-1" fill="#0d152bff"/><path d="M17 1v1h3v-1" fill="#000000ff"/><path d="M20 1v1h1v-1" fill="#000001ff"/><path d="M21 1v1h3v-1" fill="#000000ff"/><path d="M0 2v1h1v-1" fill="#557cccff"/><path d="M1 2v1h1v-1" fill="#000000ff"/><path d="M2 2v1h4v-1" fill="#212121ff"/><path d="M6 2v1h2v-1" fill="#000000ff"/><path d="M8 2v1h7v-1" fill="#ffffffff"/><path d="M15 2v1h2v-1" fill="#000000ff"/><path d="M17 2v1h3v-1" fill="#212121ff"/><path d="M20 2v1h4v-1" fill="#000000ff"/><path d="M0 3v1h1v-1" fill="#5077c7ff"/><path d="M1 3v1h1v-1" fill="#000000ff"/><path d="M2 3v1h5v-1" fill="#212121ff"/><path d="M7 3v1h10v-1" fill="#ffffffff"/><path d="M17 3v1h3v-1" fill="#212121ff"/><path d="M20 3v1h1v-1" fill="#000000ff"/><path d="M21 3v1h1v-1" fill="#000002ff"/><path d="M22 3v1h2v-1" fill="#000000ff"/><path d="M0 4v1h1v-1" fill="#577eceff"/><path d="M1 4v1h1v-1" fill="#000000ff"/><path d="M2 4v1h3v-1" fill="#212121ff"/><path d="M5 4v1h2v-1" fill="#ffffffff"/><path d="M7 4v1h2v-1" fill="#151515ff"/><path d="M9 4v1h6v-1" fill="#ffffffff"/><path d="M15 4v1h2v-1" fill="#151515ff"/><path d="M17 4v1h1v-1" fill="#ffffffff"/><path d="M18 4v1h2v-1" fill="#212121ff"/><path d="M20 4v1h1v-1" fill="#000000ff"/><path d="M21 4v1h1v-1" fill="#010203ff"/><path d="M22 4v1h2v-1" fill="#000000ff"/><path d="M0 5v1h1v-1" fill="#4e75c5ff"/><path d="M1 5v1h1v-1" fill="#000000ff"/><path d="M2 5v1h2v-1" fill="#212121ff"/><path d="M4 5v1h2v-1" fill="#ffffffff"/><path d="M6 5v1h3v-1" fill="#151515ff"/><path d="M9 5v1h1v-1" fill="#000000ff"/><path d="M10 5v1h4v-1" fill="#ffffffff"/><path d="M14 5v1h4v-1" fill="#151515ff"/><path d="M18 5v1h1v-1" fill="#ffffffff"/><path d="M19 5v1h1v-1" fill="#000000ff"/><path d="M20 5v1h1v-1" fill="#050711ff"/><path d="M21 5v1h1v-1" fill="#020306ff"/><path d="M22 5v1h2v-1" fill="#000000ff"/><path d="M0 6v1h1v-1" fill="#5279c9ff"/><path d="M1 6v1h1v-1" fill="#2f48a1ff"/><path d="M2 6v1h1v-1" fill="#000000ff"/><path d="M3 6v1h1v-1" fill="#212121ff"/><path d="M4 6v1h1v-1" fill="#ffffffff"/><path d="M5 6v1h3v-1" fill="#151515ff"/><path d="M8 6v1h1v-1" fill="#ffffffff"/><path d="M9 6v1h1v-1" fill="#151515ff"/><path d="M10 6v1h4v-1" fill="#ffffffff"/><path d="M14 6v1h1v-1" fill="#151515ff"/><path d="M15 6v1h1v-1" fill="#ffffffff"/><path d="M16 6v1h3v-1" fill="#151515ff"/><path d="M19 6v1h1v-1" fill="#ffffffff"/><path d="M20 6v1h1v-1" fill="#000000ff"/><path d="M21 6v1h1v-1" fill="#03050aff"/><path d="M22 6v1h2v-1" fill="#000000ff"/><path d="M0 7v1h1v-1" fill="#577eceff"/><path d="M1 7v1h1v-1" fill="#557cccff"/><path d="M2 7v1h1v-1" fill="#000000ff"/><path d="M3 7v1h2v-1" fill="#ffffffff"/><path d="M5 7v1h3v-1" fill="#151515ff"/><path d="M8 7v1h1v-1" fill="#ffffffff"/><path d="M9 7v1h1v-1" fill="#151515ff"/><path d="M10 7v1h4v-1" fill="#ffffffff"/><path d="M14 7v1h1v-1" fill="#151515ff"/><path d="M15 7v1h1v-1" fill="#ffffffff"/><path d="M16 7v1h3v-1" fill="#151515ff"/><path d="M19 7v1h1v-1" fill="#ffffffff"/><path d="M20 7v1h1v-1" fill="#000000ff"/><path d="M21 7v1h1v-1" fill="#050810ff"/><path d="M22 7v1h2v-1" fill="#000000ff"/><path d="M0 8v1h1v-1" fill="#5980d0ff"/><path d="M1 8v1h1v-1" fill="#b6c9e2ff"/><path d="M2 8v1h1v-1" fill="#000000ff"/><path d="M3 8v1h2v-1" fill="#ffffffff"/><path d="M5 8v1h4v-1" fill="#151515ff"/><path d="M9 8v1h3v-1" fill="#ffffffff"/><path d="M12 8v1h2v-1" fill="#151515ff"/><path d="M14 8v1h1v-1" fill="#ffffffff"/><path d="M15 8v1h4v-1" fill="#151515ff"/><path d="M19 8v1h1v-1" fill="#ffffffff"/><path d="M20 8v1h1v-1" fill="#000000ff"/><path d="M21 8v1h1v-1" fill="#070a18ff"/><path d="M22 8v1h2v-1" fill="#000000ff"/><path d="M0 9v1h1v-1" fill="#b6c9e2ff"/><path d="M1 9v1h1v-1" fill="#000000ff"/><path d="M2 9v1h1v-1" fill="#d9d9d9ff"/><path d="M3 9v1h3v-1" fill="#ffffffff"/><path d="M6 9v1h2v-1" fill="#151515ff"/><path d="M8 9v1h8v-1" fill="#ffffffff"/><path d="M16 9v1h2v-1" fill="#151515ff"/><path d="M18 9v1h2v-1" fill="#ffffffff"/><path d="M20 9v1h1v-1" fill="#d9d9d9ff"/><path d="M21 9v1h3v-1" fill="#000000ff"/><path d="M0 10v1h1v-1" fill="#b6c9e2ff"/><path d="M1 10v1h1v-1" fill="#000000ff"/><path d="M2 10v1h2v-1" fill="#d9d9d9ff"/><path d="M4 10v1h5v-1" fill="#ffffffff"/><path d="M9 10v1h7v-1" fill="#713f1dff"/><path d="M16 10v1h4v-1" fill="#ffffffff"/><path d="M20 10v1h1v-1" fill="#d9d9d9ff"/><path d="M21 10v1h3v-1" fill="#000000ff"/><path d="M0 11v1h1v-1" fill="#ccdbeeff"/><path d="M1 11v1h1v-1" fill="#000000ff"/><path d="M2 11v1h3v-1" fill="#d9d9d9ff"/><path d="M5 11v1h1v-1" fill="#ffffffff"/><path d="M6 11v1h1v-1" fill="#d9d9d9ff"/><path d="M7 11v1h3v-1" fill="#000000ff"/><path d="M10 11v1h1v-1" fill="#292929ff"/><path d="M11 11v1h1v-1" fill="#000000ff"/><path d="M12 11v1h1v-1" fill="#713f1dff"/><path d="M13 11v1h2v-1" fill="#000000ff"/><path d="M15 11v1h1v-1" fill="#292929ff"/><path d="M16 11v1h1v-1" fill="#000000ff"/><path d="M17 11v1h1v-1" fill="#d9d9d9ff"/><path d="M18 11v1h1v-1" fill="#ffffffff"/><path d="M19 11v1h2v-1" fill="#d9d9d9ff"/><path d="M21 11v1h3v-1" fill="#000000ff"/><path d="M0 12v1h1v-1" fill="#b6c9e2ff"/><path d="M1 12v1h1v-1" fill="#000000ff"/><path d="M2 12v1h4v-1" fill="#d9d9d9ff"/><path d="M6 12v1h1v-1" fill="#713f1dff"/><path d="M7 12v1h3v-1" fill="#000000ff"/><path d="M10 12v1h1v-1" fill="#292929ff"/><path d="M11 12v1h1v-1" fill="#000000ff"/><path d="M12 12v1h1v-1" fill="#2d2d2dff"/><path d="M13 12v1h2v-1" fill="#000000ff"/><path d="M15 12v1h1v-1" fill="#292929ff"/><path d="M16 12v1h2v-1" fill="#000000ff"/><path d="M18 12v1h3v-1" fill="#d9d9d9ff"/><path d="M21 12v1h3v-1" fill="#000000ff"/><path d="M0 13v1h1v-1" fill="#4e75c5ff"/><path d="M1 13v1h1v-1" fill="#000000ff"/><path d="M2 13v1h3v-1" fill="#d9d9d9ff"/><path d="M5 13v1h1v-1" fill="#000000ff"/><path d="M6 13v1h1v-1" fill="#713f1dff"/><path d="M7 13v1h1v-1" fill="#66391aff"/><path d="M8 13v1h2v-1" fill="#000000ff"/><path d="M10 13v1h1v-1" fill="#292929ff"/><path d="M11 13v1h1v-1" fill="#000000ff"/><path d="M12 13v1h1v-1" fill="#713f1dff"/><path d="M13 13v1h2v-1" fill="#000000ff"/><path d="M15 13v1h1v-1" fill="#292929ff"/><path d="M16 13v1h3v-1" fill="#000000ff"/><path d="M19 13v1h2v-1" fill="#d9d9d9ff"/><path d="M21 13v1h3v-1" fill="#000000ff"/><path d="M0 14v1h1v-1" fill="#1e337fff"/><path d="M1 14v1h1v-1" fill="#000000ff"/><path d="M2 14v1h2v-1" fill="#d9d9d9ff"/><path d="M4 14v1h3v-1" fill="#000000ff"/><path d="M7 14v1h1v-1" fill="#66391aff"/><path d="M8 14v1h8v-1" fill="#713f1dff"/><path d="M16 14v1h3v-1" fill="#000000ff"/><path d="M19 14v1h2v-1" fill="#d9d9d9ff"/><path d="M21 14v1h3v-1" fill="#000000ff"/><path d="M0 15v1h1v-1" fill="#1e337fff"/><path d="M1 15v1h1v-1" fill="#000000ff"/><path d="M2 15v1h2v-1" fill="#d9d9d9ff"/><path d="M4 15v1h3v-1" fill="#000000ff"/><path d="M7 15v1h2v-1" fill="#eb84c2ff"/><path d="M9 15v1h1v-1" fill="#feffffff"/><path d="M10 15v1h5v-1" fill="#eb84c2ff"/><path d="M15 15v1h1v-1" fill="#feffffff"/><path d="M16 15v1h3v-1" fill="#000000ff"/><path d="M19 15v1h2v-1" fill="#d9d9d9ff"/><path d="M21 15v1h3v-1" fill="#000000ff"/><path d="M0 16v1h1v-1" fill="#2f48a1ff"/><path d="M1 16v1h1v-1" fill="#000000ff"/><path d="M2 16v1h1v-1" fill="#262626ff"/><path d="M3 16v1h1v-1" fill="#d9d9d9ff"/><path d="M4 16v1h3v-1" fill="#000000ff"/><path d="M7 16v1h1v-1" fill="#eb84c2ff"/><path d="M8 16v1h1v-1" fill="#feffffff"/><path d="M9 16v1h1v-1" fill="#eb84c2ff"/><path d="M10 16v1h1v-1" fill="#feffffff"/><path d="M11 16v1h3v-1" fill="#eb84c2ff"/><path d="M14 16v1h1v-1" fill="#feffffff"/><path d="M15 16v1h1v-1" fill="#eb84c2ff"/><path d="M16 16v1h3v-1" fill="#000000ff"/><path d="M19 16v1h1v-1" fill="#d9d9d9ff"/><path d="M20 16v1h1v-1" fill="#262626ff"/><path d="M21 16v1h3v-1" fill="#000000ff"/><path d="M0 17v1h1v-1" fill="#5178c8ff"/><path d="M1 17v1h1v-1" fill="#000000ff"/><path d="M2 17v1h1v-1" fill="#262626ff"/><path d="M3 17v1h1v-1" fill="#333333ff"/><path d="M4 17v1h1v-1" fill="#d9d9d9ff"/><path d="M5 17v1h2v-1" fill="#000000ff"/><path d="M7 17v1h2v-1" fill="#eb84c2ff"/><path d="M9 17v1h1v-1" fill="#feffffff"/><path d="M10 17v1h2v-1" fill="#eb84c2ff"/><path d="M12 17v1h1v-1" fill="#feffffff"/><path d="M13 17v1h2v-1" fill="#eb84c2ff"/><path d="M15 17v1h1v-1" fill="#feffffff"/><path d="M16 17v1h2v-1" fill="#000000ff"/><path d="M18 17v1h1v-1" fill="#d9d9d9ff"/><path d="M19 17v1h1v-1" fill="#333333ff"/><path d="M20 17v1h1v-1" fill="#262626ff"/><path d="M21 17v1h3v-1" fill="#000000ff"/><path d="M0 18v1h1v-1" fill="#4c73c3ff"/><path d="M1 18v1h1v-1" fill="#587fcfff"/><path d="M2 18v1h1v-1" fill="#000000ff"/><path d="M3 18v1h1v-1" fill="#212121ff"/><path d="M4 18v1h1v-1" fill="#666666ff"/><path d="M5 18v1h2v-1" fill="#000000ff"/><path d="M7 18v1h1v-1" fill="#eb84c2ff"/><path d="M8 18v1h1v-1" fill="#feffffff"/><path d="M9 18v1h2v-1" fill="#eb84c2ff"/><path d="M11 18v1h1v-1" fill="#feffffff"/><path d="M12 18v1h1v-1" fill="#eb84c2ff"/><path d="M13 18v1h1v-1" fill="#feffffff"/><path d="M14 18v1h2v-1" fill="#eb84c2ff"/><path d="M16 18v1h2v-1" fill="#000000ff"/><path d="M18 18v1h1v-1" fill="#666666ff"/><path d="M19 18v1h2v-1" fill="#000000ff"/><path d="M21 18v1h1v-1" fill="#0e152eff"/><path d="M22 18v1h2v-1" fill="#000000ff"/><path d="M0 19v1h1v-1" fill="#4b72c2ff"/><path d="M1 19v1h1v-1" fill="#2f48a1ff"/><path d="M2 19v1h1v-1" fill="#000000ff"/><path d="M3 19v1h1v-1" fill="#212121ff"/><path d="M4 19v1h1v-1" fill="#666666ff"/><path d="M5 19v1h2v-1" fill="#000000ff"/><path d="M7 19v1h1v-1" fill="#eb84c2ff"/><path d="M8 19v1h1v-1" fill="#feffffff"/><path d="M9 19v1h5v-1" fill="#eb84c2ff"/><path d="M14 19v1h1v-1" fill="#feffffff"/><path d="M15 19v1h1v-1" fill="#eb84c2ff"/><path d="M16 19v1h1v-1" fill="#000000ff"/><path d="M17 19v1h1v-1" fill="#666666ff"/><path d="M18 19v1h2v-1" fill="#000000ff"/><path d="M20 19v1h1v-1" fill="#17234bff"/><path d="M21 19v1h1v-1" fill="#0d1228ff"/><path d="M22 19v1h2v-1" fill="#000000ff"/><path d="M0 20v1h1v-1" fill="#4e75c5ff"/><path d="M1 20v1h1v-1" fill="#1e337fff"/><path d="M2 20v1h1v-1" fill="#000000ff"/><path d="M3 20v1h2v-1" fill="#212121ff"/><path d="M5 20v1h1v-1" fill="#999999ff"/><path d="M6 20v1h2v-1" fill="#000000ff"/><path d="M8 20v1h3v-1" fill="#eb84c2ff"/><path d="M11 20v1h1v-1" fill="#feffffff"/><path d="M12 20v1h3v-1" fill="#eb84c2ff"/><path d="M15 20v1h1v-1" fill="#000000ff"/><path d="M16 20v1h1v-1" fill="#999999ff"/><path d="M17 20v1h2v-1" fill="#000000ff"/><path d="M19 20v1h1v-1" fill="#e3eff4ff"/><path d="M20 20v1h1v-1" fill="#141e42ff"/><path d="M21 20v1h1v-1" fill="#0a0f23ff"/><path d="M22 20v1h2v-1" fill="#000000ff"/><path d="M0 21v1h1v-1" fill="#5980d0ff"/><path d="M1 21v1h1v-1" fill="#4d74c4ff"/><path d="M2 21v1h1v-1" fill="#000000ff"/><path d="M3 21v1h2v-1" fill="#212121ff"/><path d="M5 21v1h1v-1" fill="#999999ff"/><path d="M6 21v1h1v-1" fill="#000000ff"/><path d="M7 21v1h1v-1" fill="#66391aff"/><path d="M8 21v1h2v-1" fill="#000000ff"/><path d="M10 21v1h1v-1" fill="#feffffff"/><path d="M11 21v1h1v-1" fill="#eb84c2ff"/><path d="M12 21v1h1v-1" fill="#feffffff"/><path d="M13 21v1h1v-1" fill="#eb84c2ff"/><path d="M14 21v1h1v-1" fill="#000000ff"/><path d="M15 21v1h1v-1" fill="#999999ff"/><path d="M16 21v1h2v-1" fill="#000000ff"/><path d="M18 21v1h1v-1" fill="#e3eff4ff"/><path d="M19 21v1h1v-1" fill="#1d2c5dff"/><path d="M20 21v1h1v-1" fill="#111937ff"/><path d="M21 21v1h1v-1" fill="#080c1cff"/><path d="M22 21v1h2v-1" fill="#000000ff"/><path d="M0 22v1h1v-1" fill="#335c35ff"/><path d="M1 22v1h1v-1" fill="#315a33ff"/><path d="M2 22v1h1v-1" fill="#000000ff"/><path d="M3 22v1h3v-1" fill="#212121ff"/><path d="M6 22v1h1v-1" fill="#ccccccff"/><path d="M7 22v1h3v-1" fill="#66391aff"/><path d="M10 22v1h4v-1" fill="#000000ff"/><path d="M14 22v1h1v-1" fill="#ccccccff"/><path d="M15 22v1h1v-1" fill="#151515ff"/><path d="M16 22v1h1v-1" fill="#000000ff"/><path d="M17 22v1h1v-1" fill="#2f48a1ff"/><path d="M18 22v1h1v-1" fill="#e3eff4ff"/><path d="M19 22v1h1v-1" fill="#192550ff"/><path d="M20 22v1h1v-1" fill="#0e152eff"/><path d="M21 22v1h1v-1" fill="#060914ff"/><path d="M22 22v1h2v-1" fill="#000000ff"/><path d="M0 23v1h1v-1" fill="#3c653eff"/><path d="M1 23v1h1v-1" fill="#365f38ff"/><path d="M2 23v1h1v-1" fill="#000000ff"/><path d="M3 23v1h3v-1" fill="#212121ff"/><path d="M6 23v1h1v-1" fill="#ccccccff"/><path d="M7 23v1h3v-1" fill="#66391aff"/><path d="M10 23v1h4v-1" fill="#000000ff"/><path d="M14 23v1h1v-1" fill="#ccccccff"/><path d="M15 23v1h1v-1" fill="#151515ff"/><path d="M16 23v1h1v-1" fill="#000000ff"/><path d="M17 23v1h1v-1" fill="#e3eff4ff"/><path d="M18 23v1h1v-1" fill="#233570ff"/><path d="M19 23v1h1v-1" fill="#162146ff"/><path d="M20 23v1h1v-1" fill="#0b1025ff"/><path d="M21 23v1h1v-1" fill="#050710ff"/><path d="M22 23v1h2v-1" fill="#000000ff"/></svg>