<svg xmlns="http://www.w3.org/2000/svg" shape-rendering="crispEdges" width="24" height="24" viewBox="0 0 24 24"><path d="M0 0v1h24v-1" fill="#f6be11ff"/><path d="M0 1v1h24v-1" fill="#f6be11ff"/><path d="M0 2v1h7v-1" fill="#f6be11ff"/><path d="M7 2v1h9v-1" fill="#000000ff"/><path d="M16 2v1h8v-1" fill="#f6be11ff"/><path d="M0 3v1h6v-1" fill="#f6be11ff"/><path d="M6 3v1h1v-1" fill="#000000ff"/><path d="M7 3v1h1v-1" fill="#d0d0d0ff"/><path d="M8 3v1h7v-1" fill="#ffffffff"/><path d="M15 3v1h1v-1" fill="#d0d0d0ff"/><path d="M16 3v1h1v-1" fill="#000000ff"/><path d="M17 3v1h7v-1" fill="#f6be11ff"/><path d="M0 4v1h5v-1" fill="#f6be11ff"/><path d="M5 4v1h1v-1" fill="#000000ff"/><path d="M6 4v1h2v-1" fill="#d0d0d0ff"/><path d="M8 4v1h8v-1" fill="#ffffffff"/><path d="M16 4v1h1v-1" fill="#d0d0d0ff"/><path d="M17 4v1h1v-1" fill="#000000ff"/><path d="M18 4v1h6v-1" fill="#f6be11ff"/><path d="M0 5v1h5v-1" fill="#f6be11ff"/><path d="M5 5v1h1v-1" fill="#000000ff"/><path d="M6 5v1h2v-1" fill="#d0d0d0ff"/><path d="M8 5v1h8v-1" fill="#ffffffff"/><path d="M16 5v1h1v-1" fill="#d0d0d0ff"/><path d="M17 5v1h1v-1" fill="#000000ff"/><path d="M18 5v1h6v-1" fill="#f6be11ff"/><path d="M0 6v1h5v-1" fill="#f6be11ff"/><path d="M5 6v1h1v-1" fill="#000000ff"/><path d="M6 6v1h2v-1" fill="#d0d0d0ff"/><path d="M8 6v1h8v-1" fill="#ffffffff"/><path d="M16 6v1h1v-1" fill="#d0d0d0ff"/><path d="M17 6v1h1v-1" fill="#000000ff"/><path d="M18 6v1h6v-1" fill="#f6be11ff"/><path d="M0 7v1h5v-1" fill="#f6be11ff"/><path d="M5 7v1h1v-1" fill="#000000ff"/><path d="M6 7v1h2v-1" fill="#faa019ff"/><path d="M8 7v1h8v-1" fill="#fdd51dff"/><path d="M16 7v1h1v-1" fill="#faa019ff"/><path d="M17 7v1h1v-1" fill="#000000ff"/><path d="M18 7v1h6v-1" fill="#f6be11ff"/><path d="M0 8v1h2v-1" fill="#f6be11ff"/><path d="M2 8v1h4v-1" fill="#000000ff"/><path d="M6 8v1h11v-1" fill="#faa019ff"/><path d="M17 8v1h4v-1" fill="#000000ff"/><path d="M21 8v1h3v-1" fill="#f6be11ff"/><path d="M0 9v1h2v-1" fill="#f6be11ff"/><path d="M2 9v1h1v-1" fill="#000000ff"/><path d="M3 9v1h6v-1" fill="#d0d0d0ff"/><path d="M9 9v1h6v-1" fill="#ffffffff"/><path d="M15 9v1h5v-1" fill="#d0d0d0ff"/><path d="M20 9v1h1v-1" fill="#000000ff"/><path d="M21 9v1h3v-1" fill="#f6be11ff"/><path d="M0 10v1h3v-1" fill="#f6be11ff"/><path d="M3 10v1h4v-1" fill="#000000ff"/><path d="M7 10v1h2v-1" fill="#37d82eff"/><path d="M9 10v1h2v-1" fill="#1e7d18ff"/><path d="M11 10v1h1v-1" fill="#713f1dff"/><path d="M12 10v1h2v-1" fill="#1e1e1eff"/><path d="M14 10v1h2v-1" fill="#1e7d18ff"/><path d="M16 10v1h1v-1" fill="#37d82eff"/><path d="M17 10v1h3v-1" fill="#000000ff"/><path d="M20 10v1h4v-1" fill="#f6be11ff"/><path d="M0 11v1h4v-1" fill="#f6be11ff"/><path d="M4 11v1h1v-1" fill="#000000ff"/><path d="M5 11v1h1v-1" fill="#1e1e1eff"/><path d="M6 11v1h1v-1" fill="#29ae21ff"/><path d="M7 11v1h2v-1" fill="#37d82eff"/><path d="M9 11v1h2v-1" fill="#562600ff"/><path d="M11 11v1h1v-1" fill="#37d82eff"/><path d="M12 11v1h1v-1" fill="#92f38dff"/><path d="M13 11v1h1v-1" fill="#37d82eff"/><path d="M14 11v1h2v-1" fill="#562600ff"/><path d="M16 11v1h1v-1" fill="#37d82eff"/><path d="M17 11v1h1v-1" fill="#1e1e1eff"/><path d="M18 11v1h1v-1" fill="#000000ff"/><path d="M19 11v1h5v-1" fill="#f6be11ff"/><path d="M0 12v1h3v-1" fill="#f6be11ff"/><path d="M3 12v1h1v-1" fill="#000000ff"/><path d="M4 12v1h1v-1" fill="#1e1e1eff"/><path d="M5 12v1h1v-1" fill="#000000ff"/><path d="M6 12v1h1v-1" fill="#29ae21ff"/><path d="M7 12v1h2v-1" fill="#37d82eff"/><path d="M9 12v1h1v-1" fill="#000000ff"/><path d="M10 12v1h1v-1" fill="#723709ff"/><path d="M11 12v1h1v-1" fill="#37d82eff"/><path d="M12 12v1h1v-1" fill="#29ae21ff"/><path d="M13 12v1h1v-1" fill="#37d82eff"/><path d="M14 12v1h1v-1" fill="#000000ff"/><path d="M15 12v1h1v-1" fill="#723709ff"/><path d="M16 12v1h1v-1" fill="#5fe058ff"/><path d="M17 12v1h1v-1" fill="#1e1e1eff"/><path d="M18 12v1h1v-1" fill="#000000ff"/><path d="M19 12v1h5v-1" fill="#f6be11ff"/><path d="M0 13v1h3v-1" fill="#f6be11ff"/><path d="M3 13v1h1v-1" fill="#000000ff"/><path d="M4 13v1h1v-1" fill="#1e1e1eff"/><path d="M5 13v1h1v-1" fill="#000000ff"/><path d="M6 13v1h1v-1" fill="#713f1dff"/><path d="M7 13v1h1v-1" fill="#66391aff"/><path d="M8 13v1h1v-1" fill="#5fe058ff"/><path d="M9 13v1h2v-1" fill="#92f38dff"/><path d="M11 13v1h1v-1" fill="#1e7d18ff"/><path d="M12 13v1h1v-1" fill="#37d82eff"/><path d="M13 13v1h1v-1" fill="#1e7d18ff"/><path d="M14 13v1h2v-1" fill="#92f38dff"/><path d="M16 13v1h1v-1" fill="#000000ff"/><path d="M17 13v1h1v-1" fill="#2b2b2bff"/><path d="M18 13v1h1v-1" fill="#000000ff"/><path d="M19 13v1h5v-1" fill="#f6be11ff"/><path d="M0 14v1h3v-1" fill="#f6be11ff"/><path d="M3 14v1h1v-1" fill="#000000ff"/><path d="M4 14v1h1v-1" fill="#2b2b2bff"/><path d="M5 14v1h1v-1" fill="#1e1e1eff"/><path d="M6 14v1h1v-1" fill="#000000ff"/><path d="M7 14v1h1v-1" fill="#66391aff"/><path d="M8 14v1h1v-1" fill="#713f1dff"/><path d="M9 14v1h2v-1" fill="#37d82eff"/><path d="M11 14v1h1v-1" fill="#1e7d18ff"/><path d="M12 14v1h1v-1" fill="#37d82eff"/><path d="M13 14v1h1v-1" fill="#1e7d18ff"/><path d="M14 14v1h2v-1" fill="#37d82eff"/><path d="M16 14v1h1v-1" fill="#000000ff"/><path d="M17 14v1h1v-1" fill="#2b2b2bff"/><path d="M18 14v1h1v-1" fill="#000000ff"/><path d="M19 14v1h5v-1" fill="#f6be11ff"/><path d="M0 15v1h3v-1" fill="#f6be11ff"/><path d="M3 15v1h1v-1" fill="#000000ff"/><path d="M4 15v1h1v-1" fill="#2b2b2bff"/><path d="M5 15v1h1v-1" fill="#1e1e1eff"/><path d="M6 15v1h1v-1" fill="#000000ff"/><path d="M7 15v1h1v-1" fill="#66391aff"/><path d="M8 15v1h4v-1" fill="#713f1dff"/><path d="M12 15v1h2v-1" fill="#000000ff"/><path d="M14 15v1h2v-1" fill="#713f1dff"/><path d="M16 15v1h2v-1" fill="#000000ff"/><path d="M18 15v1h6v-1" fill="#f6be11ff"/><path d="M0 16v1h3v-1" fill="#f6be11ff"/><path d="M3 16v1h1v-1" fill="#000000ff"/><path d="M4 16v1h1v-1" fill="#2b2b2bff"/><path d="M5 16v1h1v-1" fill="#1e1e1eff"/><path d="M6 16v1h1v-1" fill="#000000ff"/><path d="M7 16v1h1v-1" fill="#66391aff"/><path d="M8 16v1h8v-1" fill="#713f1dff"/><path d="M16 16v1h1v-1" fill="#000000ff"/><path d="M17 16v1h1v-1" fill="#5aa74bff"/><path d="M18 16v1h1v-1" fill="#f6be11ff"/><path d="M19 16v1h1v-1" fill="#dc4638ff"/><path d="M20 16v1h4v-1" fill="#f6be11ff"/><path d="M0 17v1h4v-1" fill="#f6be11ff"/><path d="M4 17v1h1v-1" fill="#000000ff"/><path d="M5 17v1h1v-1" fill="#1e1e1eff"/><path d="M6 17v1h1v-1" fill="#000000ff"/><path d="M7 17v1h1v-1" fill="#66391aff"/><path d="M8 17v1h8v-1" fill="#713f1dff"/><path d="M16 17v1h1v-1" fill="#5aa74bff"/><path d="M17 17v1h1v-1" fill="#b33125ff"/><path d="M18 17v1h1v-1" fill="#dc4638ff"/><path d="M19 17v1h5v-1" fill="#f6be11ff"/><path d="M0 18v1h5v-1" fill="#f6be11ff"/><path d="M5 18v1h2v-1" fill="#000000ff"/><path d="M7 18v1h1v-1" fill="#66391aff"/><path d="M8 18v1h3v-1" fill="#713f1dff"/><path d="M11 18v1h2v-1" fill="#000000ff"/><path d="M13 18v1h2v-1" fill="#5aa74bff"/><path d="M15 18v1h2v-1" fill="#489439ff"/><path d="M17 18v1h1v-1" fill="#b33125ff"/><path d="M18 18v1h1v-1" fill="#ef7165ff"/><path d="M19 18v1h1v-1" fill="#dc4638ff"/><path d="M20 18v1h4v-1" fill="#f6be11ff"/><path d="M0 19v1h6v-1" fill="#f6be11ff"/><path d="M6 19v1h1v-1" fill="#000000ff"/><path d="M7 19v1h1v-1" fill="#66391aff"/><path d="M8 19v1h8v-1" fill="#713f1dff"/><path d="M16 19v1h1v-1" fill="#489439ff"/><path d="M17 19v1h3v-1" fill="#b33125ff"/><path d="M20 19v1h4v-1" fill="#f6be11ff"/><path d="M0 20v1h6v-1" fill="#f6be11ff"/><path d="M6 20v1h1v-1" fill="#000000ff"/><path d="M7 20v1h2v-1" fill="#66391aff"/><path d="M9 20v1h6v-1" fill="#713f1dff"/><path d="M15 20v1h1v-1" fill="#000000ff"/><path d="M16 20v1h1v-1" fill="#f6be11ff"/><path d="M17 20v1h1v-1" fill="#5aa74bff"/><path d="M18 20v1h6v-1" fill="#f6be11ff"/><path d="M0 21v1h6v-1" fill="#f6be11ff"/><path d="M6 21v1h1v-1" fill="#000000ff"/><path d="M7 21v1h3v-1" fill="#66391aff"/><path d="M10 21v1h5v-1" fill="#000000ff"/><path d="M15 21v1h9v-1" fill="#f6be11ff"/><path d="M0 22v1h6v-1" fill="#f6be11ff"/><path d="M6 22v1h1v-1" fill="#000000ff"/><path d="M7 22v1h3v-1" fill="#66391aff"/><path d="M10 22v1h1v-1" fill="#000000ff"/><path d="M11 22v1h13v-1" fill="#f6be11ff"/><path d="M0 23v1h6v-1" fill="#f6be11ff"/><path d="M6 23v1h1v-1" fill="#000000ff"/><path d="M7 23v1h3v-1" fill="#66391aff"/><path d="M10 23v1h1v-1" fill="#000000ff"/><path d="M11 23v1h13v-1" fill="#f6be11ff"/></svg>