<svg xmlns="http://www.w3.org/2000/svg" shape-rendering="crispEdges" width="24" height="24" viewBox="0 0 24 24"><path d="M0 0v1h24v-1" fill="#f6be11ff"/><path d="M0 1v1h24v-1" fill="#f6be11ff"/><path d="M0 2v1h24v-1" fill="#f6be11ff"/><path d="M0 3v1h24v-1" fill="#f6be11ff"/><path d="M0 4v1h24v-1" fill="#f6be11ff"/><path d="M0 5v1h24v-1" fill="#f6be11ff"/><path d="M0 6v1h9v-1" fill="#f6be11ff"/><path d="M9 6v1h3v-1" fill="#000000ff"/><path d="M12 6v1h1v-1" fill="#f6be11ff"/><path d="M13 6v1h2v-1" fill="#000000ff"/><path d="M15 6v1h9v-1" fill="#f6be11ff"/><path d="M0 7v1h8v-1" fill="#f6be11ff"/><path d="M8 7v1h1v-1" fill="#000000ff"/><path d="M9 7v1h1v-1" fill="#ffc3e5ff"/><path d="M10 7v1h1v-1" fill="#831c5dff"/><path d="M11 7v1h1v-1" fill="#ef4390ff"/><path d="M12 7v1h1v-1" fill="#000000ff"/><path d="M13 7v1h1v-1" fill="#ffc3e5ff"/><path d="M14 7v1h1v-1" fill="#f872b5ff"/><path d="M15 7v1h1v-1" fill="#000000ff"/><path d="M16 7v1h8v-1" fill="#f6be11ff"/><path d="M0 8v1h7v-1" fill="#f6be11ff"/><path d="M7 8v1h1v-1" fill="#000000ff"/><path d="M8 8v1h1v-1" fill="#831c5dff"/><path d="M9 8v1h1v-1" fill="#f872b5ff"/><path d="M10 8v1h1v-1" fill="#ef4390ff"/><path d="M11 8v1h1v-1" fill="#ffc3e5ff"/><path d="M12 8v1h1v-1" fill="#f872b5ff"/><path d="M13 8v1h1v-1" fill="#831c5dff"/><path d="M14 8v1h1v-1" fill="#ef4390ff"/><path d="M15 8v1h1v-1" fill="#f872b5ff"/><path d="M16 8v1h1v-1" fill="#000000ff"/><path d="M17 8v1h7v-1" fill="#f6be11ff"/><path d="M0 9v1h7v-1" fill="#f6be11ff"/><path d="M7 9v1h1v-1" fill="#000000ff"/><path d="M8 9v1h2v-1" fill="#ef4390ff"/><path d="M10 9v1h1v-1" fill="#ffc3e5ff"/><path d="M11 9v1h1v-1" fill="#831c5dff"/><path d="M12 9v1h1v-1" fill="#ef4390ff"/><path d="M13 9v1h1v-1" fill="#831c5dff"/><path d="M14 9v1h1v-1" fill="#ffc3e5ff"/><path d="M15 9v1h1v-1" fill="#ef4390ff"/><path d="M16 9v1h1v-1" fill="#000000ff"/><path d="M17 9v1h7v-1" fill="#f6be11ff"/><path d="M0 10v1h7v-1" fill="#f6be11ff"/><path d="M7 10v1h10v-1" fill="#000000ff"/><path d="M17 10v1h7v-1" fill="#f6be11ff"/><path d="M0 11v1h7v-1" fill="#f6be11ff"/><path d="M7 11v1h1v-1" fill="#000000ff"/><path d="M8 11v1h1v-1" fill="#fbd702ff"/><path d="M9 11v1h2v-1" fill="#fffadbff"/><path d="M11 11v1h2v-1" fill="#ca925bff"/><path d="M13 11v1h1v-1" fill="#fbd702ff"/><path d="M14 11v1h2v-1" fill="#fffadbff"/><path d="M16 11v1h1v-1" fill="#000000ff"/><path d="M17 11v1h7v-1" fill="#f6be11ff"/><path d="M0 12v1h6v-1" fill="#f6be11ff"/><path d="M6 12v1h1v-1" fill="#d97400ff"/><path d="M7 12v1h1v-1" fill="#ffae00ff"/><path d="M8 12v1h1v-1" fill="#fbd702ff"/><path d="M9 12v1h2v-1" fill="#eb7a0aff"/><path d="M11 12v1h1v-1" fill="#fffadbff"/><path d="M12 12v1h1v-1" fill="#ca925bff"/><path d="M13 12v1h1v-1" fill="#fbd702ff"/><path d="M14 12v1h2v-1" fill="#eb7a0aff"/><path d="M16 12v1h1v-1" fill="#fffadbff"/><path d="M17 12v1h7v-1" fill="#f6be11ff"/><path d="M0 13v1h6v-1" fill="#f6be11ff"/><path d="M6 13v1h1v-1" fill="#000000ff"/><path d="M7 13v1h1v-1" fill="#ca925bff"/><path d="M8 13v1h9v-1" fill="#fbd702ff"/><path d="M17 13v1h7v-1" fill="#f6be11ff"/><path d="M0 14v1h6v-1" fill="#f6be11ff"/><path d="M6 14v1h2v-1" fill="#000000ff"/><path d="M8 14v1h1v-1" fill="#fbd702ff"/><path d="M9 14v1h2v-1" fill="#f48212ff"/><path d="M11 14v1h1v-1" fill="#fbd702ff"/><path d="M12 14v1h1v-1" fill="#ca925bff"/><path d="M13 14v1h1v-1" fill="#fbd702ff"/><path d="M14 14v1h2v-1" fill="#f48212ff"/><path d="M16 14v1h1v-1" fill="#fbd702ff"/><path d="M17 14v1h7v-1" fill="#f6be11ff"/><path d="M0 15v1h7v-1" fill="#f6be11ff"/><path d="M7 15v1h1v-1" fill="#000000ff"/><path d="M8 15v1h1v-1" fill="#ffae00ff"/><path d="M9 15v1h2v-1" fill="#fbd702ff"/><path d="M11 15v1h2v-1" fill="#ca925bff"/><path d="M13 15v1h1v-1" fill="#ffae00ff"/><path d="M14 15v1h2v-1" fill="#fbd702ff"/><path d="M16 15v1h1v-1" fill="#000000ff"/><path d="M17 15v1h7v-1" fill="#f6be11ff"/><path d="M0 16v1h7v-1" fill="#f6be11ff"/><path d="M7 16v1h1v-1" fill="#000000ff"/><path d="M8 16v1h1v-1" fill="#b68352ff"/><path d="M9 16v1h3v-1" fill="#ca925bff"/><path d="M12 16v1h1v-1" fill="#000000ff"/><path d="M13 16v1h3v-1" fill="#ca925bff"/><path d="M16 16v1h1v-1" fill="#000000ff"/><path d="M17 16v1h7v-1" fill="#f6be11ff"/><path d="M0 17v1h7v-1" fill="#f6be11ff"/><path d="M7 17v1h1v-1" fill="#000000ff"/><path d="M8 17v1h1v-1" fill="#b68352ff"/><path d="M9 17v1h7v-1" fill="#ca925bff"/><path d="M16 17v1h1v-1" fill="#000000ff"/><path d="M17 17v1h7v-1" fill="#f6be11ff"/><path d="M0 18v1h7v-1" fill="#f6be11ff"/><path d="M7 18v1h1v-1" fill="#000000ff"/><path d="M8 18v1h1v-1" fill="#b68352ff"/><path d="M9 18v1h2v-1" fill="#ca925bff"/><path d="M11 18v1h3v-1" fill="#ff5558ff"/><path d="M14 18v1h2v-1" fill="#ca925bff"/><path d="M16 18v1h1v-1" fill="#000000ff"/><path d="M17 18v1h7v-1" fill="#f6be11ff"/><path d="M0 19v1h8v-1" fill="#f6be11ff"/><path d="M8 19v1h1v-1" fill="#000000ff"/><path d="M9 19v1h1v-1" fill="#b68352ff"/><path d="M10 19v1h5v-1" fill="#ca925bff"/><path d="M15 19v1h1v-1" fill="#000000ff"/><path d="M16 19v1h8v-1" fill="#f6be11ff"/><path d="M0 20v1h8v-1" fill="#f6be11ff"/><path d="M8 20v1h1v-1" fill="#000000ff"/><path d="M9 20v1h1v-1" fill="#b68352ff"/><path d="M10 20v1h1v-1" fill="#000000ff"/><path d="M11 20v1h3v-1" fill="#ca925bff"/><path d="M14 20v1h1v-1" fill="#000000ff"/><path d="M15 20v1h9v-1" fill="#f6be11ff"/><path d="M0 21v1h8v-1" fill="#f6be11ff"/><path d="M8 21v1h1v-1" fill="#000000ff"/><path d="M9 21v1h2v-1" fill="#b68352ff"/><path d="M11 21v1h3v-1" fill="#000000ff"/><path d="M14 21v1h10v-1" fill="#f6be11ff"/><path d="M0 22v1h8v-1" fill="#f6be11ff"/><path d="M8 22v1h1v-1" fill="#000000ff"/><path d="M9 22v1h3v-1" fill="#b68352ff"/><path d="M12 22v1h1v-1" fill="#000000ff"/><path d="M13 22v1h11v-1" fill="#f6be11ff"/><path d="M0 23v1h8v-1" fill="#f6be11ff"/><path d="M8 23v1h1v-1" fill="#000000ff"/><path d="M9 23v1h3v-1" fill="#b68352ff"/><path d="M12 23v1h1v-1" fill="#000000ff"/><path d="M13 23v1h11v-1" fill="#f6be11ff"/></svg>