<svg xmlns="http://www.w3.org/2000/svg" shape-rendering="crispEdges" width="24" height="24" viewBox="0 0 24 24"><path d="M0 0v1h9v-1" fill="#85c1ffff"/><path d="M9 0v1h1v-1" fill="#84c1ffff"/><path d="M10 0v1h13v-1" fill="#85c1ffff"/><path d="M23 0v1h1v-1" fill="#c7e2ffff"/><path d="M0 1v1h21v-1" fill="#88c3ffff"/><path d="M21 1v1h3v-1" fill="#c8e3ffff"/><path d="M0 2v1h2v-1" fill="#cae4ffff"/><path d="M2 2v1h1v-1" fill="#8dc5ffff"/><path d="M3 2v1h2v-1" fill="#8dc6ffff"/><path d="M5 2v1h1v-1" fill="#8dc5ffff"/><path d="M6 2v1h2v-1" fill="#8dc6ffff"/><path d="M8 2v1h8v-1" fill="#8dc5ffff"/><path d="M16 2v1h1v-1" fill="#8dc6ffff"/><path d="M17 2v1h1v-1" fill="#8dc5ffff"/><path d="M18 2v1h1v-1" fill="#8dc6ffff"/><path d="M19 2v1h5v-1" fill="#cae4ffff"/><path d="M0 3v1h1v-1" fill="#cbe5ffff"/><path d="M1 3v1h1v-1" fill="#cbe4ffff"/><path d="M2 3v1h2v-1" fill="#cce4ffff"/><path d="M4 3v1h2v-1" fill="#000000ff"/><path d="M6 3v1h1v-1" fill="#91c7ffff"/><path d="M7 3v1h1v-1" fill="#91c8ffff"/><path d="M8 3v1h1v-1" fill="#91c7ffff"/><path d="M9 3v1h2v-1" fill="#92c7ffff"/><path d="M11 3v1h1v-1" fill="#91c7ffff"/><path d="M12 3v1h2v-1" fill="#92c8ffff"/><path d="M14 3v1h3v-1" fill="#91c7ffff"/><path d="M17 3v1h4v-1" fill="#92c7ffff"/><path d="M21 3v1h1v-1" fill="#91c7ffff"/><path d="M22 3v1h1v-1" fill="#91c8ffff"/><path d="M23 3v1h1v-1" fill="#92c8ffff"/><path d="M0 4v1h3v-1" fill="#cde5ffff"/><path d="M3 4v1h1v-1" fill="#000000ff"/><path d="M4 4v1h2v-1" fill="#b0b0b0ff"/><path d="M6 4v1h2v-1" fill="#000000ff"/><path d="M8 4v1h2v-1" fill="#97caffff"/><path d="M10 4v1h1v-1" fill="#96caffff"/><path d="M11 4v1h2v-1" fill="#97caffff"/><path d="M13 4v1h1v-1" fill="#96caffff"/><path d="M14 4v1h4v-1" fill="#97caffff"/><path d="M18 4v1h1v-1" fill="#96caffff"/><path d="M19 4v1h5v-1" fill="#97caffff"/><path d="M0 5v1h2v-1" fill="#9ccdffff"/><path d="M2 5v1h1v-1" fill="#000000ff"/><path d="M3 5v1h5v-1" fill="#b0b0b0ff"/><path d="M8 5v1h1v-1" fill="#000000ff"/><path d="M9 5v1h15v-1" fill="#9ccdffff"/><path d="M0 6v1h2v-1" fill="#a1ceffff"/><path d="M2 6v1h1v-1" fill="#000000ff"/><path d="M3 6v1h4v-1" fill="#ffffffff"/><path d="M7 6v1h2v-1" fill="#b0b0b0ff"/><path d="M9 6v1h1v-1" fill="#000000ff"/><path d="M10 6v1h4v-1" fill="#a1ceffff"/><path d="M14 6v1h4v-1" fill="#d1e7ffff"/><path d="M18 6v1h6v-1" fill="#a1ceffff"/><path d="M0 7v1h1v-1" fill="#a6d2ffff"/><path d="M1 7v1h1v-1" fill="#8bbc91ff"/><path d="M2 7v1h1v-1" fill="#92c398ff"/><path d="M3 7v1h1v-1" fill="#000000ff"/><path d="M4 7v1h1v-1" fill="#8d6b4aff"/><path d="M5 7v1h1v-1" fill="#000000ff"/><path d="M6 7v1h2v-1" fill="#ffffffff"/><path d="M8 7v1h2v-1" fill="#b0b0b0ff"/><path d="M10 7v1h5v-1" fill="#000000ff"/><path d="M15 7v1h4v-1" fill="#d3e8ffff"/><path d="M19 7v1h3v-1" fill="#a6d2ffff"/><path d="M22 7v1h1v-1" fill="#86b78cff"/><path d="M23 7v1h1v-1" fill="#88b98eff"/><path d="M0 8v1h1v-1" fill="#87b88dff"/><path d="M1 8v1h1v-1" fill="#8ebf94ff"/><path d="M2 8v1h1v-1" fill="#91c297ff"/><path d="M3 8v1h1v-1" fill="#000000ff"/><path d="M4 8v1h1v-1" fill="#8d6b4aff"/><path d="M5 8v1h3v-1" fill="#000000ff"/><path d="M8 8v1h1v-1" fill="#ffffffff"/><path d="M9 8v1h2v-1" fill="#b0b0b0ff"/><path d="M11 8v1h4v-1" fill="#ca925bff"/><path d="M15 8v1h1v-1" fill="#000000ff"/><path d="M16 8v1h4v-1" fill="#abd5ffff"/><path d="M20 8v1h1v-1" fill="#88b98eff"/><path d="M21 8v1h1v-1" fill="#8fc095ff"/><path d="M22 8v1h2v-1" fill="#8ebf94ff"/><path d="M0 9v1h1v-1" fill="#91c297ff"/><path d="M1 9v1h1v-1" fill="#89ba8fff"/><path d="M2 9v1h1v-1" fill="#8cbd92ff"/><path d="M3 9v1h1v-1" fill="#000000ff"/><path d="M4 9v1h1v-1" fill="#8d6b4aff"/><path d="M5 9v1h1v-1" fill="#000000ff"/><path d="M6 9v1h1v-1" fill="#8fc095ff"/><path d="M7 9v1h1v-1" fill="#0365caff"/><path d="M8 9v1h1v-1" fill="#b68352ff"/><path d="M9 9v1h1v-1" fill="#ffffffff"/><path d="M10 9v1h1v-1" fill="#d83838ff"/><path d="M11 9v1h2v-1" fill="#ca0303ff"/><path d="M13 9v1h1v-1" fill="#ca925bff"/><path d="M14 9v1h1v-1" fill="#e7ab6eff"/><path d="M15 9v1h1v-1" fill="#ca925bff"/><path d="M16 9v1h1v-1" fill="#000000ff"/><path d="M17 9v1h1v-1" fill="#0365caff"/><path d="M18 9v1h1v-1" fill="#b0d7ffff"/><path d="M19 9v1h1v-1" fill="#89ba8fff"/><path d="M20 9v1h1v-1" fill="#91c297ff"/><path d="M21 9v1h1v-1" fill="#8abb90ff"/><path d="M22 9v1h1v-1" fill="#8bbc91ff"/><path d="M23 9v1h1v-1" fill="#89ba8fff"/><path d="M0 10v1h1v-1" fill="#8dbe93ff"/><path d="M1 10v1h1v-1" fill="#8ebf94ff"/><path d="M2 10v1h1v-1" fill="#91c297ff"/><path d="M3 10v1h1v-1" fill="#000000ff"/><path d="M4 10v1h1v-1" fill="#8d6b4aff"/><path d="M5 10v1h1v-1" fill="#0365caff"/><path d="M6 10v1h1v-1" fill="#92c398ff"/><path d="M7 10v1h1v-1" fill="#000000ff"/><path d="M8 10v1h1v-1" fill="#0365caff"/><path d="M9 10v1h1v-1" fill="#ed7171ff"/><path d="M10 10v1h2v-1" fill="#ca0303ff"/><path d="M12 10v1h3v-1" fill="#ca925bff"/><path d="M15 10v1h2v-1" fill="#0365caff"/><path d="M17 10v1h1v-1" fill="#8dbe93ff"/><path d="M18 10v1h1v-1" fill="#87b88dff"/><path d="M19 10v1h1v-1" fill="#90c196ff"/><path d="M20 10v1h2v-1" fill="#8abb90ff"/><path d="M22 10v1h1v-1" fill="#89ba8fff"/><path d="M23 10v1h1v-1" fill="#8fc095ff"/><path d="M0 11v1h1v-1" fill="#8cbd92ff"/><path d="M1 11v1h1v-1" fill="#8fc095ff"/><path d="M2 11v1h1v-1" fill="#000000ff"/><path d="M3 11v1h1v-1" fill="#8d6b4aff"/><path d="M4 11v1h1v-1" fill="#000000ff"/><path d="M5 11v1h1v-1" fill="#8ebf94ff"/><path d="M6 11v1h1v-1" fill="#92c398ff"/><path d="M7 11v1h1v-1" fill="#0365caff"/><path d="M8 11v1h1v-1" fill="#0dfdffff"/><path d="M9 11v1h2v-1" fill="#0365caff"/><path d="M11 11v1h1v-1" fill="#ca0303ff"/><path d="M12 11v1h2v-1" fill="#ca925bff"/><path d="M14 11v1h1v-1" fill="#0365caff"/><path d="M15 11v1h2v-1" fill="#0dfdffff"/><path d="M17 11v1h1v-1" fill="#0365caff"/><path d="M18 11v1h1v-1" fill="#8abb90ff"/><path d="M19 11v1h1v-1" fill="#8ebf94ff"/><path d="M20 11v1h1v-1" fill="#8abb90ff"/><path d="M21 11v1h1v-1" fill="#8bbc91ff"/><path d="M22 11v1h1v-1" fill="#93c499ff"/><path d="M23 11v1h1v-1" fill="#6ba75cff"/><path d="M0 12v1h1v-1" fill="#6ca85dff"/><path d="M1 12v1h1v-1" fill="#65a156ff"/><path d="M2 12v1h1v-1" fill="#000000ff"/><path d="M3 12v1h1v-1" fill="#6d5135ff"/><path d="M4 12v1h1v-1" fill="#0365caff"/><path d="M5 12v1h1v-1" fill="#95c19fff"/><path d="M6 12v1h1v-1" fill="#0365caff"/><path d="M7 12v1h1v-1" fill="#04a5d9ff"/><path d="M8 12v1h2v-1" fill="#0dfdffff"/><path d="M10 12v1h1v-1" fill="#04a5d9ff"/><path d="M11 12v1h1v-1" fill="#0365caff"/><path d="M12 12v1h1v-1" fill="#ca925bff"/><path d="M13 12v1h1v-1" fill="#0365caff"/><path d="M14 12v1h1v-1" fill="#04a5d9ff"/><path d="M15 12v1h1v-1" fill="#0dfdffff"/><path d="M16 12v1h1v-1" fill="#0365caff"/><path d="M17 12v1h1v-1" fill="#99c5a3ff"/><path d="M18 12v1h1v-1" fill="#0365caff"/><path d="M19 12v1h1v-1" fill="#98c4a2ff"/><path d="M20 12v1h1v-1" fill="#8fbb99ff"/><path d="M21 12v1h1v-1" fill="#95c19fff"/><path d="M22 12v1h2v-1" fill="#6da95eff"/><path d="M0 13v1h1v-1" fill="#66a257ff"/><path d="M1 13v1h1v-1" fill="#65a156ff"/><path d="M2 13v1h1v-1" fill="#000000ff"/><path d="M3 13v1h1v-1" fill="#8d6b4aff"/><path d="M4 13v1h1v-1" fill="#000000ff"/><path d="M5 13v1h1v-1" fill="#98bea8ff"/><path d="M6 13v1h1v-1" fill="#000000ff"/><path d="M7 13v1h1v-1" fill="#0365caff"/><path d="M8 13v1h1v-1" fill="#04a5d9ff"/><path d="M9 13v1h2v-1" fill="#0dfdffff"/><path d="M11 13v1h1v-1" fill="#0365caff"/><path d="M12 13v1h1v-1" fill="#ca925bff"/><path d="M13 13v1h1v-1" fill="#0365caff"/><path d="M14 13v1h2v-1" fill="#0dfdffff"/><path d="M16 13v1h1v-1" fill="#0365caff"/><path d="M17 13v1h1v-1" fill="#94baa4ff"/><path d="M18 13v1h1v-1" fill="#97bda7ff"/><path d="M19 13v1h1v-1" fill="#6ca85dff"/><path d="M20 13v1h2v-1" fill="#639f54ff"/><path d="M22 13v1h1v-1" fill="#66a257ff"/><path d="M23 13v1h1v-1" fill="#6ca85dff"/><path d="M0 14v1h1v-1" fill="#6aa55fff"/><path d="M1 14v1h1v-1" fill="#6ba65fff"/><path d="M2 14v1h1v-1" fill="#000000ff"/><path d="M3 14v1h1v-1" fill="#6d5135ff"/><path d="M4 14v1h1v-1" fill="#000000ff"/><path d="M5 14v1h1v-1" fill="#6faa64ff"/><path d="M6 14v1h2v-1" fill="#000000ff"/><path d="M8 14v1h1v-1" fill="#0365caff"/><path d="M9 14v1h1v-1" fill="#0dfdffff"/><path d="M10 14v1h1v-1" fill="#0365caff"/><path d="M11 14v1h3v-1" fill="#ca925bff"/><path d="M14 14v1h1v-1" fill="#0365caff"/><path d="M15 14v1h1v-1" fill="#0dfdffff"/><path d="M16 14v1h1v-1" fill="#000000ff"/><path d="M17 14v1h1v-1" fill="#6faa64ff"/><path d="M18 14v1h1v-1" fill="#639e57ff"/><path d="M19 14v1h3v-1" fill="#649f58ff"/><path d="M22 14v1h1v-1" fill="#639e57ff"/><path d="M23 14v1h1v-1" fill="#6da861ff"/><path d="M0 15v1h1v-1" fill="#6ea967ff"/><path d="M1 15v1h1v-1" fill="#6aa563ff"/><path d="M2 15v1h1v-1" fill="#000000ff"/><path d="M3 15v1h1v-1" fill="#6d5135ff"/><path d="M4 15v1h1v-1" fill="#000000ff"/><path d="M5 15v1h1v-1" fill="#71ac6aff"/><path d="M6 15v1h1v-1" fill="#70ab69ff"/><path d="M7 15v1h1v-1" fill="#000000ff"/><path d="M8 15v1h1v-1" fill="#b68352ff"/><path d="M9 15v1h7v-1" fill="#ca925bff"/><path d="M16 15v1h1v-1" fill="#000000ff"/><path d="M17 15v1h1v-1" fill="#66a15fff"/><path d="M18 15v1h1v-1" fill="#6da866ff"/><path d="M19 15v1h1v-1" fill="#6ca765ff"/><path d="M20 15v1h1v-1" fill="#6da866ff"/><path d="M21 15v1h2v-1" fill="#72ad6bff"/><path d="M23 15v1h1v-1" fill="#71ac6aff"/><path d="M0 16v1h1v-1" fill="#6da66aff"/><path d="M1 16v1h1v-1" fill="#000000ff"/><path d="M2 16v1h1v-1" fill="#6d5135ff"/><path d="M3 16v1h1v-1" fill="#000000ff"/><path d="M4 16v1h1v-1" fill="#6ea76bff"/><path d="M5 16v1h1v-1" fill="#6ca569ff"/><path d="M6 16v1h1v-1" fill="#74ad71ff"/><path d="M7 16v1h1v-1" fill="#000000ff"/><path d="M8 16v1h1v-1" fill="#b68352ff"/><path d="M9 16v1h3v-1" fill="#ca925bff"/><path d="M12 16v1h1v-1" fill="#000000ff"/><path d="M13 16v1h3v-1" fill="#ca925bff"/><path d="M16 16v1h1v-1" fill="#000000ff"/><path d="M17 16v1h1v-1" fill="#3f7644ff"/><path d="M18 16v1h1v-1" fill="#72ab6fff"/><path d="M19 16v1h2v-1" fill="#71aa6eff"/><path d="M21 16v1h1v-1" fill="#76af73ff"/><path d="M22 16v1h1v-1" fill="#205c1eff"/><path d="M23 16v1h1v-1" fill="#72ab6fff"/><path d="M0 17v1h1v-1" fill="#39703eff"/><path d="M1 17v1h1v-1" fill="#000000ff"/><path d="M2 17v1h1v-1" fill="#6d5135ff"/><path d="M3 17v1h1v-1" fill="#000000ff"/><path d="M4 17v1h1v-1" fill="#76ab79ff"/><path d="M5 17v1h1v-1" fill="#77ac7aff"/><path d="M6 17v1h1v-1" fill="#79ae7cff"/><path d="M7 17v1h1v-1" fill="#000000ff"/><path d="M8 17v1h1v-1" fill="#b68352ff"/><path d="M9 17v1h7v-1" fill="#ca925bff"/><path d="M16 17v1h1v-1" fill="#000000ff"/><path d="M17 17v1h1v-1" fill="#437a48ff"/><path d="M18 17v1h1v-1" fill="#3b7240ff"/><path d="M19 17v1h1v-1" fill="#6fa472ff"/><path d="M20 17v1h1v-1" fill="#73a876ff"/><path d="M21 17v1h3v-1" fill="#205c1eff"/><path d="M0 18v1h1v-1" fill="#437a48ff"/><path d="M1 18v1h1v-1" fill="#000000ff"/><path d="M2 18v1h1v-1" fill="#6d5135ff"/><path d="M3 18v1h1v-1" fill="#000000ff"/><path d="M4 18v1h1v-1" fill="#84b18dff"/><path d="M5 18v1h1v-1" fill="#82af8bff"/><path d="M6 18v1h1v-1" fill="#7caa85ff"/><path d="M7 18v1h1v-1" fill="#000000ff"/><path d="M8 18v1h1v-1" fill="#b68352ff"/><path d="M9 18v1h2v-1" fill="#ca925bff"/><path d="M11 18v1h3v-1" fill="#d204b3ff"/><path d="M14 18v1h2v-1" fill="#ca925bff"/><path d="M16 18v1h1v-1" fill="#000000ff"/><path d="M17 18v1h2v-1" fill="#3f7644ff"/><path d="M19 18v1h1v-1" fill="#437a48ff"/><path d="M20 18v1h4v-1" fill="#205c1eff"/><path d="M0 19v1h1v-1" fill="#417846ff"/><path d="M1 19v1h1v-1" fill="#000000ff"/><path d="M2 19v1h1v-1" fill="#6d5135ff"/><path d="M3 19v1h1v-1" fill="#000000ff"/><path d="M4 19v1h1v-1" fill="#3e7543ff"/><path d="M5 19v1h1v-1" fill="#3f7644ff"/><path d="M6 19v1h1v-1" fill="#82ac92ff"/><path d="M7 19v1h1v-1" fill="#205c1eff"/><path d="M8 19v1h1v-1" fill="#000000ff"/><path d="M9 19v1h1v-1" fill="#b68352ff"/><path d="M10 19v1h5v-1" fill="#ca925bff"/><path d="M15 19v1h1v-1" fill="#000000ff"/><path d="M16 19v1h1v-1" fill="#205c1eff"/><path d="M17 19v1h1v-1" fill="#417846ff"/><path d="M18 19v1h1v-1" fill="#3d7442ff"/><path d="M19 19v1h1v-1" fill="#3a713fff"/><path d="M20 19v1h1v-1" fill="#3f7644ff"/><path d="M21 19v1h3v-1" fill="#205c1eff"/><path d="M0 20v1h1v-1" fill="#427947ff"/><path d="M1 20v1h1v-1" fill="#407745ff"/><path d="M2 20v1h1v-1" fill="#000000ff"/><path d="M3 20v1h1v-1" fill="#407745ff"/><path d="M4 20v1h1v-1" fill="#437a48ff"/><path d="M5 20v1h1v-1" fill="#447b49ff"/><path d="M6 20v1h2v-1" fill="#205c1eff"/><path d="M8 20v1h1v-1" fill="#000000ff"/><path d="M9 20v1h1v-1" fill="#b68352ff"/><path d="M10 20v1h1v-1" fill="#000000ff"/><path d="M11 20v1h3v-1" fill="#ca925bff"/><path d="M14 20v1h1v-1" fill="#000000ff"/><path d="M15 20v1h3v-1" fill="#205c1eff"/><path d="M18 20v1h1v-1" fill="#3e7543ff"/><path d="M19 20v1h1v-1" fill="#427947ff"/><path d="M20 20v1h4v-1" fill="#205c1eff"/><path d="M0 21v1h1v-1" fill="#3d7442ff"/><path d="M1 21v1h3v-1" fill="#205c1eff"/><path d="M4 21v1h1v-1" fill="#3d7442ff"/><path d="M5 21v1h3v-1" fill="#205c1eff"/><path d="M8 21v1h1v-1" fill="#000000ff"/><path d="M9 21v1h2v-1" fill="#b68352ff"/><path d="M11 21v1h3v-1" fill="#000000ff"/><path d="M14 21v1h10v-1" fill="#205c1eff"/><path d="M0 22v1h5v-1" fill="#205c1eff"/><path d="M5 22v1h1v-1" fill="#417846ff"/><path d="M6 22v1h2v-1" fill="#205c1eff"/><path d="M8 22v1h1v-1" fill="#000000ff"/><path d="M9 22v1h1v-1" fill="#ffa21fff"/><path d="M10 22v1h1v-1" fill="#ffcb2bff"/><path d="M11 22v1h1v-1" fill="#ffb727ff"/><path d="M12 22v1h1v-1" fill="#000000ff"/><path d="M13 22v1h1v-1" fill="#386f3dff"/><path d="M14 22v1h1v-1" fill="#3b7240ff"/><path d="M15 22v1h3v-1" fill="#205c1eff"/><path d="M18 22v1h1v-1" fill="#39703eff"/><path d="M19 22v1h1v-1" fill="#417846ff"/><path d="M20 22v1h4v-1" fill="#205c1eff"/><path d="M0 23v1h1v-1" fill="#3d7442ff"/><path d="M1 23v1h3v-1" fill="#205c1eff"/><path d="M4 23v1h1v-1" fill="#3d7442ff"/><path d="M5 23v1h3v-1" fill="#205c1eff"/><path d="M8 23v1h1v-1" fill="#000000ff"/><path d="M9 23v1h3v-1" fill="#b68352ff"/><path d="M12 23v1h1v-1" fill="#000000ff"/><path d="M13 23v1h1v-1" fill="#3e7543ff"/><path d="M14 23v1h10v-1" fill="#205c1eff"/></svg>