<svg xmlns="http://www.w3.org/2000/svg" shape-rendering="crispEdges" width="24" height="24" viewBox="0 0 24 24"><path d="M0 0v1h3v-1" fill="#141414ff"/><path d="M3 0v1h1v-1" fill="#1c171eff"/><path d="M4 0v1h1v-1" fill="#412749ff"/><path d="M5 0v1h1v-1" fill="#c92ffcff"/><path d="M6 0v1h1v-1" fill="#f6efffff"/><path d="M7 0v1h1v-1" fill="#ffffffff"/><path d="M8 0v1h1v-1" fill="#402847ff"/><path d="M9 0v1h1v-1" fill="#2e1f32ff"/><path d="M10 0v1h1v-1" fill="#3a2541ff"/><path d="M11 0v1h1v-1" fill="#412749ff"/><path d="M12 0v1h1v-1" fill="#37223dff"/><path d="M13 0v1h1v-1" fill="#231a27ff"/><path d="M14 0v1h1v-1" fill="#171618ff"/><path d="M15 0v1h4v-1" fill="#141414ff"/><path d="M19 0v1h1v-1" fill="#19141bff"/><path d="M20 0v1h1v-1" fill="#2a1433ff"/><path d="M21 0v1h1v-1" fill="#9c14dbff"/><path d="M22 0v1h1v-1" fill="#2a1433ff"/><path d="M23 0v1h1v-1" fill="#19141bff"/><path d="M0 1v1h1v-1" fill="#1c1c1dff"/><path d="M1 1v1h1v-1" fill="#181718ff"/><path d="M2 1v1h1v-1" fill="#161516ff"/><path d="M3 1v1h1v-1" fill="#1c171eff"/><path d="M4 1v1h1v-1" fill="#3e2445ff"/><path d="M5 1v1h1v-1" fill="#9c14dbff"/><path d="M6 1v1h1v-1" fill="#f6efffff"/><path d="M7 1v1h1v-1" fill="#ffffffff"/><path d="M8 1v1h1v-1" fill="#5c3369ff"/><path d="M9 1v1h1v-1" fill="#5a3367ff"/><path d="M10 1v1h1v-1" fill="#ffffffff"/><path d="M11 1v1h2v-1" fill="#f6efffff"/><path d="M13 1v1h1v-1" fill="#35213bff"/><path d="M14 1v1h1v-1" fill="#1b161cff"/><path d="M15 1v1h3v-1" fill="#141414ff"/><path d="M18 1v1h1v-1" fill="#000000ff"/><path d="M19 1v1h1v-1" fill="#171318ff"/><path d="M20 1v1h1v-1" fill="#1d1321ff"/><path d="M21 1v1h1v-1" fill="#24132cff"/><path d="M22 1v1h1v-1" fill="#1d1321ff"/><path d="M23 1v1h1v-1" fill="#171318ff"/><path d="M0 2v1h1v-1" fill="#454346ff"/><path d="M1 2v1h1v-1" fill="#2c2a2bff"/><path d="M2 2v1h1v-1" fill="#1c191aff"/><path d="M3 2v1h1v-1" fill="#1b181cff"/><path d="M4 2v1h1v-1" fill="#36233dff"/><path d="M5 2v1h1v-1" fill="#713b82ff"/><path d="M6 2v1h1v-1" fill="#9c14dbff"/><path d="M7 2v1h1v-1" fill="#f6efffff"/><path d="M8 2v1h1v-1" fill="#834597ff"/><path d="M9 2v1h3v-1" fill="#f6efffff"/><path d="M12 2v1h1v-1" fill="#c92ffcff"/><path d="M13 2v1h1v-1" fill="#37223dff"/><path d="M14 2v1h1v-1" fill="#1c161eff"/><path d="M15 2v1h1v-1" fill="#1c171eff"/><path d="M16 2v1h1v-1" fill="#271c2bff"/><path d="M17 2v1h1v-1" fill="#000000ff"/><path d="M18 2v1h1v-1" fill="#db623cff"/><path d="M19 2v1h3v-1" fill="#000000ff"/><path d="M22 2v1h1v-1" fill="#241a29ff"/><path d="M23 2v1h1v-1" fill="#1c161eff"/><path d="M0 3v1h1v-1" fill="#f6efffff"/><path d="M1 3v1h1v-1" fill="#52494eff"/><path d="M2 3v1h1v-1" fill="#282325ff"/><path d="M3 3v1h1v-1" fill="#1e181fff"/><path d="M4 3v1h1v-1" fill="#3e2445ff"/><path d="M5 3v1h1v-1" fill="#c92ffcff"/><path d="M6 3v1h1v-1" fill="#f6efffff"/><path d="M7 3v1h2v-1" fill="#ffffffff"/><path d="M9 3v1h1v-1" fill="#f6efffff"/><path d="M10 3v1h1v-1" fill="#ffffffff"/><path d="M11 3v1h1v-1" fill="#9c14dbff"/><path d="M12 3v1h1v-1" fill="#502c5aff"/><path d="M13 3v1h1v-1" fill="#261c2aff"/><path d="M14 3v1h1v-1" fill="#1a161cff"/><path d="M15 3v1h1v-1" fill="#1f1923ff"/><path d="M16 3v1h1v-1" fill="#000000ff"/><path d="M17 3v1h1v-1" fill="#3cb0dbff"/><path d="M18 3v1h1v-1" fill="#db623cff"/><path d="M19 3v1h1v-1" fill="#4b3127ff"/><path d="M20 3v1h2v-1" fill="#db623cff"/><path d="M22 3v1h1v-1" fill="#000000ff"/><path d="M23 3v1h1v-1" fill="#281c2eff"/><path d="M0 4v1h1v-1" fill="#ffffffff"/><path d="M1 4v1h1v-1" fill="#eb8fceff"/><path d="M2 4v1h1v-1" fill="#31282cff"/><path d="M3 4v1h1v-1" fill="#251c25ff"/><path d="M4 4v1h1v-1" fill="#462950ff"/><path d="M5 4v1h1v-1" fill="#f6efffff"/><path d="M6 4v1h1v-1" fill="#ffffffff"/><path d="M7 4v1h3v-1" fill="#f6efffff"/><path d="M10 4v1h1v-1" fill="#c92ffcff"/><path d="M11 4v1h1v-1" fill="#532f5eff"/><path d="M12 4v1h1v-1" fill="#2c1d30ff"/><path d="M13 4v1h1v-1" fill="#1a171cff"/><path d="M14 4v1h1v-1" fill="#161518ff"/><path d="M15 4v1h1v-1" fill="#000000ff"/><path d="M16 4v1h1v-1" fill="#cececeff"/><path d="M17 4v1h1v-1" fill="#3cb0dbff"/><path d="M18 4v1h1v-1" fill="#4b3127ff"/><path d="M19 4v1h1v-1" fill="#db623cff"/><path d="M20 4v1h1v-1" fill="#3cb0dbff"/><path d="M21 4v1h1v-1" fill="#000000ff"/><path d="M22 4v1h1v-1" fill="#e347dfff"/><path d="M23 4v1h1v-1" fill="#392343ff"/><path d="M0 5v1h1v-1" fill="#4d494aff"/><path d="M1 5v1h1v-1" fill="#3a3234ff"/><path d="M2 5v1h1v-1" fill="#262023ff"/><path d="M3 5v1h1v-1" fill="#261c28ff"/><path d="M4 5v1h1v-1" fill="#482952ff"/><path d="M5 5v1h2v-1" fill="#f6efffff"/><path d="M7 5v1h1v-1" fill="#733c85ff"/><path d="M8 5v1h1v-1" fill="#ffffffff"/><path d="M9 5v1h1v-1" fill="#f6efffff"/><path d="M10 5v1h1v-1" fill="#5a3266ff"/><path d="M11 5v1h1v-1" fill="#2d1e32ff"/><path d="M12 5v1h1v-1" fill="#1a161cff"/><path d="M13 5v1h1v-1" fill="#141414ff"/><path d="M14 5v1h1v-1" fill="#171418ff"/><path d="M15 5v1h1v-1" fill="#000000ff"/><path d="M16 5v1h1v-1" fill="#cececeff"/><path d="M17 5v1h1v-1" fill="#4b3127ff"/><path d="M18 5v1h2v-1" fill="#3cb0dbff"/><path d="M20 5v1h1v-1" fill="#000000ff"/><path d="M21 5v1h1v-1" fill="#f7efffff"/><path d="M22 5v1h1v-1" fill="#e347dfff"/><path d="M23 5v1h1v-1" fill="#40264cff"/><path d="M0 6v1h1v-1" fill="#1f1e1fff"/><path d="M1 6v1h1v-1" fill="#1c1a1bff"/><path d="M2 6v1h1v-1" fill="#1c181bff"/><path d="M3 6v1h1v-1" fill="#291c2cff"/><path d="M4 6v1h1v-1" fill="#c92ffcff"/><path d="M5 6v1h1v-1" fill="#472a50ff"/><path d="M6 6v1h1v-1" fill="#3e2545ff"/><path d="M7 6v1h1v-1" fill="#3a2341ff"/><path d="M8 6v1h1v-1" fill="#4c2c56ff"/><path d="M9 6v1h1v-1" fill="#f6efffff"/><path d="M10 6v1h1v-1" fill="#38233fff"/><path d="M11 6v1h1v-1" fill="#1d171fff"/><path d="M12 6v1h1v-1" fill="#161516ff"/><path d="M13 6v1h1v-1" fill="#141414ff"/><path d="M14 6v1h1v-1" fill="#151416ff"/><path d="M15 6v1h1v-1" fill="#000000ff"/><path d="M16 6v1h1v-1" fill="#4b3127ff"/><path d="M17 6v1h2v-1" fill="#cececeff"/><path d="M19 6v1h1v-1" fill="#000000ff"/><path d="M20 6v1h1v-1" fill="#ffffffff"/><path d="M21 6v1h1v-1" fill="#e347dfff"/><path d="M22 6v1h1v-1" fill="#bb2bc3ff"/><path d="M23 6v1h1v-1" fill="#3b2446ff"/><path d="M0 7v1h2v-1" fill="#141414ff"/><path d="M2 7v1h1v-1" fill="#151416ff"/><path d="M3 7v1h1v-1" fill="#1e171fff"/><path d="M4 7v1h1v-1" fill="#281c2dff"/><path d="M5 7v1h1v-1" fill="#231a26ff"/><path d="M6 7v1h1v-1" fill="#1d171fff"/><path d="M7 7v1h1v-1" fill="#1c171eff"/><path d="M8 7v1h1v-1" fill="#251b28ff"/><path d="M9 7v1h6v-1" fill="#000000ff"/><path d="M15 7v1h1v-1" fill="#4b3127ff"/><path d="M16 7v1h3v-1" fill="#000000ff"/><path d="M19 7v1h1v-1" fill="#ffffffff"/><path d="M20 7v1h1v-1" fill="#e347dfff"/><path d="M21 7v1h1v-1" fill="#bb2bc3ff"/><path d="M22 7v1h1v-1" fill="#4d2c5fff"/><path d="M23 7v1h1v-1" fill="#2f1f36ff"/><path d="M0 8v1h1v-1" fill="#161418ff"/><path d="M1 8v1h1v-1" fill="#17151bff"/><path d="M2 8v1h1v-1" fill="#18151bff"/><path d="M3 8v1h1v-1" fill="#19151dff"/><path d="M4 8v1h1v-1" fill="#1c1720ff"/><path d="M5 8v1h1v-1" fill="#161518ff"/><path d="M6 8v1h1v-1" fill="#151316ff"/><path d="M7 8v1h1v-1" fill="#141414ff"/><path d="M8 8v1h1v-1" fill="#000000ff"/><path d="M9 8v1h5v-1" fill="#dbb180ff"/><path d="M14 8v1h1v-1" fill="#4b3127ff"/><path d="M15 8v1h1v-1" fill="#000000ff"/><path d="M16 8v1h1v-1" fill="#271431ff"/><path d="M17 8v1h1v-1" fill="#44185aff"/><path d="M18 8v1h1v-1" fill="#bb2bc3ff"/><path d="M19 8v1h1v-1" fill="#f7efffff"/><path d="M20 8v1h1v-1" fill="#e347dfff"/><path d="M21 8v1h1v-1" fill="#66367eff"/><path d="M22 8v1h1v-1" fill="#42274fff"/><path d="M23 8v1h1v-1" fill="#261b2bff"/><path d="M0 9v1h1v-1" fill="#1c1624ff"/><path d="M1 9v1h1v-1" fill="#281a37ff"/><path d="M2 9v1h2v-1" fill="#2a1c39ff"/><path d="M4 9v1h1v-1" fill="#22192bff"/><path d="M5 9v1h1v-1" fill="#18151bff"/><path d="M6 9v1h1v-1" fill="#141414ff"/><path d="M7 9v1h1v-1" fill="#000000ff"/><path d="M8 9v1h1v-1" fill="#c59f73ff"/><path d="M9 9v1h2v-1" fill="#dbb180ff"/><path d="M11 9v1h2v-1" fill="#ca0303ff"/><path d="M13 9v1h1v-1" fill="#4b3127ff"/><path d="M14 9v1h1v-1" fill="#e2c199ff"/><path d="M15 9v1h1v-1" fill="#dbb180ff"/><path d="M16 9v1h1v-1" fill="#000000ff"/><path d="M17 9v1h1v-1" fill="#32173fff"/><path d="M18 9v1h1v-1" fill="#4d2263ff"/><path d="M19 9v1h1v-1" fill="#f7efffff"/><path d="M20 9v1h1v-1" fill="#ffffffff"/><path d="M21 9v1h1v-1" fill="#bb2bc3ff"/><path d="M22 9v1h1v-1" fill="#42274fff"/><path d="M23 9v1h1v-1" fill="#261b2bff"/><path d="M0 10v1h1v-1" fill="#2c1c3eff"/><path d="M1 10v1h1v-1" fill="#a32ffcff"/><path d="M2 10v1h1v-1" fill="#542b81ff"/><path d="M3 10v1h1v-1" fill="#a32ffcff"/><path d="M4 10v1h1v-1" fill="#3f225bff"/><path d="M5 10v1h1v-1" fill="#22192dff"/><path d="M6 10v1h1v-1" fill="#161418ff"/><path d="M7 10v1h1v-1" fill="#000000ff"/><path d="M8 10v1h1v-1" fill="#c59f73ff"/><path d="M9 10v1h2v-1" fill="#dbb180ff"/><path d="M11 10v1h1v-1" fill="#ca0303ff"/><path d="M12 10v1h1v-1" fill="#4b3127ff"/><path d="M13 10v1h1v-1" fill="#ca0303ff"/><path d="M14 10v1h2v-1" fill="#dbb180ff"/><path d="M16 10v1h1v-1" fill="#000000ff"/><path d="M17 10v1h1v-1" fill="#211427ff"/><path d="M18 10v1h1v-1" fill="#341c3fff"/><path d="M19 10v1h1v-1" fill="#4c295eff"/><path d="M20 10v1h1v-1" fill="#f7efffff"/><path d="M21 10v1h1v-1" fill="#e347dfff"/><path d="M22 10v1h1v-1" fill="#3f264aff"/><path d="M23 10v1h1v-1" fill="#281c2eff"/><path d="M0 11v1h1v-1" fill="#351f4dff"/><path d="M1 11v1h2v-1" fill="#f4efffff"/><path d="M3 11v1h1v-1" fill="#7714dbff"/><path d="M4 11v1h1v-1" fill="#f4efffff"/><path d="M5 11v1h1v-1" fill="#311d47ff"/><path d="M6 11v1h1v-1" fill="#19151dff"/><path d="M7 11v1h1v-1" fill="#000000ff"/><path d="M8 11v1h4v-1" fill="#ff0000ff"/><path d="M12 11v1h1v-1" fill="#ca0303ff"/><path d="M13 11v1h4v-1" fill="#ff0000ff"/><path d="M17 11v1h1v-1" fill="#19161aff"/><path d="M18 11v1h1v-1" fill="#221827ff"/><path d="M19 11v1h1v-1" fill="#2f1e36ff"/><path d="M20 11v1h1v-1" fill="#3c2448ff"/><path d="M21 11v1h1v-1" fill="#3e254aff"/><path d="M22 11v1h1v-1" fill="#e347dfff"/><path d="M23 11v1h1v-1" fill="#261b2bff"/><path d="M0 12v1h1v-1" fill="#341e4bff"/><path d="M1 12v1h1v-1" fill="#f4efffff"/><path d="M2 12v1h1v-1" fill="#a32ffcff"/><path d="M3 12v1h1v-1" fill="#ffffffff"/><path d="M4 12v1h1v-1" fill="#f4efffff"/><path d="M5 12v1h1v-1" fill="#392052ff"/><path d="M6 12v1h3v-1" fill="#ff0000ff"/><path d="M9 12v1h1v-1" fill="#ffffffff"/><path d="M10 12v1h1v-1" fill="#000000ff"/><path d="M11 12v1h3v-1" fill="#ff0000ff"/><path d="M14 12v1h1v-1" fill="#ffffffff"/><path d="M15 12v1h1v-1" fill="#000000ff"/><path d="M16 12v1h1v-1" fill="#ff0000ff"/><path d="M17 12v1h1v-1" fill="#161516ff"/><path d="M18 12v1h1v-1" fill="#19151bff"/><path d="M19 12v1h1v-1" fill="#1d1720ff"/><path d="M20 12v1h1v-1" fill="#251b29ff"/><path d="M21 12v1h1v-1" fill="#2a1f30ff"/><path d="M22 12v1h1v-1" fill="#2b1f30ff"/><path d="M23 12v1h1v-1" fill="#221b25ff"/><path d="M0 13v1h1v-1" fill="#2c1c3dff"/><path d="M1 13v1h1v-1" fill="#582c85ff"/><path d="M2 13v1h1v-1" fill="#7714dbff"/><path d="M3 13v1h1v-1" fill="#f4efffff"/><path d="M4 13v1h1v-1" fill="#7714dbff"/><path d="M5 13v1h1v-1" fill="#321f46ff"/><path d="M6 13v1h1v-1" fill="#ff0000ff"/><path d="M7 13v1h1v-1" fill="#dbb180ff"/><path d="M8 13v1h1v-1" fill="#ff0000ff"/><path d="M9 13v1h1v-1" fill="#ffffffff"/><path d="M10 13v1h1v-1" fill="#000000ff"/><path d="M11 13v1h1v-1" fill="#ff0000ff"/><path d="M12 13v1h1v-1" fill="#dbb180ff"/><path d="M13 13v1h1v-1" fill="#ff0000ff"/><path d="M14 13v1h1v-1" fill="#ffffffff"/><path d="M15 13v1h1v-1" fill="#000000ff"/><path d="M16 13v1h1v-1" fill="#ff0000ff"/><path d="M17 13v1h2v-1" fill="#141414ff"/><path d="M19 13v1h1v-1" fill="#171418ff"/><path d="M20 13v1h1v-1" fill="#1b181dff"/><path d="M21 13v1h1v-1" fill="#262128ff"/><path d="M22 13v1h1v-1" fill="#2f2a31ff"/><path d="M23 13v1h1v-1" fill="#242026ff"/><path d="M0 14v1h1v-1" fill="#281b37ff"/><path d="M1 14v1h1v-1" fill="#a32ffcff"/><path d="M2 14v1h1v-1" fill="#f4efffff"/><path d="M3 14v1h1v-1" fill="#ffffffff"/><path d="M4 14v1h1v-1" fill="#412560ff"/><path d="M5 14v1h1v-1" fill="#23192dff"/><path d="M6 14v1h1v-1" fill="#ff0000ff"/><path d="M7 14v1h1v-1" fill="#000000ff"/><path d="M8 14v1h4v-1" fill="#ff0000ff"/><path d="M12 14v1h1v-1" fill="#dbb180ff"/><path d="M13 14v1h4v-1" fill="#ff0000ff"/><path d="M17 14v1h3v-1" fill="#141414ff"/><path d="M20 14v1h1v-1" fill="#1a191bff"/><path d="M21 14v1h1v-1" fill="#2c2a2dff"/><path d="M22 14v1h1v-1" fill="#f6eeffff"/><path d="M23 14v1h1v-1" fill="#2c2a2dff"/><path d="M0 15v1h1v-1" fill="#1d1724ff"/><path d="M1 15v1h1v-1" fill="#2c1d3dff"/><path d="M2 15v1h1v-1" fill="#37214dff"/><path d="M3 15v1h1v-1" fill="#321f46ff"/><path d="M4 15v1h1v-1" fill="#23192dff"/><path d="M5 15v1h1v-1" fill="#18151bff"/><path d="M6 15v1h1v-1" fill="#141414ff"/><path d="M7 15v1h1v-1" fill="#000000ff"/><path d="M8 15v1h1v-1" fill="#c59f73ff"/><path d="M9 15v1h7v-1" fill="#dbb180ff"/><path d="M16 15v1h1v-1" fill="#000000ff"/><path d="M17 15v1h2v-1" fill="#141414ff"/><path d="M19 15v1h1v-1" fill="#171417ff"/><path d="M20 15v1h1v-1" fill="#1c181dff"/><path d="M21 15v1h1v-1" fill="#242024ff"/><path d="M22 15v1h1v-1" fill="#2a282bff"/><path d="M23 15v1h1v-1" fill="#1f1f1fff"/><path d="M0 16v1h1v-1" fill="#171418ff"/><path d="M1 16v1h1v-1" fill="#19161dff"/><path d="M2 16v1h1v-1" fill="#1a161fff"/><path d="M3 16v1h1v-1" fill="#19151dff"/><path d="M4 16v1h1v-1" fill="#161418ff"/><path d="M5 16v1h3v-1" fill="#000000ff"/><path d="M8 16v1h1v-1" fill="#c59f73ff"/><path d="M9 16v1h3v-1" fill="#dbb180ff"/><path d="M12 16v1h1v-1" fill="#000000ff"/><path d="M13 16v1h3v-1" fill="#dbb180ff"/><path d="M16 16v1h1v-1" fill="#000000ff"/><path d="M17 16v1h1v-1" fill="#141414ff"/><path d="M18 16v1h1v-1" fill="#181518ff"/><path d="M19 16v1h1v-1" fill="#221823ff"/><path d="M20 16v1h1v-1" fill="#311e32ff"/><path d="M21 16v1h1v-1" fill="#2a1d2bff"/><path d="M22 16v1h1v-1" fill="#1f1a1fff"/><path d="M23 16v1h1v-1" fill="#181718ff"/><path d="M0 17v1h1v-1" fill="#171418ff"/><path d="M1 17v1h1v-1" fill="#19161bff"/><path d="M2 17v1h1v-1" fill="#171518ff"/><path d="M3 17v1h2v-1" fill="#000000ff"/><path d="M5 17v1h1v-1" fill="#4b3127ff"/><path d="M6 17v1h2v-1" fill="#000000ff"/><path d="M8 17v1h1v-1" fill="#c59f73ff"/><path d="M9 17v1h7v-1" fill="#dbb180ff"/><path d="M16 17v1h1v-1" fill="#000000ff"/><path d="M17 17v1h1v-1" fill="#1b151cff"/><path d="M18 17v1h1v-1" fill="#261a27ff"/><path d="M19 17v1h1v-1" fill="#3f2243ff"/><path d="M20 17v1h1v-1" fill="#af14dbff"/><path d="M21 17v1h1v-1" fill="#4e2552ff"/><path d="M22 17v1h1v-1" fill="#2a1b2bff"/><path d="M23 17v1h1v-1" fill="#171517ff"/><path d="M0 18v1h1v-1" fill="#201a23ff"/><path d="M1 18v1h1v-1" fill="#2b2030ff"/><path d="M2 18v1h1v-1" fill="#000000ff"/><path d="M3 18v1h1v-1" fill="#cececeff"/><path d="M4 18v1h1v-1" fill="#4b3127ff"/><path d="M5 18v1h1v-1" fill="#000000ff"/><path d="M6 18v1h1v-1" fill="#141414ff"/><path d="M7 18v1h1v-1" fill="#000000ff"/><path d="M8 18v1h1v-1" fill="#c59f73ff"/><path d="M9 18v1h2v-1" fill="#dbb180ff"/><path d="M11 18v1h3v-1" fill="#e67355ff"/><path d="M14 18v1h2v-1" fill="#dbb180ff"/><path d="M16 18v1h1v-1" fill="#000000ff"/><path d="M17 18v1h1v-1" fill="#371f3aff"/><path d="M18 18v1h1v-1" fill="#512855ff"/><path d="M19 18v1h1v-1" fill="#6f3176ff"/><path d="M20 18v1h1v-1" fill="#ffffffff"/><path d="M21 18v1h1v-1" fill="#af14dbff"/><path d="M22 18v1h1v-1" fill="#3c2040ff"/><path d="M23 18v1h1v-1" fill="#1c161cff"/><path d="M0 19v1h1v-1" fill="#322539ff"/><path d="M1 19v1h1v-1" fill="#000000ff"/><path d="M2 19v1h3v-1" fill="#cececeff"/><path d="M5 19v1h1v-1" fill="#000000ff"/><path d="M6 19v1h1v-1" fill="#171618ff"/><path d="M7 19v1h1v-1" fill="#141414ff"/><path d="M8 19v1h1v-1" fill="#000000ff"/><path d="M9 19v1h1v-1" fill="#c59f73ff"/><path d="M10 19v1h5v-1" fill="#dbb180ff"/><path d="M15 19v1h1v-1" fill="#000000ff"/><path d="M16 19v1h1v-1" fill="#2f1c32ff"/><path d="M17 19v1h1v-1" fill="#e16cffff"/><path d="M18 19v1h1v-1" fill="#f7efffff"/><path d="M19 19v1h1v-1" fill="#ffffffff"/><path d="M20 19v1h1v-1" fill="#e16cffff"/><path d="M21 19v1h1v-1" fill="#f7efffff"/><path d="M22 19v1h1v-1" fill="#3e2042ff"/><path d="M23 19v1h1v-1" fill="#1c161cff"/><path d="M0 20v1h1v-1" fill="#3f2d49ff"/><path d="M1 20v1h1v-1" fill="#000000ff"/><path d="M2 20v1h2v-1" fill="#cececeff"/><path d="M4 20v1h1v-1" fill="#000000ff"/><path d="M5 20v1h1v-1" fill="#35253dff"/><path d="M6 20v1h1v-1" fill="#1b171cff"/><path d="M7 20v1h1v-1" fill="#141414ff"/><path d="M8 20v1h1v-1" fill="#000000ff"/><path d="M9 20v1h1v-1" fill="#c59f73ff"/><path d="M10 20v1h1v-1" fill="#000000ff"/><path d="M11 20v1h3v-1" fill="#dbb180ff"/><path d="M14 20v1h1v-1" fill="#000000ff"/><path d="M15 20v1h1v-1" fill="#171418ff"/><path d="M16 20v1h1v-1" fill="#261927ff"/><path d="M17 20v1h1v-1" fill="#4e2552ff"/><path d="M18 20v1h1v-1" fill="#e16cffff"/><path d="M19 20v1h2v-1" fill="#f7efffff"/><path d="M21 20v1h1v-1" fill="#612c66ff"/><path d="M22 20v1h1v-1" fill="#2d1b2eff"/><path d="M23 20v1h1v-1" fill="#181518ff"/><path d="M0 21v1h1v-1" fill="#422e4cff"/><path d="M1 21v1h3v-1" fill="#000000ff"/><path d="M4 21v1h1v-1" fill="#f3efffff"/><path d="M5 21v1h1v-1" fill="#382740ff"/><path d="M6 21v1h1v-1" fill="#1b171cff"/><path d="M7 21v1h1v-1" fill="#141414ff"/><path d="M8 21v1h1v-1" fill="#000000ff"/><path d="M9 21v1h2v-1" fill="#c59f73ff"/><path d="M11 21v1h3v-1" fill="#000000ff"/><path d="M14 21v1h1v-1" fill="#141414ff"/><path d="M15 21v1h1v-1" fill="#171417ff"/><path d="M16 21v1h1v-1" fill="#1f171eff"/><path d="M17 21v1h1v-1" fill="#2e1b2fff"/><path d="M18 21v1h1v-1" fill="#442248ff"/><path d="M19 21v1h1v-1" fill="#5b2a61ff"/><path d="M20 21v1h1v-1" fill="#ffffffff"/><path d="M21 21v1h1v-1" fill="#3e2042ff"/><path d="M22 21v1h1v-1" fill="#1e171fff"/><path d="M23 21v1h1v-1" fill="#151315ff"/><path d="M0 22v1h1v-1" fill="#3b2944ff"/><path d="M1 22v1h1v-1" fill="#f3efffff"/><path d="M2 22v1h1v-1" fill="#ffffffff"/><path d="M3 22v1h1v-1" fill="#ac56d4ff"/><path d="M4 22v1h1v-1" fill="#51355fff"/><path d="M5 22v1h1v-1" fill="#271e2bff"/><path d="M6 22v1h1v-1" fill="#171518ff"/><path d="M7 22v1h1v-1" fill="#141414ff"/><path d="M8 22v1h1v-1" fill="#000000ff"/><path d="M9 22v1h3v-1" fill="#c59f73ff"/><path d="M12 22v1h1v-1" fill="#000000ff"/><path d="M13 22v1h1v-1" fill="#141414ff"/><path d="M14 22v1h1v-1" fill="#181418ff"/><path d="M15 22v1h1v-1" fill="#221721ff"/><path d="M16 22v1h1v-1" fill="#2e192eff"/><path d="M17 22v1h1v-1" fill="#271926ff"/><path d="M18 22v1h1v-1" fill="#221823ff"/><path d="M19 22v1h1v-1" fill="#2a1b2bff"/><path d="M20 22v1h1v-1" fill="#301d32ff"/><path d="M21 22v1h1v-1" fill="#211822ff"/><path d="M22 22v1h1v-1" fill="#171418ff"/><path d="M23 22v1h1v-1" fill="#141414ff"/><path d="M0 23v1h1v-1" fill="#271e2bff"/><path d="M1 23v1h1v-1" fill="#4a3156ff"/><path d="M2 23v1h1v-1" fill="#f3efffff"/><path d="M3 23v1h1v-1" fill="#4e325bff"/><path d="M4 23v1h1v-1" fill="#2b1f30ff"/><path d="M5 23v1h1v-1" fill="#19171bff"/><path d="M6 23v1h2v-1" fill="#141414ff"/><path d="M8 23v1h1v-1" fill="#000000ff"/><path d="M9 23v1h3v-1" fill="#c59f73ff"/><path d="M12 23v1h1v-1" fill="#000000ff"/><path d="M13 23v1h1v-1" fill="#141414ff"/><path d="M14 23v1h1v-1" fill="#1b161bff"/><path d="M15 23v1h1v-1" fill="#341c34ff"/><path d="M16 23v1h1v-1" fill="#e347dfff"/><path d="M17 23v1h1v-1" fill="#341c34ff"/><path d="M18 23v1h1v-1" fill="#1b161bff"/><path d="M19 23v1h5v-1" fill="#141414ff"/></svg>