<svg xmlns="http://www.w3.org/2000/svg" shape-rendering="crispEdges" width="24" height="24" viewBox="0 0 24 24"><path d="M0 0v1h9v-1" fill="#f6be11ff"/><path d="M9 0v1h1v-1" fill="#000000ff"/><path d="M10 0v1h2v-1" fill="#f6be11ff"/><path d="M12 0v1h1v-1" fill="#000000ff"/><path d="M13 0v1h1v-1" fill="#f6be11ff"/><path d="M14 0v1h1v-1" fill="#000000ff"/><path d="M15 0v1h9v-1" fill="#f6be11ff"/><path d="M0 1v1h6v-1" fill="#f6be11ff"/><path d="M6 1v1h3v-1" fill="#000000ff"/><path d="M9 1v1h1v-1" fill="#ffffffff"/><path d="M10 1v1h2v-1" fill="#000000ff"/><path d="M12 1v1h1v-1" fill="#fbe132ff"/><path d="M13 1v1h1v-1" fill="#000000ff"/><path d="M14 1v1h1v-1" fill="#ffffffff"/><path d="M15 1v1h2v-1" fill="#000000ff"/><path d="M17 1v1h7v-1" fill="#f6be11ff"/><path d="M0 2v1h5v-1" fill="#f6be11ff"/><path d="M5 2v1h1v-1" fill="#000000ff"/><path d="M6 2v1h2v-1" fill="#ca0303ff"/><path d="M8 2v1h1v-1" fill="#ffffffff"/><path d="M9 2v1h3v-1" fill="#ca0303ff"/><path d="M12 2v1h1v-1" fill="#ffffffff"/><path d="M13 2v1h3v-1" fill="#ca0303ff"/><path d="M16 2v1h1v-1" fill="#ffffffff"/><path d="M17 2v1h1v-1" fill="#000000ff"/><path d="M18 2v1h6v-1" fill="#f6be11ff"/><path d="M0 3v1h4v-1" fill="#f6be11ff"/><path d="M4 3v1h1v-1" fill="#000000ff"/><path d="M5 3v1h3v-1" fill="#ca0303ff"/><path d="M8 3v1h1v-1" fill="#fbe132ff"/><path d="M9 3v1h3v-1" fill="#ca0303ff"/><path d="M12 3v1h1v-1" fill="#fbe132ff"/><path d="M13 3v1h3v-1" fill="#ca0303ff"/><path d="M16 3v1h1v-1" fill="#fbe132ff"/><path d="M17 3v1h1v-1" fill="#ca0303ff"/><path d="M18 3v1h1v-1" fill="#000000ff"/><path d="M19 3v1h5v-1" fill="#f6be11ff"/><path d="M0 4v1h4v-1" fill="#f6be11ff"/><path d="M4 4v1h1v-1" fill="#000000ff"/><path d="M5 4v1h3v-1" fill="#ca0303ff"/><path d="M8 4v1h1v-1" fill="#fbe132ff"/><path d="M9 4v1h3v-1" fill="#ca0303ff"/><path d="M12 4v1h1v-1" fill="#fbe132ff"/><path d="M13 4v1h3v-1" fill="#ca0303ff"/><path d="M16 4v1h1v-1" fill="#fbe132ff"/><path d="M17 4v1h1v-1" fill="#ca0303ff"/><path d="M18 4v1h1v-1" fill="#000000ff"/><path d="M19 4v1h5v-1" fill="#f6be11ff"/><path d="M0 5v1h5v-1" fill="#f6be11ff"/><path d="M5 5v1h1v-1" fill="#000000ff"/><path d="M6 5v1h3v-1" fill="#ca0303ff"/><path d="M9 5v1h1v-1" fill="#fbe132ff"/><path d="M10 5v1h2v-1" fill="#ca0303ff"/><path d="M12 5v1h1v-1" fill="#fbe132ff"/><path d="M13 5v1h2v-1" fill="#ca0303ff"/><path d="M15 5v1h1v-1" fill="#fbe132ff"/><path d="M16 5v1h1v-1" fill="#ca0303ff"/><path d="M17 5v1h1v-1" fill="#000000ff"/><path d="M18 5v1h6v-1" fill="#f6be11ff"/><path d="M0 6v1h5v-1" fill="#f6be11ff"/><path d="M5 6v1h1v-1" fill="#000000ff"/><path d="M6 6v1h3v-1" fill="#ca0303ff"/><path d="M9 6v1h1v-1" fill="#fbe132ff"/><path d="M10 6v1h2v-1" fill="#ca0303ff"/><path d="M12 6v1h1v-1" fill="#fbe132ff"/><path d="M13 6v1h2v-1" fill="#ca0303ff"/><path d="M15 6v1h1v-1" fill="#fbe132ff"/><path d="M16 6v1h1v-1" fill="#ca0303ff"/><path d="M17 6v1h1v-1" fill="#000000ff"/><path d="M18 6v1h6v-1" fill="#f6be11ff"/><path d="M0 7v1h4v-1" fill="#f6be11ff"/><path d="M4 7v1h1v-1" fill="#000000ff"/><path d="M5 7v1h2v-1" fill="#fd9f28ff"/><path d="M7 7v1h4v-1" fill="#fbe132ff"/><path d="M11 7v1h3v-1" fill="#ffffffff"/><path d="M14 7v1h2v-1" fill="#fbe132ff"/><path d="M16 7v1h2v-1" fill="#fd9f28ff"/><path d="M18 7v1h1v-1" fill="#000000ff"/><path d="M19 7v1h5v-1" fill="#f6be11ff"/><path d="M0 8v1h5v-1" fill="#f6be11ff"/><path d="M5 8v1h1v-1" fill="#000000ff"/><path d="M6 8v1h11v-1" fill="#fd8825ff"/><path d="M17 8v1h1v-1" fill="#000000ff"/><path d="M18 8v1h6v-1" fill="#f6be11ff"/><path d="M0 9v1h4v-1" fill="#f6be11ff"/><path d="M4 9v1h1v-1" fill="#000000ff"/><path d="M5 9v1h2v-1" fill="#fd9f28ff"/><path d="M7 9v1h4v-1" fill="#fbe132ff"/><path d="M11 9v1h3v-1" fill="#ffffffff"/><path d="M14 9v1h2v-1" fill="#fbe132ff"/><path d="M16 9v1h2v-1" fill="#fd9f28ff"/><path d="M18 9v1h1v-1" fill="#000000ff"/><path d="M19 9v1h5v-1" fill="#f6be11ff"/><path d="M0 10v1h5v-1" fill="#f6be11ff"/><path d="M5 10v1h13v-1" fill="#000000ff"/><path d="M18 10v1h6v-1" fill="#f6be11ff"/><path d="M0 11v1h5v-1" fill="#f6be11ff"/><path d="M5 11v1h4v-1" fill="#000000ff"/><path d="M9 11v1h2v-1" fill="#fff100ff"/><path d="M11 11v1h2v-1" fill="#ff6a30ff"/><path d="M13 11v1h3v-1" fill="#db1919ff"/><path d="M16 11v1h1v-1" fill="#ff6a30ff"/><path d="M17 11v1h2v-1" fill="#000000ff"/><path d="M19 11v1h5v-1" fill="#f6be11ff"/><path d="M0 12v1h4v-1" fill="#f6be11ff"/><path d="M4 12v1h1v-1" fill="#000000ff"/><path d="M5 12v1h1v-1" fill="#cfa242ff"/><path d="M6 12v1h1v-1" fill="#faee7fff"/><path d="M7 12v1h1v-1" fill="#d3c3c3ff"/><path d="M8 12v1h1v-1" fill="#000000ff"/><path d="M9 12v1h1v-1" fill="#fff100ff"/><path d="M10 12v1h1v-1" fill="#ff6a30ff"/><path d="M11 12v1h4v-1" fill="#db1919ff"/><path d="M15 12v1h1v-1" fill="#ff6a30ff"/><path d="M16 12v1h1v-1" fill="#fff100ff"/><path d="M17 12v1h2v-1" fill="#000000ff"/><path d="M19 12v1h5v-1" fill="#f6be11ff"/><path d="M0 13v1h4v-1" fill="#f6be11ff"/><path d="M4 13v1h1v-1" fill="#000000ff"/><path d="M5 13v1h1v-1" fill="#cfa242ff"/><path d="M6 13v1h1v-1" fill="#faee7fff"/><path d="M7 13v1h1v-1" fill="#d3c3c3ff"/><path d="M8 13v1h1v-1" fill="#000000ff"/><path d="M9 13v1h1v-1" fill="#ff6a30ff"/><path d="M10 13v1h2v-1" fill="#db1919ff"/><path d="M12 13v1h2v-1" fill="#000000ff"/><path d="M14 13v1h1v-1" fill="#ff6a30ff"/><path d="M15 13v1h2v-1" fill="#fff100ff"/><path d="M17 13v1h2v-1" fill="#000000ff"/><path d="M19 13v1h5v-1" fill="#f6be11ff"/><path d="M0 14v1h4v-1" fill="#f6be11ff"/><path d="M4 14v1h1v-1" fill="#000000ff"/><path d="M5 14v1h1v-1" fill="#b8b8b8ff"/><path d="M6 14v1h1v-1" fill="#faee7fff"/><path d="M7 14v1h1v-1" fill="#d3c3c3ff"/><path d="M8 14v1h1v-1" fill="#ead9d9ff"/><path d="M9 14v1h3v-1" fill="#000000ff"/><path d="M12 14v1h2v-1" fill="#ead9d9ff"/><path d="M14 14v1h3v-1" fill="#000000ff"/><path d="M17 14v1h1v-1" fill="#cfa242ff"/><path d="M18 14v1h1v-1" fill="#000000ff"/><path d="M19 14v1h5v-1" fill="#f6be11ff"/><path d="M0 15v1h4v-1" fill="#f6be11ff"/><path d="M4 15v1h1v-1" fill="#ccccccff"/><path d="M5 15v1h1v-1" fill="#cfa242ff"/><path d="M6 15v1h1v-1" fill="#b8b8b8ff"/><path d="M7 15v1h1v-1" fill="#d3c3c3ff"/><path d="M8 15v1h4v-1" fill="#ead9d9ff"/><path d="M12 15v1h2v-1" fill="#000000ff"/><path d="M14 15v1h2v-1" fill="#ead9d9ff"/><path d="M16 15v1h2v-1" fill="#000000ff"/><path d="M18 15v1h6v-1" fill="#f6be11ff"/><path d="M0 16v1h4v-1" fill="#f6be11ff"/><path d="M4 16v1h1v-1" fill="#747474ff"/><path d="M5 16v1h1v-1" fill="#000000ff"/><path d="M6 16v1h1v-1" fill="#ccccccff"/><path d="M7 16v1h1v-1" fill="#d3c3c3ff"/><path d="M8 16v1h8v-1" fill="#ead9d9ff"/><path d="M16 16v1h1v-1" fill="#000000ff"/><path d="M17 16v1h7v-1" fill="#f6be11ff"/><path d="M0 17v1h5v-1" fill="#f6be11ff"/><path d="M5 17v1h1v-1" fill="#747474ff"/><path d="M6 17v1h1v-1" fill="#000000ff"/><path d="M7 17v1h1v-1" fill="#d3c3c3ff"/><path d="M8 17v1h8v-1" fill="#ead9d9ff"/><path d="M16 17v1h1v-1" fill="#000000ff"/><path d="M17 17v1h7v-1" fill="#f6be11ff"/><path d="M0 18v1h6v-1" fill="#f6be11ff"/><path d="M6 18v1h1v-1" fill="#000000ff"/><path d="M7 18v1h1v-1" fill="#d3c3c3ff"/><path d="M8 18v1h3v-1" fill="#ead9d9ff"/><path d="M11 18v1h3v-1" fill="#000000ff"/><path d="M14 18v1h2v-1" fill="#ead9d9ff"/><path d="M16 18v1h1v-1" fill="#000000ff"/><path d="M17 18v1h7v-1" fill="#f6be11ff"/><path d="M0 19v1h6v-1" fill="#f6be11ff"/><path d="M6 19v1h1v-1" fill="#000000ff"/><path d="M7 19v1h1v-1" fill="#d3c3c3ff"/><path d="M8 19v1h8v-1" fill="#ead9d9ff"/><path d="M16 19v1h1v-1" fill="#000000ff"/><path d="M17 19v1h7v-1" fill="#f6be11ff"/><path d="M0 20v1h6v-1" fill="#f6be11ff"/><path d="M6 20v1h1v-1" fill="#000000ff"/><path d="M7 20v1h2v-1" fill="#d3c3c3ff"/><path d="M9 20v1h6v-1" fill="#ead9d9ff"/><path d="M15 20v1h1v-1" fill="#000000ff"/><path d="M16 20v1h8v-1" fill="#f6be11ff"/><path d="M0 21v1h6v-1" fill="#f6be11ff"/><path d="M6 21v1h1v-1" fill="#000000ff"/><path d="M7 21v1h3v-1" fill="#d3c3c3ff"/><path d="M10 21v1h5v-1" fill="#000000ff"/><path d="M15 21v1h9v-1" fill="#f6be11ff"/><path d="M0 22v1h6v-1" fill="#f6be11ff"/><path d="M6 22v1h1v-1" fill="#000000ff"/><path d="M7 22v1h3v-1" fill="#d3c3c3ff"/><path d="M10 22v1h1v-1" fill="#000000ff"/><path d="M11 22v1h13v-1" fill="#f6be11ff"/><path d="M0 23v1h6v-1" fill="#f6be11ff"/><path d="M6 23v1h1v-1" fill="#000000ff"/><path d="M7 23v1h3v-1" fill="#d3c3c3ff"/><path d="M10 23v1h1v-1" fill="#000000ff"/><path d="M11 23v1h13v-1" fill="#f6be11ff"/></svg>