<svg xmlns="http://www.w3.org/2000/svg" shape-rendering="crispEdges" width="24" height="24" viewBox="0 0 24 24"><path d="M0 0v1h2v-1" fill="#f6be11ff"/><path d="M2 0v1h2v-1" fill="#000000ff"/><path d="M4 0v1h5v-1" fill="#f6be11ff"/><path d="M9 0v1h1v-1" fill="#000000ff"/><path d="M10 0v1h1v-1" fill="#ef7307ff"/><path d="M11 0v1h1v-1" fill="#000000ff"/><path d="M12 0v1h3v-1" fill="#f6be11ff"/><path d="M15 0v1h1v-1" fill="#000000ff"/><path d="M16 0v1h1v-1" fill="#ca0303ff"/><path d="M17 0v1h1v-1" fill="#000000ff"/><path d="M18 0v1h6v-1" fill="#f6be11ff"/><path d="M0 1v1h2v-1" fill="#f6be11ff"/><path d="M2 1v1h1v-1" fill="#000000ff"/><path d="M3 1v1h1v-1" fill="#f5bd10ff"/><path d="M4 1v1h2v-1" fill="#000000ff"/><path d="M6 1v1h3v-1" fill="#f6be11ff"/><path d="M9 1v1h1v-1" fill="#000000ff"/><path d="M10 1v1h1v-1" fill="#ef7307ff"/><path d="M11 1v1h1v-1" fill="#000000ff"/><path d="M12 1v1h2v-1" fill="#f6be11ff"/><path d="M14 1v1h1v-1" fill="#000000ff"/><path d="M15 1v1h1v-1" fill="#ca0303ff"/><path d="M16 1v1h1v-1" fill="#000000ff"/><path d="M17 1v1h7v-1" fill="#f6be11ff"/><path d="M0 2v1h3v-1" fill="#f6be11ff"/><path d="M3 2v1h1v-1" fill="#000000ff"/><path d="M4 2v1h2v-1" fill="#f5bd10ff"/><path d="M6 2v1h1v-1" fill="#000000ff"/><path d="M7 2v1h1v-1" fill="#f6be11ff"/><path d="M8 2v1h1v-1" fill="#000000ff"/><path d="M9 2v1h3v-1" fill="#ef7307ff"/><path d="M12 2v1h2v-1" fill="#000000ff"/><path d="M14 2v1h2v-1" fill="#ca0303ff"/><path d="M16 2v1h1v-1" fill="#000000ff"/><path d="M17 2v1h7v-1" fill="#f6be11ff"/><path d="M0 3v1h3v-1" fill="#f6be11ff"/><path d="M3 3v1h1v-1" fill="#000000ff"/><path d="M4 3v1h3v-1" fill="#f5bd10ff"/><path d="M7 3v1h2v-1" fill="#000000ff"/><path d="M9 3v1h3v-1" fill="#ef7307ff"/><path d="M12 3v1h1v-1" fill="#000000ff"/><path d="M13 3v1h2v-1" fill="#ca0303ff"/><path d="M15 3v1h1v-1" fill="#000000ff"/><path d="M16 3v1h8v-1" fill="#f6be11ff"/><path d="M0 4v1h4v-1" fill="#f6be11ff"/><path d="M4 4v1h1v-1" fill="#000000ff"/><path d="M5 4v1h4v-1" fill="#f5bd10ff"/><path d="M9 4v1h3v-1" fill="#ef7307ff"/><path d="M12 4v1h1v-1" fill="#000000ff"/><path d="M13 4v1h2v-1" fill="#ca0303ff"/><path d="M15 4v1h1v-1" fill="#000000ff"/><path d="M16 4v1h8v-1" fill="#f6be11ff"/><path d="M0 5v1h5v-1" fill="#f6be11ff"/><path d="M5 5v1h1v-1" fill="#000000ff"/><path d="M6 5v1h2v-1" fill="#f5bd10ff"/><path d="M8 5v1h2v-1" fill="#000000ff"/><path d="M10 5v1h2v-1" fill="#ef7307ff"/><path d="M12 5v1h2v-1" fill="#ca0303ff"/><path d="M14 5v1h1v-1" fill="#000000ff"/><path d="M15 5v1h9v-1" fill="#f6be11ff"/><path d="M0 6v1h5v-1" fill="#f6be11ff"/><path d="M5 6v1h1v-1" fill="#000000ff"/><path d="M6 6v1h1v-1" fill="#f5bd10ff"/><path d="M7 6v1h1v-1" fill="#000000ff"/><path d="M8 6v1h2v-1" fill="#f6d4b1ff"/><path d="M10 6v1h1v-1" fill="#ef7307ff"/><path d="M11 6v1h3v-1" fill="#ca0303ff"/><path d="M14 6v1h1v-1" fill="#f6d4b1ff"/><path d="M15 6v1h1v-1" fill="#000000ff"/><path d="M16 6v1h8v-1" fill="#f6be11ff"/><path d="M0 7v1h2v-1" fill="#f6be11ff"/><path d="M2 7v1h3v-1" fill="#000000ff"/><path d="M5 7v1h1v-1" fill="#51f510ff"/><path d="M6 7v1h1v-1" fill="#000000ff"/><path d="M7 7v1h1v-1" fill="#ddbf9fff"/><path d="M8 7v1h3v-1" fill="#f6d4b1ff"/><path d="M11 7v1h3v-1" fill="#ca0303ff"/><path d="M14 7v1h2v-1" fill="#f6d4b1ff"/><path d="M16 7v1h1v-1" fill="#000000ff"/><path d="M17 7v1h7v-1" fill="#f6be11ff"/><path d="M0 8v1h1v-1" fill="#f6be11ff"/><path d="M1 8v1h1v-1" fill="#000000ff"/><path d="M2 8v1h4v-1" fill="#51f510ff"/><path d="M6 8v1h1v-1" fill="#000000ff"/><path d="M7 8v1h1v-1" fill="#ddbf9fff"/><path d="M8 8v1h6v-1" fill="#f6d4b1ff"/><path d="M14 8v1h1v-1" fill="#fbeee0ff"/><path d="M15 8v1h1v-1" fill="#f6d4b1ff"/><path d="M16 8v1h1v-1" fill="#000000ff"/><path d="M17 8v1h7v-1" fill="#f6be11ff"/><path d="M0 9v1h2v-1" fill="#f6be11ff"/><path d="M2 9v1h2v-1" fill="#000000ff"/><path d="M4 9v1h2v-1" fill="#51f510ff"/><path d="M6 9v1h1v-1" fill="#000000ff"/><path d="M7 9v1h1v-1" fill="#ddbf9fff"/><path d="M8 9v1h8v-1" fill="#f6d4b1ff"/><path d="M16 9v1h1v-1" fill="#000000ff"/><path d="M17 9v1h7v-1" fill="#f6be11ff"/><path d="M0 10v1h4v-1" fill="#f6be11ff"/><path d="M4 10v1h1v-1" fill="#000000ff"/><path d="M5 10v1h1v-1" fill="#51f510ff"/><path d="M6 10v1h1v-1" fill="#000000ff"/><path d="M7 10v1h1v-1" fill="#ddbf9fff"/><path d="M8 10v1h3v-1" fill="#f6d4b1ff"/><path d="M11 10v1h1v-1" fill="#b30f0fff"/><path d="M12 10v1h4v-1" fill="#f6d4b1ff"/><path d="M16 10v1h1v-1" fill="#000000ff"/><path d="M17 10v1h7v-1" fill="#f6be11ff"/><path d="M0 11v1h4v-1" fill="#f6be11ff"/><path d="M4 11v1h1v-1" fill="#000000ff"/><path d="M5 11v1h1v-1" fill="#51f510ff"/><path d="M6 11v1h1v-1" fill="#000000ff"/><path d="M7 11v1h1v-1" fill="#ddbf9fff"/><path d="M8 11v1h1v-1" fill="#f6d4b1ff"/><path d="M9 11v1h1v-1" fill="#bd9061ff"/><path d="M10 11v1h1v-1" fill="#b30f0fff"/><path d="M11 11v1h3v-1" fill="#f6d4b1ff"/><path d="M14 11v1h2v-1" fill="#bd9061ff"/><path d="M16 11v1h1v-1" fill="#000000ff"/><path d="M17 11v1h7v-1" fill="#f6be11ff"/><path d="M0 12v1h3v-1" fill="#f6be11ff"/><path d="M3 12v1h1v-1" fill="#000000ff"/><path d="M4 12v1h1v-1" fill="#10b7f5ff"/><path d="M5 12v1h1v-1" fill="#000000ff"/><path d="M6 12v1h1v-1" fill="#f6d4b1ff"/><path d="M7 12v1h1v-1" fill="#ddbf9fff"/><path d="M8 12v1h1v-1" fill="#f6d4b1ff"/><path d="M9 12v1h1v-1" fill="#000000ff"/><path d="M10 12v1h1v-1" fill="#dfb992ff"/><path d="M11 12v1h3v-1" fill="#f6d4b1ff"/><path d="M14 12v1h1v-1" fill="#000000ff"/><path d="M15 12v1h1v-1" fill="#dfb992ff"/><path d="M16 12v1h1v-1" fill="#000000ff"/><path d="M17 12v1h7v-1" fill="#f6be11ff"/><path d="M0 13v1h2v-1" fill="#f6be11ff"/><path d="M2 13v1h1v-1" fill="#000000ff"/><path d="M3 13v1h2v-1" fill="#10b7f5ff"/><path d="M5 13v1h1v-1" fill="#000000ff"/><path d="M6 13v1h1v-1" fill="#f6d4b1ff"/><path d="M7 13v1h1v-1" fill="#ddbf9fff"/><path d="M8 13v1h1v-1" fill="#f6d4b1ff"/><path d="M9 13v1h1v-1" fill="#b30f0fff"/><path d="M10 13v1h6v-1" fill="#f6d4b1ff"/><path d="M16 13v1h1v-1" fill="#000000ff"/><path d="M17 13v1h7v-1" fill="#f6be11ff"/><path d="M0 14v1h1v-1" fill="#f6be11ff"/><path d="M1 14v1h1v-1" fill="#000000ff"/><path d="M2 14v1h1v-1" fill="#10b7f5ff"/><path d="M3 14v1h2v-1" fill="#000000ff"/><path d="M5 14v1h1v-1" fill="#ecfaffff"/><path d="M6 14v1h1v-1" fill="#f9fdffff"/><path d="M7 14v1h1v-1" fill="#ddbf9fff"/><path d="M8 14v1h1v-1" fill="#b30f0fff"/><path d="M9 14v1h7v-1" fill="#f6d4b1ff"/><path d="M16 14v1h1v-1" fill="#000000ff"/><path d="M17 14v1h7v-1" fill="#f6be11ff"/><path d="M0 15v1h1v-1" fill="#f6be11ff"/><path d="M1 15v1h2v-1" fill="#000000ff"/><path d="M3 15v1h2v-1" fill="#f6be11ff"/><path d="M5 15v1h1v-1" fill="#ffffffff"/><path d="M6 15v1h1v-1" fill="#ecfaffff"/><path d="M7 15v1h1v-1" fill="#ddbf9fff"/><path d="M8 15v1h4v-1" fill="#f6d4b1ff"/><path d="M12 15v1h2v-1" fill="#000000ff"/><path d="M14 15v1h2v-1" fill="#f6d4b1ff"/><path d="M16 15v1h1v-1" fill="#000000ff"/><path d="M17 15v1h7v-1" fill="#f6be11ff"/><path d="M0 16v1h6v-1" fill="#f6be11ff"/><path d="M6 16v1h1v-1" fill="#000000ff"/><path d="M7 16v1h1v-1" fill="#ddbf9fff"/><path d="M8 16v1h2v-1" fill="#f6d4b1ff"/><path d="M10 16v1h1v-1" fill="#e8e8e8ff"/><path d="M11 16v1h1v-1" fill="#c2c2c2ff"/><path d="M12 16v1h1v-1" fill="#e8e8e8ff"/><path d="M13 16v1h1v-1" fill="#c2c2c2ff"/><path d="M14 16v1h1v-1" fill="#e8e8e8ff"/><path d="M15 16v1h1v-1" fill="#f6d4b1ff"/><path d="M16 16v1h1v-1" fill="#000000ff"/><path d="M17 16v1h7v-1" fill="#f6be11ff"/><path d="M0 17v1h6v-1" fill="#f6be11ff"/><path d="M6 17v1h1v-1" fill="#000000ff"/><path d="M7 17v1h1v-1" fill="#c2c2c2ff"/><path d="M8 17v1h1v-1" fill="#f6d4b1ff"/><path d="M9 17v1h1v-1" fill="#e8e8e8ff"/><path d="M10 17v1h5v-1" fill="#c2c2c2ff"/><path d="M15 17v1h1v-1" fill="#e8e8e8ff"/><path d="M16 17v1h1v-1" fill="#000000ff"/><path d="M17 17v1h1v-1" fill="#e8e8e8ff"/><path d="M18 17v1h6v-1" fill="#f6be11ff"/><path d="M0 18v1h6v-1" fill="#f6be11ff"/><path d="M6 18v1h1v-1" fill="#000000ff"/><path d="M7 18v1h1v-1" fill="#ddbf9fff"/><path d="M8 18v1h2v-1" fill="#c2c2c2ff"/><path d="M10 18v1h1v-1" fill="#f6d4b1ff"/><path d="M11 18v1h3v-1" fill="#000000ff"/><path d="M14 18v1h1v-1" fill="#f6d4b1ff"/><path d="M15 18v1h1v-1" fill="#c2c2c2ff"/><path d="M16 18v1h1v-1" fill="#e8e8e8ff"/><path d="M17 18v1h7v-1" fill="#f6be11ff"/><path d="M0 19v1h6v-1" fill="#f6be11ff"/><path d="M6 19v1h1v-1" fill="#000000ff"/><path d="M7 19v1h1v-1" fill="#ddbf9fff"/><path d="M8 19v1h8v-1" fill="#f6d4b1ff"/><path d="M16 19v1h1v-1" fill="#000000ff"/><path d="M17 19v1h7v-1" fill="#f6be11ff"/><path d="M0 20v1h6v-1" fill="#f6be11ff"/><path d="M6 20v1h1v-1" fill="#000000ff"/><path d="M7 20v1h2v-1" fill="#ddbf9fff"/><path d="M9 20v1h2v-1" fill="#f6d4b1ff"/><path d="M11 20v1h1v-1" fill="#e8e8e8ff"/><path d="M12 20v1h1v-1" fill="#c2c2c2ff"/><path d="M13 20v1h1v-1" fill="#e8e8e8ff"/><path d="M14 20v1h1v-1" fill="#f6d4b1ff"/><path d="M15 20v1h1v-1" fill="#000000ff"/><path d="M16 20v1h8v-1" fill="#f6be11ff"/><path d="M0 21v1h6v-1" fill="#f6be11ff"/><path d="M6 21v1h1v-1" fill="#000000ff"/><path d="M7 21v1h3v-1" fill="#ddbf9fff"/><path d="M10 21v1h1v-1" fill="#000000ff"/><path d="M11 21v1h3v-1" fill="#c2c2c2ff"/><path d="M14 21v1h1v-1" fill="#000000ff"/><path d="M15 21v1h9v-1" fill="#f6be11ff"/><path d="M0 22v1h6v-1" fill="#f6be11ff"/><path d="M6 22v1h1v-1" fill="#000000ff"/><path d="M7 22v1h3v-1" fill="#ddbf9fff"/><path d="M10 22v1h2v-1" fill="#000000ff"/><path d="M12 22v1h1v-1" fill="#c2c2c2ff"/><path d="M13 22v1h1v-1" fill="#000000ff"/><path d="M14 22v1h10v-1" fill="#f6be11ff"/><path d="M0 23v1h6v-1" fill="#f6be11ff"/><path d="M6 23v1h1v-1" fill="#000000ff"/><path d="M7 23v1h3v-1" fill="#ddbf9fff"/><path d="M10 23v1h1v-1" fill="#000000ff"/><path d="M11 23v1h1v-1" fill="#f6be11ff"/><path d="M12 23v1h1v-1" fill="#000000ff"/><path d="M13 23v1h11v-1" fill="#f6be11ff"/></svg>