<svg xmlns="http://www.w3.org/2000/svg" shape-rendering="crispEdges" width="24" height="24" viewBox="0 0 24 24"><path d="M0 0v1h7v-1" fill="#f6be11ff"/><path d="M7 0v1h3v-1" fill="#000000ff"/><path d="M10 0v1h4v-1" fill="#f6be11ff"/><path d="M14 0v1h2v-1" fill="#000000ff"/><path d="M16 0v1h8v-1" fill="#f6be11ff"/><path d="M0 1v1h7v-1" fill="#f6be11ff"/><path d="M7 1v1h1v-1" fill="#000000ff"/><path d="M8 1v1h1v-1" fill="#ce2121ff"/><path d="M9 1v1h1v-1" fill="#f64141ff"/><path d="M10 1v1h1v-1" fill="#000000ff"/><path d="M11 1v1h2v-1" fill="#f6be11ff"/><path d="M13 1v1h1v-1" fill="#000000ff"/><path d="M14 1v1h1v-1" fill="#8341f6ff"/><path d="M15 1v1h1v-1" fill="#000000ff"/><path d="M16 1v1h8v-1" fill="#f6be11ff"/><path d="M0 2v1h8v-1" fill="#f6be11ff"/><path d="M8 2v1h1v-1" fill="#000000ff"/><path d="M9 2v1h1v-1" fill="#ce2121ff"/><path d="M10 2v1h1v-1" fill="#f64141ff"/><path d="M11 2v1h2v-1" fill="#000000ff"/><path d="M13 2v1h1v-1" fill="#8341f6ff"/><path d="M14 2v1h1v-1" fill="#6a2fd1ff"/><path d="M15 2v1h1v-1" fill="#000000ff"/><path d="M16 2v1h8v-1" fill="#f6be11ff"/><path d="M0 3v1h9v-1" fill="#f6be11ff"/><path d="M9 3v1h1v-1" fill="#000000ff"/><path d="M10 3v1h1v-1" fill="#ce2121ff"/><path d="M11 3v1h1v-1" fill="#f64141ff"/><path d="M12 3v1h1v-1" fill="#8341f6ff"/><path d="M13 3v1h1v-1" fill="#6a2fd1ff"/><path d="M14 3v1h1v-1" fill="#000000ff"/><path d="M15 3v1h9v-1" fill="#f6be11ff"/><path d="M0 4v1h8v-1" fill="#f6be11ff"/><path d="M8 4v1h1v-1" fill="#000000ff"/><path d="M9 4v1h1v-1" fill="#fadc39ff"/><path d="M10 4v1h1v-1" fill="#d49220ff"/><path d="M11 4v1h1v-1" fill="#28cc71ff"/><path d="M12 4v1h1v-1" fill="#41f692ff"/><path d="M13 4v1h1v-1" fill="#000000ff"/><path d="M14 4v1h10v-1" fill="#f6be11ff"/><path d="M0 5v1h7v-1" fill="#f6be11ff"/><path d="M7 5v1h1v-1" fill="#000000ff"/><path d="M8 5v1h1v-1" fill="#fadc39ff"/><path d="M9 5v1h1v-1" fill="#d49220ff"/><path d="M10 5v1h2v-1" fill="#000000ff"/><path d="M12 5v1h1v-1" fill="#28cc71ff"/><path d="M13 5v1h1v-1" fill="#41f692ff"/><path d="M14 5v1h1v-1" fill="#000000ff"/><path d="M15 5v1h9v-1" fill="#f6be11ff"/><path d="M0 6v1h7v-1" fill="#f6be11ff"/><path d="M7 6v1h1v-1" fill="#000000ff"/><path d="M8 6v1h1v-1" fill="#d49220ff"/><path d="M9 6v1h1v-1" fill="#000000ff"/><path d="M10 6v1h2v-1" fill="#1e1e1eff"/><path d="M12 6v1h1v-1" fill="#000000ff"/><path d="M13 6v1h2v-1" fill="#28cc71ff"/><path d="M15 6v1h1v-1" fill="#000000ff"/><path d="M16 6v1h8v-1" fill="#f6be11ff"/><path d="M0 7v1h7v-1" fill="#f6be11ff"/><path d="M7 7v1h2v-1" fill="#000000ff"/><path d="M9 7v1h1v-1" fill="#1e1e1eff"/><path d="M10 7v1h1v-1" fill="#2b2b2bff"/><path d="M11 7v1h2v-1" fill="#1e1e1eff"/><path d="M13 7v1h3v-1" fill="#000000ff"/><path d="M16 7v1h8v-1" fill="#f6be11ff"/><path d="M0 8v1h6v-1" fill="#f6be11ff"/><path d="M6 8v1h1v-1" fill="#000000ff"/><path d="M7 8v1h1v-1" fill="#454545ff"/><path d="M8 8v1h2v-1" fill="#1e1e1eff"/><path d="M10 8v1h1v-1" fill="#454545ff"/><path d="M11 8v1h1v-1" fill="#1e1e1eff"/><path d="M12 8v1h1v-1" fill="#454545ff"/><path d="M13 8v1h2v-1" fill="#1e1e1eff"/><path d="M15 8v1h1v-1" fill="#454545ff"/><path d="M16 8v1h1v-1" fill="#000000ff"/><path d="M17 8v1h7v-1" fill="#f6be11ff"/><path d="M0 9v1h5v-1" fill="#f6be11ff"/><path d="M5 9v1h1v-1" fill="#000000ff"/><path d="M6 9v1h1v-1" fill="#454545ff"/><path d="M7 9v1h1v-1" fill="#1e1e1eff"/><path d="M8 9v1h1v-1" fill="#2b2b2bff"/><path d="M9 9v1h1v-1" fill="#1e1e1eff"/><path d="M10 9v1h1v-1" fill="#454545ff"/><path d="M11 9v1h1v-1" fill="#1e1e1eff"/><path d="M12 9v1h1v-1" fill="#454545ff"/><path d="M13 9v1h1v-1" fill="#1e1e1eff"/><path d="M14 9v1h1v-1" fill="#2b2b2bff"/><path d="M15 9v1h1v-1" fill="#1e1e1eff"/><path d="M16 9v1h1v-1" fill="#454545ff"/><path d="M17 9v1h1v-1" fill="#000000ff"/><path d="M18 9v1h6v-1" fill="#f6be11ff"/><path d="M0 10v1h5v-1" fill="#f6be11ff"/><path d="M5 10v1h1v-1" fill="#000000ff"/><path d="M6 10v1h2v-1" fill="#1e1e1eff"/><path d="M8 10v1h1v-1" fill="#2b2b2bff"/><path d="M9 10v1h1v-1" fill="#cd8844ff"/><path d="M10 10v1h1v-1" fill="#2b2b2bff"/><path d="M11 10v1h1v-1" fill="#1e1e1eff"/><path d="M12 10v1h1v-1" fill="#cd8844ff"/><path d="M13 10v1h1v-1" fill="#1e1e1eff"/><path d="M14 10v1h1v-1" fill="#2b2b2bff"/><path d="M15 10v1h1v-1" fill="#cd8844ff"/><path d="M16 10v1h1v-1" fill="#1e1e1eff"/><path d="M17 10v1h1v-1" fill="#000000ff"/><path d="M18 10v1h6v-1" fill="#f6be11ff"/><path d="M0 11v1h5v-1" fill="#f6be11ff"/><path d="M5 11v1h1v-1" fill="#000000ff"/><path d="M6 11v1h1v-1" fill="#1e1e1eff"/><path d="M7 11v1h1v-1" fill="#19100bff"/><path d="M8 11v1h1v-1" fill="#cbcbcbff"/><path d="M9 11v1h1v-1" fill="#4d4d4dff"/><path d="M10 11v1h1v-1" fill="#f8f8f8ff"/><path d="M11 11v1h1v-1" fill="#4d4d4dff"/><path d="M12 11v1h1v-1" fill="#cbcbcbff"/><path d="M13 11v1h1v-1" fill="#4d4d4dff"/><path d="M14 11v1h1v-1" fill="#f8f8f8ff"/><path d="M15 11v1h1v-1" fill="#4d4d4dff"/><path d="M16 11v1h1v-1" fill="#cbcbcbff"/><path d="M17 11v1h1v-1" fill="#000000ff"/><path d="M18 11v1h6v-1" fill="#f6be11ff"/><path d="M0 12v1h4v-1" fill="#f6be11ff"/><path d="M4 12v1h1v-1" fill="#000000ff"/><path d="M5 12v1h1v-1" fill="#2b2b2bff"/><path d="M6 12v1h1v-1" fill="#000000ff"/><path d="M7 12v1h1v-1" fill="#cbcbcbff"/><path d="M8 12v1h1v-1" fill="#4d4d4dff"/><path d="M9 12v1h2v-1" fill="#513d29ff"/><path d="M11 12v1h3v-1" fill="#6c533bff"/><path d="M14 12v1h2v-1" fill="#513d29ff"/><path d="M16 12v1h1v-1" fill="#4d4d4dff"/><path d="M17 12v1h1v-1" fill="#cbcbcbff"/><path d="M18 12v1h6v-1" fill="#f6be11ff"/><path d="M0 13v1h4v-1" fill="#f6be11ff"/><path d="M4 13v1h1v-1" fill="#000000ff"/><path d="M5 13v1h1v-1" fill="#2b2b2bff"/><path d="M6 13v1h1v-1" fill="#19100bff"/><path d="M7 13v1h1v-1" fill="#cd8844ff"/><path d="M8 13v1h1v-1" fill="#4d4d4dff"/><path d="M9 13v1h1v-1" fill="#222222ff"/><path d="M10 13v1h1v-1" fill="#5e4a36ff"/><path d="M11 13v1h3v-1" fill="#6c533bff"/><path d="M14 13v1h1v-1" fill="#222222ff"/><path d="M15 13v1h1v-1" fill="#5e4a36ff"/><path d="M16 13v1h1v-1" fill="#4d4d4dff"/><path d="M17 13v1h7v-1" fill="#f6be11ff"/><path d="M0 14v1h4v-1" fill="#f6be11ff"/><path d="M4 14v1h1v-1" fill="#000000ff"/><path d="M5 14v1h1v-1" fill="#8b2adfff"/><path d="M6 14v1h1v-1" fill="#b17dffff"/><path d="M7 14v1h1v-1" fill="#000000ff"/><path d="M8 14v1h1v-1" fill="#cbcbcbff"/><path d="M9 14v1h1v-1" fill="#4d4d4dff"/><path d="M10 14v1h1v-1" fill="#f8f8f8ff"/><path d="M11 14v1h1v-1" fill="#4d4d4dff"/><path d="M12 14v1h1v-1" fill="#cbcbcbff"/><path d="M13 14v1h1v-1" fill="#4d4d4dff"/><path d="M14 14v1h1v-1" fill="#f8f8f8ff"/><path d="M15 14v1h1v-1" fill="#4d4d4dff"/><path d="M16 14v1h1v-1" fill="#cbcbcbff"/><path d="M17 14v1h7v-1" fill="#f6be11ff"/><path d="M0 15v1h4v-1" fill="#f6be11ff"/><path d="M4 15v1h1v-1" fill="#000000ff"/><path d="M5 15v1h1v-1" fill="#2b2b2bff"/><path d="M6 15v1h1v-1" fill="#6600c6ff"/><path d="M7 15v1h1v-1" fill="#000000ff"/><path d="M8 15v1h1v-1" fill="#b87a3dff"/><path d="M9 15v1h7v-1" fill="#cd8844ff"/><path d="M16 15v1h1v-1" fill="#000000ff"/><path d="M17 15v1h7v-1" fill="#f6be11ff"/><path d="M0 16v1h4v-1" fill="#f6be11ff"/><path d="M4 16v1h1v-1" fill="#000000ff"/><path d="M5 16v1h1v-1" fill="#2b2b2bff"/><path d="M6 16v1h1v-1" fill="#141414ff"/><path d="M7 16v1h1v-1" fill="#000000ff"/><path d="M8 16v1h1v-1" fill="#b87a3dff"/><path d="M9 16v1h3v-1" fill="#cd8844ff"/><path d="M12 16v1h1v-1" fill="#000000ff"/><path d="M13 16v1h3v-1" fill="#cd8844ff"/><path d="M16 16v1h1v-1" fill="#000000ff"/><path d="M17 16v1h7v-1" fill="#f6be11ff"/><path d="M0 17v1h4v-1" fill="#f6be11ff"/><path d="M4 17v1h1v-1" fill="#000000ff"/><path d="M5 17v1h1v-1" fill="#2b2b2bff"/><path d="M6 17v1h1v-1" fill="#141414ff"/><path d="M7 17v1h1v-1" fill="#000000ff"/><path d="M8 17v1h1v-1" fill="#b87a3dff"/><path d="M9 17v1h5v-1" fill="#cd8844ff"/><path d="M14 17v1h2v-1" fill="#e66bb0ff"/><path d="M16 17v1h1v-1" fill="#000000ff"/><path d="M17 17v1h7v-1" fill="#f6be11ff"/><path d="M0 18v1h4v-1" fill="#f6be11ff"/><path d="M4 18v1h1v-1" fill="#000000ff"/><path d="M5 18v1h1v-1" fill="#2b2b2bff"/><path d="M6 18v1h1v-1" fill="#141414ff"/><path d="M7 18v1h1v-1" fill="#000000ff"/><path d="M8 18v1h1v-1" fill="#b87a3dff"/><path d="M9 18v1h2v-1" fill="#cd8844ff"/><path d="M11 18v1h2v-1" fill="#9b1890ff"/><path d="M13 18v1h1v-1" fill="#cd46abff"/><path d="M14 18v1h1v-1" fill="#e66bb0ff"/><path d="M15 18v1h1v-1" fill="#f186bfff"/><path d="M16 18v1h1v-1" fill="#c555a5ff"/><path d="M17 18v1h7v-1" fill="#f6be11ff"/><path d="M0 19v1h4v-1" fill="#f6be11ff"/><path d="M4 19v1h1v-1" fill="#000000ff"/><path d="M5 19v1h1v-1" fill="#2b2b2bff"/><path d="M6 19v1h1v-1" fill="#141414ff"/><path d="M7 19v1h1v-1" fill="#1e1e1eff"/><path d="M8 19v1h1v-1" fill="#000000ff"/><path d="M9 19v1h1v-1" fill="#b87a3dff"/><path d="M10 19v1h3v-1" fill="#cd8844ff"/><path d="M13 19v1h2v-1" fill="#e66bb0ff"/><path d="M15 19v1h2v-1" fill="#c555a5ff"/><path d="M17 19v1h7v-1" fill="#f6be11ff"/><path d="M0 20v1h4v-1" fill="#f6be11ff"/><path d="M4 20v1h1v-1" fill="#000000ff"/><path d="M5 20v1h1v-1" fill="#2b2b2bff"/><path d="M6 20v1h1v-1" fill="#141414ff"/><path d="M7 20v1h1v-1" fill="#1e1e1eff"/><path d="M8 20v1h1v-1" fill="#000000ff"/><path d="M9 20v1h1v-1" fill="#b87a3dff"/><path d="M10 20v1h1v-1" fill="#000000ff"/><path d="M11 20v1h3v-1" fill="#cd8844ff"/><path d="M14 20v1h1v-1" fill="#c555a5ff"/><path d="M15 20v1h1v-1" fill="#cc5cacff"/><path d="M16 20v1h1v-1" fill="#000000ff"/><path d="M17 20v1h7v-1" fill="#f6be11ff"/><path d="M0 21v1h4v-1" fill="#f6be11ff"/><path d="M4 21v1h1v-1" fill="#000000ff"/><path d="M5 21v1h1v-1" fill="#2b2b2bff"/><path d="M6 21v1h1v-1" fill="#141414ff"/><path d="M7 21v1h1v-1" fill="#1e1e1eff"/><path d="M8 21v1h1v-1" fill="#000000ff"/><path d="M9 21v1h2v-1" fill="#b87a3dff"/><path d="M11 21v1h3v-1" fill="#000000ff"/><path d="M14 21v1h1v-1" fill="#141414ff"/><path d="M15 21v1h1v-1" fill="#2b2b2bff"/><path d="M16 21v1h1v-1" fill="#000000ff"/><path d="M17 21v1h7v-1" fill="#f6be11ff"/><path d="M0 22v1h4v-1" fill="#f6be11ff"/><path d="M4 22v1h1v-1" fill="#000000ff"/><path d="M5 22v1h1v-1" fill="#2b2b2bff"/><path d="M6 22v1h1v-1" fill="#141414ff"/><path d="M7 22v1h1v-1" fill="#1e1e1eff"/><path d="M8 22v1h1v-1" fill="#000000ff"/><path d="M9 22v1h3v-1" fill="#b87a3dff"/><path d="M12 22v1h1v-1" fill="#000000ff"/><path d="M13 22v1h1v-1" fill="#1e1e1eff"/><path d="M14 22v1h1v-1" fill="#141414ff"/><path d="M15 22v1h1v-1" fill="#2b2b2bff"/><path d="M16 22v1h1v-1" fill="#000000ff"/><path d="M17 22v1h7v-1" fill="#f6be11ff"/><path d="M0 23v1h4v-1" fill="#f6be11ff"/><path d="M4 23v1h1v-1" fill="#000000ff"/><path d="M5 23v1h1v-1" fill="#2b2b2bff"/><path d="M6 23v1h1v-1" fill="#141414ff"/><path d="M7 23v1h1v-1" fill="#1e1e1eff"/><path d="M8 23v1h1v-1" fill="#000000ff"/><path d="M9 23v1h3v-1" fill="#b87a3dff"/><path d="M12 23v1h1v-1" fill="#000000ff"/><path d="M13 23v1h1v-1" fill="#1e1e1eff"/><path d="M14 23v1h1v-1" fill="#141414ff"/><path d="M15 23v1h1v-1" fill="#2b2b2bff"/><path d="M16 23v1h1v-1" fill="#000000ff"/><path d="M17 23v1h7v-1" fill="#f6be11ff"/></svg>