<svg xmlns="http://www.w3.org/2000/svg" shape-rendering="crispEdges" width="24" height="24" viewBox="0 0 24 24"><path d="M0 0v1h24v-1" fill="#f6be11ff"/><path d="M0 1v1h10v-1" fill="#f6be11ff"/><path d="M10 1v1h2v-1" fill="#000000ff"/><path d="M12 1v1h12v-1" fill="#f6be11ff"/><path d="M0 2v1h8v-1" fill="#f6be11ff"/><path d="M8 2v1h2v-1" fill="#000000ff"/><path d="M10 2v1h2v-1" fill="#3f3f3fff"/><path d="M12 2v1h3v-1" fill="#000000ff"/><path d="M15 2v1h9v-1" fill="#f6be11ff"/><path d="M0 3v1h7v-1" fill="#f6be11ff"/><path d="M7 3v1h1v-1" fill="#000000ff"/><path d="M8 3v1h1v-1" fill="#e09812ff"/><path d="M9 3v1h3v-1" fill="#ffd43fff"/><path d="M12 3v1h3v-1" fill="#b75affff"/><path d="M15 3v1h1v-1" fill="#000000ff"/><path d="M16 3v1h8v-1" fill="#f6be11ff"/><path d="M0 4v1h6v-1" fill="#f6be11ff"/><path d="M6 4v1h1v-1" fill="#000000ff"/><path d="M7 4v1h1v-1" fill="#e09812ff"/><path d="M8 4v1h4v-1" fill="#ffd43fff"/><path d="M12 4v1h3v-1" fill="#ffffffff"/><path d="M15 4v1h1v-1" fill="#ffe58cff"/><path d="M16 4v1h1v-1" fill="#000000ff"/><path d="M17 4v1h7v-1" fill="#f6be11ff"/><path d="M0 5v1h5v-1" fill="#f6be11ff"/><path d="M5 5v1h1v-1" fill="#000000ff"/><path d="M6 5v1h1v-1" fill="#c7730cff"/><path d="M7 5v1h1v-1" fill="#e09812ff"/><path d="M8 5v1h3v-1" fill="#ffd43fff"/><path d="M11 5v1h5v-1" fill="#ffffffff"/><path d="M16 5v1h1v-1" fill="#e09812ff"/><path d="M17 5v1h1v-1" fill="#000000ff"/><path d="M18 5v1h6v-1" fill="#f6be11ff"/><path d="M0 6v1h5v-1" fill="#f6be11ff"/><path d="M5 6v1h1v-1" fill="#000000ff"/><path d="M6 6v1h1v-1" fill="#c7730cff"/><path d="M7 6v1h1v-1" fill="#e09812ff"/><path d="M8 6v1h2v-1" fill="#ffd43fff"/><path d="M10 6v1h2v-1" fill="#ffffffff"/><path d="M12 6v1h3v-1" fill="#5e1895ff"/><path d="M15 6v1h1v-1" fill="#ffffffff"/><path d="M16 6v1h1v-1" fill="#e4e4e4ff"/><path d="M17 6v1h1v-1" fill="#000000ff"/><path d="M18 6v1h6v-1" fill="#f6be11ff"/><path d="M0 7v1h5v-1" fill="#f6be11ff"/><path d="M5 7v1h1v-1" fill="#000000ff"/><path d="M6 7v1h1v-1" fill="#c7730cff"/><path d="M7 7v1h3v-1" fill="#e09812ff"/><path d="M10 7v1h1v-1" fill="#e4e4e4ff"/><path d="M11 7v1h1v-1" fill="#5e1895ff"/><path d="M12 7v1h3v-1" fill="#9840dcff"/><path d="M15 7v1h1v-1" fill="#5e1895ff"/><path d="M16 7v1h1v-1" fill="#e4e4e4ff"/><path d="M17 7v1h3v-1" fill="#000000ff"/><path d="M20 7v1h4v-1" fill="#f6be11ff"/><path d="M0 8v1h24v-1" fill="#ee1010ff"/><path d="M0 9v1h4v-1" fill="#ee1010ff"/><path d="M4 9v1h4v-1" fill="#ffffffff"/><path d="M8 9v1h3v-1" fill="#ee1010ff"/><path d="M11 9v1h1v-1" fill="#ffffffff"/><path d="M12 9v1h1v-1" fill="#ee1010ff"/><path d="M13 9v1h1v-1" fill="#ffffffff"/><path d="M14 9v1h2v-1" fill="#ee1010ff"/><path d="M16 9v1h4v-1" fill="#ffffffff"/><path d="M20 9v1h4v-1" fill="#ee1010ff"/><path d="M0 10v1h4v-1" fill="#ee1010ff"/><path d="M4 10v1h1v-1" fill="#ffffffff"/><path d="M5 10v1h3v-1" fill="#ee1010ff"/><path d="M8 10v1h1v-1" fill="#ffffffff"/><path d="M9 10v1h1v-1" fill="#ee1010ff"/><path d="M10 10v1h1v-1" fill="#ffffffff"/><path d="M11 10v1h1v-1" fill="#ee1010ff"/><path d="M12 10v1h1v-1" fill="#ffffffff"/><path d="M13 10v1h1v-1" fill="#ee1010ff"/><path d="M14 10v1h1v-1" fill="#ffffffff"/><path d="M15 10v1h1v-1" fill="#ee1010ff"/><path d="M16 10v1h1v-1" fill="#ffffffff"/><path d="M17 10v1h3v-1" fill="#ee1010ff"/><path d="M20 10v1h1v-1" fill="#ffffffff"/><path d="M21 10v1h3v-1" fill="#ee1010ff"/><path d="M0 11v1h4v-1" fill="#ee1010ff"/><path d="M4 11v1h4v-1" fill="#ffffffff"/><path d="M8 11v1h2v-1" fill="#ee1010ff"/><path d="M10 11v1h1v-1" fill="#ffffffff"/><path d="M11 11v1h1v-1" fill="#ee1010ff"/><path d="M12 11v1h1v-1" fill="#ffffffff"/><path d="M13 11v1h1v-1" fill="#ee1010ff"/><path d="M14 11v1h1v-1" fill="#ffffffff"/><path d="M15 11v1h1v-1" fill="#ee1010ff"/><path d="M16 11v1h1v-1" fill="#ffffffff"/><path d="M17 11v1h3v-1" fill="#ee1010ff"/><path d="M20 11v1h1v-1" fill="#ffffffff"/><path d="M21 11v1h3v-1" fill="#ee1010ff"/><path d="M0 12v1h4v-1" fill="#ee1010ff"/><path d="M4 12v1h1v-1" fill="#ffffffff"/><path d="M5 12v1h3v-1" fill="#ee1010ff"/><path d="M8 12v1h1v-1" fill="#ffffffff"/><path d="M9 12v1h1v-1" fill="#ee1010ff"/><path d="M10 12v1h1v-1" fill="#ffffffff"/><path d="M11 12v1h1v-1" fill="#ee1010ff"/><path d="M12 12v1h1v-1" fill="#ffffffff"/><path d="M13 12v1h1v-1" fill="#ee1010ff"/><path d="M14 12v1h1v-1" fill="#ffffffff"/><path d="M15 12v1h1v-1" fill="#ee1010ff"/><path d="M16 12v1h4v-1" fill="#ffffffff"/><path d="M20 12v1h4v-1" fill="#ee1010ff"/><path d="M0 13v1h4v-1" fill="#ee1010ff"/><path d="M4 13v1h4v-1" fill="#ffffffff"/><path d="M8 13v1h2v-1" fill="#ee1010ff"/><path d="M10 13v1h1v-1" fill="#ffffffff"/><path d="M11 13v1h1v-1" fill="#ee1010ff"/><path d="M12 13v1h1v-1" fill="#ffffffff"/><path d="M13 13v1h1v-1" fill="#ee1010ff"/><path d="M14 13v1h1v-1" fill="#ffffffff"/><path d="M15 13v1h1v-1" fill="#ee1010ff"/><path d="M16 13v1h1v-1" fill="#ffffffff"/><path d="M17 13v1h7v-1" fill="#ee1010ff"/><path d="M0 14v1h24v-1" fill="#ee1010ff"/><path d="M0 15v1h2v-1" fill="#f6be11ff"/><path d="M2 15v1h1v-1" fill="#000000ff"/><path d="M3 15v1h1v-1" fill="#553e23ff"/><path d="M4 15v1h1v-1" fill="#291b0cff"/><path d="M5 15v1h1v-1" fill="#422f18ff"/><path d="M6 15v1h1v-1" fill="#000000ff"/><path d="M7 15v1h1v-1" fill="#c8975fff"/><path d="M8 15v1h4v-1" fill="#dea869ff"/><path d="M12 15v1h2v-1" fill="#000000ff"/><path d="M14 15v1h2v-1" fill="#dea869ff"/><path d="M16 15v1h1v-1" fill="#000000ff"/><path d="M17 15v1h7v-1" fill="#f6be11ff"/><path d="M0 16v1h2v-1" fill="#f6be11ff"/><path d="M2 16v1h2v-1" fill="#000000ff"/><path d="M4 16v1h1v-1" fill="#422f18ff"/><path d="M5 16v1h1v-1" fill="#291b0cff"/><path d="M6 16v1h1v-1" fill="#000000ff"/><path d="M7 16v1h1v-1" fill="#c8975fff"/><path d="M8 16v1h2v-1" fill="#dea869ff"/><path d="M10 16v1h1v-1" fill="#422f18ff"/><path d="M11 16v1h1v-1" fill="#291b0cff"/><path d="M12 16v1h1v-1" fill="#422f18ff"/><path d="M13 16v1h1v-1" fill="#291b0cff"/><path d="M14 16v1h1v-1" fill="#422f18ff"/><path d="M15 16v1h1v-1" fill="#dea869ff"/><path d="M16 16v1h1v-1" fill="#000000ff"/><path d="M17 16v1h7v-1" fill="#f6be11ff"/><path d="M0 17v1h3v-1" fill="#f6be11ff"/><path d="M3 17v1h1v-1" fill="#000000ff"/><path d="M4 17v1h1v-1" fill="#422f18ff"/><path d="M5 17v1h1v-1" fill="#291b0cff"/><path d="M6 17v1h1v-1" fill="#000000ff"/><path d="M7 17v1h1v-1" fill="#291b0cff"/><path d="M8 17v1h1v-1" fill="#dea869ff"/><path d="M9 17v1h1v-1" fill="#422f18ff"/><path d="M10 17v1h5v-1" fill="#291b0cff"/><path d="M15 17v1h1v-1" fill="#422f18ff"/><path d="M16 17v1h1v-1" fill="#000000ff"/><path d="M17 17v1h1v-1" fill="#422f18ff"/><path d="M18 17v1h6v-1" fill="#f6be11ff"/><path d="M0 18v1h3v-1" fill="#f6be11ff"/><path d="M3 18v1h1v-1" fill="#000000ff"/><path d="M4 18v1h1v-1" fill="#422f18ff"/><path d="M5 18v1h2v-1" fill="#000000ff"/><path d="M7 18v1h1v-1" fill="#c8975fff"/><path d="M8 18v1h2v-1" fill="#291b0cff"/><path d="M10 18v1h1v-1" fill="#dea869ff"/><path d="M11 18v1h3v-1" fill="#632727ff"/><path d="M14 18v1h1v-1" fill="#dea869ff"/><path d="M15 18v1h1v-1" fill="#291b0cff"/><path d="M16 18v1h1v-1" fill="#422f18ff"/><path d="M17 18v1h7v-1" fill="#f6be11ff"/><path d="M0 19v1h3v-1" fill="#f6be11ff"/><path d="M3 19v1h2v-1" fill="#000000ff"/><path d="M5 19v1h1v-1" fill="#f6be11ff"/><path d="M6 19v1h1v-1" fill="#000000ff"/><path d="M7 19v1h1v-1" fill="#c8975fff"/><path d="M8 19v1h8v-1" fill="#dea869ff"/><path d="M16 19v1h1v-1" fill="#000000ff"/><path d="M17 19v1h7v-1" fill="#f6be11ff"/><path d="M0 20v1h6v-1" fill="#f6be11ff"/><path d="M6 20v1h1v-1" fill="#000000ff"/><path d="M7 20v1h1v-1" fill="#ffa21fff"/><path d="M8 20v1h1v-1" fill="#c8975fff"/><path d="M9 20v1h2v-1" fill="#dea869ff"/><path d="M11 20v1h1v-1" fill="#422f18ff"/><path d="M12 20v1h1v-1" fill="#291b0cff"/><path d="M13 20v1h1v-1" fill="#422f18ff"/><path d="M14 20v1h1v-1" fill="#dea869ff"/><path d="M15 20v1h1v-1" fill="#000000ff"/><path d="M16 20v1h8v-1" fill="#f6be11ff"/><path d="M0 21v1h6v-1" fill="#f6be11ff"/><path d="M6 21v1h1v-1" fill="#000000ff"/><path d="M7 21v1h1v-1" fill="#c8975fff"/><path d="M8 21v1h1v-1" fill="#ffcb2bff"/><path d="M9 21v1h1v-1" fill="#c8975fff"/><path d="M10 21v1h1v-1" fill="#000000ff"/><path d="M11 21v1h3v-1" fill="#291b0cff"/><path d="M14 21v1h1v-1" fill="#000000ff"/><path d="M15 21v1h9v-1" fill="#f6be11ff"/><path d="M0 22v1h6v-1" fill="#f6be11ff"/><path d="M6 22v1h1v-1" fill="#000000ff"/><path d="M7 22v1h2v-1" fill="#c8975fff"/><path d="M9 22v1h1v-1" fill="#ffb727ff"/><path d="M10 22v1h2v-1" fill="#000000ff"/><path d="M12 22v1h1v-1" fill="#291b0cff"/><path d="M13 22v1h1v-1" fill="#000000ff"/><path d="M14 22v1h10v-1" fill="#f6be11ff"/><path d="M0 23v1h6v-1" fill="#f6be11ff"/><path d="M6 23v1h1v-1" fill="#000000ff"/><path d="M7 23v1h3v-1" fill="#c8975fff"/><path d="M10 23v1h1v-1" fill="#000000ff"/><path d="M11 23v1h1v-1" fill="#f6be11ff"/><path d="M12 23v1h1v-1" fill="#000000ff"/><path d="M13 23v1h11v-1" fill="#f6be11ff"/></svg>