<svg xmlns="http://www.w3.org/2000/svg" shape-rendering="crispEdges" width="24" height="24" viewBox="0 0 24 24"><path d="M0 0v1h7v-1" fill="#f6be11ff"/><path d="M7 0v1h8v-1" fill="#000000ff"/><path d="M15 0v1h9v-1" fill="#f6be11ff"/><path d="M0 1v1h5v-1" fill="#f6be11ff"/><path d="M5 1v1h2v-1" fill="#000000ff"/><path d="M7 1v1h8v-1" fill="#cd3963ff"/><path d="M15 1v1h1v-1" fill="#000000ff"/><path d="M16 1v1h8v-1" fill="#f6be11ff"/><path d="M0 2v1h4v-1" fill="#f6be11ff"/><path d="M4 2v1h1v-1" fill="#000000ff"/><path d="M5 2v1h2v-1" fill="#cd3963ff"/><path d="M7 2v1h1v-1" fill="#f25b86ff"/><path d="M8 2v1h8v-1" fill="#cd3963ff"/><path d="M16 2v1h1v-1" fill="#000000ff"/><path d="M17 2v1h7v-1" fill="#f6be11ff"/><path d="M0 3v1h3v-1" fill="#f6be11ff"/><path d="M3 3v1h1v-1" fill="#000000ff"/><path d="M4 3v1h2v-1" fill="#cd3963ff"/><path d="M6 3v1h1v-1" fill="#f25b86ff"/><path d="M7 3v1h3v-1" fill="#cd3963ff"/><path d="M10 3v1h1v-1" fill="#2f0d1aff"/><path d="M11 3v1h3v-1" fill="#cd3963ff"/><path d="M14 3v1h1v-1" fill="#2f0d1aff"/><path d="M15 3v1h2v-1" fill="#cd3963ff"/><path d="M17 3v1h1v-1" fill="#f6be11ff"/><path d="M18 3v1h2v-1" fill="#000000ff"/><path d="M20 3v1h4v-1" fill="#f6be11ff"/><path d="M0 4v1h3v-1" fill="#f6be11ff"/><path d="M3 4v1h1v-1" fill="#000000ff"/><path d="M4 4v1h1v-1" fill="#b63056ff"/><path d="M5 4v1h5v-1" fill="#cd3963ff"/><path d="M10 4v1h1v-1" fill="#2f0d1aff"/><path d="M11 4v1h3v-1" fill="#cd3963ff"/><path d="M14 4v1h1v-1" fill="#2f0d1aff"/><path d="M15 4v1h2v-1" fill="#cd3963ff"/><path d="M17 4v1h1v-1" fill="#000000ff"/><path d="M18 4v1h2v-1" fill="#cd3963ff"/><path d="M20 4v1h1v-1" fill="#000000ff"/><path d="M21 4v1h3v-1" fill="#f6be11ff"/><path d="M0 5v1h2v-1" fill="#f6be11ff"/><path d="M2 5v1h2v-1" fill="#000000ff"/><path d="M4 5v1h2v-1" fill="#b63056ff"/><path d="M6 5v1h5v-1" fill="#cd3963ff"/><path d="M11 5v1h3v-1" fill="#f1cd82ff"/><path d="M14 5v1h3v-1" fill="#cd3963ff"/><path d="M17 5v1h3v-1" fill="#b63056ff"/><path d="M20 5v1h1v-1" fill="#000000ff"/><path d="M21 5v1h3v-1" fill="#f6be11ff"/><path d="M0 6v1h1v-1" fill="#f6be11ff"/><path d="M1 6v1h1v-1" fill="#000000ff"/><path d="M2 6v1h1v-1" fill="#cd3963ff"/><path d="M3 6v1h2v-1" fill="#000000ff"/><path d="M5 6v1h2v-1" fill="#b63056ff"/><path d="M7 6v1h4v-1" fill="#cd3963ff"/><path d="M11 6v1h1v-1" fill="#f1cd82ff"/><path d="M12 6v1h1v-1" fill="#cd3963ff"/><path d="M13 6v1h1v-1" fill="#f1cd82ff"/><path d="M14 6v1h2v-1" fill="#cd3963ff"/><path d="M16 6v1h1v-1" fill="#b63056ff"/><path d="M17 6v1h3v-1" fill="#000000ff"/><path d="M20 6v1h4v-1" fill="#f6be11ff"/><path d="M0 7v1h1v-1" fill="#f6be11ff"/><path d="M1 7v1h1v-1" fill="#000000ff"/><path d="M2 7v1h3v-1" fill="#b63056ff"/><path d="M5 7v1h1v-1" fill="#000000ff"/><path d="M6 7v1h2v-1" fill="#b63056ff"/><path d="M8 7v1h3v-1" fill="#cd3963ff"/><path d="M11 7v1h3v-1" fill="#f1cd82ff"/><path d="M14 7v1h2v-1" fill="#b63056ff"/><path d="M16 7v1h2v-1" fill="#000000ff"/><path d="M18 7v1h6v-1" fill="#f6be11ff"/><path d="M0 8v1h1v-1" fill="#f6be11ff"/><path d="M1 8v1h1v-1" fill="#000000ff"/><path d="M2 8v1h2v-1" fill="#b63056ff"/><path d="M4 8v1h1v-1" fill="#000000ff"/><path d="M5 8v1h1v-1" fill="#cd3963ff"/><path d="M6 8v1h3v-1" fill="#b63056ff"/><path d="M9 8v1h1v-1" fill="#000000ff"/><path d="M10 8v1h4v-1" fill="#cd3963ff"/><path d="M14 8v1h1v-1" fill="#000000ff"/><path d="M15 8v1h2v-1" fill="#b63056ff"/><path d="M17 8v1h1v-1" fill="#cd3963ff"/><path d="M18 8v1h2v-1" fill="#000000ff"/><path d="M20 8v1h4v-1" fill="#f6be11ff"/><path d="M0 9v1h2v-1" fill="#f6be11ff"/><path d="M2 9v1h3v-1" fill="#000000ff"/><path d="M5 9v1h3v-1" fill="#b63056ff"/><path d="M8 9v1h1v-1" fill="#000000ff"/><path d="M9 9v1h1v-1" fill="#f6d4b1ff"/><path d="M10 9v1h1v-1" fill="#000000ff"/><path d="M11 9v1h2v-1" fill="#b63056ff"/><path d="M13 9v1h1v-1" fill="#000000ff"/><path d="M14 9v1h1v-1" fill="#f6d4b1ff"/><path d="M15 9v1h1v-1" fill="#000000ff"/><path d="M16 9v1h3v-1" fill="#b63056ff"/><path d="M19 9v1h1v-1" fill="#000000ff"/><path d="M20 9v1h4v-1" fill="#f6be11ff"/><path d="M0 10v1h3v-1" fill="#f6be11ff"/><path d="M3 10v1h1v-1" fill="#000000ff"/><path d="M4 10v1h1v-1" fill="#cd3963ff"/><path d="M5 10v1h2v-1" fill="#b63056ff"/><path d="M7 10v1h1v-1" fill="#000000ff"/><path d="M8 10v1h2v-1" fill="#f6d4b1ff"/><path d="M10 10v1h1v-1" fill="#000000ff"/><path d="M11 10v1h2v-1" fill="#b63056ff"/><path d="M13 10v1h1v-1" fill="#000000ff"/><path d="M14 10v1h2v-1" fill="#f6d4b1ff"/><path d="M16 10v1h3v-1" fill="#000000ff"/><path d="M19 10v1h5v-1" fill="#f6be11ff"/><path d="M0 11v1h4v-1" fill="#f6be11ff"/><path d="M4 11v1h3v-1" fill="#000000ff"/><path d="M7 11v1h1v-1" fill="#ddbf9fff"/><path d="M8 11v1h1v-1" fill="#f6d4b1ff"/><path d="M9 11v1h2v-1" fill="#bd9061ff"/><path d="M11 11v1h2v-1" fill="#000000ff"/><path d="M13 11v1h1v-1" fill="#f6d4b1ff"/><path d="M14 11v1h2v-1" fill="#bd9061ff"/><path d="M16 11v1h1v-1" fill="#000000ff"/><path d="M17 11v1h7v-1" fill="#f6be11ff"/><path d="M0 12v1h5v-1" fill="#f6be11ff"/><path d="M5 12v1h1v-1" fill="#000000ff"/><path d="M6 12v1h1v-1" fill="#f6d4b1ff"/><path d="M7 12v1h1v-1" fill="#ddbf9fff"/><path d="M8 12v1h1v-1" fill="#f6d4b1ff"/><path d="M9 12v1h1v-1" fill="#000000ff"/><path d="M10 12v1h1v-1" fill="#dfb992ff"/><path d="M11 12v1h3v-1" fill="#f6d4b1ff"/><path d="M14 12v1h1v-1" fill="#000000ff"/><path d="M15 12v1h1v-1" fill="#dfb992ff"/><path d="M16 12v1h1v-1" fill="#000000ff"/><path d="M17 12v1h7v-1" fill="#f6be11ff"/><path d="M0 13v1h5v-1" fill="#f6be11ff"/><path d="M5 13v1h1v-1" fill="#000000ff"/><path d="M6 13v1h1v-1" fill="#f6d4b1ff"/><path d="M7 13v1h1v-1" fill="#ddbf9fff"/><path d="M8 13v1h8v-1" fill="#f6d4b1ff"/><path d="M16 13v1h1v-1" fill="#000000ff"/><path d="M17 13v1h2v-1" fill="#f6be11ff"/><path d="M19 13v1h1v-1" fill="#ce4048ff"/><path d="M20 13v1h4v-1" fill="#f6be11ff"/><path d="M0 14v1h5v-1" fill="#f6be11ff"/><path d="M5 14v1h2v-1" fill="#000000ff"/><path d="M7 14v1h1v-1" fill="#ddbf9fff"/><path d="M8 14v1h8v-1" fill="#f6d4b1ff"/><path d="M16 14v1h1v-1" fill="#000000ff"/><path d="M17 14v1h7v-1" fill="#f6be11ff"/><path d="M0 15v1h6v-1" fill="#f6be11ff"/><path d="M6 15v1h1v-1" fill="#000000ff"/><path d="M7 15v1h1v-1" fill="#ddbf9fff"/><path d="M8 15v1h4v-1" fill="#f6d4b1ff"/><path d="M12 15v1h2v-1" fill="#000000ff"/><path d="M14 15v1h2v-1" fill="#f6d4b1ff"/><path d="M16 15v1h1v-1" fill="#000000ff"/><path d="M17 15v1h1v-1" fill="#f6be11ff"/><path d="M18 15v1h2v-1" fill="#ce4048ff"/><path d="M20 15v1h4v-1" fill="#f6be11ff"/><path d="M0 16v1h6v-1" fill="#f6be11ff"/><path d="M6 16v1h1v-1" fill="#000000ff"/><path d="M7 16v1h1v-1" fill="#ddbf9fff"/><path d="M8 16v1h8v-1" fill="#f6d4b1ff"/><path d="M16 16v1h3v-1" fill="#ce4048ff"/><path d="M19 16v1h2v-1" fill="#f6be11ff"/><path d="M21 16v1h1v-1" fill="#ce4048ff"/><path d="M22 16v1h2v-1" fill="#f6be11ff"/><path d="M0 17v1h6v-1" fill="#f6be11ff"/><path d="M6 17v1h1v-1" fill="#000000ff"/><path d="M7 17v1h1v-1" fill="#ddbf9fff"/><path d="M8 17v1h6v-1" fill="#f6d4b1ff"/><path d="M14 17v1h5v-1" fill="#ce4048ff"/><path d="M19 17v1h5v-1" fill="#f6be11ff"/><path d="M0 18v1h6v-1" fill="#f6be11ff"/><path d="M6 18v1h1v-1" fill="#000000ff"/><path d="M7 18v1h1v-1" fill="#ddbf9fff"/><path d="M8 18v1h3v-1" fill="#f6d4b1ff"/><path d="M11 18v1h2v-1" fill="#000000ff"/><path d="M13 18v1h1v-1" fill="#ba353dff"/><path d="M14 18v1h2v-1" fill="#ce4048ff"/><path d="M16 18v1h1v-1" fill="#ba353dff"/><path d="M17 18v1h1v-1" fill="#ce4048ff"/><path d="M18 18v1h1v-1" fill="#ba353dff"/><path d="M19 18v1h2v-1" fill="#ce4048ff"/><path d="M21 18v1h3v-1" fill="#f6be11ff"/><path d="M0 19v1h6v-1" fill="#f6be11ff"/><path d="M6 19v1h1v-1" fill="#000000ff"/><path d="M7 19v1h1v-1" fill="#ddbf9fff"/><path d="M8 19v1h2v-1" fill="#f6d4b1ff"/><path d="M10 19v1h1v-1" fill="#000000ff"/><path d="M11 19v1h3v-1" fill="#f6d4b1ff"/><path d="M14 19v1h2v-1" fill="#ba353dff"/><path d="M16 19v1h1v-1" fill="#ce4048ff"/><path d="M17 19v1h1v-1" fill="#ba353dff"/><path d="M18 19v1h2v-1" fill="#ce4048ff"/><path d="M20 19v1h4v-1" fill="#f6be11ff"/><path d="M0 20v1h6v-1" fill="#f6be11ff"/><path d="M6 20v1h1v-1" fill="#000000ff"/><path d="M7 20v1h2v-1" fill="#ddbf9fff"/><path d="M9 20v1h6v-1" fill="#f6d4b1ff"/><path d="M15 20v1h1v-1" fill="#000000ff"/><path d="M16 20v1h1v-1" fill="#ba353dff"/><path d="M17 20v1h1v-1" fill="#ce4048ff"/><path d="M18 20v1h6v-1" fill="#f6be11ff"/><path d="M0 21v1h6v-1" fill="#f6be11ff"/><path d="M6 21v1h1v-1" fill="#000000ff"/><path d="M7 21v1h3v-1" fill="#ddbf9fff"/><path d="M10 21v1h5v-1" fill="#000000ff"/><path d="M15 21v1h2v-1" fill="#f6be11ff"/><path d="M17 21v1h2v-1" fill="#ba353dff"/><path d="M19 21v1h2v-1" fill="#f6be11ff"/><path d="M21 21v1h1v-1" fill="#ce4048ff"/><path d="M22 21v1h2v-1" fill="#f6be11ff"/><path d="M0 22v1h6v-1" fill="#f6be11ff"/><path d="M6 22v1h1v-1" fill="#000000ff"/><path d="M7 22v1h3v-1" fill="#ddbf9fff"/><path d="M10 22v1h1v-1" fill="#000000ff"/><path d="M11 22v1h8v-1" fill="#f6be11ff"/><path d="M19 22v1h1v-1" fill="#ce4048ff"/><path d="M20 22v1h4v-1" fill="#f6be11ff"/><path d="M0 23v1h6v-1" fill="#f6be11ff"/><path d="M6 23v1h1v-1" fill="#000000ff"/><path d="M7 23v1h3v-1" fill="#ddbf9fff"/><path d="M10 23v1h1v-1" fill="#000000ff"/><path d="M11 23v1h13v-1" fill="#f6be11ff"/></svg>