<svg xmlns="http://www.w3.org/2000/svg" shape-rendering="crispEdges" width="24" height="24" viewBox="0 0 24 24"><path d="M0 0v1h24v-1" fill="#f6be11ff"/><path d="M0 1v1h7v-1" fill="#f6be11ff"/><path d="M7 1v1h3v-1" fill="#000000ff"/><path d="M10 1v1h14v-1" fill="#f6be11ff"/><path d="M0 2v1h6v-1" fill="#f6be11ff"/><path d="M6 2v1h1v-1" fill="#000000ff"/><path d="M7 2v1h1v-1" fill="#bb53b9ff"/><path d="M8 2v1h2v-1" fill="#fbde44ff"/><path d="M10 2v1h1v-1" fill="#000000ff"/><path d="M11 2v1h1v-1" fill="#f6be11ff"/><path d="M12 2v1h3v-1" fill="#000000ff"/><path d="M15 2v1h9v-1" fill="#f6be11ff"/><path d="M0 3v1h5v-1" fill="#f6be11ff"/><path d="M5 3v1h1v-1" fill="#000000ff"/><path d="M6 3v1h1v-1" fill="#e19836ff"/><path d="M7 3v1h1v-1" fill="#fbde44ff"/><path d="M8 3v1h1v-1" fill="#55332fff"/><path d="M9 3v1h1v-1" fill="#673d39ff"/><path d="M10 3v1h1v-1" fill="#000000ff"/><path d="M11 3v1h1v-1" fill="#f6be11ff"/><path d="M12 3v1h1v-1" fill="#000000ff"/><path d="M13 3v1h1v-1" fill="#fbde44ff"/><path d="M14 3v1h1v-1" fill="#bb53b9ff"/><path d="M15 3v1h1v-1" fill="#000000ff"/><path d="M16 3v1h3v-1" fill="#f6be11ff"/><path d="M19 3v1h4v-1" fill="#000000ff"/><path d="M23 3v1h1v-1" fill="#f6be11ff"/><path d="M0 4v1h1v-1" fill="#f6be11ff"/><path d="M1 4v1h5v-1" fill="#000000ff"/><path d="M6 4v1h1v-1" fill="#e19836ff"/><path d="M7 4v1h2v-1" fill="#fbde44ff"/><path d="M9 4v1h1v-1" fill="#000000ff"/><path d="M10 4v1h3v-1" fill="#f6be11ff"/><path d="M13 4v1h1v-1" fill="#000000ff"/><path d="M14 4v1h1v-1" fill="#fbde44ff"/><path d="M15 4v1h1v-1" fill="#e19836ff"/><path d="M16 4v1h1v-1" fill="#000000ff"/><path d="M17 4v1h1v-1" fill="#f6be11ff"/><path d="M18 4v1h1v-1" fill="#000000ff"/><path d="M19 4v1h1v-1" fill="#e482e2ff"/><path d="M20 4v1h2v-1" fill="#fbde44ff"/><path d="M22 4v1h1v-1" fill="#000000ff"/><path d="M23 4v1h1v-1" fill="#f6be11ff"/><path d="M0 5v1h1v-1" fill="#f6be11ff"/><path d="M1 5v1h1v-1" fill="#000000ff"/><path d="M2 5v1h1v-1" fill="#fbde44ff"/><path d="M3 5v1h1v-1" fill="#e482e2ff"/><path d="M4 5v1h2v-1" fill="#fbde44ff"/><path d="M6 5v1h1v-1" fill="#000000ff"/><path d="M7 5v1h1v-1" fill="#e19836ff"/><path d="M8 5v1h1v-1" fill="#ffef9aff"/><path d="M9 5v1h1v-1" fill="#fff9d7ff"/><path d="M10 5v1h1v-1" fill="#000000ff"/><path d="M11 5v1h3v-1" fill="#f6be11ff"/><path d="M14 5v1h1v-1" fill="#000000ff"/><path d="M15 5v1h1v-1" fill="#fbde44ff"/><path d="M16 5v1h1v-1" fill="#e19836ff"/><path d="M17 5v1h1v-1" fill="#000000ff"/><path d="M18 5v1h1v-1" fill="#e19836ff"/><path d="M19 5v1h2v-1" fill="#fbde44ff"/><path d="M21 5v1h1v-1" fill="#000000ff"/><path d="M22 5v1h2v-1" fill="#f6be11ff"/><path d="M0 6v1h2v-1" fill="#f6be11ff"/><path d="M2 6v1h1v-1" fill="#000000ff"/><path d="M3 6v1h4v-1" fill="#e19836ff"/><path d="M7 6v1h1v-1" fill="#000000ff"/><path d="M8 6v1h1v-1" fill="#e19836ff"/><path d="M9 6v1h1v-1" fill="#ffef9aff"/><path d="M10 6v1h1v-1" fill="#fff9d7ff"/><path d="M11 6v1h1v-1" fill="#000000ff"/><path d="M12 6v1h2v-1" fill="#f6be11ff"/><path d="M14 6v1h1v-1" fill="#000000ff"/><path d="M15 6v1h1v-1" fill="#fff9d7ff"/><path d="M16 6v1h1v-1" fill="#000000ff"/><path d="M17 6v1h2v-1" fill="#fbde44ff"/><path d="M19 6v1h1v-1" fill="#ffef9aff"/><path d="M20 6v1h2v-1" fill="#e19836ff"/><path d="M22 6v1h1v-1" fill="#000000ff"/><path d="M23 6v1h1v-1" fill="#f6be11ff"/><path d="M0 7v1h3v-1" fill="#f6be11ff"/><path d="M3 7v1h2v-1" fill="#000000ff"/><path d="M5 7v1h2v-1" fill="#ffef9aff"/><path d="M7 7v1h1v-1" fill="#e19836ff"/><path d="M8 7v1h1v-1" fill="#000000ff"/><path d="M9 7v1h1v-1" fill="#e19836ff"/><path d="M10 7v1h1v-1" fill="#ffef9aff"/><path d="M11 7v1h1v-1" fill="#fff9d7ff"/><path d="M12 7v1h2v-1" fill="#000000ff"/><path d="M14 7v1h1v-1" fill="#fff9d7ff"/><path d="M15 7v1h1v-1" fill="#000000ff"/><path d="M16 7v1h1v-1" fill="#fbde44ff"/><path d="M17 7v1h1v-1" fill="#e19836ff"/><path d="M18 7v1h1v-1" fill="#ffef9aff"/><path d="M19 7v1h3v-1" fill="#000000ff"/><path d="M22 7v1h2v-1" fill="#f6be11ff"/><path d="M0 8v1h2v-1" fill="#f6be11ff"/><path d="M2 8v1h1v-1" fill="#000000ff"/><path d="M3 8v1h3v-1" fill="#fbde44ff"/><path d="M6 8v1h2v-1" fill="#000000ff"/><path d="M8 8v1h1v-1" fill="#e19836ff"/><path d="M9 8v1h1v-1" fill="#000000ff"/><path d="M10 8v1h1v-1" fill="#e19836ff"/><path d="M11 8v1h1v-1" fill="#ffef9aff"/><path d="M12 8v1h1v-1" fill="#fff9d7ff"/><path d="M13 8v1h1v-1" fill="#e19836ff"/><path d="M14 8v1h1v-1" fill="#000000ff"/><path d="M15 8v1h2v-1" fill="#fbde44ff"/><path d="M17 8v1h1v-1" fill="#ffef9aff"/><path d="M18 8v1h1v-1" fill="#000000ff"/><path d="M19 8v1h5v-1" fill="#f6be11ff"/><path d="M0 9v1h1v-1" fill="#f6be11ff"/><path d="M1 9v1h1v-1" fill="#000000ff"/><path d="M2 9v1h1v-1" fill="#fbde44ff"/><path d="M3 9v1h2v-1" fill="#ffef9aff"/><path d="M5 9v1h1v-1" fill="#000000ff"/><path d="M6 9v1h1v-1" fill="#e19836ff"/><path d="M7 9v1h2v-1" fill="#7421b5ff"/><path d="M9 9v1h2v-1" fill="#bf44ecff"/><path d="M11 9v1h1v-1" fill="#7421b5ff"/><path d="M12 9v1h2v-1" fill="#bf44ecff"/><path d="M14 9v1h1v-1" fill="#f7e3ffff"/><path d="M15 9v1h1v-1" fill="#bf44ecff"/><path d="M16 9v1h1v-1" fill="#7421b5ff"/><path d="M17 9v1h2v-1" fill="#000000ff"/><path d="M19 9v1h5v-1" fill="#f6be11ff"/><path d="M0 10v1h1v-1" fill="#000000ff"/><path d="M1 10v1h1v-1" fill="#fbde44ff"/><path d="M2 10v1h1v-1" fill="#ffef9aff"/><path d="M3 10v1h2v-1" fill="#000000ff"/><path d="M5 10v1h2v-1" fill="#e19836ff"/><path d="M7 10v1h2v-1" fill="#7421b5ff"/><path d="M9 10v1h2v-1" fill="#bf44ecff"/><path d="M11 10v1h1v-1" fill="#7421b5ff"/><path d="M12 10v1h2v-1" fill="#bf44ecff"/><path d="M14 10v1h1v-1" fill="#f7e3ffff"/><path d="M15 10v1h1v-1" fill="#bf44ecff"/><path d="M16 10v1h1v-1" fill="#7421b5ff"/><path d="M17 10v1h2v-1" fill="#fbde44ff"/><path d="M19 10v1h3v-1" fill="#000000ff"/><path d="M22 10v1h2v-1" fill="#f6be11ff"/><path d="M0 11v1h1v-1" fill="#fbde44ff"/><path d="M1 11v1h1v-1" fill="#ffef9aff"/><path d="M2 11v1h1v-1" fill="#000000ff"/><path d="M3 11v1h1v-1" fill="#e19836ff"/><path d="M4 11v1h2v-1" fill="#fbde44ff"/><path d="M6 11v1h1v-1" fill="#e19836ff"/><path d="M7 11v1h10v-1" fill="#000000ff"/><path d="M17 11v1h1v-1" fill="#ffef9aff"/><path d="M18 11v1h1v-1" fill="#fbde44ff"/><path d="M19 11v1h1v-1" fill="#9e299cff"/><path d="M20 11v1h1v-1" fill="#fbde44ff"/><path d="M21 11v1h1v-1" fill="#000000ff"/><path d="M22 11v1h2v-1" fill="#f6be11ff"/><path d="M0 12v1h1v-1" fill="#ffef9aff"/><path d="M1 12v1h1v-1" fill="#000000ff"/><path d="M2 12v1h1v-1" fill="#bb53b9ff"/><path d="M3 12v1h2v-1" fill="#fbde44ff"/><path d="M5 12v1h1v-1" fill="#bb53b9ff"/><path d="M6 12v1h1v-1" fill="#000000ff"/><path d="M7 12v1h1v-1" fill="#f6d4b1ff"/><path d="M8 12v1h1v-1" fill="#cd632dff"/><path d="M9 12v1h2v-1" fill="#c75a21ff"/><path d="M11 12v1h3v-1" fill="#d26831ff"/><path d="M14 12v1h2v-1" fill="#c75a21ff"/><path d="M16 12v1h2v-1" fill="#000000ff"/><path d="M18 12v1h2v-1" fill="#fbde44ff"/><path d="M20 12v1h1v-1" fill="#000000ff"/><path d="M21 12v1h3v-1" fill="#f6be11ff"/><path d="M0 13v1h2v-1" fill="#000000ff"/><path d="M2 13v1h1v-1" fill="#fff9d7ff"/><path d="M3 13v1h1v-1" fill="#341a17ff"/><path d="M4 13v1h1v-1" fill="#fff9d7ff"/><path d="M5 13v1h1v-1" fill="#fbde44ff"/><path d="M6 13v1h1v-1" fill="#19100bff"/><path d="M7 13v1h1v-1" fill="#f6d4b1ff"/><path d="M8 13v1h1v-1" fill="#cd872dff"/><path d="M9 13v1h1v-1" fill="#a1600dff"/><path d="M10 13v1h1v-1" fill="#ce852aff"/><path d="M11 13v1h1v-1" fill="#d28b31ff"/><path d="M12 13v1h1v-1" fill="#f6d4b1ff"/><path d="M13 13v1h1v-1" fill="#d28b31ff"/><path d="M14 13v1h1v-1" fill="#a1600dff"/><path d="M15 13v1h1v-1" fill="#ce852aff"/><path d="M16 13v1h1v-1" fill="#000000ff"/><path d="M17 13v1h1v-1" fill="#e19836ff"/><path d="M18 13v1h2v-1" fill="#000000ff"/><path d="M20 13v1h4v-1" fill="#f6be11ff"/><path d="M0 14v1h1v-1" fill="#f6be11ff"/><path d="M1 14v1h1v-1" fill="#000000ff"/><path d="M2 14v1h3v-1" fill="#341a17ff"/><path d="M5 14v1h1v-1" fill="#fbde44ff"/><path d="M6 14v1h2v-1" fill="#000000ff"/><path d="M8 14v1h1v-1" fill="#cd872dff"/><path d="M9 14v1h3v-1" fill="#d28b31ff"/><path d="M12 14v1h1v-1" fill="#f6d4b1ff"/><path d="M13 14v1h3v-1" fill="#d28b31ff"/><path d="M16 14v1h1v-1" fill="#000000ff"/><path d="M17 14v1h3v-1" fill="#e19836ff"/><path d="M20 14v1h1v-1" fill="#000000ff"/><path d="M21 14v1h3v-1" fill="#f6be11ff"/><path d="M0 15v1h1v-1" fill="#f6be11ff"/><path d="M1 15v1h1v-1" fill="#000000ff"/><path d="M2 15v1h3v-1" fill="#fbde44ff"/><path d="M5 15v1h1v-1" fill="#000000ff"/><path d="M6 15v1h1v-1" fill="#e19836ff"/><path d="M7 15v1h1v-1" fill="#000000ff"/><path d="M8 15v1h1v-1" fill="#ddbf9fff"/><path d="M9 15v1h7v-1" fill="#f6d4b1ff"/><path d="M16 15v1h2v-1" fill="#000000ff"/><path d="M18 15v1h1v-1" fill="#e19836ff"/><path d="M19 15v1h1v-1" fill="#fbde44ff"/><path d="M20 15v1h1v-1" fill="#e19836ff"/><path d="M21 15v1h1v-1" fill="#000000ff"/><path d="M22 15v1h2v-1" fill="#f6be11ff"/><path d="M0 16v1h2v-1" fill="#f6be11ff"/><path d="M2 16v1h3v-1" fill="#000000ff"/><path d="M5 16v1h1v-1" fill="#e19836ff"/><path d="M6 16v1h1v-1" fill="#fbde44ff"/><path d="M7 16v1h1v-1" fill="#000000ff"/><path d="M8 16v1h1v-1" fill="#ddbf9fff"/><path d="M9 16v1h3v-1" fill="#f6d4b1ff"/><path d="M12 16v1h1v-1" fill="#000000ff"/><path d="M13 16v1h3v-1" fill="#f6d4b1ff"/><path d="M16 16v1h1v-1" fill="#000000ff"/><path d="M17 16v1h1v-1" fill="#f6be11ff"/><path d="M18 16v1h1v-1" fill="#000000ff"/><path d="M19 16v1h1v-1" fill="#e19836ff"/><path d="M20 16v1h2v-1" fill="#fbde44ff"/><path d="M22 16v1h1v-1" fill="#000000ff"/><path d="M23 16v1h1v-1" fill="#f6be11ff"/><path d="M0 17v1h2v-1" fill="#f6be11ff"/><path d="M2 17v1h1v-1" fill="#000000ff"/><path d="M3 17v1h2v-1" fill="#e19836ff"/><path d="M5 17v1h1v-1" fill="#fbde44ff"/><path d="M6 17v1h1v-1" fill="#e19836ff"/><path d="M7 17v1h1v-1" fill="#000000ff"/><path d="M8 17v1h1v-1" fill="#ddbf9fff"/><path d="M9 17v1h6v-1" fill="#f6d4b1ff"/><path d="M15 17v1h5v-1" fill="#000000ff"/><path d="M20 17v1h1v-1" fill="#fbde44ff"/><path d="M21 17v1h1v-1" fill="#e19836ff"/><path d="M22 17v1h1v-1" fill="#000000ff"/><path d="M23 17v1h1v-1" fill="#f6be11ff"/><path d="M0 18v1h1v-1" fill="#f6be11ff"/><path d="M1 18v1h1v-1" fill="#000000ff"/><path d="M2 18v1h3v-1" fill="#fbde44ff"/><path d="M5 18v1h1v-1" fill="#e19836ff"/><path d="M6 18v1h2v-1" fill="#000000ff"/><path d="M8 18v1h1v-1" fill="#ddbf9fff"/><path d="M9 18v1h2v-1" fill="#f6d4b1ff"/><path d="M11 18v1h3v-1" fill="#ff5558ff"/><path d="M14 18v1h1v-1" fill="#f6d4b1ff"/><path d="M15 18v1h1v-1" fill="#000000ff"/><path d="M16 18v1h2v-1" fill="#fbde44ff"/><path d="M18 18v1h1v-1" fill="#bb53b9ff"/><path d="M19 18v1h1v-1" fill="#fbde44ff"/><path d="M20 18v1h1v-1" fill="#e19836ff"/><path d="M21 18v1h1v-1" fill="#ffef9aff"/><path d="M22 18v1h1v-1" fill="#000000ff"/><path d="M23 18v1h1v-1" fill="#f6be11ff"/><path d="M0 19v1h1v-1" fill="#000000ff"/><path d="M1 19v1h1v-1" fill="#ffef9aff"/><path d="M2 19v1h3v-1" fill="#fbde44ff"/><path d="M5 19v1h1v-1" fill="#000000ff"/><path d="M6 19v1h2v-1" fill="#e19836ff"/><path d="M8 19v1h1v-1" fill="#000000ff"/><path d="M9 19v1h1v-1" fill="#ddbf9fff"/><path d="M10 19v1h5v-1" fill="#f6d4b1ff"/><path d="M15 19v1h2v-1" fill="#000000ff"/><path d="M17 19v1h2v-1" fill="#341a17ff"/><path d="M19 19v1h1v-1" fill="#e19836ff"/><path d="M20 19v1h1v-1" fill="#ffef9aff"/><path d="M21 19v1h1v-1" fill="#000000ff"/><path d="M22 19v1h2v-1" fill="#f6be11ff"/><path d="M0 20v1h1v-1" fill="#000000ff"/><path d="M1 20v1h1v-1" fill="#fff9d7ff"/><path d="M2 20v1h1v-1" fill="#e19836ff"/><path d="M3 20v1h3v-1" fill="#fbde44ff"/><path d="M6 20v1h1v-1" fill="#000000ff"/><path d="M7 20v1h1v-1" fill="#e19836ff"/><path d="M8 20v1h1v-1" fill="#000000ff"/><path d="M9 20v1h1v-1" fill="#ddbf9fff"/><path d="M10 20v1h1v-1" fill="#000000ff"/><path d="M11 20v1h3v-1" fill="#f6d4b1ff"/><path d="M14 20v1h1v-1" fill="#000000ff"/><path d="M15 20v1h1v-1" fill="#e19836ff"/><path d="M16 20v1h1v-1" fill="#000000ff"/><path d="M17 20v1h3v-1" fill="#e19836ff"/><path d="M20 20v1h1v-1" fill="#000000ff"/><path d="M21 20v1h2v-1" fill="#f6be11ff"/><path d="M23 20v1h1v-1" fill="#000000ff"/><path d="M0 21v1h1v-1" fill="#000000ff"/><path d="M1 21v1h2v-1" fill="#fff9d7ff"/><path d="M3 21v1h1v-1" fill="#e19836ff"/><path d="M4 21v1h1v-1" fill="#fbde44ff"/><path d="M5 21v1h5v-1" fill="#000000ff"/><path d="M10 21v1h1v-1" fill="#ddbf9fff"/><path d="M11 21v1h3v-1" fill="#000000ff"/><path d="M14 21v1h1v-1" fill="#ffef9aff"/><path d="M15 21v1h1v-1" fill="#e19836ff"/><path d="M16 21v1h1v-1" fill="#fbde44ff"/><path d="M17 21v1h3v-1" fill="#000000ff"/><path d="M20 21v1h2v-1" fill="#f6be11ff"/><path d="M22 21v1h1v-1" fill="#000000ff"/><path d="M23 21v1h1v-1" fill="#fff9d7ff"/><path d="M0 22v1h1v-1" fill="#f6be11ff"/><path d="M1 22v1h1v-1" fill="#000000ff"/><path d="M2 22v1h2v-1" fill="#ffef9aff"/><path d="M4 22v1h1v-1" fill="#e19836ff"/><path d="M5 22v1h1v-1" fill="#fbde44ff"/><path d="M6 22v1h1v-1" fill="#bb53b9ff"/><path d="M7 22v1h2v-1" fill="#fbde44ff"/><path d="M9 22v1h1v-1" fill="#000000ff"/><path d="M10 22v1h1v-1" fill="#ffcb2bff"/><path d="M11 22v1h1v-1" fill="#ffb727ff"/><path d="M12 22v1h1v-1" fill="#000000ff"/><path d="M13 22v1h1v-1" fill="#f6be11ff"/><path d="M14 22v1h1v-1" fill="#000000ff"/><path d="M15 22v1h1v-1" fill="#ffef9aff"/><path d="M16 22v1h2v-1" fill="#e19836ff"/><path d="M18 22v1h1v-1" fill="#fbde44ff"/><path d="M19 22v1h1v-1" fill="#e19836ff"/><path d="M20 22v1h2v-1" fill="#000000ff"/><path d="M22 22v1h1v-1" fill="#fff9d7ff"/><path d="M23 22v1h1v-1" fill="#fbde44ff"/><path d="M0 23v1h2v-1" fill="#f6be11ff"/><path d="M2 23v1h1v-1" fill="#000000ff"/><path d="M3 23v1h2v-1" fill="#ffef9aff"/><path d="M5 23v1h1v-1" fill="#fbde44ff"/><path d="M6 23v1h2v-1" fill="#55332fff"/><path d="M8 23v1h1v-1" fill="#000000ff"/><path d="M9 23v1h3v-1" fill="#ddbf9fff"/><path d="M12 23v1h1v-1" fill="#000000ff"/><path d="M13 23v1h2v-1" fill="#f6be11ff"/><path d="M15 23v1h1v-1" fill="#000000ff"/><path d="M16 23v1h1v-1" fill="#ffef9aff"/><path d="M17 23v1h1v-1" fill="#fbde44ff"/><path d="M18 23v1h1v-1" fill="#e19836ff"/><path d="M19 23v1h1v-1" fill="#fbde44ff"/><path d="M20 23v1h1v-1" fill="#e19836ff"/><path d="M21 23v1h1v-1" fill="#fbde44ff"/><path d="M22 23v1h1v-1" fill="#e19836ff"/><path d="M23 23v1h1v-1" fill="#fbde44ff"/></svg>