<svg xmlns="http://www.w3.org/2000/svg" shape-rendering="crispEdges" width="24" height="24" viewBox="0 0 24 24"><path d="M0 0v1h4v-1" fill="#141414ff"/><path d="M4 0v1h1v-1" fill="#fddd9aff"/><path d="M5 0v1h4v-1" fill="#141414ff"/><path d="M9 0v1h1v-1" fill="#1f1d1aff"/><path d="M10 0v1h1v-1" fill="#373127ff"/><path d="M11 0v1h1v-1" fill="#1f1d1aff"/><path d="M12 0v1h7v-1" fill="#141414ff"/><path d="M19 0v1h1v-1" fill="#2a2720ff"/><path d="M20 0v1h4v-1" fill="#141414ff"/><path d="M0 1v1h9v-1" fill="#141414ff"/><path d="M9 1v1h1v-1" fill="#373127ff"/><path d="M10 1v1h1v-1" fill="#fddd9aff"/><path d="M11 1v1h1v-1" fill="#373127ff"/><path d="M12 1v1h6v-1" fill="#141414ff"/><path d="M18 1v1h1v-1" fill="#2a2720ff"/><path d="M19 1v1h1v-1" fill="#9f8c63ff"/><path d="M20 1v1h1v-1" fill="#2a2720ff"/><path d="M21 1v1h3v-1" fill="#141414ff"/><path d="M0 2v1h4v-1" fill="#141414ff"/><path d="M4 2v1h3v-1" fill="#000000ff"/><path d="M7 2v1h2v-1" fill="#141414ff"/><path d="M9 2v1h5v-1" fill="#000000ff"/><path d="M14 2v1h2v-1" fill="#141414ff"/><path d="M16 2v1h3v-1" fill="#000000ff"/><path d="M19 2v1h1v-1" fill="#fddd9aff"/><path d="M20 2v1h1v-1" fill="#4d4535ff"/><path d="M21 2v1h1v-1" fill="#2a2720ff"/><path d="M22 2v1h2v-1" fill="#141414ff"/><path d="M0 3v1h4v-1" fill="#141414ff"/><path d="M4 3v1h1v-1" fill="#000000ff"/><path d="M5 3v1h2v-1" fill="#cac9c9ff"/><path d="M7 3v1h2v-1" fill="#000000ff"/><path d="M9 3v1h5v-1" fill="#cac9c9ff"/><path d="M14 3v1h2v-1" fill="#000000ff"/><path d="M16 3v1h1v-1" fill="#b1b1b1ff"/><path d="M17 3v1h1v-1" fill="#cac9c9ff"/><path d="M18 3v1h1v-1" fill="#000000ff"/><path d="M19 3v1h1v-1" fill="#fdf5e0ff"/><path d="M20 3v1h2v-1" fill="#000000ff"/><path d="M22 3v1h1v-1" fill="#2a2720ff"/><path d="M23 3v1h1v-1" fill="#141414ff"/><path d="M0 4v1h2v-1" fill="#141414ff"/><path d="M2 4v1h1v-1" fill="#4d4535ff"/><path d="M3 4v1h1v-1" fill="#141414ff"/><path d="M4 4v1h1v-1" fill="#000000ff"/><path d="M5 4v1h2v-1" fill="#b18888ff"/><path d="M7 4v1h1v-1" fill="#7d7d7dff"/><path d="M8 4v1h1v-1" fill="#cac9c9ff"/><path d="M9 4v1h7v-1" fill="#b1b1b1ff"/><path d="M16 4v1h1v-1" fill="#b18888ff"/><path d="M17 4v1h1v-1" fill="#000000ff"/><path d="M18 4v1h1v-1" fill="#4d4535ff"/><path d="M19 4v1h1v-1" fill="#000000ff"/><path d="M20 4v1h1v-1" fill="#e0ddcdff"/><path d="M21 4v1h1v-1" fill="#000000ff"/><path d="M22 4v1h2v-1" fill="#141414ff"/><path d="M0 5v1h1v-1" fill="#141414ff"/><path d="M1 5v1h1v-1" fill="#2a2720ff"/><path d="M2 5v1h1v-1" fill="#fddd9aff"/><path d="M3 5v1h1v-1" fill="#2a2720ff"/><path d="M4 5v1h1v-1" fill="#141414ff"/><path d="M5 5v1h1v-1" fill="#000000ff"/><path d="M6 5v1h1v-1" fill="#b18888ff"/><path d="M7 5v1h1v-1" fill="#7d7d7dff"/><path d="M8 5v1h2v-1" fill="#b1b1b1ff"/><path d="M10 5v1h1v-1" fill="#363636ff"/><path d="M11 5v1h1v-1" fill="#ffffffff"/><path d="M12 5v1h2v-1" fill="#b1b1b1ff"/><path d="M14 5v1h1v-1" fill="#363636ff"/><path d="M15 5v1h1v-1" fill="#ffffffff"/><path d="M16 5v1h1v-1" fill="#b18888ff"/><path d="M17 5v1h2v-1" fill="#000000ff"/><path d="M19 5v1h2v-1" fill="#e0ddcdff"/><path d="M21 5v1h1v-1" fill="#000000ff"/><path d="M22 5v1h2v-1" fill="#141414ff"/><path d="M0 6v1h1v-1" fill="#4d4535ff"/><path d="M1 6v1h1v-1" fill="#fddd9aff"/><path d="M2 6v1h1v-1" fill="#fdf5e0ff"/><path d="M3 6v1h1v-1" fill="#fddd9aff"/><path d="M4 6v1h1v-1" fill="#4d4535ff"/><path d="M5 6v1h1v-1" fill="#141414ff"/><path d="M6 6v1h1v-1" fill="#000000ff"/><path d="M7 6v1h1v-1" fill="#7d7d7dff"/><path d="M8 6v1h2v-1" fill="#b1b1b1ff"/><path d="M10 6v1h2v-1" fill="#363636ff"/><path d="M12 6v1h2v-1" fill="#b1b1b1ff"/><path d="M14 6v1h2v-1" fill="#363636ff"/><path d="M16 6v1h3v-1" fill="#ffffffff"/><path d="M19 6v1h2v-1" fill="#e0ddcdff"/><path d="M21 6v1h1v-1" fill="#000000ff"/><path d="M22 6v1h2v-1" fill="#141414ff"/><path d="M0 7v1h1v-1" fill="#141414ff"/><path d="M1 7v1h1v-1" fill="#2a2720ff"/><path d="M2 7v1h1v-1" fill="#fddd9aff"/><path d="M3 7v1h1v-1" fill="#2a2720ff"/><path d="M4 7v1h1v-1" fill="#141414ff"/><path d="M5 7v1h1v-1" fill="#000000ff"/><path d="M6 7v1h2v-1" fill="#7d7d7dff"/><path d="M8 7v1h7v-1" fill="#b1b1b1ff"/><path d="M15 7v1h3v-1" fill="#ffffffff"/><path d="M18 7v1h2v-1" fill="#e0ddcdff"/><path d="M20 7v1h1v-1" fill="#000000ff"/><path d="M21 7v1h3v-1" fill="#141414ff"/><path d="M0 8v1h2v-1" fill="#141414ff"/><path d="M2 8v1h1v-1" fill="#4d4535ff"/><path d="M3 8v1h2v-1" fill="#141414ff"/><path d="M5 8v1h1v-1" fill="#000000ff"/><path d="M6 8v1h2v-1" fill="#7d7d7dff"/><path d="M8 8v1h7v-1" fill="#b1b1b1ff"/><path d="M15 8v1h4v-1" fill="#e0ddcdff"/><path d="M19 8v1h1v-1" fill="#000000ff"/><path d="M20 8v1h4v-1" fill="#141414ff"/><path d="M0 9v1h5v-1" fill="#141414ff"/><path d="M5 9v1h1v-1" fill="#000000ff"/><path d="M6 9v1h3v-1" fill="#7d7d7dff"/><path d="M9 9v1h3v-1" fill="#b1b1b1ff"/><path d="M12 9v1h1v-1" fill="#313131ff"/><path d="M13 9v1h2v-1" fill="#b1b1b1ff"/><path d="M15 9v1h1v-1" fill="#313131ff"/><path d="M16 9v1h2v-1" fill="#636262ff"/><path d="M18 9v1h1v-1" fill="#000000ff"/><path d="M19 9v1h5v-1" fill="#141414ff"/><path d="M0 10v1h5v-1" fill="#141414ff"/><path d="M5 10v1h1v-1" fill="#000000ff"/><path d="M6 10v1h6v-1" fill="#7d7d7dff"/><path d="M12 10v1h3v-1" fill="#b1b1b1ff"/><path d="M15 10v1h2v-1" fill="#7d7d7dff"/><path d="M17 10v1h1v-1" fill="#636262ff"/><path d="M18 10v1h1v-1" fill="#000000ff"/><path d="M19 10v1h1v-1" fill="#433529ff"/><path d="M20 10v1h1v-1" fill="#1f1b18ff"/><path d="M21 10v1h3v-1" fill="#141414ff"/><path d="M0 11v1h5v-1" fill="#141414ff"/><path d="M5 11v1h1v-1" fill="#000000ff"/><path d="M6 11v1h1v-1" fill="#cc734eff"/><path d="M7 11v1h1v-1" fill="#000000ff"/><path d="M8 11v1h1v-1" fill="#c59f73ff"/><path d="M9 11v1h3v-1" fill="#dbb180ff"/><path d="M12 11v1h5v-1" fill="#7d7d7dff"/><path d="M17 11v1h1v-1" fill="#000000ff"/><path d="M18 11v1h1v-1" fill="#433529ff"/><path d="M19 11v1h1v-1" fill="#ffb87eff"/><path d="M20 11v1h1v-1" fill="#433529ff"/><path d="M21 11v1h3v-1" fill="#141414ff"/><path d="M0 12v1h4v-1" fill="#141414ff"/><path d="M4 12v1h1v-1" fill="#000000ff"/><path d="M5 12v1h1v-1" fill="#cc734eff"/><path d="M6 12v1h1v-1" fill="#000000ff"/><path d="M7 12v1h1v-1" fill="#dbb180ff"/><path d="M8 12v1h1v-1" fill="#c59f73ff"/><path d="M9 12v1h2v-1" fill="#a66e2cff"/><path d="M11 12v1h3v-1" fill="#dbb180ff"/><path d="M14 12v1h2v-1" fill="#a66e2cff"/><path d="M16 12v1h1v-1" fill="#000000ff"/><path d="M17 12v1h1v-1" fill="#cc734eff"/><path d="M18 12v1h1v-1" fill="#000000ff"/><path d="M19 12v1h1v-1" fill="#433529ff"/><path d="M20 12v1h1v-1" fill="#1f1b18ff"/><path d="M21 12v1h3v-1" fill="#141414ff"/><path d="M0 13v1h4v-1" fill="#141414ff"/><path d="M4 13v1h1v-1" fill="#000000ff"/><path d="M5 13v1h1v-1" fill="#a1502eff"/><path d="M6 13v1h1v-1" fill="#000000ff"/><path d="M7 13v1h1v-1" fill="#dbb180ff"/><path d="M8 13v1h1v-1" fill="#c59f73ff"/><path d="M9 13v1h2v-1" fill="#000000ff"/><path d="M11 13v1h3v-1" fill="#dbb180ff"/><path d="M14 13v1h3v-1" fill="#000000ff"/><path d="M17 13v1h1v-1" fill="#a1502eff"/><path d="M18 13v1h1v-1" fill="#000000ff"/><path d="M19 13v1h5v-1" fill="#141414ff"/><path d="M0 14v1h4v-1" fill="#141414ff"/><path d="M4 14v1h1v-1" fill="#000000ff"/><path d="M5 14v1h1v-1" fill="#a1502eff"/><path d="M6 14v1h2v-1" fill="#000000ff"/><path d="M8 14v1h1v-1" fill="#c59f73ff"/><path d="M9 14v1h7v-1" fill="#dbb180ff"/><path d="M16 14v1h1v-1" fill="#000000ff"/><path d="M17 14v1h1v-1" fill="#a1502eff"/><path d="M18 14v1h1v-1" fill="#000000ff"/><path d="M19 14v1h5v-1" fill="#141414ff"/><path d="M0 15v1h4v-1" fill="#141414ff"/><path d="M4 15v1h1v-1" fill="#000000ff"/><path d="M5 15v1h1v-1" fill="#a1502eff"/><path d="M6 15v1h1v-1" fill="#5d2812ff"/><path d="M7 15v1h1v-1" fill="#000000ff"/><path d="M8 15v1h1v-1" fill="#c59f73ff"/><path d="M9 15v1h7v-1" fill="#dbb180ff"/><path d="M16 15v1h1v-1" fill="#000000ff"/><path d="M17 15v1h1v-1" fill="#a1502eff"/><path d="M18 15v1h1v-1" fill="#000000ff"/><path d="M19 15v1h2v-1" fill="#141414ff"/><path d="M21 15v1h1v-1" fill="#1f1d1aff"/><path d="M22 15v1h2v-1" fill="#433c2fff"/><path d="M0 16v1h4v-1" fill="#141414ff"/><path d="M4 16v1h1v-1" fill="#000000ff"/><path d="M5 16v1h1v-1" fill="#743318ff"/><path d="M6 16v1h1v-1" fill="#5d2812ff"/><path d="M7 16v1h1v-1" fill="#000000ff"/><path d="M8 16v1h1v-1" fill="#c59f73ff"/><path d="M9 16v1h3v-1" fill="#dbb180ff"/><path d="M12 16v1h1v-1" fill="#000000ff"/><path d="M13 16v1h3v-1" fill="#dbb180ff"/><path d="M16 16v1h1v-1" fill="#000000ff"/><path d="M17 16v1h1v-1" fill="#743318ff"/><path d="M18 16v1h1v-1" fill="#000000ff"/><path d="M19 16v1h2v-1" fill="#141414ff"/><path d="M21 16v1h1v-1" fill="#433c2fff"/><path d="M22 16v1h2v-1" fill="#fdf5e0ff"/><path d="M0 17v1h1v-1" fill="#1f1b18ff"/><path d="M1 17v1h1v-1" fill="#433529ff"/><path d="M2 17v1h1v-1" fill="#1f1b18ff"/><path d="M3 17v1h1v-1" fill="#141414ff"/><path d="M4 17v1h1v-1" fill="#000000ff"/><path d="M5 17v1h1v-1" fill="#743318ff"/><path d="M6 17v1h1v-1" fill="#5d2812ff"/><path d="M7 17v1h1v-1" fill="#000000ff"/><path d="M8 17v1h1v-1" fill="#c59f73ff"/><path d="M9 17v1h7v-1" fill="#dbb180ff"/><path d="M16 17v1h1v-1" fill="#000000ff"/><path d="M17 17v1h1v-1" fill="#743318ff"/><path d="M18 17v1h1v-1" fill="#000000ff"/><path d="M19 17v1h2v-1" fill="#141414ff"/><path d="M21 17v1h1v-1" fill="#433c2fff"/><path d="M22 17v1h2v-1" fill="#fdf5e0ff"/><path d="M0 18v1h1v-1" fill="#433529ff"/><path d="M1 18v1h1v-1" fill="#ffb87eff"/><path d="M2 18v1h1v-1" fill="#433529ff"/><path d="M3 18v1h1v-1" fill="#141414ff"/><path d="M4 18v1h1v-1" fill="#000000ff"/><path d="M5 18v1h1v-1" fill="#743318ff"/><path d="M6 18v1h1v-1" fill="#5d2812ff"/><path d="M7 18v1h1v-1" fill="#000000ff"/><path d="M8 18v1h1v-1" fill="#c59f73ff"/><path d="M9 18v1h2v-1" fill="#dbb180ff"/><path d="M11 18v1h3v-1" fill="#8b380cff"/><path d="M14 18v1h2v-1" fill="#dbb180ff"/><path d="M16 18v1h1v-1" fill="#000000ff"/><path d="M17 18v1h1v-1" fill="#743318ff"/><path d="M18 18v1h1v-1" fill="#000000ff"/><path d="M19 18v1h2v-1" fill="#141414ff"/><path d="M21 18v1h1v-1" fill="#1f1d1aff"/><path d="M22 18v1h2v-1" fill="#433c2fff"/><path d="M0 19v1h1v-1" fill="#1f1b18ff"/><path d="M1 19v1h1v-1" fill="#433529ff"/><path d="M2 19v1h1v-1" fill="#1f1b18ff"/><path d="M3 19v1h1v-1" fill="#141414ff"/><path d="M4 19v1h1v-1" fill="#000000ff"/><path d="M5 19v1h1v-1" fill="#743318ff"/><path d="M6 19v1h1v-1" fill="#5d2812ff"/><path d="M7 19v1h1v-1" fill="#743318ff"/><path d="M8 19v1h1v-1" fill="#000000ff"/><path d="M9 19v1h1v-1" fill="#c59f73ff"/><path d="M10 19v1h5v-1" fill="#dbb180ff"/><path d="M15 19v1h1v-1" fill="#000000ff"/><path d="M16 19v1h1v-1" fill="#5d2812ff"/><path d="M17 19v1h1v-1" fill="#743318ff"/><path d="M18 19v1h1v-1" fill="#000000ff"/><path d="M19 19v1h5v-1" fill="#141414ff"/><path d="M0 20v1h4v-1" fill="#141414ff"/><path d="M4 20v1h1v-1" fill="#000000ff"/><path d="M5 20v1h1v-1" fill="#743318ff"/><path d="M6 20v1h1v-1" fill="#5d2812ff"/><path d="M7 20v1h1v-1" fill="#743318ff"/><path d="M8 20v1h1v-1" fill="#000000ff"/><path d="M9 20v1h1v-1" fill="#c59f73ff"/><path d="M10 20v1h1v-1" fill="#000000ff"/><path d="M11 20v1h3v-1" fill="#dbb180ff"/><path d="M14 20v1h1v-1" fill="#000000ff"/><path d="M15 20v1h1v-1" fill="#743318ff"/><path d="M16 20v1h1v-1" fill="#5d2812ff"/><path d="M17 20v1h1v-1" fill="#743318ff"/><path d="M18 20v1h1v-1" fill="#000000ff"/><path d="M19 20v1h1v-1" fill="#373127ff"/><path d="M20 20v1h1v-1" fill="#1f1d1aff"/><path d="M21 20v1h3v-1" fill="#141414ff"/><path d="M0 21v1h1v-1" fill="#ffb87eff"/><path d="M1 21v1h3v-1" fill="#141414ff"/><path d="M4 21v1h1v-1" fill="#000000ff"/><path d="M5 21v1h1v-1" fill="#743318ff"/><path d="M6 21v1h1v-1" fill="#5d2812ff"/><path d="M7 21v1h2v-1" fill="#000000ff"/><path d="M9 21v1h2v-1" fill="#c59f73ff"/><path d="M11 21v1h5v-1" fill="#000000ff"/><path d="M16 21v1h1v-1" fill="#5d2812ff"/><path d="M17 21v1h1v-1" fill="#743318ff"/><path d="M18 21v1h1v-1" fill="#000000ff"/><path d="M19 21v1h1v-1" fill="#fddd9aff"/><path d="M20 21v1h1v-1" fill="#373127ff"/><path d="M21 21v1h3v-1" fill="#141414ff"/><path d="M0 22v1h4v-1" fill="#141414ff"/><path d="M4 22v1h3v-1" fill="#000000ff"/><path d="M7 22v1h1v-1" fill="#141414ff"/><path d="M8 22v1h1v-1" fill="#000000ff"/><path d="M9 22v1h3v-1" fill="#c59f73ff"/><path d="M12 22v1h1v-1" fill="#000000ff"/><path d="M13 22v1h3v-1" fill="#141414ff"/><path d="M16 22v1h3v-1" fill="#000000ff"/><path d="M19 22v1h1v-1" fill="#373127ff"/><path d="M20 22v1h1v-1" fill="#1f1d1aff"/><path d="M21 22v1h3v-1" fill="#141414ff"/><path d="M0 23v1h8v-1" fill="#141414ff"/><path d="M8 23v1h1v-1" fill="#000000ff"/><path d="M9 23v1h3v-1" fill="#c59f73ff"/><path d="M12 23v1h1v-1" fill="#000000ff"/><path d="M13 23v1h11v-1" fill="#141414ff"/></svg>