<svg xmlns="http://www.w3.org/2000/svg" shape-rendering="crispEdges" width="24" height="24" viewBox="0 0 24 24"><path d="M0 0v1h1v-1" fill="#951b38ff"/><path d="M1 0v1h1v-1" fill="#a51c38ff"/><path d="M2 0v1h1v-1" fill="#fc2623ff"/><path d="M3 0v1h1v-1" fill="#931a37ff"/><path d="M4 0v1h1v-1" fill="#761a34ff"/><path d="M5 0v1h1v-1" fill="#4b1b2fff"/><path d="M6 0v1h1v-1" fill="#182a3dff"/><path d="M7 0v1h1v-1" fill="#341b2cff"/><path d="M8 0v1h1v-1" fill="#2f1b2bff"/><path d="M9 0v1h1v-1" fill="#4d1e2fff"/><path d="M10 0v1h1v-1" fill="#932338ff"/><path d="M11 0v1h1v-1" fill="#952238ff"/><path d="M12 0v1h1v-1" fill="#672033ff"/><path d="M13 0v1h1v-1" fill="#862137ff"/><path d="M14 0v1h1v-1" fill="#952338ff"/><path d="M15 0v1h1v-1" fill="#533346ff"/><path d="M16 0v1h1v-1" fill="#2c2e40ff"/><path d="M17 0v1h1v-1" fill="#212e40ff"/><path d="M18 0v1h1v-1" fill="#3d1c2eff"/><path d="M19 0v1h1v-1" fill="#601f31ff"/><path d="M20 0v1h3v-1" fill="#fc2623ff"/><path d="M23 0v1h1v-1" fill="#b8253dff"/><path d="M0 1v1h1v-1" fill="#631d31ff"/><path d="M1 1v1h1v-1" fill="#fc2623ff"/><path d="M2 1v1h1v-1" fill="#851c35ff"/><path d="M3 1v1h1v-1" fill="#5a1a30ff"/><path d="M4 1v1h1v-1" fill="#451b2eff"/><path d="M5 1v1h1v-1" fill="#441c2eff"/><path d="M6 1v1h1v-1" fill="#3d2b3eff"/><path d="M7 1v1h1v-1" fill="#372b3fff"/><path d="M8 1v1h1v-1" fill="#471d2fff"/><path d="M9 1v1h1v-1" fill="#4e1d2fff"/><path d="M10 1v1h3v-1" fill="#000000ff"/><path d="M13 1v1h1v-1" fill="#493145ff"/><path d="M14 1v1h1v-1" fill="#8c263cff"/><path d="M15 1v1h1v-1" fill="#94263eff"/><path d="M16 1v1h2v-1" fill="#fc2623ff"/><path d="M18 1v1h1v-1" fill="#691f33ff"/><path d="M19 1v1h1v-1" fill="#fc2623ff"/><path d="M20 1v1h2v-1" fill="#c51e22ff"/><path d="M22 1v1h2v-1" fill="#fc2623ff"/><path d="M0 2v1h1v-1" fill="#471d2fff"/><path d="M1 2v1h1v-1" fill="#fc2623ff"/><path d="M2 2v1h1v-1" fill="#551c30ff"/><path d="M3 2v1h1v-1" fill="#351b2bff"/><path d="M4 2v1h1v-1" fill="#2d1b2cff"/><path d="M5 2v1h1v-1" fill="#341b2cff"/><path d="M6 2v1h1v-1" fill="#372e41ff"/><path d="M7 2v1h1v-1" fill="#732c41ff"/><path d="M8 2v1h2v-1" fill="#000000ff"/><path d="M10 2v1h1v-1" fill="#211716ff"/><path d="M11 2v1h2v-1" fill="#372926ff"/><path d="M13 2v1h2v-1" fill="#000000ff"/><path d="M15 2v1h1v-1" fill="#a8263fff"/><path d="M16 2v1h1v-1" fill="#fc2623ff"/><path d="M17 2v1h1v-1" fill="#59283bff"/><path d="M18 2v1h1v-1" fill="#fc2623ff"/><path d="M19 2v1h1v-1" fill="#ae253cff"/><path d="M20 2v1h1v-1" fill="#fc2623ff"/><path d="M21 2v1h1v-1" fill="#b7253dff"/><path d="M22 2v1h1v-1" fill="#b6253cff"/><path d="M23 2v1h1v-1" fill="#fc2623ff"/><path d="M0 3v1h1v-1" fill="#4d1e2fff"/><path d="M1 3v1h1v-1" fill="#471d2eff"/><path d="M2 3v1h1v-1" fill="#351b2cff"/><path d="M3 3v1h1v-1" fill="#2d1b2bff"/><path d="M4 3v1h1v-1" fill="#2c1b2bff"/><path d="M5 3v1h1v-1" fill="#022e40ff"/><path d="M6 3v1h1v-1" fill="#283648ff"/><path d="M7 3v1h1v-1" fill="#000000ff"/><path d="M8 3v1h2v-1" fill="#211716ff"/><path d="M10 3v1h1v-1" fill="#372926ff"/><path d="M11 3v1h2v-1" fill="#44352eff"/><path d="M13 3v1h2v-1" fill="#372926ff"/><path d="M15 3v1h1v-1" fill="#000000ff"/><path d="M16 3v1h1v-1" fill="#3b273aff"/><path d="M17 3v1h1v-1" fill="#382c40ff"/><path d="M18 3v1h1v-1" fill="#fc2623ff"/><path d="M19 3v1h1v-1" fill="#b5263dff"/><path d="M20 3v1h1v-1" fill="#b7253dff"/><path d="M21 3v1h1v-1" fill="#fc2623ff"/><path d="M22 3v1h1v-1" fill="#97253cff"/><path d="M23 3v1h1v-1" fill="#8e273dff"/><path d="M0 4v1h1v-1" fill="#75263cff"/><path d="M1 4v1h1v-1" fill="#571e31ff"/><path d="M2 4v1h1v-1" fill="#351b2cff"/><path d="M3 4v1h3v-1" fill="#2c1b2bff"/><path d="M6 4v1h1v-1" fill="#000000ff"/><path d="M7 4v1h1v-1" fill="#756362ff"/><path d="M8 4v1h2v-1" fill="#b2a4a3ff"/><path d="M10 4v1h5v-1" fill="#f7f0eeff"/><path d="M15 4v1h1v-1" fill="#b2a4a3ff"/><path d="M16 4v1h1v-1" fill="#000000ff"/><path d="M17 4v1h1v-1" fill="#2e3143ff"/><path d="M18 4v1h1v-1" fill="#fc2623ff"/><path d="M19 4v1h1v-1" fill="#9f273eff"/><path d="M20 4v1h1v-1" fill="#ab273dff"/><path d="M21 4v1h1v-1" fill="#fc2623ff"/><path d="M22 4v1h1v-1" fill="#6f2034ff"/><path d="M23 4v1h1v-1" fill="#4e273bff"/><path d="M0 5v1h1v-1" fill="#fc2623ff"/><path d="M1 5v1h1v-1" fill="#5d2b3fff"/><path d="M2 5v1h1v-1" fill="#3e1d2dff"/><path d="M3 5v1h1v-1" fill="#2d1b2bff"/><path d="M4 5v1h1v-1" fill="#003243ff"/><path d="M5 5v1h1v-1" fill="#000000ff"/><path d="M6 5v1h1v-1" fill="#211716ff"/><path d="M7 5v1h1v-1" fill="#372926ff"/><path d="M8 5v1h1v-1" fill="#b2a4a3ff"/><path d="M9 5v1h1v-1" fill="#372926ff"/><path d="M10 5v1h1v-1" fill="#44352eff"/><path d="M11 5v1h1v-1" fill="#f7f0eeff"/><path d="M12 5v1h2v-1" fill="#44352eff"/><path d="M14 5v1h1v-1" fill="#f7f0eeff"/><path d="M15 5v1h1v-1" fill="#44352eff"/><path d="M16 5v1h1v-1" fill="#372926ff"/><path d="M17 5v1h1v-1" fill="#000000ff"/><path d="M18 5v1h1v-1" fill="#6b2a41ff"/><path d="M19 5v1h1v-1" fill="#622c41ff"/><path d="M20 5v1h1v-1" fill="#762a3fff"/><path d="M21 5v1h1v-1" fill="#fc2623ff"/><path d="M22 5v1h1v-1" fill="#6b2034ff"/><path d="M23 5v1h1v-1" fill="#66283dff"/><path d="M0 6v1h1v-1" fill="#842137ff"/><path d="M1 6v1h1v-1" fill="#561e31ff"/><path d="M2 6v1h1v-1" fill="#341b2cff"/><path d="M3 6v1h1v-1" fill="#002a3cff"/><path d="M4 6v1h1v-1" fill="#000000ff"/><path d="M5 6v1h1v-1" fill="#211716ff"/><path d="M6 6v1h1v-1" fill="#372926ff"/><path d="M7 6v1h1v-1" fill="#b2a4a3ff"/><path d="M8 6v1h1v-1" fill="#372926ff"/><path d="M9 6v1h2v-1" fill="#44352eff"/><path d="M11 6v1h1v-1" fill="#f7f0eeff"/><path d="M12 6v1h3v-1" fill="#44352eff"/><path d="M15 6v1h1v-1" fill="#f7f0eeff"/><path d="M16 6v1h1v-1" fill="#44352eff"/><path d="M17 6v1h1v-1" fill="#372926ff"/><path d="M18 6v1h1v-1" fill="#000000ff"/><path d="M19 6v1h1v-1" fill="#2c2d41ff"/><path d="M20 6v1h1v-1" fill="#242d40ff"/><path d="M21 6v1h1v-1" fill="#392d3fff"/><path d="M22 6v1h1v-1" fill="#532a3eff"/><path d="M23 6v1h1v-1" fill="#5c283fff"/><path d="M0 7v1h1v-1" fill="#461d2eff"/><path d="M1 7v1h1v-1" fill="#351b2cff"/><path d="M2 7v1h1v-1" fill="#063648ff"/><path d="M3 7v1h1v-1" fill="#000000ff"/><path d="M4 7v1h1v-1" fill="#211716ff"/><path d="M5 7v1h1v-1" fill="#372926ff"/><path d="M6 7v1h1v-1" fill="#b2a4a3ff"/><path d="M7 7v1h2v-1" fill="#372926ff"/><path d="M9 7v1h3v-1" fill="#44352eff"/><path d="M12 7v1h1v-1" fill="#f7f0eeff"/><path d="M13 7v1h3v-1" fill="#44352eff"/><path d="M16 7v1h1v-1" fill="#f7f0eeff"/><path d="M17 7v1h1v-1" fill="#44352eff"/><path d="M18 7v1h1v-1" fill="#372926ff"/><path d="M19 7v1h1v-1" fill="#000000ff"/><path d="M20 7v1h1v-1" fill="#0a3244ff"/><path d="M21 7v1h1v-1" fill="#1b273aff"/><path d="M22 7v1h1v-1" fill="#303145ff"/><path d="M23 7v1h1v-1" fill="#212b3fff"/><path d="M0 8v1h1v-1" fill="#022e40ff"/><path d="M1 8v1h1v-1" fill="#012e40ff"/><path d="M2 8v1h1v-1" fill="#000000ff"/><path d="M3 8v1h1v-1" fill="#211716ff"/><path d="M4 8v1h1v-1" fill="#372926ff"/><path d="M5 8v1h1v-1" fill="#b2a4a3ff"/><path d="M6 8v1h2v-1" fill="#372926ff"/><path d="M8 8v1h4v-1" fill="#44352eff"/><path d="M12 8v1h1v-1" fill="#f7f0eeff"/><path d="M13 8v1h4v-1" fill="#44352eff"/><path d="M17 8v1h1v-1" fill="#f7f0eeff"/><path d="M18 8v1h1v-1" fill="#44352eff"/><path d="M19 8v1h1v-1" fill="#372926ff"/><path d="M20 8v1h1v-1" fill="#000000ff"/><path d="M21 8v1h1v-1" fill="#29283dff"/><path d="M22 8v1h1v-1" fill="#352439ff"/><path d="M23 8v1h1v-1" fill="#22293cff"/><path d="M0 9v1h1v-1" fill="#00283bff"/><path d="M1 9v1h1v-1" fill="#000000ff"/><path d="M2 9v1h1v-1" fill="#211716ff"/><path d="M3 9v1h1v-1" fill="#372926ff"/><path d="M4 9v1h1v-1" fill="#b2a4a3ff"/><path d="M5 9v1h3v-1" fill="#372926ff"/><path d="M8 9v1h5v-1" fill="#44352eff"/><path d="M13 9v1h1v-1" fill="#b2a4a3ff"/><path d="M14 9v1h4v-1" fill="#44352eff"/><path d="M18 9v1h1v-1" fill="#b2a4a3ff"/><path d="M19 9v1h1v-1" fill="#44352eff"/><path d="M20 9v1h1v-1" fill="#372926ff"/><path d="M21 9v1h1v-1" fill="#000000ff"/><path d="M22 9v1h1v-1" fill="#3d2a40ff"/><path d="M23 9v1h1v-1" fill="#44253bff"/><path d="M0 10v1h1v-1" fill="#0c394dff"/><path d="M1 10v1h1v-1" fill="#2d1b2cff"/><path d="M2 10v1h19v-1" fill="#000000ff"/><path d="M21 10v1h1v-1" fill="#c51e22ff"/><path d="M22 10v1h1v-1" fill="#1e2b40ff"/><path d="M23 10v1h1v-1" fill="#3c293fff"/><path d="M0 11v1h1v-1" fill="#00273cff"/><path d="M1 11v1h1v-1" fill="#022e43ff"/><path d="M2 11v1h1v-1" fill="#06293eff"/><path d="M3 11v1h1v-1" fill="#11293fff"/><path d="M4 11v1h1v-1" fill="#372926ff"/><path d="M5 11v1h2v-1" fill="#000000ff"/><path d="M7 11v1h1v-1" fill="#c59f73ff"/><path d="M8 11v1h1v-1" fill="#dbb180ff"/><path d="M9 11v1h2v-1" fill="#a66e2cff"/><path d="M11 11v1h3v-1" fill="#dbb180ff"/><path d="M14 11v1h2v-1" fill="#a66e2cff"/><path d="M16 11v1h2v-1" fill="#000000ff"/><path d="M18 11v1h1v-1" fill="#372926ff"/><path d="M19 11v1h3v-1" fill="#c51e22ff"/><path d="M22 11v1h1v-1" fill="#1a2c43ff"/><path d="M23 11v1h1v-1" fill="#282940ff"/><path d="M0 12v1h1v-1" fill="#062e44ff"/><path d="M1 12v1h1v-1" fill="#072c41ff"/><path d="M2 12v1h1v-1" fill="#0c283fff"/><path d="M3 12v1h1v-1" fill="#1f2f45ff"/><path d="M4 12v1h1v-1" fill="#372926ff"/><path d="M5 12v1h1v-1" fill="#000000ff"/><path d="M6 12v1h1v-1" fill="#dbb180ff"/><path d="M7 12v1h1v-1" fill="#c59f73ff"/><path d="M8 12v1h1v-1" fill="#dbb180ff"/><path d="M9 12v1h1v-1" fill="#000000ff"/><path d="M10 12v1h1v-1" fill="#d29d60ff"/><path d="M11 12v1h3v-1" fill="#dbb180ff"/><path d="M14 12v1h1v-1" fill="#000000ff"/><path d="M15 12v1h1v-1" fill="#d29d60ff"/><path d="M16 12v1h2v-1" fill="#000000ff"/><path d="M18 12v1h1v-1" fill="#372926ff"/><path d="M19 12v1h2v-1" fill="#fc2623ff"/><path d="M21 12v1h1v-1" fill="#2f283fff"/><path d="M22 12v1h2v-1" fill="#c51e22ff"/><path d="M0 13v1h1v-1" fill="#172d44ff"/><path d="M1 13v1h1v-1" fill="#183045ff"/><path d="M2 13v1h1v-1" fill="#20263eff"/><path d="M3 13v1h1v-1" fill="#2c1f37ff"/><path d="M4 13v1h1v-1" fill="#372926ff"/><path d="M5 13v1h1v-1" fill="#000000ff"/><path d="M6 13v1h1v-1" fill="#dbb180ff"/><path d="M7 13v1h1v-1" fill="#c59f73ff"/><path d="M8 13v1h8v-1" fill="#dbb180ff"/><path d="M16 13v1h2v-1" fill="#000000ff"/><path d="M18 13v1h1v-1" fill="#372926ff"/><path d="M19 13v1h1v-1" fill="#59223aff"/><path d="M20 13v1h1v-1" fill="#55233aff"/><path d="M21 13v1h1v-1" fill="#50243dff"/><path d="M22 13v1h1v-1" fill="#55233bff"/><path d="M23 13v1h1v-1" fill="#5a233aff"/><path d="M0 14v1h2v-1" fill="#c51e22ff"/><path d="M2 14v1h1v-1" fill="#2d253dff"/><path d="M3 14v1h1v-1" fill="#45243cff"/><path d="M4 14v1h1v-1" fill="#372926ff"/><path d="M5 14v1h2v-1" fill="#000000ff"/><path d="M7 14v1h1v-1" fill="#c59f73ff"/><path d="M8 14v1h8v-1" fill="#dbb180ff"/><path d="M16 14v1h2v-1" fill="#000000ff"/><path d="M18 14v1h1v-1" fill="#372926ff"/><path d="M19 14v1h1v-1" fill="#5b223aff"/><path d="M20 14v1h1v-1" fill="#5a223aff"/><path d="M21 14v1h3v-1" fill="#c51e22ff"/><path d="M0 15v1h1v-1" fill="#55233bff"/><path d="M1 15v1h1v-1" fill="#4c243cff"/><path d="M2 15v1h2v-1" fill="#c51e22ff"/><path d="M4 15v1h1v-1" fill="#372926ff"/><path d="M5 15v1h2v-1" fill="#000000ff"/><path d="M7 15v1h1v-1" fill="#c59f73ff"/><path d="M8 15v1h4v-1" fill="#dbb180ff"/><path d="M12 15v1h2v-1" fill="#000000ff"/><path d="M14 15v1h2v-1" fill="#dbb180ff"/><path d="M16 15v1h2v-1" fill="#000000ff"/><path d="M18 15v1h1v-1" fill="#372926ff"/><path d="M19 15v1h3v-1" fill="#c51e22ff"/><path d="M22 15v1h1v-1" fill="#48263dff"/><path d="M23 15v1h1v-1" fill="#47233bff"/><path d="M0 16v1h3v-1" fill="#c51e22ff"/><path d="M3 16v1h1v-1" fill="#5b223aff"/><path d="M4 16v1h1v-1" fill="#372926ff"/><path d="M5 16v1h2v-1" fill="#000000ff"/><path d="M7 16v1h1v-1" fill="#c59f73ff"/><path d="M8 16v1h2v-1" fill="#dbb180ff"/><path d="M10 16v1h2v-1" fill="#292929ff"/><path d="M12 16v1h1v-1" fill="#dbb180ff"/><path d="M13 16v1h2v-1" fill="#292929ff"/><path d="M15 16v1h1v-1" fill="#dbb180ff"/><path d="M16 16v1h2v-1" fill="#000000ff"/><path d="M18 16v1h1v-1" fill="#372926ff"/><path d="M19 16v1h1v-1" fill="#c51e22ff"/><path d="M20 16v1h1v-1" fill="#26243cff"/><path d="M21 16v1h1v-1" fill="#1b2139ff"/><path d="M22 16v1h1v-1" fill="#292c44ff"/><path d="M23 16v1h1v-1" fill="#1f2941ff"/><path d="M0 17v1h1v-1" fill="#61223bff"/><path d="M1 17v1h1v-1" fill="#5b223bff"/><path d="M2 17v1h1v-1" fill="#52223bff"/><path d="M3 17v1h1v-1" fill="#c51e22ff"/><path d="M4 17v1h1v-1" fill="#372926ff"/><path d="M5 17v1h1v-1" fill="#c51e22ff"/><path d="M6 17v1h1v-1" fill="#000000ff"/><path d="M7 17v1h1v-1" fill="#c59f73ff"/><path d="M8 17v1h1v-1" fill="#dbb180ff"/><path d="M9 17v1h1v-1" fill="#292929ff"/><path d="M10 17v1h2v-1" fill="#171717ff"/><path d="M12 17v1h1v-1" fill="#dbb180ff"/><path d="M13 17v1h2v-1" fill="#171717ff"/><path d="M15 17v1h1v-1" fill="#292929ff"/><path d="M16 17v1h1v-1" fill="#000000ff"/><path d="M17 17v1h1v-1" fill="#5a213cff"/><path d="M18 17v1h1v-1" fill="#372926ff"/><path d="M19 17v1h1v-1" fill="#392142ff"/><path d="M20 17v1h1v-1" fill="#282645ff"/><path d="M21 17v1h1v-1" fill="#c51e22ff"/><path d="M22 17v1h1v-1" fill="#1c243dff"/><path d="M23 17v1h1v-1" fill="#172e47ff"/><path d="M0 18v1h2v-1" fill="#fc2623ff"/><path d="M2 18v1h1v-1" fill="#4d223eff"/><path d="M3 18v1h1v-1" fill="#63213bff"/><path d="M4 18v1h1v-1" fill="#372926ff"/><path d="M5 18v1h1v-1" fill="#961f39ff"/><path d="M6 18v1h1v-1" fill="#000000ff"/><path d="M7 18v1h1v-1" fill="#c59f73ff"/><path d="M8 18v1h2v-1" fill="#171717ff"/><path d="M10 18v1h1v-1" fill="#dbb180ff"/><path d="M11 18v1h3v-1" fill="#5a1e1eff"/><path d="M14 18v1h1v-1" fill="#dbb180ff"/><path d="M15 18v1h2v-1" fill="#171717ff"/><path d="M17 18v1h1v-1" fill="#672241ff"/><path d="M18 18v1h1v-1" fill="#372926ff"/><path d="M19 18v1h1v-1" fill="#70204bff"/><path d="M20 18v1h1v-1" fill="#5b1f45ff"/><path d="M21 18v1h1v-1" fill="#2d203eff"/><path d="M22 18v1h1v-1" fill="#1b223dff"/><path d="M23 18v1h1v-1" fill="#e81e39ff"/><path d="M0 19v1h1v-1" fill="#5f213dff"/><path d="M1 19v1h3v-1" fill="#fc2623ff"/><path d="M4 19v1h1v-1" fill="#372926ff"/><path d="M5 19v1h1v-1" fill="#fc2623ff"/><path d="M6 19v1h1v-1" fill="#000000ff"/><path d="M7 19v1h1v-1" fill="#c59f73ff"/><path d="M8 19v1h8v-1" fill="#dbb180ff"/><path d="M16 19v1h1v-1" fill="#000000ff"/><path d="M17 19v1h1v-1" fill="#001e38ff"/><path d="M18 19v1h1v-1" fill="#372926ff"/><path d="M19 19v1h2v-1" fill="#e81e39ff"/><path d="M21 19v1h1v-1" fill="#4e203eff"/><path d="M22 19v1h1v-1" fill="#33203fff"/><path d="M23 19v1h1v-1" fill="#5a1c45ff"/><path d="M0 20v1h1v-1" fill="#2f2340ff"/><path d="M1 20v1h1v-1" fill="#51213dff"/><path d="M2 20v1h1v-1" fill="#67213eff"/><path d="M3 20v1h1v-1" fill="#fc2623ff"/><path d="M4 20v1h1v-1" fill="#372926ff"/><path d="M5 20v1h1v-1" fill="#fc2623ff"/><path d="M6 20v1h1v-1" fill="#000000ff"/><path d="M7 20v1h2v-1" fill="#c59f73ff"/><path d="M9 20v1h6v-1" fill="#dbb180ff"/><path d="M15 20v1h1v-1" fill="#000000ff"/><path d="M16 20v1h1v-1" fill="#532240ff"/><path d="M17 20v1h1v-1" fill="#592241ff"/><path d="M18 20v1h1v-1" fill="#372926ff"/><path d="M19 20v1h2v-1" fill="#e81e39ff"/><path d="M21 20v1h1v-1" fill="#642240ff"/><path d="M22 20v1h1v-1" fill="#58254aff"/><path d="M23 20v1h1v-1" fill="#7e2251ff"/><path d="M0 21v1h1v-1" fill="#1e1f3bff"/><path d="M1 21v1h1v-1" fill="#39223dff"/><path d="M2 21v1h1v-1" fill="#52233cff"/><path d="M3 21v1h1v-1" fill="#55213bff"/><path d="M4 21v1h1v-1" fill="#372926ff"/><path d="M5 21v1h1v-1" fill="#fc2623ff"/><path d="M6 21v1h1v-1" fill="#000000ff"/><path d="M7 21v1h3v-1" fill="#c59f73ff"/><path d="M10 21v1h5v-1" fill="#000000ff"/><path d="M15 21v1h1v-1" fill="#4d1e39ff"/><path d="M16 21v1h1v-1" fill="#67203eff"/><path d="M17 21v1h1v-1" fill="#e81e39ff"/><path d="M18 21v1h1v-1" fill="#372926ff"/><path d="M19 21v1h1v-1" fill="#71203bff"/><path d="M20 21v1h1v-1" fill="#61203cff"/><path d="M21 21v1h1v-1" fill="#652344ff"/><path d="M22 21v1h1v-1" fill="#77204aff"/><path d="M23 21v1h1v-1" fill="#e81e39ff"/><path d="M0 22v1h1v-1" fill="#47223bff"/><path d="M1 22v1h1v-1" fill="#4d233cff"/><path d="M2 22v1h2v-1" fill="#fc2623ff"/><path d="M4 22v1h1v-1" fill="#372926ff"/><path d="M5 22v1h1v-1" fill="#8a1e39ff"/><path d="M6 22v1h1v-1" fill="#000000ff"/><path d="M7 22v1h3v-1" fill="#c59f73ff"/><path d="M10 22v1h1v-1" fill="#000000ff"/><path d="M11 22v1h1v-1" fill="#63223bff"/><path d="M12 22v1h1v-1" fill="#4f203aff"/><path d="M13 22v1h1v-1" fill="#fc2623ff"/><path d="M14 22v1h1v-1" fill="#421f3bff"/><path d="M15 22v1h1v-1" fill="#fc2623ff"/><path d="M16 22v1h1v-1" fill="#70213cff"/><path d="M17 22v1h1v-1" fill="#75213bff"/><path d="M18 22v1h1v-1" fill="#372926ff"/><path d="M19 22v1h1v-1" fill="#3c223fff"/><path d="M20 22v1h1v-1" fill="#2a203dff"/><path d="M21 22v1h1v-1" fill="#4c1e43ff"/><path d="M22 22v1h1v-1" fill="#831f50ff"/><path d="M23 22v1h1v-1" fill="#e81e39ff"/><path d="M0 23v1h2v-1" fill="#fc2623ff"/><path d="M2 23v1h1v-1" fill="#65213aff"/><path d="M3 23v1h1v-1" fill="#84203bff"/><path d="M4 23v1h1v-1" fill="#a01e39ff"/><path d="M5 23v1h1v-1" fill="#8d2039ff"/><path d="M6 23v1h1v-1" fill="#000000ff"/><path d="M7 23v1h3v-1" fill="#c59f73ff"/><path d="M10 23v1h1v-1" fill="#000000ff"/><path d="M11 23v1h1v-1" fill="#921f39ff"/><path d="M12 23v1h1v-1" fill="#fc2623ff"/><path d="M13 23v1h1v-1" fill="#3c2340ff"/><path d="M14 23v1h1v-1" fill="#181e3bff"/><path d="M15 23v1h1v-1" fill="#1f1834ff"/><path d="M16 23v1h1v-1" fill="#2f2440ff"/><path d="M17 23v1h1v-1" fill="#281b37ff"/><path d="M18 23v1h1v-1" fill="#211f3bff"/><path d="M19 23v1h1v-1" fill="#1a2946ff"/><path d="M20 23v1h1v-1" fill="#1e1a3bff"/><path d="M21 23v1h1v-1" fill="#64204cff"/><path d="M22 23v1h1v-1" fill="#8f1f52ff"/><path d="M23 23v1h1v-1" fill="#981f53ff"/></svg>