<svg xmlns="http://www.w3.org/2000/svg" shape-rendering="crispEdges" width="24" height="24" viewBox="0 0 24 24"><path d="M0 0v1h24v-1" fill="#ffffffff"/><path d="M0 1v1h1v-1" fill="#ffffffff"/><path d="M1 1v1h1v-1" fill="#000000ff"/><path d="M2 1v1h1v-1" fill="#ffffffff"/><path d="M3 1v1h20v-1" fill="#000000ff"/><path d="M23 1v1h1v-1" fill="#ffffffff"/><path d="M0 2v1h1v-1" fill="#ffffffff"/><path d="M1 2v1h1v-1" fill="#000000ff"/><path d="M2 2v1h1v-1" fill="#ffffffff"/><path d="M3 2v1h1v-1" fill="#000000ff"/><path d="M4 2v1h7v-1" fill="#ffffffff"/><path d="M11 2v1h1v-1" fill="#000000ff"/><path d="M12 2v1h7v-1" fill="#ffffffff"/><path d="M19 2v1h1v-1" fill="#000000ff"/><path d="M20 2v1h2v-1" fill="#ffffffff"/><path d="M22 2v1h1v-1" fill="#000000ff"/><path d="M23 2v1h1v-1" fill="#ffffffff"/><path d="M0 3v1h1v-1" fill="#ffffffff"/><path d="M1 3v1h1v-1" fill="#000000ff"/><path d="M2 3v1h1v-1" fill="#ffffffff"/><path d="M3 3v1h1v-1" fill="#000000ff"/><path d="M4 3v1h1v-1" fill="#ffffffff"/><path d="M5 3v1h5v-1" fill="#000000ff"/><path d="M10 3v1h1v-1" fill="#ffffffff"/><path d="M11 3v1h1v-1" fill="#000000ff"/><path d="M12 3v1h1v-1" fill="#ffffffff"/><path d="M13 3v1h5v-1" fill="#000000ff"/><path d="M18 3v1h1v-1" fill="#ffffffff"/><path d="M19 3v1h1v-1" fill="#000000ff"/><path d="M20 3v1h2v-1" fill="#ffffffff"/><path d="M22 3v1h1v-1" fill="#000000ff"/><path d="M23 3v1h1v-1" fill="#ffffffff"/><path d="M0 4v1h1v-1" fill="#ffffffff"/><path d="M1 4v1h1v-1" fill="#000000ff"/><path d="M2 4v1h1v-1" fill="#ffffffff"/><path d="M3 4v1h1v-1" fill="#000000ff"/><path d="M4 4v1h1v-1" fill="#ffffffff"/><path d="M5 4v1h1v-1" fill="#000000ff"/><path d="M6 4v1h5v-1" fill="#ffffffff"/><path d="M11 4v1h1v-1" fill="#000000ff"/><path d="M12 4v1h1v-1" fill="#ffffffff"/><path d="M13 4v1h1v-1" fill="#000000ff"/><path d="M14 4v1h5v-1" fill="#ffffffff"/><path d="M19 4v1h1v-1" fill="#000000ff"/><path d="M20 4v1h1v-1" fill="#ffffffff"/><path d="M21 4v1h2v-1" fill="#000000ff"/><path d="M23 4v1h1v-1" fill="#ffffffff"/><path d="M0 5v1h1v-1" fill="#ffffffff"/><path d="M1 5v1h1v-1" fill="#000000ff"/><path d="M2 5v1h3v-1" fill="#ffffffff"/><path d="M5 5v1h1v-1" fill="#000000ff"/><path d="M6 5v1h2v-1" fill="#ffffffff"/><path d="M8 5v1h8v-1" fill="#000000ff"/><path d="M16 5v1h1v-1" fill="#ffffffff"/><path d="M17 5v1h3v-1" fill="#000000ff"/><path d="M20 5v1h2v-1" fill="#ffffffff"/><path d="M22 5v1h1v-1" fill="#000000ff"/><path d="M23 5v1h1v-1" fill="#ffffffff"/><path d="M0 6v1h1v-1" fill="#ffffffff"/><path d="M1 6v1h1v-1" fill="#000000ff"/><path d="M2 6v1h1v-1" fill="#ffffffff"/><path d="M3 6v1h5v-1" fill="#000000ff"/><path d="M8 6v1h7v-1" fill="#ead9d9ff"/><path d="M15 6v1h1v-1" fill="#000000ff"/><path d="M16 6v1h6v-1" fill="#ffffffff"/><path d="M22 6v1h1v-1" fill="#000000ff"/><path d="M23 6v1h1v-1" fill="#ffffffff"/><path d="M0 7v1h1v-1" fill="#ffffffff"/><path d="M1 7v1h1v-1" fill="#000000ff"/><path d="M2 7v1h1v-1" fill="#ffffffff"/><path d="M3 7v1h1v-1" fill="#000000ff"/><path d="M4 7v1h2v-1" fill="#ffffffff"/><path d="M6 7v1h1v-1" fill="#000000ff"/><path d="M7 7v1h1v-1" fill="#d3c3c3ff"/><path d="M8 7v1h5v-1" fill="#ead9d9ff"/><path d="M13 7v1h1v-1" fill="#fbf7f7ff"/><path d="M14 7v1h2v-1" fill="#ead9d9ff"/><path d="M16 7v1h7v-1" fill="#000000ff"/><path d="M23 7v1h1v-1" fill="#ffffffff"/><path d="M0 8v1h24v-1" fill="#ee1010ff"/><path d="M0 9v1h4v-1" fill="#ee1010ff"/><path d="M4 9v1h4v-1" fill="#ffffffff"/><path d="M8 9v1h3v-1" fill="#ee1010ff"/><path d="M11 9v1h1v-1" fill="#ffffffff"/><path d="M12 9v1h1v-1" fill="#ee1010ff"/><path d="M13 9v1h1v-1" fill="#ffffffff"/><path d="M14 9v1h2v-1" fill="#ee1010ff"/><path d="M16 9v1h4v-1" fill="#ffffffff"/><path d="M20 9v1h4v-1" fill="#ee1010ff"/><path d="M0 10v1h4v-1" fill="#ee1010ff"/><path d="M4 10v1h1v-1" fill="#ffffffff"/><path d="M5 10v1h3v-1" fill="#ee1010ff"/><path d="M8 10v1h1v-1" fill="#ffffffff"/><path d="M9 10v1h1v-1" fill="#ee1010ff"/><path d="M10 10v1h1v-1" fill="#ffffffff"/><path d="M11 10v1h1v-1" fill="#ee1010ff"/><path d="M12 10v1h1v-1" fill="#ffffffff"/><path d="M13 10v1h1v-1" fill="#ee1010ff"/><path d="M14 10v1h1v-1" fill="#ffffffff"/><path d="M15 10v1h1v-1" fill="#ee1010ff"/><path d="M16 10v1h1v-1" fill="#ffffffff"/><path d="M17 10v1h3v-1" fill="#ee1010ff"/><path d="M20 10v1h1v-1" fill="#ffffffff"/><path d="M21 10v1h3v-1" fill="#ee1010ff"/><path d="M0 11v1h4v-1" fill="#ee1010ff"/><path d="M4 11v1h4v-1" fill="#ffffffff"/><path d="M8 11v1h2v-1" fill="#ee1010ff"/><path d="M10 11v1h1v-1" fill="#ffffffff"/><path d="M11 11v1h1v-1" fill="#ee1010ff"/><path d="M12 11v1h1v-1" fill="#ffffffff"/><path d="M13 11v1h1v-1" fill="#ee1010ff"/><path d="M14 11v1h1v-1" fill="#ffffffff"/><path d="M15 11v1h1v-1" fill="#ee1010ff"/><path d="M16 11v1h1v-1" fill="#ffffffff"/><path d="M17 11v1h3v-1" fill="#ee1010ff"/><path d="M20 11v1h1v-1" fill="#ffffffff"/><path d="M21 11v1h3v-1" fill="#ee1010ff"/><path d="M0 12v1h4v-1" fill="#ee1010ff"/><path d="M4 12v1h1v-1" fill="#ffffffff"/><path d="M5 12v1h3v-1" fill="#ee1010ff"/><path d="M8 12v1h1v-1" fill="#ffffffff"/><path d="M9 12v1h1v-1" fill="#ee1010ff"/><path d="M10 12v1h1v-1" fill="#ffffffff"/><path d="M11 12v1h1v-1" fill="#ee1010ff"/><path d="M12 12v1h1v-1" fill="#ffffffff"/><path d="M13 12v1h1v-1" fill="#ee1010ff"/><path d="M14 12v1h1v-1" fill="#ffffffff"/><path d="M15 12v1h1v-1" fill="#ee1010ff"/><path d="M16 12v1h4v-1" fill="#ffffffff"/><path d="M20 12v1h4v-1" fill="#ee1010ff"/><path d="M0 13v1h4v-1" fill="#ee1010ff"/><path d="M4 13v1h4v-1" fill="#ffffffff"/><path d="M8 13v1h2v-1" fill="#ee1010ff"/><path d="M10 13v1h1v-1" fill="#ffffffff"/><path d="M11 13v1h1v-1" fill="#ee1010ff"/><path d="M12 13v1h1v-1" fill="#ffffffff"/><path d="M13 13v1h1v-1" fill="#ee1010ff"/><path d="M14 13v1h1v-1" fill="#ffffffff"/><path d="M15 13v1h1v-1" fill="#ee1010ff"/><path d="M16 13v1h1v-1" fill="#ffffffff"/><path d="M17 13v1h7v-1" fill="#ee1010ff"/><path d="M0 14v1h24v-1" fill="#ee1010ff"/><path d="M0 15v1h1v-1" fill="#ffffffff"/><path d="M1 15v1h1v-1" fill="#000000ff"/><path d="M2 15v1h1v-1" fill="#ffffffff"/><path d="M3 15v1h1v-1" fill="#000000ff"/><path d="M4 15v1h2v-1" fill="#ffffffff"/><path d="M6 15v1h1v-1" fill="#000000ff"/><path d="M7 15v1h1v-1" fill="#d3c3c3ff"/><path d="M8 15v1h4v-1" fill="#ead9d9ff"/><path d="M12 15v1h2v-1" fill="#000000ff"/><path d="M14 15v1h2v-1" fill="#ead9d9ff"/><path d="M16 15v1h1v-1" fill="#000000ff"/><path d="M17 15v1h1v-1" fill="#ffffffff"/><path d="M18 15v1h1v-1" fill="#000000ff"/><path d="M19 15v1h1v-1" fill="#ffffffff"/><path d="M20 15v1h1v-1" fill="#000000ff"/><path d="M21 15v1h1v-1" fill="#ffffffff"/><path d="M22 15v1h1v-1" fill="#000000ff"/><path d="M23 15v1h1v-1" fill="#ffffffff"/><path d="M0 16v1h1v-1" fill="#ffffffff"/><path d="M1 16v1h1v-1" fill="#000000ff"/><path d="M2 16v1h1v-1" fill="#ffffffff"/><path d="M3 16v1h1v-1" fill="#000000ff"/><path d="M4 16v1h1v-1" fill="#ffffffff"/><path d="M5 16v1h2v-1" fill="#000000ff"/><path d="M7 16v1h1v-1" fill="#d3c3c3ff"/><path d="M8 16v1h8v-1" fill="#ead9d9ff"/><path d="M16 16v1h1v-1" fill="#000000ff"/><path d="M17 16v1h1v-1" fill="#ffffffff"/><path d="M18 16v1h1v-1" fill="#000000ff"/><path d="M19 16v1h1v-1" fill="#ffffffff"/><path d="M20 16v1h1v-1" fill="#000000ff"/><path d="M21 16v1h1v-1" fill="#ffffffff"/><path d="M22 16v1h1v-1" fill="#000000ff"/><path d="M23 16v1h1v-1" fill="#ffffffff"/><path d="M0 17v1h1v-1" fill="#ffffffff"/><path d="M1 17v1h1v-1" fill="#000000ff"/><path d="M2 17v1h1v-1" fill="#ffffffff"/><path d="M3 17v1h1v-1" fill="#000000ff"/><path d="M4 17v1h1v-1" fill="#ffffffff"/><path d="M5 17v1h2v-1" fill="#000000ff"/><path d="M7 17v1h1v-1" fill="#d3c3c3ff"/><path d="M8 17v1h2v-1" fill="#ead9d9ff"/><path d="M10 17v1h1v-1" fill="#e8e8e8ff"/><path d="M11 17v1h1v-1" fill="#c2c2c2ff"/><path d="M12 17v1h1v-1" fill="#e8e8e8ff"/><path d="M13 17v1h1v-1" fill="#c2c2c2ff"/><path d="M14 17v1h1v-1" fill="#e8e8e8ff"/><path d="M15 17v1h1v-1" fill="#ead9d9ff"/><path d="M16 17v1h1v-1" fill="#000000ff"/><path d="M17 17v1h1v-1" fill="#ffffffff"/><path d="M18 17v1h1v-1" fill="#000000ff"/><path d="M19 17v1h3v-1" fill="#ffffffff"/><path d="M22 17v1h1v-1" fill="#000000ff"/><path d="M23 17v1h1v-1" fill="#ffffffff"/><path d="M0 18v1h1v-1" fill="#ffffffff"/><path d="M1 18v1h1v-1" fill="#000000ff"/><path d="M2 18v1h1v-1" fill="#ffffffff"/><path d="M3 18v1h1v-1" fill="#000000ff"/><path d="M4 18v1h1v-1" fill="#ffffffff"/><path d="M5 18v1h2v-1" fill="#000000ff"/><path d="M7 18v1h1v-1" fill="#d3c3c3ff"/><path d="M8 18v1h2v-1" fill="#ead9d9ff"/><path d="M10 18v1h1v-1" fill="#c2c2c2ff"/><path d="M11 18v1h3v-1" fill="#000000ff"/><path d="M14 18v1h1v-1" fill="#c2c2c2ff"/><path d="M15 18v1h1v-1" fill="#ead9d9ff"/><path d="M16 18v1h1v-1" fill="#000000ff"/><path d="M17 18v1h1v-1" fill="#ffffffff"/><path d="M18 18v1h5v-1" fill="#000000ff"/><path d="M23 18v1h1v-1" fill="#ffffffff"/><path d="M0 19v1h1v-1" fill="#ffffffff"/><path d="M1 19v1h1v-1" fill="#000000ff"/><path d="M2 19v1h1v-1" fill="#ffffffff"/><path d="M3 19v1h1v-1" fill="#000000ff"/><path d="M4 19v1h1v-1" fill="#ffffffff"/><path d="M5 19v1h2v-1" fill="#000000ff"/><path d="M7 19v1h1v-1" fill="#d3c3c3ff"/><path d="M8 19v1h2v-1" fill="#ead9d9ff"/><path d="M10 19v1h1v-1" fill="#c2c2c2ff"/><path d="M11 19v1h1v-1" fill="#e8e8e8ff"/><path d="M12 19v1h1v-1" fill="#c2c2c2ff"/><path d="M13 19v1h1v-1" fill="#e8e8e8ff"/><path d="M14 19v1h1v-1" fill="#c2c2c2ff"/><path d="M15 19v1h1v-1" fill="#ead9d9ff"/><path d="M16 19v1h1v-1" fill="#000000ff"/><path d="M17 19v1h5v-1" fill="#ffffffff"/><path d="M22 19v1h1v-1" fill="#000000ff"/><path d="M23 19v1h1v-1" fill="#ffffffff"/><path d="M0 20v1h1v-1" fill="#ffffffff"/><path d="M1 20v1h1v-1" fill="#000000ff"/><path d="M2 20v1h1v-1" fill="#ffffffff"/><path d="M3 20v1h1v-1" fill="#000000ff"/><path d="M4 20v1h1v-1" fill="#ffffffff"/><path d="M5 20v1h2v-1" fill="#000000ff"/><path d="M7 20v1h2v-1" fill="#d3c3c3ff"/><path d="M9 20v1h2v-1" fill="#ead9d9ff"/><path d="M11 20v1h3v-1" fill="#c2c2c2ff"/><path d="M14 20v1h1v-1" fill="#ead9d9ff"/><path d="M15 20v1h6v-1" fill="#000000ff"/><path d="M21 20v1h1v-1" fill="#ffffffff"/><path d="M22 20v1h1v-1" fill="#000000ff"/><path d="M23 20v1h1v-1" fill="#ffffffff"/><path d="M0 21v1h1v-1" fill="#ffffffff"/><path d="M1 21v1h1v-1" fill="#000000ff"/><path d="M2 21v1h3v-1" fill="#ffffffff"/><path d="M5 21v1h2v-1" fill="#000000ff"/><path d="M7 21v1h3v-1" fill="#d3c3c3ff"/><path d="M10 21v1h1v-1" fill="#000000ff"/><path d="M11 21v1h3v-1" fill="#c2c2c2ff"/><path d="M14 21v1h1v-1" fill="#000000ff"/><path d="M15 21v1h5v-1" fill="#ffffffff"/><path d="M20 21v1h1v-1" fill="#000000ff"/><path d="M21 21v1h1v-1" fill="#ffffffff"/><path d="M22 21v1h1v-1" fill="#000000ff"/><path d="M23 21v1h1v-1" fill="#ffffffff"/><path d="M0 22v1h1v-1" fill="#ffffffff"/><path d="M1 22v1h6v-1" fill="#000000ff"/><path d="M7 22v1h3v-1" fill="#d3c3c3ff"/><path d="M10 22v1h11v-1" fill="#000000ff"/><path d="M21 22v1h3v-1" fill="#ffffffff"/><path d="M0 23v1h6v-1" fill="#ffffffff"/><path d="M6 23v1h1v-1" fill="#000000ff"/><path d="M7 23v1h3v-1" fill="#d3c3c3ff"/><path d="M10 23v1h1v-1" fill="#000000ff"/><path d="M11 23v1h13v-1" fill="#ffffffff"/></svg>