<svg xmlns="http://www.w3.org/2000/svg" shape-rendering="crispEdges" width="24" height="24" viewBox="0 0 24 24"><path d="M0 0v1h24v-1" fill="#f6be11ff"/><path d="M0 1v1h7v-1" fill="#f6be11ff"/><path d="M7 1v1h3v-1" fill="#000000ff"/><path d="M10 1v1h4v-1" fill="#f6be11ff"/><path d="M14 1v1h3v-1" fill="#000000ff"/><path d="M17 1v1h7v-1" fill="#f6be11ff"/><path d="M0 2v1h5v-1" fill="#f6be11ff"/><path d="M5 2v1h2v-1" fill="#000000ff"/><path d="M7 2v1h3v-1" fill="#f6c620ff"/><path d="M10 2v1h4v-1" fill="#000000ff"/><path d="M14 2v1h3v-1" fill="#3d54ffff"/><path d="M17 2v1h1v-1" fill="#000000ff"/><path d="M18 2v1h6v-1" fill="#f6be11ff"/><path d="M0 3v1h4v-1" fill="#f6be11ff"/><path d="M4 3v1h1v-1" fill="#000000ff"/><path d="M5 3v1h2v-1" fill="#f6c620ff"/><path d="M7 3v1h1v-1" fill="#9f3123ff"/><path d="M8 3v1h1v-1" fill="#af3627ff"/><path d="M9 3v1h1v-1" fill="#e6454aff"/><path d="M10 3v1h2v-1" fill="#f6c620ff"/><path d="M12 3v1h2v-1" fill="#3d54ffff"/><path d="M14 3v1h1v-1" fill="#f6c620ff"/><path d="M15 3v1h2v-1" fill="#e79d0fff"/><path d="M17 3v1h1v-1" fill="#3d54ffff"/><path d="M18 3v1h1v-1" fill="#000000ff"/><path d="M19 3v1h5v-1" fill="#f6be11ff"/><path d="M0 4v1h3v-1" fill="#f6be11ff"/><path d="M3 4v1h1v-1" fill="#000000ff"/><path d="M4 4v1h1v-1" fill="#f6c620ff"/><path d="M5 4v1h2v-1" fill="#9f3123ff"/><path d="M7 4v1h2v-1" fill="#af3627ff"/><path d="M9 4v1h3v-1" fill="#e6454aff"/><path d="M12 4v1h3v-1" fill="#fff43cff"/><path d="M15 4v1h1v-1" fill="#f6c620ff"/><path d="M16 4v1h2v-1" fill="#e79d0fff"/><path d="M18 4v1h1v-1" fill="#3d54ffff"/><path d="M19 4v1h1v-1" fill="#000000ff"/><path d="M20 4v1h4v-1" fill="#f6be11ff"/><path d="M0 5v1h2v-1" fill="#f6be11ff"/><path d="M2 5v1h1v-1" fill="#000000ff"/><path d="M3 5v1h1v-1" fill="#ffffffff"/><path d="M4 5v1h1v-1" fill="#000000ff"/><path d="M5 5v1h3v-1" fill="#af3627ff"/><path d="M8 5v1h4v-1" fill="#e6454aff"/><path d="M12 5v1h3v-1" fill="#fff43cff"/><path d="M15 5v1h2v-1" fill="#f6c620ff"/><path d="M17 5v1h1v-1" fill="#e79d0fff"/><path d="M18 5v1h1v-1" fill="#000000ff"/><path d="M19 5v1h1v-1" fill="#ffffffff"/><path d="M20 5v1h1v-1" fill="#000000ff"/><path d="M21 5v1h3v-1" fill="#f6be11ff"/><path d="M0 6v1h1v-1" fill="#f6be11ff"/><path d="M1 6v1h1v-1" fill="#000000ff"/><path d="M2 6v1h3v-1" fill="#ffffffff"/><path d="M5 6v1h1v-1" fill="#000000ff"/><path d="M6 6v1h2v-1" fill="#af3627ff"/><path d="M8 6v1h4v-1" fill="#e6454aff"/><path d="M12 6v1h3v-1" fill="#fff43cff"/><path d="M15 6v1h1v-1" fill="#f6c620ff"/><path d="M16 6v1h1v-1" fill="#e79d0fff"/><path d="M17 6v1h1v-1" fill="#000000ff"/><path d="M18 6v1h3v-1" fill="#ffffffff"/><path d="M21 6v1h1v-1" fill="#000000ff"/><path d="M22 6v1h2v-1" fill="#f6be11ff"/><path d="M0 7v1h2v-1" fill="#f6be11ff"/><path d="M2 7v1h1v-1" fill="#000000ff"/><path d="M3 7v1h1v-1" fill="#ffffffff"/><path d="M4 7v1h1v-1" fill="#000000ff"/><path d="M5 7v1h1v-1" fill="#f6be11ff"/><path d="M6 7v1h1v-1" fill="#000000ff"/><path d="M7 7v1h1v-1" fill="#af3627ff"/><path d="M8 7v1h4v-1" fill="#e6454aff"/><path d="M12 7v1h3v-1" fill="#fff43cff"/><path d="M15 7v1h1v-1" fill="#f6c620ff"/><path d="M16 7v1h1v-1" fill="#e79d0fff"/><path d="M17 7v1h2v-1" fill="#000000ff"/><path d="M19 7v1h1v-1" fill="#ffffffff"/><path d="M20 7v1h1v-1" fill="#000000ff"/><path d="M21 7v1h3v-1" fill="#f6be11ff"/><path d="M0 8v1h3v-1" fill="#f6be11ff"/><path d="M3 8v1h1v-1" fill="#000000ff"/><path d="M4 8v1h2v-1" fill="#f6be11ff"/><path d="M6 8v1h1v-1" fill="#000000ff"/><path d="M7 8v1h10v-1" fill="#7cdc4aff"/><path d="M17 8v1h1v-1" fill="#000000ff"/><path d="M18 8v1h1v-1" fill="#f6be11ff"/><path d="M19 8v1h1v-1" fill="#000000ff"/><path d="M20 8v1h4v-1" fill="#f6be11ff"/><path d="M0 9v1h6v-1" fill="#f6be11ff"/><path d="M6 9v1h1v-1" fill="#000000ff"/><path d="M7 9v1h10v-1" fill="#61ca2aff"/><path d="M17 9v1h1v-1" fill="#000000ff"/><path d="M18 9v1h6v-1" fill="#f6be11ff"/><path d="M0 10v1h7v-1" fill="#f6be11ff"/><path d="M7 10v1h10v-1" fill="#000000ff"/><path d="M17 10v1h7v-1" fill="#f6be11ff"/><path d="M0 11v1h7v-1" fill="#f6be11ff"/><path d="M7 11v1h1v-1" fill="#000000ff"/><path d="M8 11v1h1v-1" fill="#c1915bff"/><path d="M9 11v1h7v-1" fill="#d6a165ff"/><path d="M16 11v1h1v-1" fill="#000000ff"/><path d="M17 11v1h7v-1" fill="#f6be11ff"/><path d="M0 12v1h6v-1" fill="#f6be11ff"/><path d="M6 12v1h1v-1" fill="#000000ff"/><path d="M7 12v1h1v-1" fill="#d6a165ff"/><path d="M8 12v1h1v-1" fill="#c1915bff"/><path d="M9 12v1h2v-1" fill="#b57535ff"/><path d="M11 12v1h3v-1" fill="#d6a165ff"/><path d="M14 12v1h2v-1" fill="#b57535ff"/><path d="M16 12v1h1v-1" fill="#000000ff"/><path d="M17 12v1h7v-1" fill="#f6be11ff"/><path d="M0 13v1h6v-1" fill="#f6be11ff"/><path d="M6 13v1h1v-1" fill="#000000ff"/><path d="M7 13v1h1v-1" fill="#d6a165ff"/><path d="M8 13v1h1v-1" fill="#c1915bff"/><path d="M9 13v1h1v-1" fill="#000000ff"/><path d="M10 13v1h1v-1" fill="#c9904dff"/><path d="M11 13v1h3v-1" fill="#d6a165ff"/><path d="M14 13v1h1v-1" fill="#000000ff"/><path d="M15 13v1h1v-1" fill="#c9904dff"/><path d="M16 13v1h1v-1" fill="#000000ff"/><path d="M17 13v1h7v-1" fill="#f6be11ff"/><path d="M0 14v1h6v-1" fill="#f6be11ff"/><path d="M6 14v1h1v-1" fill="#ccccccff"/><path d="M7 14v1h1v-1" fill="#000000ff"/><path d="M8 14v1h1v-1" fill="#c1915bff"/><path d="M9 14v1h7v-1" fill="#d6a165ff"/><path d="M16 14v1h1v-1" fill="#000000ff"/><path d="M17 14v1h7v-1" fill="#f6be11ff"/><path d="M0 15v1h7v-1" fill="#f6be11ff"/><path d="M7 15v1h1v-1" fill="#000000ff"/><path d="M8 15v1h1v-1" fill="#c1915bff"/><path d="M9 15v1h7v-1" fill="#d6a165ff"/><path d="M16 15v1h1v-1" fill="#000000ff"/><path d="M17 15v1h7v-1" fill="#f6be11ff"/><path d="M0 16v1h7v-1" fill="#f6be11ff"/><path d="M7 16v1h1v-1" fill="#000000ff"/><path d="M8 16v1h1v-1" fill="#c1915bff"/><path d="M9 16v1h3v-1" fill="#d6a165ff"/><path d="M12 16v1h1v-1" fill="#000000ff"/><path d="M13 16v1h3v-1" fill="#d6a165ff"/><path d="M16 16v1h1v-1" fill="#000000ff"/><path d="M17 16v1h7v-1" fill="#f6be11ff"/><path d="M0 17v1h7v-1" fill="#f6be11ff"/><path d="M7 17v1h1v-1" fill="#000000ff"/><path d="M8 17v1h1v-1" fill="#c1915bff"/><path d="M9 17v1h7v-1" fill="#d6a165ff"/><path d="M16 17v1h1v-1" fill="#000000ff"/><path d="M17 17v1h7v-1" fill="#f6be11ff"/><path d="M0 18v1h7v-1" fill="#f6be11ff"/><path d="M7 18v1h1v-1" fill="#000000ff"/><path d="M8 18v1h1v-1" fill="#c1915bff"/><path d="M9 18v1h2v-1" fill="#d6a165ff"/><path d="M11 18v1h3v-1" fill="#e67355ff"/><path d="M14 18v1h2v-1" fill="#d6a165ff"/><path d="M16 18v1h1v-1" fill="#000000ff"/><path d="M17 18v1h7v-1" fill="#f6be11ff"/><path d="M0 19v1h8v-1" fill="#f6be11ff"/><path d="M8 19v1h1v-1" fill="#000000ff"/><path d="M9 19v1h1v-1" fill="#c1915bff"/><path d="M10 19v1h5v-1" fill="#d6a165ff"/><path d="M15 19v1h1v-1" fill="#000000ff"/><path d="M16 19v1h8v-1" fill="#f6be11ff"/><path d="M0 20v1h8v-1" fill="#f6be11ff"/><path d="M8 20v1h1v-1" fill="#000000ff"/><path d="M9 20v1h1v-1" fill="#c1915bff"/><path d="M10 20v1h1v-1" fill="#000000ff"/><path d="M11 20v1h3v-1" fill="#d6a165ff"/><path d="M14 20v1h1v-1" fill="#000000ff"/><path d="M15 20v1h9v-1" fill="#f6be11ff"/><path d="M0 21v1h8v-1" fill="#f6be11ff"/><path d="M8 21v1h1v-1" fill="#000000ff"/><path d="M9 21v1h2v-1" fill="#c1915bff"/><path d="M11 21v1h3v-1" fill="#000000ff"/><path d="M14 21v1h10v-1" fill="#f6be11ff"/><path d="M0 22v1h8v-1" fill="#f6be11ff"/><path d="M8 22v1h1v-1" fill="#000000ff"/><path d="M9 22v1h3v-1" fill="#c1915bff"/><path d="M12 22v1h1v-1" fill="#000000ff"/><path d="M13 22v1h11v-1" fill="#f6be11ff"/><path d="M0 23v1h8v-1" fill="#f6be11ff"/><path d="M8 23v1h1v-1" fill="#000000ff"/><path d="M9 23v1h3v-1" fill="#c1915bff"/><path d="M12 23v1h1v-1" fill="#000000ff"/><path d="M13 23v1h11v-1" fill="#f6be11ff"/></svg>