<svg xmlns="http://www.w3.org/2000/svg" shape-rendering="crispEdges" width="24" height="24" viewBox="0 0 24 24"><path d="M0 0v1h1v-1" fill="#000000ff"/><path d="M1 0v1h1v-1" fill="#c0bebfff"/><path d="M2 0v1h1v-1" fill="#fbfbfbff"/><path d="M3 0v1h1v-1" fill="#807f7eff"/><path d="M4 0v1h9v-1" fill="#000000ff"/><path d="M13 0v1h1v-1" fill="#8b3b1eff"/><path d="M14 0v1h1v-1" fill="#a15c2bff"/><path d="M15 0v1h1v-1" fill="#89381dff"/><path d="M16 0v1h4v-1" fill="#000000ff"/><path d="M20 0v1h1v-1" fill="#8b3b1eff"/><path d="M21 0v1h1v-1" fill="#a15c2bff"/><path d="M22 0v1h1v-1" fill="#89381dff"/><path d="M23 0v1h1v-1" fill="#000000ff"/><path d="M0 1v1h1v-1" fill="#000000ff"/><path d="M1 1v1h1v-1" fill="#c0bebfff"/><path d="M2 1v1h2v-1" fill="#807f7eff"/><path d="M4 1v1h9v-1" fill="#000000ff"/><path d="M13 1v1h1v-1" fill="#a15c2bff"/><path d="M14 1v1h1v-1" fill="#89381dff"/><path d="M15 1v1h1v-1" fill="#a15c2bff"/><path d="M16 1v1h1v-1" fill="#000000ff"/><path d="M17 1v1h1v-1" fill="#eee578ff"/><path d="M18 1v1h2v-1" fill="#000000ff"/><path d="M20 1v1h1v-1" fill="#a15c2bff"/><path d="M21 1v1h1v-1" fill="#89381dff"/><path d="M22 1v1h1v-1" fill="#a15c2bff"/><path d="M23 1v1h1v-1" fill="#000000ff"/><path d="M0 2v1h8v-1" fill="#000000ff"/><path d="M8 2v1h1v-1" fill="#df980eff"/><path d="M9 2v1h2v-1" fill="#ffd440ff"/><path d="M11 2v1h1v-1" fill="#242222ff"/><path d="M12 2v1h1v-1" fill="#df980eff"/><path d="M13 2v1h2v-1" fill="#000000ff"/><path d="M15 2v1h1v-1" fill="#89381dff"/><path d="M16 2v1h1v-1" fill="#edd971ff"/><path d="M17 2v1h1v-1" fill="#d3c159ff"/><path d="M18 2v1h1v-1" fill="#edd971ff"/><path d="M19 2v1h1v-1" fill="#000000ff"/><path d="M20 2v1h1v-1" fill="#89381dff"/><path d="M21 2v1h1v-1" fill="#a15c2bff"/><path d="M22 2v1h1v-1" fill="#89381dff"/><path d="M23 2v1h1v-1" fill="#c0bebfff"/><path d="M0 3v1h6v-1" fill="#000000ff"/><path d="M6 3v1h2v-1" fill="#df980eff"/><path d="M8 3v1h4v-1" fill="#ffd440ff"/><path d="M12 3v1h1v-1" fill="#242222ff"/><path d="M13 3v1h2v-1" fill="#df980eff"/><path d="M15 3v1h1v-1" fill="#000000ff"/><path d="M16 3v1h1v-1" fill="#edd971ff"/><path d="M17 3v1h1v-1" fill="#7c8629ff"/><path d="M18 3v1h1v-1" fill="#edd971ff"/><path d="M19 3v1h1v-1" fill="#000000ff"/><path d="M20 3v1h1v-1" fill="#a15c2bff"/><path d="M21 3v1h1v-1" fill="#89381dff"/><path d="M22 3v1h1v-1" fill="#a15c2bff"/><path d="M23 3v1h1v-1" fill="#c0bebfff"/><path d="M0 4v1h1v-1" fill="#000000ff"/><path d="M1 4v1h1v-1" fill="#8b3b1eff"/><path d="M2 4v1h1v-1" fill="#a15c2bff"/><path d="M3 4v1h1v-1" fill="#89381dff"/><path d="M4 4v1h1v-1" fill="#000000ff"/><path d="M5 4v1h1v-1" fill="#b86708ff"/><path d="M6 4v1h1v-1" fill="#df980eff"/><path d="M7 4v1h6v-1" fill="#ffd440ff"/><path d="M13 4v1h1v-1" fill="#242222ff"/><path d="M14 4v1h1v-1" fill="#ffd440ff"/><path d="M15 4v1h1v-1" fill="#df980eff"/><path d="M16 4v1h4v-1" fill="#000000ff"/><path d="M20 4v1h1v-1" fill="#c0bebfff"/><path d="M21 4v1h1v-1" fill="#fbfbfbff"/><path d="M22 4v1h1v-1" fill="#807f7eff"/><path d="M23 4v1h1v-1" fill="#000000ff"/><path d="M0 5v1h1v-1" fill="#000000ff"/><path d="M1 5v1h1v-1" fill="#a15c2bff"/><path d="M2 5v1h1v-1" fill="#89381dff"/><path d="M3 5v1h1v-1" fill="#a15c2bff"/><path d="M4 5v1h1v-1" fill="#000000ff"/><path d="M5 5v1h1v-1" fill="#b86708ff"/><path d="M6 5v1h1v-1" fill="#df980eff"/><path d="M7 5v1h5v-1" fill="#ffd440ff"/><path d="M12 5v1h4v-1" fill="#242222ff"/><path d="M16 5v1h1v-1" fill="#df980eff"/><path d="M17 5v1h3v-1" fill="#000000ff"/><path d="M20 5v1h1v-1" fill="#c0bebfff"/><path d="M21 5v1h2v-1" fill="#807f7eff"/><path d="M23 5v1h1v-1" fill="#000000ff"/><path d="M0 6v1h1v-1" fill="#000000ff"/><path d="M1 6v1h1v-1" fill="#89381dff"/><path d="M2 6v1h1v-1" fill="#a15c2bff"/><path d="M3 6v1h1v-1" fill="#89381dff"/><path d="M4 6v1h1v-1" fill="#000000ff"/><path d="M5 6v1h1v-1" fill="#b86708ff"/><path d="M6 6v1h1v-1" fill="#df980eff"/><path d="M7 6v1h4v-1" fill="#ffd440ff"/><path d="M11 6v1h1v-1" fill="#242222ff"/><path d="M12 6v1h1v-1" fill="#e5ff9eff"/><path d="M13 6v1h2v-1" fill="#fff8beff"/><path d="M15 6v1h1v-1" fill="#f2f88eff"/><path d="M16 6v1h1v-1" fill="#928a50ff"/><path d="M17 6v1h1v-1" fill="#80793fff"/><path d="M18 6v1h2v-1" fill="#80783eff"/><path d="M20 6v1h1v-1" fill="#c4944dff"/><path d="M21 6v1h1v-1" fill="#d0a654ff"/><path d="M22 6v1h1v-1" fill="#c4954dff"/><path d="M23 6v1h1v-1" fill="#9fbe5fff"/><path d="M0 7v1h1v-1" fill="#000000ff"/><path d="M1 7v1h1v-1" fill="#a15c2bff"/><path d="M2 7v1h1v-1" fill="#89381dff"/><path d="M3 7v1h1v-1" fill="#a15c2bff"/><path d="M4 7v1h3v-1" fill="#000000ff"/><path d="M7 7v1h5v-1" fill="#242222ff"/><path d="M12 7v1h1v-1" fill="#e5ff9eff"/><path d="M13 7v1h2v-1" fill="#fff8beff"/><path d="M15 7v1h1v-1" fill="#f2f88eff"/><path d="M16 7v1h1v-1" fill="#928a50ff"/><path d="M17 7v1h1v-1" fill="#80793fff"/><path d="M18 7v1h2v-1" fill="#80783eff"/><path d="M20 7v1h1v-1" fill="#d0a654ff"/><path d="M21 7v1h1v-1" fill="#c4944dff"/><path d="M22 7v1h1v-1" fill="#d0a654ff"/><path d="M23 7v1h1v-1" fill="#cbef78ff"/><path d="M0 8v1h5v-1" fill="#000000ff"/><path d="M5 8v1h2v-1" fill="#b86708ff"/><path d="M7 8v1h1v-1" fill="#df980eff"/><path d="M8 8v1h1v-1" fill="#242222ff"/><path d="M9 8v1h3v-1" fill="#df980eff"/><path d="M12 8v1h4v-1" fill="#242222ff"/><path d="M16 8v1h1v-1" fill="#df980eff"/><path d="M17 8v1h6v-1" fill="#000000ff"/><path d="M23 8v1h1v-1" fill="#3f8b41ff"/><path d="M0 9v1h5v-1" fill="#000000ff"/><path d="M5 9v1h1v-1" fill="#b86708ff"/><path d="M6 9v1h1v-1" fill="#df980eff"/><path d="M7 9v1h1v-1" fill="#242222ff"/><path d="M8 9v1h1v-1" fill="#b86708ff"/><path d="M9 9v1h1v-1" fill="#df980eff"/><path d="M10 9v1h8v-1" fill="#ffd440ff"/><path d="M18 9v1h5v-1" fill="#000000ff"/><path d="M23 9v1h1v-1" fill="#97ee73ff"/><path d="M0 10v1h1v-1" fill="#89381dff"/><path d="M1 10v1h1v-1" fill="#000000ff"/><path d="M2 10v1h1v-1" fill="#f1cea4ff"/><path d="M3 10v1h2v-1" fill="#000000ff"/><path d="M5 10v1h2v-1" fill="#df980eff"/><path d="M7 10v1h1v-1" fill="#000000ff"/><path d="M8 10v1h8v-1" fill="#f1cea4ff"/><path d="M16 10v1h2v-1" fill="#000000ff"/><path d="M18 10v1h1v-1" fill="#f1cea4ff"/><path d="M19 10v1h4v-1" fill="#000000ff"/><path d="M23 10v1h1v-1" fill="#3f8b41ff"/><path d="M0 11v1h1v-1" fill="#a15c2bff"/><path d="M1 11v1h1v-1" fill="#000000ff"/><path d="M2 11v1h3v-1" fill="#f1cea4ff"/><path d="M5 11v1h2v-1" fill="#000000ff"/><path d="M7 11v1h1v-1" fill="#deab7cff"/><path d="M8 11v1h1v-1" fill="#f1cea4ff"/><path d="M9 11v1h2v-1" fill="#8bc41aff"/><path d="M11 11v1h3v-1" fill="#f1cea4ff"/><path d="M14 11v1h2v-1" fill="#8bc41aff"/><path d="M16 11v1h1v-1" fill="#000000ff"/><path d="M17 11v1h1v-1" fill="#f1cea4ff"/><path d="M18 11v1h1v-1" fill="#deab7cff"/><path d="M19 11v1h4v-1" fill="#000000ff"/><path d="M23 11v1h1v-1" fill="#97ee73ff"/><path d="M0 12v1h1v-1" fill="#000000ff"/><path d="M1 12v1h1v-1" fill="#c0bebfff"/><path d="M2 12v1h1v-1" fill="#000000ff"/><path d="M3 12v1h1v-1" fill="#deab7cff"/><path d="M4 12v1h1v-1" fill="#000000ff"/><path d="M5 12v1h3v-1" fill="#deab7cff"/><path d="M8 12v1h1v-1" fill="#f1cea4ff"/><path d="M9 12v1h1v-1" fill="#5c8709ff"/><path d="M10 12v1h1v-1" fill="#a0e41dff"/><path d="M11 12v1h3v-1" fill="#f1cea4ff"/><path d="M14 12v1h1v-1" fill="#5c8709ff"/><path d="M15 12v1h1v-1" fill="#a0e41dff"/><path d="M16 12v1h1v-1" fill="#000000ff"/><path d="M17 12v1h1v-1" fill="#deab7cff"/><path d="M18 12v1h1v-1" fill="#000000ff"/><path d="M19 12v1h1v-1" fill="#8b3b1eff"/><path d="M20 12v1h1v-1" fill="#a15c2bff"/><path d="M21 12v1h1v-1" fill="#89381dff"/><path d="M22 12v1h1v-1" fill="#a15c2bff"/><path d="M23 12v1h1v-1" fill="#000000ff"/><path d="M0 13v1h1v-1" fill="#000000ff"/><path d="M1 13v1h1v-1" fill="#c0bebfff"/><path d="M2 13v1h1v-1" fill="#807f7eff"/><path d="M3 13v1h1v-1" fill="#000000ff"/><path d="M4 13v1h1v-1" fill="#deab7cff"/><path d="M5 13v1h1v-1" fill="#000000ff"/><path d="M6 13v1h2v-1" fill="#deab7cff"/><path d="M8 13v1h8v-1" fill="#f1cea4ff"/><path d="M16 13v1h3v-1" fill="#000000ff"/><path d="M19 13v1h1v-1" fill="#a15c2bff"/><path d="M20 13v1h1v-1" fill="#89381dff"/><path d="M21 13v1h1v-1" fill="#a15c2bff"/><path d="M22 13v1h1v-1" fill="#89381dff"/><path d="M23 13v1h1v-1" fill="#000000ff"/><path d="M0 14v1h1v-1" fill="#000000ff"/><path d="M1 14v1h1v-1" fill="#c0bebfff"/><path d="M2 14v1h1v-1" fill="#fbfbfbff"/><path d="M3 14v1h1v-1" fill="#807f7eff"/><path d="M4 14v1h1v-1" fill="#000000ff"/><path d="M5 14v1h1v-1" fill="#deab7cff"/><path d="M6 14v1h1v-1" fill="#000000ff"/><path d="M7 14v1h1v-1" fill="#deab7cff"/><path d="M8 14v1h8v-1" fill="#f1cea4ff"/><path d="M16 14v1h8v-1" fill="#000000ff"/><path d="M0 15v1h1v-1" fill="#000000ff"/><path d="M1 15v1h1v-1" fill="#c0bebfff"/><path d="M2 15v1h2v-1" fill="#807f7eff"/><path d="M4 15v1h3v-1" fill="#000000ff"/><path d="M7 15v1h1v-1" fill="#deab7cff"/><path d="M8 15v1h4v-1" fill="#f1cea4ff"/><path d="M12 15v1h2v-1" fill="#000000ff"/><path d="M14 15v1h2v-1" fill="#f1cea4ff"/><path d="M16 15v1h8v-1" fill="#000000ff"/><path d="M0 16v1h1v-1" fill="#000000ff"/><path d="M1 16v1h1v-1" fill="#89381dff"/><path d="M2 16v1h1v-1" fill="#a15c2bff"/><path d="M3 16v1h1v-1" fill="#89381dff"/><path d="M4 16v1h3v-1" fill="#000000ff"/><path d="M7 16v1h1v-1" fill="#deab7cff"/><path d="M8 16v1h7v-1" fill="#f1cea4ff"/><path d="M15 16v1h3v-1" fill="#ce2e91ff"/><path d="M18 16v1h1v-1" fill="#000000ff"/><path d="M19 16v1h1v-1" fill="#89381dff"/><path d="M20 16v1h1v-1" fill="#a15c2bff"/><path d="M21 16v1h1v-1" fill="#89381dff"/><path d="M22 16v1h1v-1" fill="#a15c2bff"/><path d="M23 16v1h1v-1" fill="#fbfbfbff"/><path d="M0 17v1h1v-1" fill="#000000ff"/><path d="M1 17v1h1v-1" fill="#a15c2bff"/><path d="M2 17v1h1v-1" fill="#89381dff"/><path d="M3 17v1h1v-1" fill="#a15c2bff"/><path d="M4 17v1h3v-1" fill="#000000ff"/><path d="M7 17v1h1v-1" fill="#deab7cff"/><path d="M8 17v1h2v-1" fill="#f1cea4ff"/><path d="M10 17v1h1v-1" fill="#000000ff"/><path d="M11 17v1h3v-1" fill="#f1cea4ff"/><path d="M14 17v1h1v-1" fill="#ce2e91ff"/><path d="M15 17v1h1v-1" fill="#f37fb9ff"/><path d="M16 17v1h1v-1" fill="#dc609bff"/><path d="M17 17v1h1v-1" fill="#f37fb9ff"/><path d="M18 17v1h1v-1" fill="#ce2e91ff"/><path d="M19 17v1h1v-1" fill="#a15c2bff"/><path d="M20 17v1h1v-1" fill="#89381dff"/><path d="M21 17v1h1v-1" fill="#a15c2bff"/><path d="M22 17v1h1v-1" fill="#89381dff"/><path d="M23 17v1h1v-1" fill="#c0bebfff"/><path d="M0 18v1h1v-1" fill="#000000ff"/><path d="M1 18v1h1v-1" fill="#89381dff"/><path d="M2 18v1h1v-1" fill="#a15c2bff"/><path d="M3 18v1h1v-1" fill="#89381dff"/><path d="M4 18v1h3v-1" fill="#000000ff"/><path d="M7 18v1h1v-1" fill="#deab7cff"/><path d="M8 18v1h3v-1" fill="#f1cea4ff"/><path d="M11 18v1h2v-1" fill="#000000ff"/><path d="M13 18v1h1v-1" fill="#ce2e91ff"/><path d="M14 18v1h2v-1" fill="#f37fb9ff"/><path d="M16 18v1h1v-1" fill="#dc609bff"/><path d="M17 18v1h1v-1" fill="#f5f5f5ff"/><path d="M18 18v1h1v-1" fill="#dc609bff"/><path d="M19 18v1h1v-1" fill="#ce2e91ff"/><path d="M20 18v1h4v-1" fill="#000000ff"/><path d="M0 19v1h1v-1" fill="#000000ff"/><path d="M1 19v1h1v-1" fill="#a15c2bff"/><path d="M2 19v1h1v-1" fill="#89381dff"/><path d="M3 19v1h1v-1" fill="#a15c2bff"/><path d="M4 19v1h3v-1" fill="#000000ff"/><path d="M7 19v1h2v-1" fill="#deab7cff"/><path d="M9 19v1h4v-1" fill="#f1cea4ff"/><path d="M13 19v1h1v-1" fill="#ce2e91ff"/><path d="M14 19v1h2v-1" fill="#f37fb9ff"/><path d="M16 19v1h2v-1" fill="#dc609bff"/><path d="M18 19v1h1v-1" fill="#f37fb9ff"/><path d="M19 19v1h1v-1" fill="#ce2e91ff"/><path d="M20 19v1h4v-1" fill="#000000ff"/><path d="M0 20v1h7v-1" fill="#000000ff"/><path d="M7 20v1h2v-1" fill="#deab7cff"/><path d="M9 20v1h5v-1" fill="#f1cea4ff"/><path d="M14 20v1h1v-1" fill="#ce2e91ff"/><path d="M15 20v1h2v-1" fill="#dc609bff"/><path d="M17 20v1h1v-1" fill="#f37fb9ff"/><path d="M18 20v1h1v-1" fill="#ce2e91ff"/><path d="M19 20v1h1v-1" fill="#89381dff"/><path d="M20 20v1h1v-1" fill="#a15c2bff"/><path d="M21 20v1h1v-1" fill="#89381dff"/><path d="M22 20v1h2v-1" fill="#000000ff"/><path d="M0 21v1h7v-1" fill="#000000ff"/><path d="M7 21v1h3v-1" fill="#deab7cff"/><path d="M10 21v1h5v-1" fill="#000000ff"/><path d="M15 21v1h3v-1" fill="#ce2e91ff"/><path d="M18 21v1h1v-1" fill="#000000ff"/><path d="M19 21v1h1v-1" fill="#a15c2bff"/><path d="M20 21v1h1v-1" fill="#89381dff"/><path d="M21 21v1h1v-1" fill="#a15c2bff"/><path d="M22 21v1h2v-1" fill="#000000ff"/><path d="M0 22v1h1v-1" fill="#000000ff"/><path d="M1 22v1h1v-1" fill="#89381dff"/><path d="M2 22v1h1v-1" fill="#a15c2bff"/><path d="M3 22v1h1v-1" fill="#89381dff"/><path d="M4 22v1h3v-1" fill="#000000ff"/><path d="M7 22v1h3v-1" fill="#deab7cff"/><path d="M10 22v1h1v-1" fill="#000000ff"/><path d="M11 22v1h1v-1" fill="#7d7d79ff"/><path d="M12 22v1h1v-1" fill="#000000ff"/><path d="M13 22v1h1v-1" fill="#7d7d79ff"/><path d="M14 22v1h1v-1" fill="#a15c2bff"/><path d="M15 22v1h1v-1" fill="#89381dff"/><path d="M16 22v1h3v-1" fill="#000000ff"/><path d="M19 22v1h1v-1" fill="#89381dff"/><path d="M20 22v1h1v-1" fill="#a15c2bff"/><path d="M21 22v1h1v-1" fill="#89381dff"/><path d="M22 22v1h1v-1" fill="#a15c2bff"/><path d="M23 22v1h1v-1" fill="#89381dff"/><path d="M0 23v1h1v-1" fill="#000000ff"/><path d="M1 23v1h1v-1" fill="#a15c2bff"/><path d="M2 23v1h1v-1" fill="#89381dff"/><path d="M3 23v1h1v-1" fill="#a15c2bff"/><path d="M4 23v1h3v-1" fill="#000000ff"/><path d="M7 23v1h3v-1" fill="#deab7cff"/><path d="M10 23v1h1v-1" fill="#000000ff"/><path d="M11 23v1h1v-1" fill="#62454dff"/><path d="M12 23v1h1v-1" fill="#7d7d79ff"/><path d="M13 23v1h1v-1" fill="#000000ff"/><path d="M14 23v1h1v-1" fill="#89381dff"/><path d="M15 23v1h1v-1" fill="#a15c2bff"/><path d="M16 23v1h3v-1" fill="#000000ff"/><path d="M19 23v1h1v-1" fill="#a15c2bff"/><path d="M20 23v1h1v-1" fill="#89381dff"/><path d="M21 23v1h1v-1" fill="#a15c2bff"/><path d="M22 23v1h1v-1" fill="#89381dff"/><path d="M23 23v1h1v-1" fill="#a15c2bff"/></svg>