<svg xmlns="http://www.w3.org/2000/svg" shape-rendering="crispEdges" width="24" height="24" viewBox="0 0 24 24"><path d="M0 0v1h24v-1" fill="#f6be11ff"/><path d="M0 1v1h24v-1" fill="#f6be11ff"/><path d="M0 2v1h8v-1" fill="#f6be11ff"/><path d="M8 2v1h7v-1" fill="#000000ff"/><path d="M15 2v1h9v-1" fill="#f6be11ff"/><path d="M0 3v1h7v-1" fill="#f6be11ff"/><path d="M7 3v1h1v-1" fill="#000000ff"/><path d="M8 3v1h5v-1" fill="#ff6820ff"/><path d="M13 3v1h1v-1" fill="#ff8950ff"/><path d="M14 3v1h1v-1" fill="#ff6820ff"/><path d="M15 3v1h1v-1" fill="#000000ff"/><path d="M16 3v1h8v-1" fill="#f6be11ff"/><path d="M0 4v1h6v-1" fill="#f6be11ff"/><path d="M6 4v1h1v-1" fill="#000000ff"/><path d="M7 4v1h7v-1" fill="#ff6820ff"/><path d="M14 4v1h1v-1" fill="#ff8950ff"/><path d="M15 4v1h1v-1" fill="#ff6820ff"/><path d="M16 4v1h1v-1" fill="#000000ff"/><path d="M17 4v1h7v-1" fill="#f6be11ff"/><path d="M0 5v1h5v-1" fill="#f6be11ff"/><path d="M5 5v1h1v-1" fill="#000000ff"/><path d="M6 5v1h1v-1" fill="#b2b7c3ff"/><path d="M7 5v1h4v-1" fill="#ffffffff"/><path d="M11 5v1h1v-1" fill="#060482ff"/><path d="M12 5v1h1v-1" fill="#050579ff"/><path d="M13 5v1h3v-1" fill="#ffffffff"/><path d="M16 5v1h1v-1" fill="#000000ff"/><path d="M17 5v1h7v-1" fill="#f6be11ff"/><path d="M0 6v1h4v-1" fill="#f6be11ff"/><path d="M4 6v1h1v-1" fill="#3df6cbff"/><path d="M5 6v1h1v-1" fill="#000000ff"/><path d="M6 6v1h1v-1" fill="#b2b7c3ff"/><path d="M7 6v1h4v-1" fill="#ffffffff"/><path d="M11 6v1h1v-1" fill="#060482ff"/><path d="M12 6v1h1v-1" fill="#050579ff"/><path d="M13 6v1h3v-1" fill="#ffffffff"/><path d="M16 6v1h1v-1" fill="#000000ff"/><path d="M17 6v1h7v-1" fill="#f6be11ff"/><path d="M0 7v1h5v-1" fill="#f6be11ff"/><path d="M5 7v1h1v-1" fill="#000000ff"/><path d="M6 7v1h1v-1" fill="#3df6cbff"/><path d="M7 7v1h1v-1" fill="#117553ff"/><path d="M8 7v1h9v-1" fill="#00793eff"/><path d="M17 7v1h1v-1" fill="#00030bff"/><path d="M18 7v1h1v-1" fill="#000000ff"/><path d="M19 7v1h5v-1" fill="#f6be11ff"/><path d="M0 8v1h5v-1" fill="#f6be11ff"/><path d="M5 8v1h1v-1" fill="#142424ff"/><path d="M6 8v1h1v-1" fill="#3df6cbff"/><path d="M7 8v1h1v-1" fill="#148b59ff"/><path d="M8 8v1h10v-1" fill="#14b55aff"/><path d="M18 8v1h1v-1" fill="#3df6cbff"/><path d="M19 8v1h1v-1" fill="#000000ff"/><path d="M20 8v1h4v-1" fill="#f6be11ff"/><path d="M0 9v1h4v-1" fill="#f6be11ff"/><path d="M4 9v1h1v-1" fill="#000000ff"/><path d="M5 9v1h1v-1" fill="#233030ff"/><path d="M6 9v1h1v-1" fill="#68adacff"/><path d="M7 9v1h1v-1" fill="#233d3bff"/><path d="M8 9v1h1v-1" fill="#111f1dff"/><path d="M9 9v1h1v-1" fill="#030505ff"/><path d="M10 9v1h5v-1" fill="#000000ff"/><path d="M15 9v1h1v-1" fill="#3df6cbff"/><path d="M16 9v1h1v-1" fill="#000000ff"/><path d="M17 9v1h1v-1" fill="#142424ff"/><path d="M18 9v1h1v-1" fill="#111f1fff"/><path d="M19 9v1h1v-1" fill="#000000ff"/><path d="M20 9v1h4v-1" fill="#f6be11ff"/><path d="M0 10v1h4v-1" fill="#f6be11ff"/><path d="M4 10v1h1v-1" fill="#000000ff"/><path d="M5 10v1h1v-1" fill="#2d2f2fff"/><path d="M6 10v1h1v-1" fill="#2f4746ff"/><path d="M7 10v1h1v-1" fill="#20d1a8ff"/><path d="M8 10v1h1v-1" fill="#3df6cbff"/><path d="M9 10v1h1v-1" fill="#ccbc8bff"/><path d="M10 10v1h1v-1" fill="#d5b27aff"/><path d="M11 10v1h1v-1" fill="#dca96bff"/><path d="M12 10v1h1v-1" fill="#dea869ff"/><path d="M13 10v1h1v-1" fill="#252727ff"/><path d="M14 10v1h1v-1" fill="#3df6cbff"/><path d="M15 10v1h1v-1" fill="#ccbc8bff"/><path d="M16 10v1h1v-1" fill="#3df6cbff"/><path d="M17 10v1h1v-1" fill="#20d1a8ff"/><path d="M18 10v1h1v-1" fill="#111f1fff"/><path d="M19 10v1h5v-1" fill="#f6be11ff"/><path d="M0 11v1h4v-1" fill="#f6be11ff"/><path d="M4 11v1h1v-1" fill="#000000ff"/><path d="M5 11v1h1v-1" fill="#2b2b2bff"/><path d="M6 11v1h1v-1" fill="#263535ff"/><path d="M7 11v1h1v-1" fill="#20d1a8ff"/><path d="M8 11v1h3v-1" fill="#3df6cbff"/><path d="M11 11v1h1v-1" fill="#cdbb88ff"/><path d="M12 11v1h1v-1" fill="#dbab6eff"/><path d="M13 11v1h1v-1" fill="#cdbb88ff"/><path d="M14 11v1h3v-1" fill="#3df6cbff"/><path d="M17 11v1h1v-1" fill="#20d1a8ff"/><path d="M18 11v1h1v-1" fill="#111f1fff"/><path d="M19 11v1h5v-1" fill="#f6be11ff"/><path d="M0 12v1h5v-1" fill="#f6be11ff"/><path d="M5 12v1h1v-1" fill="#000000ff"/><path d="M6 12v1h1v-1" fill="#d5b27bff"/><path d="M7 12v1h2v-1" fill="#20d1a8ff"/><path d="M9 12v1h3v-1" fill="#3df6cbff"/><path d="M12 12v1h1v-1" fill="#cbbc8bff"/><path d="M13 12v1h3v-1" fill="#3df6cbff"/><path d="M16 12v1h2v-1" fill="#20d1a8ff"/><path d="M18 12v1h1v-1" fill="#f4bf15ff"/><path d="M19 12v1h5v-1" fill="#f6be11ff"/><path d="M0 13v1h5v-1" fill="#f6be11ff"/><path d="M5 13v1h1v-1" fill="#000000ff"/><path d="M6 13v1h1v-1" fill="#dca96bff"/><path d="M7 13v1h1v-1" fill="#bcad81ff"/><path d="M8 13v1h4v-1" fill="#20d1a8ff"/><path d="M12 13v1h1v-1" fill="#cbbc8bff"/><path d="M13 13v1h4v-1" fill="#20d1a8ff"/><path d="M17 13v1h1v-1" fill="#eac52dff"/><path d="M18 13v1h6v-1" fill="#f6be11ff"/><path d="M0 14v1h5v-1" fill="#f6be11ff"/><path d="M5 14v1h2v-1" fill="#000000ff"/><path d="M7 14v1h1v-1" fill="#c79962ff"/><path d="M8 14v1h1v-1" fill="#d5b27aff"/><path d="M9 14v1h2v-1" fill="#d3b47eff"/><path d="M11 14v1h1v-1" fill="#d5b27aff"/><path d="M12 14v1h1v-1" fill="#dbab6eff"/><path d="M13 14v1h1v-1" fill="#d5b27aff"/><path d="M14 14v1h2v-1" fill="#d3b47eff"/><path d="M16 14v1h1v-1" fill="#111f1dff"/><path d="M17 14v1h1v-1" fill="#f4bf15ff"/><path d="M18 14v1h6v-1" fill="#f6be11ff"/><path d="M0 15v1h6v-1" fill="#f6be11ff"/><path d="M6 15v1h1v-1" fill="#000000ff"/><path d="M7 15v1h1v-1" fill="#c8975fff"/><path d="M8 15v1h4v-1" fill="#dea869ff"/><path d="M12 15v1h2v-1" fill="#000000ff"/><path d="M14 15v1h2v-1" fill="#dea869ff"/><path d="M16 15v1h1v-1" fill="#000000ff"/><path d="M17 15v1h7v-1" fill="#f6be11ff"/><path d="M0 16v1h6v-1" fill="#f6be11ff"/><path d="M6 16v1h1v-1" fill="#000000ff"/><path d="M7 16v1h1v-1" fill="#c8975fff"/><path d="M8 16v1h3v-1" fill="#dea869ff"/><path d="M11 16v1h1v-1" fill="#2b2b2bff"/><path d="M12 16v1h2v-1" fill="#1e1e1eff"/><path d="M14 16v1h1v-1" fill="#2b2b2bff"/><path d="M15 16v1h1v-1" fill="#dea869ff"/><path d="M16 16v1h1v-1" fill="#000000ff"/><path d="M17 16v1h7v-1" fill="#f6be11ff"/><path d="M0 17v1h6v-1" fill="#f6be11ff"/><path d="M6 17v1h1v-1" fill="#000000ff"/><path d="M7 17v1h1v-1" fill="#c8975fff"/><path d="M8 17v1h1v-1" fill="#dea869ff"/><path d="M9 17v1h1v-1" fill="#2b2b2bff"/><path d="M10 17v1h1v-1" fill="#1e1e1eff"/><path d="M11 17v1h4v-1" fill="#dea869ff"/><path d="M15 17v1h1v-1" fill="#1e1e1eff"/><path d="M16 17v1h1v-1" fill="#2b2b2bff"/><path d="M17 17v1h7v-1" fill="#f6be11ff"/><path d="M0 18v1h6v-1" fill="#f6be11ff"/><path d="M6 18v1h1v-1" fill="#000000ff"/><path d="M7 18v1h1v-1" fill="#c8975fff"/><path d="M8 18v1h3v-1" fill="#dea869ff"/><path d="M11 18v1h3v-1" fill="#5a1e1eff"/><path d="M14 18v1h2v-1" fill="#dea869ff"/><path d="M16 18v1h1v-1" fill="#000000ff"/><path d="M17 18v1h7v-1" fill="#f6be11ff"/><path d="M0 19v1h6v-1" fill="#f6be11ff"/><path d="M6 19v1h1v-1" fill="#000000ff"/><path d="M7 19v1h1v-1" fill="#c8975fff"/><path d="M8 19v1h8v-1" fill="#dea869ff"/><path d="M16 19v1h1v-1" fill="#000000ff"/><path d="M17 19v1h7v-1" fill="#f6be11ff"/><path d="M0 20v1h6v-1" fill="#f6be11ff"/><path d="M6 20v1h1v-1" fill="#000000ff"/><path d="M7 20v1h2v-1" fill="#c8975fff"/><path d="M9 20v1h6v-1" fill="#dea869ff"/><path d="M15 20v1h1v-1" fill="#000000ff"/><path d="M16 20v1h8v-1" fill="#f6be11ff"/><path d="M0 21v1h6v-1" fill="#f6be11ff"/><path d="M6 21v1h1v-1" fill="#000000ff"/><path d="M7 21v1h3v-1" fill="#c8975fff"/><path d="M10 21v1h5v-1" fill="#000000ff"/><path d="M15 21v1h9v-1" fill="#f6be11ff"/><path d="M0 22v1h6v-1" fill="#f6be11ff"/><path d="M6 22v1h1v-1" fill="#000000ff"/><path d="M7 22v1h3v-1" fill="#c8975fff"/><path d="M10 22v1h1v-1" fill="#000000ff"/><path d="M11 22v1h13v-1" fill="#f6be11ff"/><path d="M0 23v1h6v-1" fill="#f6be11ff"/><path d="M6 23v1h1v-1" fill="#000000ff"/><path d="M7 23v1h3v-1" fill="#c8975fff"/><path d="M10 23v1h1v-1" fill="#000000ff"/><path d="M11 23v1h13v-1" fill="#f6be11ff"/></svg>