<svg xmlns="http://www.w3.org/2000/svg" shape-rendering="crispEdges" width="24" height="24" viewBox="0 0 24 24"><path d="M0 0v1h5v-1" fill="#ffffffff"/><path d="M5 0v1h1v-1" fill="#1badbdff"/><path d="M6 0v1h2v-1" fill="#ffffffff"/><path d="M8 0v1h1v-1" fill="#e40243ff"/><path d="M9 0v1h8v-1" fill="#ffffffff"/><path d="M17 0v1h2v-1" fill="#901ed6ff"/><path d="M19 0v1h1v-1" fill="#651497ff"/><path d="M20 0v1h3v-1" fill="#901ed6ff"/><path d="M23 0v1h1v-1" fill="#ffffffff"/><path d="M0 1v1h4v-1" fill="#ffffffff"/><path d="M4 1v1h1v-1" fill="#1badbdff"/><path d="M5 1v1h2v-1" fill="#ffffffff"/><path d="M7 1v1h7v-1" fill="#000000ff"/><path d="M14 1v1h2v-1" fill="#ffffffff"/><path d="M16 1v1h1v-1" fill="#651497ff"/><path d="M17 1v1h7v-1" fill="#ffffffff"/><path d="M0 2v1h3v-1" fill="#c5edffff"/><path d="M3 2v1h1v-1" fill="#1165a2ff"/><path d="M4 2v1h1v-1" fill="#c5edffff"/><path d="M5 2v1h2v-1" fill="#000000ff"/><path d="M7 2v1h1v-1" fill="#1f2185ff"/><path d="M8 2v1h6v-1" fill="#4043deff"/><path d="M14 2v1h2v-1" fill="#000000ff"/><path d="M16 2v1h1v-1" fill="#901ed6ff"/><path d="M17 2v1h3v-1" fill="#ffffffff"/><path d="M20 2v1h4v-1" fill="#c5edffff"/><path d="M0 3v1h3v-1" fill="#ffffffff"/><path d="M3 3v1h1v-1" fill="#1165a2ff"/><path d="M4 3v1h1v-1" fill="#000000ff"/><path d="M5 3v1h2v-1" fill="#1f2185ff"/><path d="M7 3v1h7v-1" fill="#2d2fb4ff"/><path d="M14 3v1h2v-1" fill="#4043deff"/><path d="M16 3v1h1v-1" fill="#000000ff"/><path d="M17 3v1h2v-1" fill="#ffffffff"/><path d="M19 3v1h1v-1" fill="#c5edffff"/><path d="M20 3v1h3v-1" fill="#ffffffff"/><path d="M23 3v1h1v-1" fill="#1badbdff"/><path d="M0 4v1h1v-1" fill="#1f62d6ff"/><path d="M1 4v1h1v-1" fill="#134293ff"/><path d="M2 4v1h1v-1" fill="#1f62d6ff"/><path d="M3 4v1h1v-1" fill="#000000ff"/><path d="M4 4v1h2v-1" fill="#1f2185ff"/><path d="M6 4v1h10v-1" fill="#2d2fb4ff"/><path d="M16 4v1h1v-1" fill="#4043deff"/><path d="M17 4v1h1v-1" fill="#000000ff"/><path d="M18 4v1h1v-1" fill="#ffffffff"/><path d="M19 4v1h1v-1" fill="#c5edffff"/><path d="M20 4v1h2v-1" fill="#ffffffff"/><path d="M22 4v1h1v-1" fill="#1badbdff"/><path d="M23 4v1h1v-1" fill="#ffffffff"/><path d="M0 5v1h2v-1" fill="#ffffffff"/><path d="M2 5v1h1v-1" fill="#000000ff"/><path d="M3 5v1h2v-1" fill="#1f2185ff"/><path d="M5 5v1h12v-1" fill="#2d2fb4ff"/><path d="M17 5v1h1v-1" fill="#4043deff"/><path d="M18 5v1h1v-1" fill="#000000ff"/><path d="M19 5v1h1v-1" fill="#c5edffff"/><path d="M20 5v1h1v-1" fill="#ffffffff"/><path d="M21 5v1h1v-1" fill="#1badbdff"/><path d="M22 5v1h2v-1" fill="#ffffffff"/><path d="M0 6v1h2v-1" fill="#ffffffff"/><path d="M2 6v1h1v-1" fill="#000000ff"/><path d="M3 6v1h1v-1" fill="#1f2185ff"/><path d="M4 6v1h4v-1" fill="#2d2fb4ff"/><path d="M8 6v1h8v-1" fill="#000000ff"/><path d="M16 6v1h3v-1" fill="#2d2fb4ff"/><path d="M19 6v1h1v-1" fill="#000000ff"/><path d="M20 6v1h1v-1" fill="#ffffffff"/><path d="M21 6v1h1v-1" fill="#1165a2ff"/><path d="M22 6v1h2v-1" fill="#ffffffff"/><path d="M0 7v1h1v-1" fill="#ffffffff"/><path d="M1 7v1h1v-1" fill="#000000ff"/><path d="M2 7v1h2v-1" fill="#1f2185ff"/><path d="M4 7v1h3v-1" fill="#2d2fb4ff"/><path d="M7 7v1h10v-1" fill="#000000ff"/><path d="M17 7v1h2v-1" fill="#2d2fb4ff"/><path d="M19 7v1h1v-1" fill="#000000ff"/><path d="M20 7v1h1v-1" fill="#ffffffff"/><path d="M21 7v1h1v-1" fill="#1badbdff"/><path d="M22 7v1h2v-1" fill="#ffffffff"/><path d="M0 8v1h1v-1" fill="#ffffffff"/><path d="M1 8v1h1v-1" fill="#000000ff"/><path d="M2 8v1h2v-1" fill="#1f2185ff"/><path d="M4 8v1h2v-1" fill="#2d2fb4ff"/><path d="M6 8v1h3v-1" fill="#000000ff"/><path d="M9 8v1h5v-1" fill="#ffd51fff"/><path d="M14 8v1h1v-1" fill="#f9e27cff"/><path d="M15 8v1h3v-1" fill="#000000ff"/><path d="M18 8v1h2v-1" fill="#2d2fb4ff"/><path d="M20 8v1h1v-1" fill="#000000ff"/><path d="M21 8v1h1v-1" fill="#f2dd1fff"/><path d="M22 8v1h1v-1" fill="#ba7f11ff"/><path d="M23 8v1h1v-1" fill="#f2dd1fff"/><path d="M0 9v1h1v-1" fill="#f69a1fff"/><path d="M1 9v1h1v-1" fill="#000000ff"/><path d="M2 9v1h1v-1" fill="#1f2185ff"/><path d="M3 9v1h2v-1" fill="#2d2fb4ff"/><path d="M5 9v1h2v-1" fill="#000000ff"/><path d="M7 9v1h1v-1" fill="#0365caff"/><path d="M8 9v1h1v-1" fill="#e3b029ff"/><path d="M9 9v1h6v-1" fill="#ffd51fff"/><path d="M15 9v1h1v-1" fill="#f9e27cff"/><path d="M16 9v1h1v-1" fill="#000000ff"/><path d="M17 9v1h1v-1" fill="#0365caff"/><path d="M18 9v1h1v-1" fill="#000000ff"/><path d="M19 9v1h1v-1" fill="#2d2fb4ff"/><path d="M20 9v1h1v-1" fill="#000000ff"/><path d="M21 9v1h1v-1" fill="#1165a2ff"/><path d="M22 9v1h2v-1" fill="#ffffffff"/><path d="M0 10v1h1v-1" fill="#ffffffff"/><path d="M1 10v1h1v-1" fill="#000000ff"/><path d="M2 10v1h1v-1" fill="#1f2185ff"/><path d="M3 10v1h2v-1" fill="#2d2fb4ff"/><path d="M5 10v1h1v-1" fill="#0365caff"/><path d="M6 10v1h2v-1" fill="#000000ff"/><path d="M8 10v1h1v-1" fill="#0365caff"/><path d="M9 10v1h6v-1" fill="#ffd51fff"/><path d="M15 10v1h2v-1" fill="#0365caff"/><path d="M17 10v1h2v-1" fill="#000000ff"/><path d="M19 10v1h1v-1" fill="#2d2fb4ff"/><path d="M20 10v1h1v-1" fill="#000000ff"/><path d="M21 10v1h1v-1" fill="#1badbdff"/><path d="M22 10v1h2v-1" fill="#ffffffff"/><path d="M0 11v1h1v-1" fill="#ffffffff"/><path d="M1 11v1h1v-1" fill="#000000ff"/><path d="M2 11v1h1v-1" fill="#1f2185ff"/><path d="M3 11v1h1v-1" fill="#2d2fb4ff"/><path d="M4 11v1h3v-1" fill="#000000ff"/><path d="M7 11v1h1v-1" fill="#0365caff"/><path d="M8 11v1h1v-1" fill="#0dfdffff"/><path d="M9 11v1h2v-1" fill="#0365caff"/><path d="M11 11v1h3v-1" fill="#ffd51fff"/><path d="M14 11v1h1v-1" fill="#0365caff"/><path d="M15 11v1h2v-1" fill="#0dfdffff"/><path d="M17 11v1h1v-1" fill="#0365caff"/><path d="M18 11v1h1v-1" fill="#000000ff"/><path d="M19 11v1h1v-1" fill="#2d2fb4ff"/><path d="M20 11v1h1v-1" fill="#000000ff"/><path d="M21 11v1h1v-1" fill="#1badbdff"/><path d="M22 11v1h2v-1" fill="#ffffffff"/><path d="M0 12v1h1v-1" fill="#ffffffff"/><path d="M1 12v1h1v-1" fill="#000000ff"/><path d="M2 12v1h1v-1" fill="#1f2185ff"/><path d="M3 12v1h1v-1" fill="#2d2fb4ff"/><path d="M4 12v1h1v-1" fill="#0365caff"/><path d="M5 12v1h1v-1" fill="#000000ff"/><path d="M6 12v1h1v-1" fill="#0365caff"/><path d="M7 12v1h1v-1" fill="#04a5d9ff"/><path d="M8 12v1h2v-1" fill="#0dfdffff"/><path d="M10 12v1h1v-1" fill="#04a5d9ff"/><path d="M11 12v1h1v-1" fill="#0365caff"/><path d="M12 12v1h1v-1" fill="#ffd51fff"/><path d="M13 12v1h1v-1" fill="#0365caff"/><path d="M14 12v1h1v-1" fill="#04a5d9ff"/><path d="M15 12v1h1v-1" fill="#0dfdffff"/><path d="M16 12v1h1v-1" fill="#0365caff"/><path d="M17 12v1h1v-1" fill="#000000ff"/><path d="M18 12v1h1v-1" fill="#0365caff"/><path d="M19 12v1h1v-1" fill="#2d2fb4ff"/><path d="M20 12v1h1v-1" fill="#000000ff"/><path d="M21 12v1h1v-1" fill="#1165a2ff"/><path d="M22 12v1h2v-1" fill="#ffffffff"/><path d="M0 13v1h1v-1" fill="#ffffffff"/><path d="M1 13v1h1v-1" fill="#000000ff"/><path d="M2 13v1h1v-1" fill="#1f2185ff"/><path d="M3 13v1h1v-1" fill="#2d2fb4ff"/><path d="M4 13v1h3v-1" fill="#000000ff"/><path d="M7 13v1h1v-1" fill="#0365caff"/><path d="M8 13v1h1v-1" fill="#04a5d9ff"/><path d="M9 13v1h2v-1" fill="#0dfdffff"/><path d="M11 13v1h1v-1" fill="#0365caff"/><path d="M12 13v1h1v-1" fill="#ffd51fff"/><path d="M13 13v1h1v-1" fill="#0365caff"/><path d="M14 13v1h2v-1" fill="#0dfdffff"/><path d="M16 13v1h1v-1" fill="#0365caff"/><path d="M17 13v1h2v-1" fill="#000000ff"/><path d="M19 13v1h1v-1" fill="#2d2fb4ff"/><path d="M20 13v1h1v-1" fill="#000000ff"/><path d="M21 13v1h1v-1" fill="#1badbdff"/><path d="M22 13v1h2v-1" fill="#ffffffff"/><path d="M0 14v1h1v-1" fill="#ffffffff"/><path d="M1 14v1h1v-1" fill="#000000ff"/><path d="M2 14v1h1v-1" fill="#1f2185ff"/><path d="M3 14v1h1v-1" fill="#2d2fb4ff"/><path d="M4 14v1h4v-1" fill="#000000ff"/><path d="M8 14v1h1v-1" fill="#0365caff"/><path d="M9 14v1h1v-1" fill="#0dfdffff"/><path d="M10 14v1h1v-1" fill="#0365caff"/><path d="M11 14v1h1v-1" fill="#ffd51fff"/><path d="M12 14v1h2v-1" fill="#000000ff"/><path d="M14 14v1h1v-1" fill="#0365caff"/><path d="M15 14v1h1v-1" fill="#0dfdffff"/><path d="M16 14v1h3v-1" fill="#000000ff"/><path d="M19 14v1h1v-1" fill="#2d2fb4ff"/><path d="M20 14v1h1v-1" fill="#000000ff"/><path d="M21 14v1h1v-1" fill="#1badbdff"/><path d="M22 14v1h2v-1" fill="#ffffffff"/><path d="M0 15v1h1v-1" fill="#ffffffff"/><path d="M1 15v1h1v-1" fill="#000000ff"/><path d="M2 15v1h1v-1" fill="#1f2185ff"/><path d="M3 15v1h1v-1" fill="#2d2fb4ff"/><path d="M4 15v1h4v-1" fill="#000000ff"/><path d="M8 15v1h1v-1" fill="#e3b029ff"/><path d="M9 15v1h5v-1" fill="#ffd51fff"/><path d="M14 15v1h1v-1" fill="#000000ff"/><path d="M15 15v1h1v-1" fill="#f9e27cff"/><path d="M16 15v1h3v-1" fill="#000000ff"/><path d="M19 15v1h1v-1" fill="#2d2fb4ff"/><path d="M20 15v1h1v-1" fill="#000000ff"/><path d="M21 15v1h1v-1" fill="#1165a2ff"/><path d="M22 15v1h1v-1" fill="#f69a1fff"/><path d="M23 15v1h1v-1" fill="#c9600aff"/><path d="M0 16v1h1v-1" fill="#ffffffff"/><path d="M1 16v1h1v-1" fill="#000000ff"/><path d="M2 16v1h1v-1" fill="#1f2185ff"/><path d="M3 16v1h1v-1" fill="#2d2fb4ff"/><path d="M4 16v1h4v-1" fill="#000000ff"/><path d="M8 16v1h1v-1" fill="#e3b029ff"/><path d="M9 16v1h3v-1" fill="#ffd51fff"/><path d="M12 16v1h2v-1" fill="#000000ff"/><path d="M14 16v1h1v-1" fill="#ffd51fff"/><path d="M15 16v1h1v-1" fill="#f9e27cff"/><path d="M16 16v1h3v-1" fill="#000000ff"/><path d="M19 16v1h1v-1" fill="#1f2185ff"/><path d="M20 16v1h1v-1" fill="#000000ff"/><path d="M21 16v1h1v-1" fill="#1badbdff"/><path d="M22 16v1h2v-1" fill="#ffffffff"/><path d="M0 17v1h1v-1" fill="#ffffffff"/><path d="M1 17v1h1v-1" fill="#000000ff"/><path d="M2 17v1h2v-1" fill="#1f2185ff"/><path d="M4 17v1h4v-1" fill="#000000ff"/><path d="M8 17v1h1v-1" fill="#e3b029ff"/><path d="M9 17v1h1v-1" fill="#ffd51fff"/><path d="M10 17v1h1v-1" fill="#000000ff"/><path d="M11 17v1h4v-1" fill="#ffd51fff"/><path d="M15 17v1h1v-1" fill="#f9e27cff"/><path d="M16 17v1h3v-1" fill="#000000ff"/><path d="M19 17v1h1v-1" fill="#1f2185ff"/><path d="M20 17v1h1v-1" fill="#000000ff"/><path d="M21 17v1h1v-1" fill="#1badbdff"/><path d="M22 17v1h2v-1" fill="#ffffffff"/><path d="M0 18v1h2v-1" fill="#ffffffff"/><path d="M2 18v1h1v-1" fill="#000000ff"/><path d="M3 18v1h2v-1" fill="#1f2185ff"/><path d="M5 18v1h3v-1" fill="#000000ff"/><path d="M8 18v1h1v-1" fill="#e3b029ff"/><path d="M9 18v1h2v-1" fill="#ffd51fff"/><path d="M11 18v1h1v-1" fill="#278dceff"/><path d="M12 18v1h1v-1" fill="#59d2ffff"/><path d="M13 18v1h1v-1" fill="#d7f4ffff"/><path d="M14 18v1h1v-1" fill="#59d2ffff"/><path d="M15 18v1h3v-1" fill="#000000ff"/><path d="M18 18v1h1v-1" fill="#1f2185ff"/><path d="M19 18v1h1v-1" fill="#000000ff"/><path d="M20 18v1h1v-1" fill="#134293ff"/><path d="M21 18v1h3v-1" fill="#ffffffff"/><path d="M0 19v1h2v-1" fill="#c5edffff"/><path d="M2 19v1h1v-1" fill="#ffffffff"/><path d="M3 19v1h1v-1" fill="#000000ff"/><path d="M4 19v1h2v-1" fill="#1f2185ff"/><path d="M6 19v1h3v-1" fill="#000000ff"/><path d="M9 19v1h1v-1" fill="#e3b029ff"/><path d="M10 19v1h2v-1" fill="#ffd51fff"/><path d="M12 19v1h1v-1" fill="#278dceff"/><path d="M13 19v1h1v-1" fill="#59d2ffff"/><path d="M14 19v1h1v-1" fill="#d7f4ffff"/><path d="M15 19v1h1v-1" fill="#59d2ffff"/><path d="M16 19v1h1v-1" fill="#000000ff"/><path d="M17 19v1h2v-1" fill="#1f2185ff"/><path d="M19 19v1h1v-1" fill="#000000ff"/><path d="M20 19v1h1v-1" fill="#c5edffff"/><path d="M21 19v1h1v-1" fill="#1f62d6ff"/><path d="M22 19v1h2v-1" fill="#ffffffff"/><path d="M0 20v1h2v-1" fill="#ffffffff"/><path d="M2 20v1h1v-1" fill="#c5edffff"/><path d="M3 20v1h1v-1" fill="#000000ff"/><path d="M4 20v1h3v-1" fill="#1f2185ff"/><path d="M7 20v1h2v-1" fill="#000000ff"/><path d="M9 20v1h1v-1" fill="#e3b029ff"/><path d="M10 20v1h1v-1" fill="#000000ff"/><path d="M11 20v1h1v-1" fill="#ffd51fff"/><path d="M12 20v1h1v-1" fill="#278dceff"/><path d="M13 20v1h1v-1" fill="#59d2ffff"/><path d="M14 20v1h1v-1" fill="#d7f4ffff"/><path d="M15 20v1h1v-1" fill="#59d2ffff"/><path d="M16 20v1h2v-1" fill="#1f2185ff"/><path d="M18 20v1h1v-1" fill="#000000ff"/><path d="M19 20v1h1v-1" fill="#ffffffff"/><path d="M20 20v1h1v-1" fill="#c5edffff"/><path d="M21 20v1h1v-1" fill="#ffffffff"/><path d="M22 20v1h1v-1" fill="#134293ff"/><path d="M23 20v1h1v-1" fill="#ffffffff"/><path d="M0 21v1h3v-1" fill="#ffffffff"/><path d="M3 21v1h1v-1" fill="#c5edffff"/><path d="M4 21v1h1v-1" fill="#000000ff"/><path d="M5 21v1h3v-1" fill="#1f2185ff"/><path d="M8 21v1h1v-1" fill="#000000ff"/><path d="M9 21v1h2v-1" fill="#e3b029ff"/><path d="M11 21v1h1v-1" fill="#000000ff"/><path d="M12 21v1h1v-1" fill="#278dceff"/><path d="M13 21v1h2v-1" fill="#59d2ffff"/><path d="M15 21v1h1v-1" fill="#d7f4ffff"/><path d="M16 21v1h1v-1" fill="#59d2ffff"/><path d="M17 21v1h1v-1" fill="#000000ff"/><path d="M18 21v1h2v-1" fill="#ffffffff"/><path d="M20 21v1h1v-1" fill="#c5edffff"/><path d="M21 21v1h3v-1" fill="#ffffffff"/><path d="M0 22v1h1v-1" fill="#ffffffff"/><path d="M1 22v1h3v-1" fill="#000000ff"/><path d="M4 22v1h1v-1" fill="#1f2185ff"/><path d="M5 22v1h1v-1" fill="#131452ff"/><path d="M6 22v1h3v-1" fill="#1f2185ff"/><path d="M9 22v1h1v-1" fill="#000000ff"/><path d="M10 22v1h2v-1" fill="#e3b029ff"/><path d="M12 22v1h1v-1" fill="#000000ff"/><path d="M13 22v1h1v-1" fill="#278dceff"/><path d="M14 22v1h1v-1" fill="#d7f4ffff"/><path d="M15 22v1h1v-1" fill="#59d2ffff"/><path d="M16 22v1h1v-1" fill="#d7f4ffff"/><path d="M17 22v1h1v-1" fill="#1f2185ff"/><path d="M18 22v1h2v-1" fill="#000000ff"/><path d="M20 22v1h1v-1" fill="#ffffffff"/><path d="M21 22v1h3v-1" fill="#c5edffff"/><path d="M0 23v1h1v-1" fill="#000000ff"/><path d="M1 23v1h5v-1" fill="#1f2185ff"/><path d="M6 23v1h1v-1" fill="#131452ff"/><path d="M7 23v1h2v-1" fill="#1f2185ff"/><path d="M9 23v1h1v-1" fill="#131452ff"/><path d="M10 23v1h3v-1" fill="#000000ff"/><path d="M13 23v1h1v-1" fill="#278dceff"/><path d="M14 23v1h1v-1" fill="#d7f4ffff"/><path d="M15 23v1h1v-1" fill="#59d2ffff"/><path d="M16 23v1h1v-1" fill="#d7f4ffff"/><path d="M17 23v1h1v-1" fill="#131452ff"/><path d="M18 23v1h2v-1" fill="#1f2185ff"/><path d="M20 23v1h1v-1" fill="#000000ff"/><path d="M21 23v1h3v-1" fill="#ffffffff"/></svg>